<svg xmlns="http://www.w3.org/2000/svg" width="69" height="69" viewBox="0 0 69 69"><defs><style>.a{fill:#f6f6f6;}.b{fill:#e21f26;}</style></defs><g transform="translate(-513 -2461)"><circle class="a" cx="34.5" cy="34.5" r="34.5" transform="translate(513 2461)"/><g transform="translate(523 2472)"><path class="b" d="M42.28,14.96H40.12V8.48a.72.72,0,0,0-.72-.72H29.32a.72.72,0,0,0-.72.72V43.76H17.08V32.24h.72a.72.72,0,0,0,.72-.72V29.36h.72a.72.72,0,0,0,.72-.72V26.271a5.057,5.057,0,0,0,3.6-4.831V7.659A2.88,2.88,0,0,0,25.72,4.88V2.72A.72.72,0,0,0,25,2H7.72A.72.72,0,0,0,7,2.72V4.88A2.88,2.88,0,0,0,9.16,7.659V21.44a5.057,5.057,0,0,0,3.6,4.831V28.64a.72.72,0,0,0,.72.72h.72v2.16a.72.72,0,0,0,.72.72h.72V44.48a.72.72,0,0,0,.72.72H29.32a.72.72,0,0,0,.72-.72V9.2h8.64v5.76H36.52a.72.72,0,0,0-.72.72V27.2a.72.72,0,0,0,.72.72h.72v2.16a.72.72,0,0,0,.72.72h.72v3.6h1.44V30.8h.72a.72.72,0,0,0,.72-.72V27.92h.72A.72.72,0,0,0,43,27.2V15.68A.72.72,0,0,0,42.28,14.96ZM8.44,4.88V3.44H24.28V4.88a1.444,1.444,0,0,1-1.44,1.44H9.88A1.444,1.444,0,0,1,8.44,4.88ZM10.6,21.44V7.76H22.12V21.44a3.6,3.6,0,0,1-3.6,3.6H14.2a3.6,3.6,0,0,1-3.6-3.6Zm3.6,6.48V26.48h4.32v1.44Zm1.44,2.88V29.36h1.44V30.8Zm24.48-1.44H38.68V27.92h1.44Zm1.44-11.52H39.4v1.44h2.16v1.44H39.4v1.44h2.16V23.6H39.4v1.44h2.16v1.44H37.24V16.4h4.32Z"/><path class="b" d="M16.16,23.92a.72.72,0,0,0,.72.72h2.88a.72.72,0,0,0,.72-.72V22.48h1.44a.72.72,0,0,0,.72-.72V18.88a.72.72,0,0,0-.72-.72H20.48V16.72a.72.72,0,0,0-.72-.72H16.88a.72.72,0,0,0-.72.72v1.44H14.72a.72.72,0,0,0-.72.72v2.88a.72.72,0,0,0,.72.72h1.44Zm-.72-2.88V19.6h1.44a.72.72,0,0,0,.72-.72V17.44h1.44v1.44a.72.72,0,0,0,.72.72H21.2v1.44H19.76a.72.72,0,0,0-.72.72V23.2H17.6V21.76a.72.72,0,0,0-.72-.72Z" transform="translate(-1.96 -3.92)"/></g></g></svg>