<svg xmlns="http://www.w3.org/2000/svg" width="4in" height="383.938" viewBox="0 0 0.499 0.499" shape-rendering="geometricPrecision" text-rendering="geometricPrecision" image-rendering="optimizeQuality" fill-rule="evenodd" clip-rule="evenodd"><defs><style>.str0{stroke:#fff;stroke-width:.0231088}.fil2{fill:none;fill-rule:nonzero}.fil0{fill:#b01117}.fil3{fill:#0d422f}.fil1{fill:#fff;fill-rule:nonzero}</style></defs><symbol id="Fm24-51-0" viewBox="19.841 0.458 1.211 0.605"><path class="fil0" d="M19.841.458a.605.605 0 1 0 1.21 0h-1.21z"/></symbol><symbol id="Symbol13" viewBox="15.313 -18.308 1.211 0.605"><path class="fil0" d="M15.313-18.308a.605.605 0 1 0 1.211 0h-1.21z"/></symbol><symbol id="Symbol15" viewBox="8.928 -13.39 1.211 1.211"><path class="fil1" d="M10.093-12.898l-.001.004h-.003c-.004 0-.003-.001-.006-.003h-.005s0-.002-.002-.002c.001.002 0 .004-.002.005 0 0-.01 0-.008.001.003.002.006 0 .007.005.002.006.001.001-.003.002-.004.002-.018.006-.017.012-.003 0 0-.003-.004-.002h-.004l-.002.002-.002-.001-.005.001-.003.007h.003v.007c-.003-.002-.004.002-.003.005-.006-.002-.006.007-.01.01-.003.001-.003 0-.004-.004a.028.028 0 0 1 0-.013c.002-.005.008-.008.013-.012.003-.003.004-.008.008-.01-.005-.002-.007.006-.012.007 0-.005-.004-.005-.008-.003a.019.019 0 0 0-.004.006c-.002.003 0 0 0 .003h-.002c-.003-.002-.002.002-.006.001-.002 0 0-.002-.002-.003-.004 0-.005.002-.011.003-.007 0-.011 0-.016.006l-.006.007c0 .001-.004.006 0 .003v.001c.002.002.004.004.005 0 .005.001.005.004.008.006v-.008h.001c0 .024.004.018.004.018-.007 0-.001.005 0 .01-.003 0-.002-.002-.003-.003l-.003.003c0-.003.002-.026-.003-.014-.001.003 0 .006-.003.01a.055.055 0 0 1-.008.01l-.004.002H9.96l-.004.005v.005h-.003c0 .006.004.006.004.01s-.004.007-.009.006c0-.003.002-.012-.003-.01 0-.003.002-.003-.002-.005l-.008.003c.003-.006.004-.005-.001-.003l-.005.002c-.003.004.003.001.003.006.002 0 .001-.003.003-.002.004 0 .004 0 .003.003-.002.002-.006 0-.006.005 0 .002.004.005.005.008v.004c0 .002.002 0 .001.003 0 .005-.007.011-.01.014a.018.018 0 0 1-.007.004c-.002 0-.007.001-.008.003 0 0 0 .01-.005.007-.002-.001.002-.005.002-.008-.01 0-.01.008-.005.013.003.004.006.008.002.014-.002.002-.005.003-.008.007v-.005l-.004-.001c-.002-.003-.002-.003-.005-.004-.003-.002 0-.004-.003-.001-.002.001 0 .006 0 .007 0 .006.004.005.007.009.002.002.002.008.004.012-.005.003-.008-.008-.01-.011-.001-.003-.004-.005-.005-.006-.001-.004.002-.006.002-.008 0-.003-.003-.012-.006-.013 0 0-.003.003-.005.002-.004-.003.001-.006-.003-.006a.025.025 0 0 0-.005-.01l-.01.003-.013.014c-.003.002-.002 0-.004.003v.011c-.002.003-.004.005-.007.004s-.005-.01-.006-.012l-.004-.011v-.006c-.003-.004-.002 0-.005 0-.001-.001-.01-.004-.002-.005-.004 0-.005-.002-.007-.004-.005-.002-.007-.002-.013-.002h-.01l-.003-.004H9.78c-.005 0-.006-.002-.01-.005-.004-.002-.007-.004-.006.002l.005.006.008.002c-.01.002-.001.002.004.002l.001-.005c.002.001.002.005.003.006.003-.003 0-.001.003 0l.004.005c-.002.001-.002.002-.002.005-.002 0-.004.003-.005.004-.003.003-.005.003-.009.005l-.008.004c-.003.002-.007.005-.01.005-.008 0-.004-.003-.007-.01-.002-.003-.007-.006-.009-.01-.004-.005-.005-.013-.01-.018-.004.003-.007-.006-.01-.007.002-.002.004 0 .006 0a.013.013 0 0 0 .005-.007c.002-.006.002-.008-.004-.008v.002l-.006-.002s-.004.002-.002.002c-.002 0-.004 0-.006-.002v.003c-.002 0-.005-.021-.01-.013-.002.002-.002.001-.004 0l.004.006v-.002l.002.002c-.002 0-.007.009-.01.001 0 .002-.002 0-.003-.001h.003l-.004-.008c-.001-.003-.005-.004-.007-.006-.004-.002-.01-.01-.01-.001.002 0 .006.002.005.005.004 0 .009.003.01.006h-.004v.001h.002c-.002.004-.008.012-.012.005.015 0 .004-.007-.002-.011l-.007-.007c-.002 0-.005.004-.006.004-.002 0-.005-.002-.006 0-.002 0 0 .002-.001.003l-.007.004-.002.004.001.002c0 .002-.001 0-.002.001-.003.003-.008.005-.011.006-.002-.002-.003 0-.005-.002-.004-.002-.002 0-.004-.003v-.014c.006-.004.024.005.016-.01 0-.002-.002-.003-.004-.004 0-.002-.004 0-.001-.003.002-.002.01.003.005-.004.002 0 .003.002.006.001l.003-.005c.002-.001.008-.001.005-.005a.02.02 0 0 0 .008-.003c.005-.003.003 0 .003-.005 0-.002-.002-.005 0-.007.004-.003.005-.003.004.001h.002v.003l.004-.001c0 .007-.006.001-.006.006l.004.001c0-.004.007 0 .008 0 .004-.001.006-.006.01-.002-.002-.003.001-.002.004-.002 0-.002 0-.008.003-.01.002 0 .002.006.006 0l-.003-.002c-.001 0-.004.004-.005 0h.003l-.002-.001.007-.003c.004 0 .01 0 .012-.003-.006-.003-.015.005-.02-.001-.007-.008.008-.011.008-.016 0-.003-.005-.004-.007-.003-.003.001-.003.005-.004.007s-.004.002-.006.004c-.003.004 0 .007 0 .01.004 0 .001.002 0 .005l-.003.006h.002v.001l-.006.003c-.002 0 0 .003-.004.002v-.003c-.002-.002-.004-.01-.007-.011-.003.005-.006.004-.011.004v-.003c-.005 0 .003-.004-.003-.003.001-.005.002-.01.009-.01v-.003c.001 0 .007-.002.007-.005H9.67a.01.01 0 0 1 .004-.002c0-.004.006-.011.01-.012-.003-.001-.007.001-.01.002.002-.001.003-.003.006-.003 0-.002.001-.003.002-.003.001.002 0 .002.003.003.001-.004-.002-.002.001-.005.001.004.003 0 .002-.002.002 0 .005 0 .005.003v-.003h.006c-.003-.001-.004-.004.002-.004-.003.003.004 0 .005 0 .001.002.002.001.002.003v-.003h.004v.002c.002 0 0-.002.004 0 .001 0 .003.001 0 .001.002.002.01 0 .007.004.002.001.007 0 .011.002.002 0 .008.002.01.005.002.01-.02.002-.022.002l.007.008c.002.003 0 .002.004.004h.004c0-.002-.008-.002-.003-.005.002.003.005.001.008.002l-.002-.003c.002 0 .004-.004.005-.004l.005.001c.002-.001 0-.009-.001-.01.003 0 .01.003.004.003 0 .008.008 0 .009 0l.012-.006c-.003.009.012-.004.012.003.009-.004-.005-.009 0-.01l.01.004.01.003s.003.005.004.001c0-.002-.002-.001-.003-.003l-.003-.002v-.004l.005-.009c.003-.002.01-.001.009.003h-.002c0 .003.001.015.004.014 0 .003 0 .005-.003.006-.001.002-.005.002-.006.004l.008-.002a.008.008 0 0 0 .003-.003v-.004c.008-.006.007.007.012.004 0 0-.004 0-.004-.002 0-.003 0-.005-.004-.006-.003-.001-.002.003-.005-.002l-.001-.008c0-.002.003 0 .003-.005.002.001.001.005.002.006.002.002.006 0 .007.003 0-.003-.01-.005-.001-.005 0-.002-.002-.001-.003-.002h.009l.003.003c.004 0-.003-.005-.004-.007.004-.004.011 0 .015-.004.004-.002-.002 0 0-.003l.005-.003.007-.002.007-.004.006.002c.005 0 .005-.004.01-.003v-.002c.004-.002.004-.005.011-.004l-.002.003H9.9l-.002.002c.004-.001.018-.002.017.005 0 .002-.014.01-.017.011.003 0 .008 0 .008-.003.003 0 .005-.004.007-.003.003 0-.002.003-.003.003h.004v.001h.006c.006-.007.027-.009.034-.011.003-.001.012-.009.015-.003.002.005-.014.008-.018.01a.077.077 0 0 0-.01.003l.005.001c.002 0 .004-.002.006 0s0 .006 0 .007l.006.005c.002 0 .001-.004.005-.005h.006c.002 0 .003.002.005.003l-.001-.003h.006c0-.002-.003-.001-.003-.003.005-.001.004-.002.009-.002l.008.001c-.002.006.004-.002.01.001L10-12.92c.004 0 .005.002.009.003h.009c.008-.002.008.003.012.008v-.003h.012c.002 0 .004-.003.007-.001-.008.006.008.003.001 0 .004-.003.016-.002.022.001l.007.004a.03.03 0 0 1 .005.002h.002v.005c.004.002.003 0 .002-.002.001 0 .008 0 .01.002.002.005-.005.002-.006.003zm-.193.206c-.002 0-.007-.006-.009-.008-.002-.004-.004-.008-.007-.01l-.007-.008h.004c.005.001.019.013.019.017.003-.002.006 0 .006.002-.004.002 0 .007-.006.007zm-.248-.104c.004 0-.003.005-.004.006 0-.002.002-.005.004-.006zm.117.072c0 .003-.001.004-.003.006a.041.041 0 0 1-.009.012c-.004.004-.012.01-.014.016-.001.005.003.01.003.014.002.007.002.012-.003.016-.002.002-.01.005-.01.008 0 .005.005.007.001.011 0 .002-.005.003-.005.004v.007a.037.037 0 0 1-.006.008c-.005.005-.02.014-.027.007-.002-.002 0-.004-.002-.008-.001-.006-.006-.01-.008-.015a.066.066 0 0 0-.005-.014c-.004-.009 0-.01.001-.017.002-.008-.004-.024-.012-.026a.014.014 0 0 0 .002-.01c0-.006 0-.003-.006-.004-.004-.001-.003-.003-.006-.004h-.01c-.003.001-.003.003-.007.003h-.007c-.004 0-.004.002-.007.001-.004 0-.004-.003-.006-.004a.141.141 0 0 1-.012-.011c-.003-.004-.003-.006-.003-.01 0-.002.002-.007 0-.01l.001-.001h-.004c-.001-.004.005-.01.006-.013l.005-.007.005-.005c.002-.002.001-.005.002-.009.001-.002.006.002.004-.004h.004c0-.007.002-.003.008-.003.004 0 .006-.002.009-.004a.014.014 0 0 1 .008 0l.001-.001c.002-.002.004-.01.009-.005-.002.001-.002.003-.003.005.003-.001.008-.003.01 0l-.002.001v.001c.002.003-.002.004 0 .007.002.002.009.003.011.003l.001.002h.004l.003.001c.005 0 .005.001.005-.006l.02.005c.006 0 .007-.002.01.004.004.005.006.011.008.018l.008.015.01.009c.005.005.007.002.014.002.005 0 .004-.001.004.005zm-.187-.104c-.005-.001.002-.007-.007-.005v-.003h.008c-.001-.004-.003-.004-.007-.003-.002 0 0-.007.008-.005.003-.004 0 0 .003 0l.007.002c.007 0 .022-.01.02.001.002 0 .006 0 .005.003-.001.006-.004.002-.01.005-.007.004-.007.006-.015.006h-.012zm-.038-.03c-.001 0-.003-.002-.004-.001 0 0-.023.03-.023.016-.003.002-.003-.002-.003.004-.011.001-.008.009-.012.017-.001.002-.005.001-.005.003-.001.002.002.003.001.005-.001.003 0 .011-.004.013-.002.002-.02-.004-.023-.007-.008-.005-.011-.017-.008-.024l-.005.003s-.004-.007-.002-.005c-.001-.001.003-.003.003-.004-.001-.002-.005 0-.004 0-.001-.002-.013-.016-.002-.015 0-.005.003-.006.008-.006-.003-.008 0-.012-.011-.01.007 0 .005.005-.001.005-.008 0-.004-.006-.005-.01.005-.002.01.002.016.001-.007-.013-.027 0-.019-.016H9.44a.038.038 0 0 0-.017-.026c-.006-.004-.027-.006-.032-.002v.002c-.002.001-.007-.002-.01-.004l.003-.001c-.002 0-.01-.002-.01-.004 0-.004.017 0 .019-.006-.008 0-.036 0-.021-.01.004-.002.012-.002.017-.003.002 0 .007 0 .008-.002 0 0 .003-.009 0-.009h-.009c0-.004.006-.004.009-.005.006-.004.014-.005.017-.007.001-.001-.002-.004.002-.006.003-.001.003 0 .006.001l.012.003-.01-.005c.002.001.015-.007.02-.005.003.002 0 .008 0 .008.006.003.005-.004.004-.008.006 0 .01.006.016.008 0-.004-.007-.007-.007-.01.01 0 .017.008.027.008.004 0-.011-.009-.01-.008-.003-.005.005-.001.007 0 0-.004-.004-.003-.005-.006a.053.053 0 0 1 .017-.003c.005 0 .009.003.013.002.008 0 .002-.003.008-.005s.05-.006.052.001c-.01 0-.025-.001-.032.004.01 0 .02-.002.03 0 .006 0 .01.002.018.001v.002c-.008.002-.045.003-.047.01.009.002.024-.008.032-.002-.003.001-.007 0-.007.004.005 0 .01 0 .01-.006.014.002.01.003.002.014l.019-.009a.13.13 0 0 1 .018-.004h.01c.005.006-.004.005-.006.007-.006.004-.01.004-.017.005h.01c-.002.004-.03.022-.022.028 0 0 .008-.004.011 0-.005.003-.002 0-.005.004.011 0 .008.002.006.011-.002-.005.002-.006-.004-.007l-.007.001c0 .005.01.004.01.011-.009.001-.001.006.002.009l-.014.003c0 .003.014 0 .005.006-.003.003-.012 0-.014 0h.002c0 .002-.001.002-.002.003.005-.002.007-.002.008.002.003.008-.006.002-.007.004.003 0 .01.008.01.012-.002.008-.012-.001-.01-.001-.02 0-.002.013.006.007-.002.005-.016.009-.022.011-.006.003-.006.006-.014.004zm-.183.277c-.003.003-.007 0-.01-.003.004 0 .008 0 .01.003zm-.018-.014c-.002-.001-.004-.004-.007-.004s-.004.003-.006.002c-.006-.002-.008-.003-.002-.006.004-.003.013 0 .017.002.006.002.02.005.024.01a.065.065 0 0 1-.026-.004zm.039.015c-.004 0-.008-.002-.008-.006.001-.006.01-.002.014-.001.006 0 .017-.001.02.003-.007.003-.019.002-.026.004zm.036-.155c-.004.005-.007 0-.01-.003.004 0 .006.001.01.003zm.034.014l-.01-.005c-.004 0-.01.002-.01 0-.002-.002.008-.019.01-.02.005-.003 0 .008 0 .008.01.003.016.006.01.017zm-.123-.093c.001.003-.001.005-.005.005-.006 0 .004-.005.005-.005zm.007.004c.014-.01.003.016 0 0zm.022-.04c.003.004-.006.006-.01.005-.003-.006.007-.01.01-.006zm.107.347c0 .004-.006.007-.008.01-.003.006 0 .016-.004.023-.004.006-.005.005-.01.007a.018.018 0 0 0-.01.006c-.004.005-.002.015-.009.019v-.002c-.002 0-.004.007-.006.01-.004.004-.007.002-.013.001.001.005.006.003.004.01-.003.005-.01.005-.015.005.002.006 0 .008-.006.006-.001.006.003.002.002.006l-.002.004v.003c-.002.001-.005 0-.006.002-.002.006.004.004.005.006 0 .003-.006.007-.006.01-.005 0-.002.007 0 .01.001.004.007.005.008.007-.005 0-.01.002-.016-.001a.059.059 0 0 1-.007-.009h-.002l.001-.002h-.002c.001-.003-.006-.01.003-.011v-.001l-.006-.005.003-.003.001.002c0-.001-.002-.005 0-.006 0 .003 0 .002.002.004 0-.005 0-.009.002-.013-.002 0-.004.01-.006.004l.002-.004v-.002c0-.007 0-.01.003-.015.002-.005 0-.01.001-.016l.003-.014c0-.008.003-.02-.004-.026-.004-.003-.009-.004-.012-.007-.003-.003-.004-.01-.006-.013a.03.03 0 0 0-.003-.006l-.005-.003c-.002-.005.002-.007.004-.01-.005 0-.003-.001-.003-.006a.026.026 0 0 0 .008-.008c.002-.004 0-.007 0-.01-.003 0-.006 0-.004.006-.007-.003-.018-.006-.023-.01-.003-.003-.006-.01-.012-.015 0 0-.012-.001-.016-.003-.003-.002-.005-.007-.01-.008l-.008.002c-.007-.001-.05-.015-.039-.023l-.021-.025c-.006-.006-.015-.023-.023-.022.001.01.029.034.022.041a.05.05 0 0 0-.01-.013l-.008-.007c-.003-.003 0-.004-.001-.006l-.011-.019c-.005-.007-.013-.007-.018-.012a.067.067 0 0 1-.017-.04c0-.007.004-.015 0-.023-.003-.008-.011-.01-.017-.017.012-.001.019.01.026.018 0-.008-.007-.014-.013-.018-.008-.004-.01-.005-.016-.012l-.01-.016-.006-.003-.004-.006c-.01-.002-.018-.012-.03-.015-.005-.002-.011 0-.018-.002-.005-.001-.014-.01-.015-.002l.001.002a.034.034 0 0 0-.015.006c-.002-.006.002-.01.008-.01-.009-.006-.011.007-.019.01l.004.004c-.013.008-.036.03-.05.028.01-.012.03-.01.034-.029h-.006c-.003.004-.01.002-.015.003a.01.01 0 0 0-.003-.01c-.005.01-.015-.007-.014-.01.002-.015.021-.004.02-.02-.005 0-.013.004-.018.003-.005-.001-.005-.006-.011-.008.004-.005.01-.004.015-.008 0 .005.006.005.01.004-.003-.008-.012-.008-.016-.013-.007-.009-.001-.004.007-.009.006-.004.006-.009.014-.011.006-.002.015-.007.022-.006v.003c.01-.002.016.002.026.002l.03.003c.012.001.017.006.03.003.007-.001.016-.006.024-.006-.004.005-.01.004-.015.01a.113.113 0 0 1 .02-.01c.001 0-.001-.003.002-.003s.004.005.006.005c.003 0 .005.005.007-.003.003.01.01.002.018.003a.097.097 0 0 1 .028.01c-.002 0-.003.003-.004.003.01 0 .027-.004.031.009.001-.009-.003-.009.005-.013.006-.002.007 0 .012.001.01.002.02.006.025-.004-.003 0-.004-.003-.007-.004l.005-.006c.005.001.009.004.009.009h-.003c.002.004-.002.003.003.004 0 .005-.001.003.004.007-.003-.009.007-.007.007-.014-.004.004-.008.004-.01 0 .012.001-.01-.011 0-.018.011-.008.012.006.016.011.003.004.01.006.01.007.002 0 .005-.001.009.003 0 0-.004.006 0 .008.009.004.01-.018.013-.02-.005 0-.018-.002-.02-.006h.008c-.005-.007-.014 0-.01-.013.003-.01.011-.01.02-.01-.008.003-.01.02.002.018-.006-.006-.007-.015.004-.017.007-.002.007-.003.011.003.003.004-.002.006.002.008.003.002.014-.006.02-.004.008.002.009.009.02.009l-.003.002.015.004-.001.002c.003 0 .004.003.007.004-.002 0-.002 0-.003.002l.005.001c-.017.004.017.012.02.017.004.004.004 0 .001.005l-.007.007c-.006.002-.003 0-.01-.005-.005-.002-.007-.006-.01 0 .005.007.011.011.017.016l-.002.008-.018-.009c.003.005.012.008.012.014-.007-.004-.016-.003-.022-.007-.005-.005-.006-.011-.015-.012-.003 0-.014.008-.015 0 0-.007.014-.004.019-.005-.006-.007.006-.007.005-.013 0-.005-.006-.008-.009-.01-.007-.006-.013-.01-.02-.012a.08.08 0 0 0 .003.003c-.008.003-.016 0-.023.001.004.002.02.01.007.012.006.007.003.014-.006.015-.003.003.001.003-.005.003.002.005.028.013.015.016l-.006-.002a.04.04 0 0 0-.007.003c-.005 0-.007 0-.01-.005.004-.001.01-.018 0-.017.01.01-.013.005-.017.005.005.002.01.005.016.004-.002.006-.005.01-.012.007-.001.007-.012.002-.018.002.003 0 .014.002.014.005.001.004-.006.005-.008.008a.026.026 0 0 0-.007.013c0 .009.002.005.006.01.002.002.002.007.004.008.003.002.004-.001.007 0l.012.004a.073.073 0 0 0 .025.007c0 .007.002.024.01.023.01-.001.006-.018.001-.022.015 0 .017-.018.004-.023.002-.003.001-.004.002-.007h.003c-.01-.013-.001-.02.012-.017.012.003.024.007.02.022.007-.002.006.005.013.003.006-.001.006-.008.01-.013.002.005.016.02.011.023.005.007.012.01.02.01-.004.004-.01.004-.013.009.006-.001.016-.007.02 0 .002.008-.007.01-.013.012-.007.003-.006.004-.014.005H9.4c-.007.003-.012.014-.02.012l.005.002a.03.03 0 0 0-.007.009c.007-.005.023-.024.03-.014.002.004-.008.01.003.014.008.004.01 0 .016-.004-.003.007-.011.014-.02.015 0 0-.009.006-.006-.001.001-.002.01-.006.01-.005-.01-.002-.035.008-.028.02-.004.002-.011.002-.014.005l-.007.014c-.004-.004-.002-.001-.005-.002.001.006.004.009.002.014-.002.006-.011.008-.015.013-.007.008.003.036-.002.036-.004 0-.012-.02-.016-.023h-.01c-.006-.001-.014-.002-.012.006-.01.003-.023-.008-.03.004-.006.009-.006.033.004.042.005.004.015.006.02.002.006-.006.001-.013.011-.014.012 0 .004.018 0 .024.005.002.018-.004.023.003.005.008-.006.017.005.024h.014c.002-.005.013-.013.018-.012-.003.002-.004.007 0 .01l-.001-.005c.001-.002.003-.001.003-.004.005 0 .008.005.013.005.002 0 .007-.004.01-.001-.004.002 0 .002.002.002 0 .004.01.008.014.01.006 0 .013 0 .013.01.005 0 0 .006 0 .007.002 0 .001-.003.002-.003l.005.001-.002.004c.004-.001.002-.002.007-.002l.006.003c-.004.002.006.001.009.002a.02.02 0 0 1 .01.004c.004.003.004 0 .006.005v.006zm-.442-.263c-.004-.006.003-.007.007-.01v.003a.016.016 0 0 1-.007.007zm-.05-.018c-.01 0-.005-.006 0 0zm.174-.111c.004-.004.022 0 .026 0 .014.003.012.005 0 .011-.006.004-.009.015-.017.014a.378.378 0 0 0-.004.003.014.014 0 0 0-.012-.008c.005-.005.005-.018.007-.02zm.027-.014c-.002.004-.002.003-.006.004l.002-.003.004-.001zm.009-.014c0 .005-.003.008-.006.01-.002-.002-.003.001-.005-.003-.005.005-.013.013-.02.005.013-.002.017-.014.03-.012zm.007-.002c-.003 0-.005 0-.006-.004.004 0 .005.001.006.004zm.003.009c-.004 0-.004-.002-.006-.002a.01.01 0 0 0 .005 0v.002zm.015-.013c-.001.002-.002.002-.004.002.004.005-.001.005-.006.006-.002-.001-.004-.002-.005-.005.005-.003.01-.003.015-.003zm.001-.003h-.016c.004-.003.013-.005.016 0zm.017.023c.001.007-.019.01-.024.012-.003 0-.01.003-.012-.001 0-.004.01-.002.012-.004-.005 0-.02.003-.024 0s.002-.01.008-.012c.003.001.026.01.026.007 0-.002-.003 0-.004-.001-.004-.006-.001-.01.005-.008-.001 0 .013.01.013.007zm.004-.013c-.004.002-.006 0-.006-.005a.014.014 0 0 1 .006.005zm.022-.005c-.006-.002-.02-.003-.024-.007a.05.05 0 0 0 .004 0c-.002-.002-.004-.005-.007-.006.008-.003.03.001.027.013zm.002-.02h-.006v-.003c.004-.001.005 0 .006.004zm.013.017c-.005.002-.009-.001-.01-.007.003 0 .021.004.01.007zm-.001-.024h.006l-.004-.004.01-.002c-.001-.003-.003-.001-.005-.001-.001-.005.029.01.028.009.01.005.013.014-.002.012.001.004-.001.003-.002.005a.022.022 0 0 1-.024-.004l.01-.003c-.005-.005-.013 0-.019-.005l.002-.007zm.087.063c-.003 0-.005.002-.008.004-.007.001-.011-.001-.012-.008.007 0 .015-.001.02.004zm-.07-.033l.002-.003c.004-.001.006-.002.008.002a.013.013 0 0 1-.01.001zm.007.024c-.01-.003-.005-.01-.01-.018.011-.003.014.01.026.01.006 0 .025-.009.03-.002.007.011-.042.009-.046.01zm-.018.004c.004-.003.014 0 .019.002-.003.004-.006.01-.012.008 0 .004-.002.003-.003.005-.008.003-.007-.012-.004-.015zm.007-.009c.001.008-.011.003-.014 0 .002-.003.012-.006.014 0zm-.012-.02c.001-.005.006-.004.011-.004v.003a.053.053 0 0 1-.011.001zm.001.003c.006-.001.013.002.008.008-.005 0-.018-.006-.008-.008zm-.028.036c.007.004.012 0 .005-.007l.01-.002c.005 0 .01.005.003.008.01.004.009.013-.002.014-.004-.002-.016-.008-.016-.013zm-.009 0c-.004.001-.006-.001-.01-.004.004-.004.012-.003.01.003zm.003-.019c0 .005-.004 0-.005 0 0 0 .005-.003.005 0zm.028.006h-.003c.001 0 .001-.003.003 0zm-.026-.03l.008.002c-.004.001-.006.003-.008-.001zm.006.02l-.001-.006.01.003a.02.02 0 0 0-.005-.006c.006.003.013 0 .014.006 0 .007-.003.009-.01.01 0-.006-.003-.008-.008-.005-.006-.001-.012-.005-.012-.011.006 0 .008.005.012.008zm-.026.018s.003.003 0 0zm.01.037c0 .004-.003.005-.007.006l-.005-.001a.036.036 0 0 1 .012-.005zm-.007-.001c-.007.001-.012.007-.02.005-.007-.002-.008-.007-.018-.006a.137.137 0 0 0-.003-.004c.003-.002.022-.003.02-.005-.002-.004-.018 0-.023-.002a.019.019 0 0 1 .01-.005c-.005-.003-.01 0-.015-.001.003-.006.003-.008.01-.011.005-.002.012-.006.01.002a.014.014 0 0 1 .013-.001c0 .001 0 .003-.002.004a.037.037 0 0 0 .007-.002l-.002-.005c.007 0 .007.01.01.01.007 0-.002-.007 0-.01.006-.007.013.007.015.01.004.008.008.008.016.013-.002.001-.003.003-.007.003.01.007-.017.004-.021.005zm.064-.112l.023-.005c.001 0 .005-.004.01-.003l.019.006c-.003-.005-.01-.006-.015-.005.005-.008.02-.007.026-.004-.002-.009.023.001.024-.006.006 0 .014.002.016.004.006-.001.028 0 .027.004-.001.008-.026.003-.03.01.005 0 .014-.004.017 0-.01.002-.022.014-.032.012.003.001.002.003.004.004-.005.002-.009.001-.014 0l.004.003c-.006.007-.014 0-.021.005v.002c.003-.002.015-.005.015.001 0 .001-.008 0-.007.002.005.005 0 .007-.007.005.001.004.002.006-.003.007v.003l.004-.002c.001.007-.011.011-.014.006-.008.001-.029.005-.034-.003.004-.002.007-.004.004-.009.008-.001.021.01.025-.002-.004.004-.009.006-.012.001a.079.079 0 0 1 .004-.002c-.023.005-.005-.015.008-.003l.004-.005c-.007 0-.02-.005-.021-.012.008 0 .02.008.027.005-.005 0-.008-.003-.012-.004v-.002c.006-.001.02-.003.025-.006h-.009a.018.018 0 0 1 .01-.005c-.01 0-.015.005-.023.008-.005 0-.028.004-.013-.005-.008.001-.008.006-.017.004-.006-.002-.006-.005-.012-.007v-.002zm.442.012c-.013-.001.004-.006.008-.007l-.002.004.007-.003.002.005.003-.004c.003 0 .003-.004.01-.001l-.002.003h.004c0 .002.019.012.021.011 0 .006.003.001.006.005-.003 0-.007.003-.01.004-.002 0-.003-.005-.009 0 0-.003.004-.005.002-.008s-.004.001-.003-.004h-.007c0 .006-.005.015-.01.02-.002-.003-.01-.007-.01-.009 0 0 .009-.002.01-.004l-.012.002c.001-.005.013-.005.013-.006 0-.003-.009-.002-.009-.002-.001 0-.002.003-.004.003-.004.002-.004-.002-.007-.002 0 .007-.005-.001-.006-.003.003 0 .003.002.005.003v-.007zm.043-.008c.003-.006.002-.004.007-.006l-.001.003c.004.001.011-.004.016.002-.005.003-.027.014-.031.003h.006c-.001-.005-.01 0-.01-.003-.003-.005.011-.004.013 0zm.114-.013c.007 0 .013-.003.007.005-.004.005-.017.004-.01-.002-.003 0-.011.004-.012-.001.007.001.008-.001.015-.002zm.023.002l.004-.005.006-.002c.002 0 .004-.003.007-.003l-.003.005h.006c0 .007-.01-.004-.008.004-.006 0-.014.001-.017.005 0-.003.002-.002.005-.004zm.013.003c-.003.005-.004.002-.006 0a.03.03 0 0 1 .013-.002v.002s-.007.005-.007 0zm.01.001c.002 0 .001 0 .002.002-.003 0-.005.002-.006-.001h.004zm.001-.008c.006-.004.006 0 .01.004h-.013c.002-.002.003-.001.003-.004zm.025-.001c-.005 0-.009.008-.014 0 .005.002.009-.003.014 0zm-.42-.41a.605.605 0 1 0 0 1.21.605.605 0 0 0 0-1.21z"/></symbol><symbol id="Symbol28" viewBox="113.603 -261.892 1.211 1.419"><path class="fil1" d="M114.708-260.766a.636.636 0 0 1-.405.283.468.468 0 0 1-.19 0 .644.644 0 0 1-.409-.283c-.08-.142-.112-.514-.099-.675.03-.303.3-.45.603-.45s.573.147.602.45c.014.161-.023.533-.102.675z"/></symbol><symbol id="Symbol29" viewBox="-5116.16 1280.65 3838.62 3838.62"><path class="fil1" d="M-5116.16 5119.27c.072-10233.8.884-10234.5 1.21-.056-.342 0-.903-.072-1.21.056z"/></symbol><symbol id="Fm25-52-0" viewBox="15.323 3.874 1.211 0.605"><path class="fil0" d="M15.323 3.874a.605.605 0 1 0 1.21 0h-1.21z"/></symbol><symbol id="Fm26-53-0" viewBox="15.323 7.333 1.211 0.605"><path class="fil0" d="M15.323 7.333a.605.605 0 1 0 1.21 0h-1.21z"/></symbol><symbol id="Symbol7" viewBox="15.313 -9.617 1.211 0.605"><path class="fil0" d="M15.313-9.617a.605.605 0 1 0 1.211 0h-1.21z"/></symbol><symbol id="Fm19-45-0" viewBox="8.923 -2.439 1.211 1.204"><path class="fil1" d="M9.54-1.847c-.014 0-.028-.002-.032-.018.008-.004.012-.008.015-.017a.13.13 0 0 0 .003-.037c0-.013.001-.027.006-.039.014-.036.084-.036.098 0a.114.114 0 0 1 .006.039c0 .011 0 .026.004.037.002.01.006.013.014.017-.004.016-.018.018-.031.018h-.084zM9.4-1.97c-.005.072-.121.072-.126 0l-.004-.052c-.004-.072.138-.072.133 0l-.003.052zm.632-.198l-.039.016-.05.08-.056.019-.042-.04-.188.073-.01.003-.122-.094.069-.03.087.031.084-.04-.174-.101.089-.026.24.06c.022-.008.04-.015.058-.02a.603.603 0 1 0-.733.936v-.001l-.001-.031-.007-.27v-.05l.002-.113c0-.01-.017-.01-.018 0l-.003.235c-.026-.002-.04-.012-.046-.047l-.002-.216c.002-.053.042-.104.1-.104h.127a.117.117 0 0 1 .062.02l.053.039-.054.023c-.008.003-.013.015-.014.022l-.003.042h.008l.003-.036c.001-.008.004-.013.01-.015a.261.261 0 0 1 .082-.02h.088c.05 0 .076.043.078.092l.011.192c-.005.031-.013.04-.036.042l-.015-.21c0-.009-.011-.009-.01 0l.007.123a.373.373 0 0 1 0 .056l-.02.257.003.037h.004v-.01a.617.617 0 0 0 .48-.59.596.596 0 0 0-.102-.334z"/></symbol><symbol id="Fm10-36-0" viewBox="1281.54 663.223 515.278 0.647"><path class="fil1" d="M1795.61 663.86c.346.02.706.004 1.171-.01-.01-.312.01-.49.04-.628-.42.198-.835.4-1.211.638z"/></symbol><symbol id="Fm13-39-0" viewBox="8.275 5.56 1.211 0.605"><path class="fil0" d="M8.275 5.56a.605.605 0 1 0 1.21 0h-1.21z"/></symbol><symbol id="Symbol6" viewBox="8.266 -7.931 1.211 0.605"><path class="fil0" d="M8.266-7.93a.605.605 0 1 0 1.21 0h-1.21z"/></symbol><symbol id="Fm1-35-0" viewBox="9.551 -4.15 1.211 0.914"><path class="fil1" d="M10.303-3.57c-.043.035-.02-.014-.003-.026.018-.012-.01-.025.037-.043.047-.019.021-.031.04-.028 0 0-.032.062-.074.097zm.348-.56l-.073.03-.05.078c.006.033.01.067.012.1a.513.513 0 0 1-.017.092.219.219 0 0 0-.033-.143l-.038.012v.01c-.008.062-.102.086-.102.086-.012-.059-.003.027-.003.027l.052-.007c-.007.024.007.068-.08.119-.086.051-.055.103-.056.13 0 .029-.078.061-.078.061.003.034-.031.04-.031.04s.004-.02-.006.006c-.01.026-.079.048-.093.045-.015-.003-.071.026-.064-.036.007-.062-.053-.079-.017-.133.036-.053.022-.082.012-.107-.01-.024-.025-.004-.006-.062.02-.057-.033-.047-.033-.047a.09.09 0 0 0-.015-.017 2 2 0 0 0-.381.276l.036.06.003-.002.007.014a.644.644 0 0 0 1.106-.652l-.052.02z"/></symbol><symbol id="Fm17-43-0" viewBox="15.323 0.371 1.211 0.605"><path class="fil0" d="M15.323.371a.605.605 0 1 0 1.21 0h-1.21z"/></symbol><symbol id="Symbol9" viewBox="15.313 -14.849 1.211 0.605"><path class="fil0" d="M15.313-14.849a.605.605 0 1 0 1.211 0h-1.21z"/></symbol><symbol id="Symbol19" viewBox="8.913 -18.994 1.211 1.204"><path class="fil1" d="M9.53-18.402c-.014 0-.028-.002-.032-.018.008-.003.012-.008.015-.017a.13.13 0 0 0 .003-.037c0-.013.001-.027.006-.038.014-.037.084-.037.098 0a.114.114 0 0 1 .006.038c0 .011 0 .026.004.037.003.01.006.014.014.017-.004.016-.017.018-.031.018h-.084zm-.14-.124c-.005.072-.121.072-.126 0l-.004-.052c-.004-.072.138-.072.133 0l-.003.052zm.632-.197l-.039.015-.05.081-.056.018-.042-.04-.188.073-.009.003-.123-.094.069-.03.087.031.084-.04-.174-.101.089-.026.24.06c.022-.008.04-.015.058-.02a.603.603 0 1 0-.733.936v-.001l-.001-.031-.007-.27v-.05l.002-.113c0-.01-.017-.01-.018 0l-.003.235c-.026-.002-.04-.011-.046-.047l-.002-.216c.002-.053.042-.104.1-.104h.127a.117.117 0 0 1 .062.02l.053.04-.054.022c-.008.003-.013.015-.014.022l-.003.042h.008l.003-.036c.001-.008.004-.013.01-.015a.261.261 0 0 1 .082-.02h.088c.051 0 .076.043.078.092l.011.192c-.005.032-.013.04-.036.042l-.015-.21c0-.008-.011-.009-.01 0l.007.123a.373.373 0 0 1 0 .056l-.02.257.003.037h.004v-.01a.617.617 0 0 0 .48-.59.596.596 0 0 0-.102-.333z"/></symbol><symbol id="Fm21-48-0" viewBox="45.14 -10.662 0.178 1.42"><path class="fil1" d="M45.174-10.596l-.034 1.292c.059.022.118.043.178.062l-.035-1.354c-.002-.088-.107-.088-.11 0z"/></symbol><symbol id="Fm4-57-0" viewBox="8.938 -0.568 1.211 1.211"><path class="fil1" d="M10.149.037a.605.605 0 1 1-1.21 0 .605.605 0 0 1 1.21 0z"/></symbol><symbol id="Fm6-59-0" viewBox="16.617 -2.453 1.211 1.211"><path class="fil1" d="M17.828-1.847a.605.605 0 1 1-1.21 0 .605.605 0 0 1 1.21 0z"/></symbol><symbol id="Symbol21" viewBox="59.122 -129.773 0.195 1.777"><path class="fil1" d="M59.166-129.696l-.044 1.7a3.79 3.79 0 0 0 .196-.019l-.027-1.681c-.002-.102-.123-.102-.125 0z"/></symbol><symbol id="Symbol20" viewBox="8.266 -18.308 1.211 0.605"><path class="fil0" d="M8.266-18.308a.605.605 0 1 0 1.21 0h-1.21z"/></symbol><symbol id="Symbol22" viewBox="1281.54 -2817.07 513.195 1538.64"><path class="fil1" d="M1793.52-2816.44c.346.02.706.004 1.171-.01-.01-.312.01-.49.04-.628-.42.198-.835.4-1.211.638z"/></symbol><symbol id="Symbol24" viewBox="8.78 -11.288 1.211 1.211"><path class="fil1" d="M9.98-10.683a.594.594 0 1 1-1.189 0 .594.594 0 0 1 1.188 0z"/><path class="fil2 str0" d="M9.98-10.683a.594.594 0 1 1-1.189 0 .594.594 0 0 1 1.188 0z"/></symbol><symbol id="Fm2-46-0" viewBox="9.912 -4.794 1.211 0.884"><path class="fil1" d="M9.99-4.317a.078.078 0 0 1-.013.075s.017.01.01.04c0 0 .033.019.03.056l.014.009s.003.015-.022.05a.152.152 0 0 0-.022.102s-.008-.005-.015 0a.557.557 0 0 1 .015-.325l.003-.007zm.421-.42a.555.555 0 0 1 .154-.025.636.636 0 0 1-.096.025c-.096.017-.103.027-.103.027s.003-.008.045-.027zm.089.103s.021-.014.019-.022c-.003-.007-.009-.027.013-.018 0 0-.013 0-.005.011.008.01.014.016.013.03 0 0-.003.008-.04-.001zm-.031-.013c-.022-.011.04-.022.031-.01 0 0-.01.022-.031.01zm-.251.505c-.027-.05-.027-.092-.003-.15.03-.074.097-.069.111-.1.014-.033.06-.037.06-.037a.082.082 0 0 0 .012.006.23.23 0 0 1 .007-.02l-.002-.001c-.025-.019-.027-.01-.027-.01s-.007.033-.001-.01c.006-.04.02-.046.02-.046a.241.241 0 0 0 .013.005l-.033-.02.19-.055.016.004c-.008-.007-.006-.018-.006-.018-.033.004-.025-.021-.025-.021s-.003.015.034-.007c.036-.022.047-.01.08.003.032.011.04.029.04.029.008-.027.088-.055.102-.063a.379.379 0 0 1 .154.165c.07-.027.124-.044.163-.052a.679.679 0 0 0-1.21.427c0 .07.01.139.03.203a1.92 1.92 0 0 1 .275-.232z"/><path class="fil1" d="M10.624-4.609c-.04.011.01.037-.02.039l.054.013c-.003-.006-.016-.017-.02-.03-.008-.026.025-.032-.014-.022z"/></symbol><symbol id="Fm16-42-0" viewBox="15.323 2.123 1.211 0.605"><path class="fil0" d="M15.323 2.123a.605.605 0 1 0 1.21 0h-1.21z"/></symbol><symbol id="Symbol1" viewBox="15.313 -16.578 1.211 0.605"><path class="fil0" d="M15.313-16.578a.605.605 0 1 0 1.211 0h-1.21z"/></symbol><symbol id="Symbol3" viewBox="15.313 -11.347 1.211 0.605"><path class="fil0" d="M15.313-11.347a.605.605 0 1 0 1.211 0h-1.21z"/></symbol><symbol id="Symbol5" viewBox="9.901 -23.523 1.211 0.884"><path class="fil1" d="M9.978-23.046a.078.078 0 0 1-.012.075s.017.009.01.04c0 0 .033.018.029.056l.015.008s.003.015-.022.051a.152.152 0 0 0-.022.102s-.008-.006-.015 0a.557.557 0 0 1 .015-.325l.002-.007zm.422-.42a.555.555 0 0 1 .154-.025.636.636 0 0 1-.096.024c-.096.018-.103.028-.103.028s.002-.008.045-.028zm.088.102s.022-.013.02-.02c-.003-.008-.01-.028.013-.02 0 0-.013.001-.005.012.008.01.014.016.012.03 0 0-.002.008-.04-.002zm-.03-.012c-.022-.011.04-.022.03-.01 0 0-.009.022-.03.01zm-.251.504c-.027-.049-.028-.092-.004-.149.031-.074.097-.069.112-.1.014-.033.06-.037.06-.037a.082.082 0 0 0 .012.005.23.23 0 0 1 .006-.02h-.001c-.026-.019-.027-.011-.027-.011s-.007.033-.001-.008c.005-.042.02-.047.02-.047a.241.241 0 0 0 .013.004l-.034-.019.191-.055.016.004c-.008-.007-.006-.019-.006-.019-.033.004-.025-.02-.025-.02s-.003.015.033-.007c.037-.023.048-.01.08.002.033.012.04.03.04.03.01-.028.088-.055.103-.064a.379.379 0 0 1 .154.165c.07-.027.124-.044.163-.051a.679.679 0 0 0-1.21.426c0 .071.01.14.03.204.077-.08.175-.163.275-.233z"/><path class="fil1" d="M10.613-23.338c-.04.01.01.037-.021.039l.055.013c-.003-.007-.016-.017-.02-.03-.008-.026.025-.033-.014-.022z"/></symbol><symbol id="Symbol8" viewBox="15.313 -7.887 1.211 0.605"><path class="fil0" d="M15.313-7.887a.605.605 0 1 0 1.211 0h-1.21z"/></symbol><symbol id="Symbol23" viewBox="8.928 -17.152 1.211 1.211"><path class="fil1" d="M10.139-16.546a.605.605 0 1 1-1.21 0 .605.605 0 0 1 1.21 0z"/></symbol><symbol id="Symbol26" viewBox="44.677 -100.752 1.008 1.777"><path class="fil1" d="M45.192-98.993l-.027-.003.027.003zM45.682-99.87l-.105-.767a.106.106 0 0 0-.049-.052c-.176-.085-.51-.084-.686 0a.119.119 0 0 0-.05.054l-.113.766c-.022.051.105.092.14.046l.082-.566.028.002-.013.505.013.85c.063.012.128.02.192.029l.032-.7c.002-.051.061-.051.064 0l.032.714c.063.006.126.011.19.014l.014-.908-.01-.49h.025l.076.557c.034.046.16-.003.139-.054z"/></symbol><symbol id="Symbol27" viewBox="19.832 -14.762 1.211 0.605"><path class="fil0" d="M19.832-14.762a.605.605 0 1 0 1.21 0h-1.21z"/></symbol><symbol id="Fm8-61-0" viewBox="8.783 1.312 1.211 1.211"><path class="fil1" d="M9.982 1.918a.594.594 0 1 1-1.188 0 .594.594 0 0 1 1.188 0z"/><path class="fil2 str0" d="M9.982 1.918a.594.594 0 1 1-1.188 0 .594.594 0 0 1 1.188 0z"/></symbol><symbol id="Fm23-50-0" viewBox="113.742 -30.123 1.211 1.419"><path class="fil1" d="M114.847-28.997a.636.636 0 0 1-.405.283.468.468 0 0 1-.19 0 .644.644 0 0 1-.409-.283c-.08-.141-.112-.513-.099-.675.03-.303.3-.45.603-.45s.573.147.602.45c.014.162-.023.534-.102.675z"/></symbol><symbol id="Symbol11" viewBox="8.266 -13.098 1.211 0.605"><path class="fil0" d="M8.266-13.098a.605.605 0 1 0 1.21 0h-1.21z"/></symbol><symbol id="Fm11-37-0" viewBox="-5116.16 1280.65 3838.62 719.374"><path class="fil1" d="M-5116.16 1998.66c.059 2.1.727 1.508.996-.046-.282 0-.744-.059-.996.046z"/></symbol><symbol id="Symbol14" viewBox="8.266 -16.578 1.211 0.605"><path class="fil0" d="M8.266-16.578a.604.604 0 1 0 1.21 0h-1.21z"/></symbol><symbol id="Fm0-34-0" viewBox="8.275 -3.088 1.211 0.605"><path class="fil0" d="M8.275-3.088a.605.605 0 1 0 1.21 0h-1.21z"/></symbol><symbol id="Symbol16" viewBox="8.266 -11.39 1.211 0.605"><path class="fil0" d="M8.266-11.39a.605.605 0 1 0 1.21 0h-1.21z"/></symbol><symbol id="Symbol2" viewBox="8.773 -14.955 1.211 1.211"><path class="fil1" d="M9.972-14.35a.594.594 0 1 1-1.188 0 .594.594 0 0 1 1.188 0z"/><path class="fil2 str0" d="M9.972-14.35a.594.594 0 1 1-1.188 0 .594.594 0 0 1 1.188 0z"/></symbol><symbol id="Fm5-58-0" viewBox="15.323 -1.358 1.211 0.605"><path class="fil0" d="M15.323-1.358a.605.605 0 1 0 1.21 0h-1.21z"/></symbol><symbol id="Fm15-41-0" viewBox="8.275 7.29 1.211 0.605"><path class="fil0" d="M8.275 7.29a.605.605 0 1 0 1.21 0h-1.21z"/></symbol><symbol id="Fm28-55-0" viewBox="15.323 -3.088 1.211 0.605"><path class="fil0" d="M15.323-3.088a.605.605 0 1 0 1.21 0h-1.21z"/></symbol><symbol id="Fm18-44-0" viewBox="8.275 -1.358 1.211 0.605"><path class="fil0" d="M8.275-1.358a.604.604 0 1 0 1.21 0h-1.21z"/></symbol><symbol id="Symbol17" viewBox="8.266 -9.66 1.211 0.605"><path class="fil0" d="M8.266-9.66a.605.605 0 1 0 1.21 0h-1.21z"/></symbol><symbol id="Fm7-60-0" viewBox="8.275 2.123 1.211 0.605"><path class="fil0" d="M8.275 2.123a.605.605 0 1 0 1.21 0h-1.21z"/></symbol><symbol id="Fm20-47-0" viewBox="47.702 -10.765 0.156 1.42"><path class="fil1" d="M47.736-10.704l-.034 1.36.156-.016-.022-1.343c0-.082-.098-.082-.1 0z"/></symbol><symbol id="Fm14-40-0" viewBox="8.79 4.979 1.211 1.211"><path class="fil1" d="M9.989 5.585a.594.594 0 1 1-1.188 0 .594.594 0 0 1 1.188 0z"/><path class="fil2 str0" d="M9.989 5.585a.594.594 0 1 1-1.188 0 .594.594 0 0 1 1.188 0z"/></symbol><symbol id="Fm22-49-0" viewBox="36.146 -8.564 0.806 1.42"><path class="fil1" d="M36.557-7.158l-.02-.003.02.003zM36.95-7.859l-.085-.612a.085.085 0 0 0-.039-.042.764.764 0 0 0-.548 0 .095.095 0 0 0-.04.043l-.09.612c-.018.04.083.073.11.037l.067-.453.022.003-.01.403.01.68c.051.009.102.015.154.022l.025-.559c.002-.041.05-.041.051 0l.026.57c.05.005.1.01.152.011l.011-.725-.008-.392h.02l.06.446c.028.036.129-.003.112-.044z"/></symbol><symbol id="Symbol12" viewBox="8.266 -14.849 1.211 0.605"><path class="fil0" d="M8.266-14.849a.605.605 0 1 0 1.21 0h-1.21z"/></symbol><symbol id="Fm27-54-0" viewBox="15.323 5.603 1.211 0.605"><path class="fil0" d="M15.323 5.603a.605.605 0 1 0 1.21 0h-1.21z"/></symbol><symbol id="Fm3-56-0" viewBox="8.275 0.371 1.211 0.605"><path class="fil0" d="M8.275.371a.605.605 0 1 0 1.21 0h-1.21z"/></symbol><symbol id="Fm9-62-0" viewBox="8.275 3.831 1.211 0.605"><path class="fil0" d="M8.275 3.83a.605.605 0 1 0 1.21 0h-1.21z"/></symbol><symbol id="Symbol10" viewBox="15.313 -13.098 1.211 0.605"><path class="fil0" d="M15.313-13.098a.605.605 0 1 0 1.211 0h-1.21z"/></symbol><symbol id="Fm12-38-0" viewBox="8.938 3.194 1.211 1.211"><path class="fil1" d="M10.103 3.685l-.001.004h-.003c-.004 0-.003-.001-.006-.002l-.005-.001s0-.002-.002-.002c.001.003 0 .004-.002.005 0 0-.01 0-.008.002.003.002.006 0 .007.004.002.006.001.002-.003.003s-.018.005-.017.011c-.003 0 0-.003-.004-.002h-.004l-.002.002h-.007l-.003.008h.003v.006c-.003-.002-.004.002-.003.005-.006-.001-.006.007-.01.01-.003.002-.003 0-.004-.004a.028.028 0 0 1 0-.013c.002-.005.008-.008.013-.012.003-.003.004-.007.008-.01-.005-.001-.007.006-.012.007 0-.004-.004-.005-.008-.003a.019.019 0 0 0-.004.006c-.002.003 0 0 0 .003l-.002.001c-.003-.002-.002.001-.006 0-.002 0 0-.002-.002-.002-.004-.001-.005.002-.011.002-.007 0-.011 0-.016.006l-.006.007c0 .001-.004.007 0 .003v.001c.002.003.004.004.005 0 .005.001.005.004.008.006v-.008h.001c0 .024.004.018.004.018-.007 0-.001.005 0 .01-.003 0-.002-.001-.003-.002-.001.002-.002.001-.003.002 0-.003.002-.026-.003-.014-.001.004 0 .006-.003.01a.055.055 0 0 1-.008.01l-.004.003H9.97c-.002 0-.003.003-.004.004v.005h-.003c0 .006.004.006.004.01s-.004.007-.009.007c0-.003.002-.013-.003-.01 0-.003.002-.004-.002-.006l-.008.003c.003-.006.004-.005-.001-.003l-.005.002c-.003.005.003.001.003.006.002 0 .001-.003.003-.002.004.001.004.001.003.003-.002.002-.006.001-.006.005 0 .002.004.006.005.008v.004c0 .002.002 0 .001.004 0 .005-.007.01-.01.014a.018.018 0 0 1-.007.003c-.002.001-.007.001-.008.003 0 0 0 .011-.005.008-.002-.002.002-.005.002-.008-.01 0-.01.007-.005.013.003.004.006.008.002.013l-.008.007v-.004l-.004-.002c-.002-.003-.002-.003-.005-.004-.003-.002 0-.004-.003-.001-.002.002 0 .007 0 .008 0 .005.004.005.007.008.002.002.002.009.004.012-.005.003-.008-.008-.01-.01l-.005-.007c-.001-.003.002-.006.002-.007 0-.004-.003-.013-.006-.014 0 0-.003.004-.005.002-.004-.002.001-.006-.003-.006a.025.025 0 0 0-.005-.01l-.01.003-.013.014c-.003.003-.002 0-.004.003v.011c-.002.003-.004.006-.007.004-.003-.001-.005-.01-.006-.012l-.004-.01v-.007c-.003-.004-.002 0-.005 0-.001 0-.01-.004-.002-.004-.004 0-.005-.003-.007-.004-.005-.003-.007-.002-.013-.002-.002 0-.008 0-.01-.002l-.003-.002H9.79l-.01-.006c-.004-.002-.007-.004-.006.002 0 .002.004.005.005.006l.008.002c-.01.002-.001.002.004.002l.001-.004c.002 0 .002.004.003.005.003-.003 0 0 .003.001.001.001.004.003.004.005-.002 0-.002 0-.002.004-.002 0-.004.003-.005.005-.003.003-.005.002-.009.004l-.008.005c-.003.001-.007.004-.01.004-.008 0-.004-.003-.007-.009-.002-.004-.007-.007-.009-.01-.004-.006-.005-.014-.01-.02-.004.005-.007-.005-.01-.006h.006a.013.013 0 0 0 .005-.006c.002-.006.002-.008-.004-.01v.003l-.006-.001s-.004 0-.002.001c-.002 0-.004 0-.006-.002v.004c-.002 0-.005-.022-.01-.013H9.71l.004.005v-.001l.002.001c-.002 0-.007.01-.01.001 0 .002-.002.001-.003 0h.003l-.004-.009c-.001-.002-.005-.004-.007-.005-.004-.003-.01-.01-.01-.002.002 0 .006.003.005.005.004 0 .009.004.01.007l-.004-.001v.001h.002c-.002.004-.008.012-.012.005.015 0 .004-.006-.002-.011-.002-.002-.005-.006-.007-.006l-.006.003h-.006c-.002.001 0 .003-.001.004-.001 0-.006.002-.007.004l-.002.004s.002.001.001.002h-.002c-.003.004-.008.005-.011.007-.002-.002-.003 0-.005-.002-.004-.002-.002 0-.004-.004v-.014c.006-.003.024.005.016-.009 0-.003-.002-.003-.004-.005 0-.001-.004 0-.001-.003.002-.001.01.003.005-.003.002 0 .003.002.006 0l.003-.004c.002-.002.008-.002.005-.006a.02.02 0 0 0 .008-.003c.005-.002.003 0 .003-.005 0-.002-.002-.004 0-.007.004-.003.005-.002.004.002h.002v.002l.004-.001c0 .008-.006.002-.006.006l.004.001c0-.004.007 0 .008 0 .004 0 .006-.005.01-.001-.002-.004.001-.003.004-.003 0-.001 0-.008.003-.009.002 0 .002.005.006 0l-.003-.003c-.001 0-.004.004-.005 0h.003l-.002-.001.007-.002c.004-.001.01 0 .012-.003-.006-.003-.015.004-.02-.002-.007-.008.008-.011.008-.016 0-.002-.005-.004-.007-.003-.003.002-.003.006-.004.007l-.006.005c-.003.004 0 .007 0 .01.004 0 .001.002 0 .004l-.003.006h.002v.002l-.006.002c-.002.001 0 .003-.004.002v-.002c-.002-.003-.004-.011-.007-.012-.003.005-.006.005-.011.005v-.003c-.005 0 .003-.004-.003-.004.001-.005.002-.009.009-.01v-.002c.001 0 .007-.003.007-.005H9.68a.01.01 0 0 1 .004-.003c0-.004.006-.01.01-.012l-.01.003c.002-.002.003-.003.006-.003v-.002l.002-.002c.001.003 0 .002.003.003.001-.003-.002-.001.001-.004.001.003.003 0 .002-.003.002 0 .005.001.005.003v-.003h.006c-.003 0-.004-.004.002-.003-.003.003.004-.001.005-.001l.002.003v-.003h.004v.002c.002 0 0-.002.004 0 .001 0 .003.002 0 .002.002.001.01 0 .007.004h.011l.01.006c.002.01-.02.002-.022.002l.007.008c.002.003 0 .003.004.005l.004-.001c0-.002-.008-.002-.003-.005.002.003.005.002.008.003l-.002-.004c.002 0 .004-.003.005-.003h.005c.002 0 0-.009-.001-.01.003 0 .01.004.004.004 0 .008.008 0 .009 0 .004-.004.008-.004.012-.006-.003.008.012-.005.012.002.009-.003-.005-.008 0-.01 0 0 .007.004.01.004l.01.004s.003.004.004 0l-.003-.002-.003-.003v-.004l.005-.009c.003-.002.01-.001.009.003h-.002c0 .003.001.015.004.015 0 .002 0 .004-.003.006-.001.002-.005.001-.006.003.004 0 .004.001.008-.001a.008.008 0 0 0 .003-.003v-.005c.008-.006.007.007.012.004l-.004-.001c0-.003 0-.005-.004-.007-.003-.001-.002.003-.005-.001l-.001-.008c0-.003.003-.001.003-.006.002.001.001.005.002.006.002.002.006 0 .007.003 0-.003-.01-.005-.001-.004 0-.002-.002-.002-.003-.003h.009l.003.003c.004 0-.003-.005-.004-.007.004-.004.011 0 .015-.003s-.002 0 0-.004l.005-.003.007-.001.007-.004.006.001c.005 0 .005-.004.01-.003v-.001c.004-.003.004-.005.011-.005l-.002.003h.006c0 .001 0 .002-.002.002.004-.001.018-.002.017.006 0 .001-.014.01-.017.01.003 0 .008 0 .008-.003.003 0 .005-.004.007-.003.003 0-.002.003-.003.003h.004v.002l.006-.001c.006-.007.027-.009.034-.011.003-.001.012-.008.015-.002.002.004-.014.008-.018.009a.077.077 0 0 0-.01.003l.005.002c.002 0 .004-.003.006 0 .002.001 0 .005 0 .006l.006.005c.002 0 .001-.003.005-.004h.006l.005.002-.001-.003.006.001c0-.002-.003-.002-.003-.004.005-.001.004-.002.009-.002l.008.001c-.002.007.004-.001.01.002l-.002.001c.004 0 .005.003.009.003h.009c.008-.001.008.004.012.008v-.003c.003.002.008.001.012 0 .002 0 .004-.003.007 0-.008.005.008.002.001 0 .004-.004.016-.002.022 0l.007.004a.03.03 0 0 1 .005.003h.002v.004c.004.002.003 0 .002-.002.001 0 .008 0 .01.002.002.005-.005.003-.006.003zm-.193.206c-.002 0-.007-.006-.009-.008-.002-.003-.004-.008-.007-.01-.002-.002-.006-.005-.007-.008l.004.001c.005 0 .019.013.019.016.003-.002.006 0 .006.003-.004.001 0 .006-.006.006zm-.248-.103c.004-.001-.003.004-.004.005 0-.002.002-.004.004-.005zm.117.071c0 .004-.001.004-.003.007a.041.041 0 0 1-.009.01c-.004.005-.012.011-.014.018-.001.004.003.01.003.014.002.006.002.011-.003.016-.002.002-.01.004-.01.008s.005.006.001.01c0 .002-.005.003-.005.004v.007a.037.037 0 0 1-.006.008c-.005.006-.02.014-.027.007-.002-.002 0-.003-.002-.008-.001-.005-.006-.01-.008-.015a.066.066 0 0 0-.005-.014c-.004-.008 0-.009.001-.017.002-.008-.004-.024-.012-.026a.014.014 0 0 0 .002-.01c0-.006 0-.003-.006-.004-.004 0-.003-.003-.006-.004h-.01c-.003.002-.003.003-.007.004h-.014c-.004 0-.004-.003-.006-.004a.141.141 0 0 1-.012-.01c-.003-.004-.003-.007-.003-.01s.002-.007 0-.01l.001-.002h-.004c-.001-.004.005-.01.006-.012l.005-.008.005-.004c.002-.002.001-.006.002-.01.001-.001.006.002.004-.004h.004c0-.006.002-.003.008-.003.004 0 .006-.002.009-.003a.014.014 0 0 1 .008-.001h.001c.002-.002.004-.01.009-.005-.002 0-.002.002-.003.004.003 0 .008-.003.01 0l-.002.001v.002c.002.002-.002.003 0 .006.002.002.009.003.011.004l.001.002H9.7c.005 0 .005.002.005-.005.007.001.013.004.02.004.006 0 .007-.002.01.004.004.005.006.012.008.018.002.004.005.012.008.015l.01.01c.005.004.007.002.014.002.005 0 .004-.002.004.004zm-.187-.103c-.005-.002.002-.007-.007-.006v-.002h.008c-.001-.005-.003-.005-.007-.004-.002 0 0-.007.008-.005.003-.004 0 .001.003.001h.007c.007.002.022-.009.02.003.002 0 .006 0 .005.002-.001.006-.004.002-.01.005-.007.004-.007.006-.015.007l-.012-.001zm-.038-.03l-.004-.002s-.023.03-.023.017c-.003.002-.003-.002-.003.003-.011.001-.008.01-.012.018-.001.002-.005 0-.005.002-.001.003.002.003.001.005-.001.004 0 .011-.004.013-.002.002-.02-.004-.023-.006-.008-.006-.011-.018-.008-.025l-.005.003c0 .001-.004-.007-.002-.005-.001-.001.003-.003.003-.004h-.004c-.001-.002-.013-.016-.002-.015 0-.005.003-.006.008-.006-.003-.008 0-.012-.011-.01.007 0 .005.006-.001.006-.008 0-.004-.007-.005-.01.005-.003.01.001.016 0-.007-.013-.027 0-.019-.015H9.45a.038.038 0 0 0-.017-.027c-.006-.004-.027-.005-.032-.002v.002c-.002.002-.007-.002-.01-.004h.003c-.002-.001-.01-.003-.01-.005 0-.004.017 0 .019-.006-.008 0-.036 0-.021-.01.004-.002.012-.002.017-.003l.008-.001c0-.001.003-.01 0-.01s-.005.002-.009 0c0-.004.006-.004.009-.005.006-.004.014-.005.017-.007.001 0-.002-.003.002-.005.003-.002.003 0 .006 0 .004 0 .008.004.012.004-.002-.003-.008-.004-.01-.005.002 0 .015-.008.02-.006.003.002 0 .009 0 .009.006.003.005-.005.004-.008.006 0 .01.005.016.007 0-.003-.007-.007-.007-.009.01 0 .017.007.027.007.004 0-.011-.008-.01-.007-.003-.005.005-.002.007 0 0-.005-.004-.003-.005-.006a.053.053 0 0 1 .017-.003l.013.002c.008-.001.002-.003.008-.005s.05-.007.052 0c-.01.001-.025 0-.032.004h.03l.018.002V3.6c-.008.001-.045.003-.047.01.009.001.024-.009.032-.003-.003.002-.007 0-.007.005.005-.001.01 0 .01-.007.014.002.01.004.002.014L9.6 3.61a.13.13 0 0 1 .018-.003h.01c.005.006-.004.005-.006.006-.006.004-.01.004-.017.006h.01c-.002.003-.03.022-.022.028 0 0 .008-.005.011 0-.005.002-.002 0-.005.003.011 0 .008.002.006.012-.002-.006.002-.006-.003-.008-.002 0-.007 0-.008.002 0 .004.01.004.01.01-.009.002-.001.006.002.009l-.014.003c0 .003.014 0 .005.007-.003.002-.012-.002-.014-.001h.002l-.002.004c.005-.002.007-.002.008.002.003.008-.006.002-.007.003.003.001.01.009.01.012-.002.009-.012-.001-.01-.001-.02 0-.002.013.006.007-.002.005-.016.009-.022.011-.006.003-.006.006-.014.004zm-.183.276c-.003.003-.007 0-.01-.002.004-.001.008 0 .01.002zm-.018-.014l-.007-.004c-.003 0-.004.004-.006.002-.006-.002-.008-.002-.002-.006.004-.003.013 0 .017.002.006.002.02.005.024.01a.065.065 0 0 1-.026-.004zm.039.015c-.004.001-.008-.001-.008-.005.001-.007.01-.002.014-.002.006 0 .017 0 .02.003-.007.003-.019.002-.026.004zm.036-.155c-.004.006-.007 0-.01-.002.004-.001.006 0 .01.002zm.034.014l-.01-.005c-.004 0-.01.002-.01 0-.002-.002.008-.018.01-.02.005-.003 0 .009 0 .008.01.003.016.007.01.017zm-.123-.093c.001.003-.001.005-.005.005-.006 0 .004-.004.005-.005zm.007.004c.014-.01.003.016 0 0zm.022-.04c.003.005-.006.006-.01.005-.003-.006.007-.01.01-.005zm.107.347c0 .005-.006.007-.008.011-.003.006 0 .016-.004.022-.004.006-.005.006-.01.008a.018.018 0 0 0-.01.005c-.004.005-.002.015-.009.02v-.003c-.002 0-.004.008-.006.01-.004.004-.007.002-.013.001.001.005.006.004.004.01-.003.005-.01.005-.015.005.002.006 0 .008-.006.006-.001.007.003.002.002.006l-.002.004v.003c-.002.001-.005 0-.006.002-.002.006.004.004.005.007 0 .002-.006.006-.006.01-.005-.001-.002.007 0 .01.001.003.007.005.008.006-.005 0-.01.003-.016 0a.059.059 0 0 1-.007-.01h-.002l.001-.001h-.002c.001-.004-.006-.011.003-.012l-.006-.005.003-.004.001.002s-.002-.005 0-.005c0 .002 0 .001.002.003 0-.005 0-.008.002-.012-.002 0-.004.009-.006.003l.002-.003v-.003c0-.006 0-.01.003-.015.002-.005 0-.01.001-.016l.003-.013c0-.009.003-.02-.004-.026-.004-.003-.009-.004-.012-.008-.003-.003-.004-.01-.006-.013a.03.03 0 0 0-.003-.005l-.005-.004c-.002-.005.002-.007.004-.01-.005 0-.003 0-.003-.005a.026.026 0 0 0 .008-.01c.002-.003 0-.005 0-.008-.003 0-.006 0-.004.005-.007-.002-.018-.005-.023-.01-.003-.002-.006-.01-.012-.015 0 0-.012 0-.016-.003-.003-.002-.005-.006-.01-.007-.004-.001-.006.001-.008.001-.007 0-.05-.015-.039-.022-.007-.009-.014-.019-.021-.026-.006-.006-.015-.023-.023-.022.001.01.029.034.022.041a.05.05 0 0 0-.01-.013l-.008-.006c-.003-.004 0-.005-.001-.007l-.011-.018c-.005-.007-.013-.007-.018-.013a.067.067 0 0 1-.017-.04c0-.007.004-.015 0-.023-.003-.008-.011-.01-.017-.016.012-.002.019.01.026.017 0-.008-.007-.014-.013-.017-.008-.005-.01-.005-.016-.013-.004-.004-.006-.01-.01-.015l-.006-.004-.004-.006c-.01-.002-.018-.011-.03-.014-.005-.002-.011 0-.018-.002-.005-.002-.014-.01-.015-.003l.001.003a.034.034 0 0 0-.015.006c-.002-.006.002-.01.008-.01-.009-.006-.011.006-.019.01l.004.004c-.013.007-.036.03-.05.027.01-.012.03-.01.034-.028h-.006c-.003.003-.01.001-.015.003a.01.01 0 0 0-.003-.011c-.005.01-.015-.006-.014-.01.002-.015.021-.004.02-.02-.005 0-.013.005-.018.003-.005 0-.005-.005-.011-.007.004-.006.01-.005.015-.009 0 .006.006.006.01.004-.003-.007-.012-.008-.016-.013-.007-.008-.001-.003.007-.008.006-.004.006-.01.014-.012.006-.002.015-.007.022-.006v.003c.01-.002.016.002.026.002l.03.003c.012.002.017.007.03.004.007-.002.016-.007.024-.007-.004.005-.01.004-.015.01a.113.113 0 0 1 .02-.01c.001 0-.001-.003.002-.003s.004.006.006.006c.003 0 .005.004.007-.003.003.009.01 0 .018.002a.097.097 0 0 1 .028.01c-.002 0-.003.003-.004.003.01.001.027-.004.031.01.001-.01-.003-.01.005-.013.006-.003.007 0 .012 0 .01.002.02.006.025-.003l-.007-.005.005-.005c.005 0 .009.003.009.008h-.003c.002.004-.002.003.003.004 0 .005-.001.004.004.007-.003-.009.007-.006.007-.014-.004.004-.008.004-.01 0 .012.002-.01-.01 0-.018.011-.008.012.006.016.012.003.003.01.005.01.006.002 0 .005 0 .009.003 0 0-.004.006 0 .008.009.004.01-.018.013-.02-.005 0-.018-.001-.02-.005.002 0 .004-.002.008 0-.005-.008-.014-.002-.01-.014.003-.01.011-.01.02-.01-.008.004-.01.02.002.019-.006-.007-.007-.016.004-.018.007-.002.007-.002.011.004.003.003-.002.006.002.008.003 0 .014-.006.02-.004.008.002.009.008.02.008l-.003.002.015.004-.001.002.007.004c-.002 0-.002.001-.003.002l.005.001c-.017.004.017.013.02.017.004.004.004 0 .001.006l-.007.006c-.006.002-.003 0-.01-.004-.005-.003-.007-.007-.01 0l.017.016-.002.007-.018-.008c.003.005.012.007.012.013-.007-.004-.016-.003-.022-.007-.005-.005-.006-.01-.015-.012-.003 0-.014.009-.015.001 0-.007.015-.004.019-.005-.006-.008.006-.008.005-.014 0-.005-.006-.008-.009-.01-.007-.005-.013-.01-.02-.012a.08.08 0 0 0 .003.003c-.008.003-.016 0-.023.001.004.002.02.01.007.012.006.007.003.015-.006.016-.003.003.001.002-.005.003.002.004.028.012.015.015l-.006-.002a.04.04 0 0 0-.007.003c-.005 0-.007 0-.01-.004.004-.002.01-.019 0-.018.01.01-.013.005-.017.005.005.003.01.005.016.005-.002.006-.005.01-.012.006-.001.008-.012.003-.018.002.003.001.014.002.014.005.001.004-.006.005-.008.008a.026.026 0 0 0-.007.013c0 .009.002.006.006.011.002.002.002.006.004.007.003.002.004-.001.007 0l.012.005a.073.073 0 0 0 .025.007c0 .006.002.023.01.022.01 0 .006-.017.001-.021.015 0 .017-.02.004-.024.002-.002.001-.004.002-.006h.003c-.01-.014-.001-.02.012-.018.012.003.024.008.02.023.007-.002.006.004.013.003.006-.002.006-.009.01-.014.002.006.016.02.011.023.005.007.012.01.02.01-.004.005-.01.004-.013.009.006 0 .016-.007.02.001.002.008-.007.009-.013.012-.007.003-.006.004-.014.005H9.41c-.008.003-.013.013-.021.012l.005.001a.03.03 0 0 0-.007.009c.007-.005.023-.024.03-.014.002.004-.008.01.003.015.008.004.01-.002.016-.005-.003.008-.011.014-.02.015 0 0-.009.006-.006 0 .001-.003.01-.006.01-.006-.01-.002-.035.008-.028.02l-.014.005-.007.014c-.004-.004-.002 0-.005-.002.001.007.004.01.002.014-.002.006-.011.008-.015.013-.007.008.003.036-.002.037-.004 0-.012-.02-.016-.024.002.002-.01 0-.01 0-.006 0-.014-.001-.012.006-.01.003-.023-.008-.03.004-.006.01-.006.034.004.042.005.004.015.007.02.002.006-.005.001-.012.011-.013.012-.001.005.017 0 .023.005.003.018-.003.023.004.005.008-.006.016.005.023.003.002.01 0 .014.001.002-.006.013-.013.018-.012-.003.002-.004.007 0 .009l-.001-.005c.001-.001.003 0 .003-.004.005.001.008.006.013.006.002 0 .007-.005.01-.002-.004.002 0 .003.002.002 0 .005.01.009.014.01.006 0 .013.001.013.01.005 0 0 .006 0 .007.002 0 .001-.003.002-.002h.005l-.002.005c.004-.002.002-.003.007-.002l.006.003c-.004.002.006 0 .009.001a.02.02 0 0 1 .01.005c.004.003.004-.001.006.005v.005zm-.442-.263c-.004-.006.003-.007.007-.01v.004a.016.016 0 0 1-.007.006zm-.05-.018c-.01.001-.005-.006 0 0zm.174-.11c.004-.004.022 0 .026 0 .014.003.012.004 0 .01-.006.004-.009.015-.017.014a.378.378 0 0 0-.004.003.014.014 0 0 0-.012-.008c.005-.005.005-.018.007-.02zm.027-.015c-.002.005-.002.004-.006.004l.002-.003h.004zm.009-.013c0 .004-.003.007-.006.009-.002-.001-.003.001-.005-.002-.005.005-.013.013-.02.004.013-.002.017-.014.03-.011zm.007-.003c-.003 0-.005 0-.006-.004.004 0 .005.001.006.004zm.003.01c-.004 0-.004-.002-.006-.003a.01.01 0 0 0 .005 0v.002zm.015-.013c-.001.002-.002.001-.004.002.004.004-.001.005-.006.005-.002-.001-.004-.001-.005-.004.005-.003.01-.004.015-.003zm.001-.003h-.016c.004-.004.013-.006.016 0zm.017.022c.001.008-.019.01-.024.012-.003 0-.01.003-.012 0 0-.004.01-.003.012-.005-.005 0-.02.004-.024 0-.004-.003.002-.01.008-.012.003.001.026.01.026.007l-.004-.001c-.004-.006-.001-.01.005-.008-.001 0 .013.01.013.007zm.004-.012c-.004.001-.006-.001-.006-.006a.014.014 0 0 1 .006.006zm.022-.006c-.006-.002-.02-.002-.024-.007a.05.05 0 0 0 .004 0l-.007-.006c.008-.003.03.002.027.013zm.002-.02h-.006v-.003c.004 0 .005 0 .006.004zm.013.017c-.005.002-.009 0-.01-.006.003-.001.021.003.01.006zm-.001-.024h.006l-.004-.004.01-.002c-.001-.002-.003 0-.005-.001-.001-.004.029.01.028.01.01.004.013.013-.002.011.001.005-.001.004-.002.005a.022.022 0 0 1-.024-.004c.004 0 .007-.003.01-.003-.005-.005-.013 0-.019-.005l.002-.007zm.087.063c-.003 0-.005.002-.008.004-.007.002-.011 0-.012-.007.007 0 .015-.002.02.003zm-.07-.033l.002-.003c.004 0 .006-.001.008.002a.013.013 0 0 1-.01.001zm.007.024c-.01-.003-.005-.01-.01-.018.011-.003.014.01.026.01.006 0 .025-.008.03-.002.007.012-.042.009-.046.01zm-.018.005c.004-.003.014 0 .019.001-.003.005-.006.01-.012.008 0 .004-.002.003-.003.006-.008.002-.007-.012-.004-.015zm.007-.01c.001.008-.011.003-.014.001.002-.004.012-.007.014 0zm-.012-.02c.001-.004.006-.004.011-.003v.002a.053.053 0 0 1-.011.002zm.001.003c.006 0 .013.003.008.008-.005 0-.018-.006-.008-.008zm-.028.037c.007.003.012-.001.005-.007.004 0 .01-.003.01-.003.005.001.01.006.003.008.01.004.009.014-.002.014-.004-.002-.016-.008-.016-.012zm-.009-.001c-.004.001-.006 0-.01-.004.004-.003.012-.002.01.004zm.003-.019c0 .006-.004 0-.005 0 0 0 .005-.002.005 0zm.028.007h-.003c.001 0 .001-.004.003 0zm-.026-.03c.004 0 .005 0 .008.002-.004 0-.006.002-.008-.002zm.006.019l-.001-.006.01.004a.02.02 0 0 0-.005-.006c.006.002.013-.001.014.006 0 .006-.003.008-.01.009 0-.005-.003-.007-.008-.005-.006-.001-.012-.004-.012-.011.006 0 .008.006.012.009zm-.026.018s.003.003 0 0zm.01.038c0 .003-.003.004-.007.005h-.005a.036.036 0 0 1 .012-.005zm-.007-.002c-.007.002-.012.007-.02.005-.007-.002-.008-.007-.018-.006a.137.137 0 0 0-.003-.004c.003-.002.022-.003.02-.005-.002-.004-.018 0-.023-.002a.019.019 0 0 1 .01-.004c-.005-.003-.01 0-.015-.002.003-.006.003-.007.01-.01.005-.003.012-.007.01.001a.014.014 0 0 1 .013 0l-.002.004a.037.037 0 0 0 .007-.003l-.002-.004c.007 0 .007.01.01.01.007 0-.002-.007 0-.01.006-.008.013.007.015.01.004.007.008.007.016.013-.002 0-.003.003-.007.003.01.007-.017.003-.021.004zm.064-.111l.023-.006c.001 0 .005-.003.01-.002.005 0 .013.004.019.005-.003-.004-.01-.005-.015-.005.005-.007.02-.006.026-.004-.002-.008.023.002.024-.006.006 0 .014.003.016.005.006-.002.028-.002.027.004-.001.008-.026.003-.03.009.005 0 .014-.003.017 0-.01.003-.022.015-.032.012l.004.004c-.005.003-.009.002-.014 0l.004.003c-.006.007-.014 0-.021.005v.003c.003-.003.015-.005.015 0 0 .002-.008.001-.007.002.005.006 0 .007-.007.005.001.005.002.006-.003.007v.003l.004-.001c.001.007-.011.01-.014.005-.008.002-.029.005-.034-.002.004-.002.007-.004.004-.01.008 0 .021.01.025-.002-.004.004-.009.006-.012.001a.079.079 0 0 1 .004-.002c-.023.005-.005-.015.008-.003l.004-.005c-.007 0-.02-.005-.021-.012.008.001.02.008.027.006-.005 0-.008-.003-.012-.005V3.63c.006 0 .02-.002.025-.006h-.009a.018.018 0 0 1 .01-.005c-.01 0-.015.006-.023.008-.005.001-.028.005-.013-.004-.008 0-.008.005-.017.003-.006-.002-.006-.005-.012-.006v-.002zm.442.011c-.013-.001.004-.006.008-.007l-.002.005.007-.004s.003.005.002.006l.003-.004c.003-.001.003-.005.01-.002l-.002.004h.004c0 .001.019.011.021.01 0 .006.003.002.006.005-.003 0-.007.004-.01.004-.002 0-.003-.005-.009 0 0-.003.004-.005.002-.007-.002-.003-.004 0-.003-.005h-.007c0 .006-.005.015-.01.02-.002-.003-.01-.007-.01-.008l.01-.004c0-.002-.01 0-.012.001.001-.005.013-.004.013-.005 0-.004-.009-.003-.009-.003l-.004.004c-.004.001-.004-.003-.007-.003 0 .007-.005 0-.006-.003.003 0 .003.003.005.004v-.008zm.043-.008c.003-.005.002-.004.007-.006l-.001.004c.004 0 .011-.004.016.001-.005.003-.027.014-.031.003h.006c-.001-.004-.01.001-.01-.003-.003-.005.011-.004.013.001zm.114-.012c.007 0 .013-.004.007.004-.004.005-.017.005-.01-.001-.003 0-.011.003-.012-.002.007.001.008-.001.015-.001zm.023.001l.004-.005.006-.002.007-.002-.003.004h.006c0 .007-.01-.003-.008.005-.006-.001-.014 0-.017.004 0-.003.002-.001.005-.004zm.013.004c-.003.004-.004.001-.006 0a.03.03 0 0 1 .013-.003v.002s-.007.006-.007 0zm.01 0c.002 0 .001 0 .002.002-.003 0-.005.002-.006 0l.004-.002zm.001-.008c.006-.003.006 0 .01.005h-.013c.002-.003.003-.002.003-.005zm.025-.001c-.005.001-.009.008-.014 0 .005.002.009-.003.014 0zm-.42-.41a.605.605 0 1 0 0 1.21.605.605 0 0 0 0-1.21z"/></symbol><symbol id="Symbol4" viewBox="9.54 -21.908 1.211 0.914"><path class="fil1" d="M10.292-21.328c-.043.035-.02-.014-.002-.026.017-.012-.01-.025.036-.043.047-.019.022-.031.041-.028 0 0-.032.062-.075.097zm.348-.56l-.073.03-.049.078c.005.033.009.067.011.1a.513.513 0 0 1-.016.092.219.219 0 0 0-.033-.143l-.039.012v.01c-.008.062-.102.086-.102.086-.012-.059-.003.027-.003.027l.053-.007c-.008.024.006.068-.08.119-.086.051-.056.103-.057.13 0 .029-.078.061-.078.061.003.034-.03.04-.03.04s.003-.02-.007.006c-.01.026-.078.048-.093.045-.015-.003-.071.026-.064-.036.008-.062-.053-.079-.016-.133.036-.053.021-.082.01-.107-.01-.024-.024-.004-.004-.062.019-.057-.034-.047-.034-.047a.09.09 0 0 0-.015-.017 2 2 0 0 0-.38.276c.01.02.022.04.036.06l.003-.002.006.014a.644.644 0 0 0 1.106-.652l-.052.02z"/></symbol><symbol id="Symbol18" viewBox="55.919 -126.611 0.222 1.777"><path class="fil1" d="M55.96-126.529l-.042 1.616c.074.028.147.054.223.078l-.044-1.694c-.002-.11-.134-.11-.137 0z"/></symbol><symbol id="Symbol25" viewBox="16.608 -19.036 1.211 1.211"><path class="fil1" d="M17.818-18.431a.605.605 0 1 1-1.21 0 .605.605 0 0 1 1.21 0z"/></symbol><g id="Layer_x0020_1"><g id="_196899744"><path id="_196899984" class="fil3" d="M.5.299C.5.233.471.146.395.115V.082L.418.064A.009.009 0 0 0 .422.057V.009A.009.009 0 0 0 .413 0H.387C.385 0 .383 0 .381.003l-.01.01-.012-.01A.009.009 0 0 0 .353 0H.318C.316 0 .314 0 .312.003l-.01.01L.29.004A.009.009 0 0 0 .284 0H.258A.009.009 0 0 0 .25.009v.048c0 .002 0 .005.003.007l.022.018v.033C.2.145.172.233.172.299A.14.14 0 0 0 .18.345a.2.2 0 0 0-.01 0H.145a.009.009 0 0 0-.008-.01h-.07a.009.009 0 0 0-.008.01H0V.36h.06v.087H0v.017h.06C.06.47.064.473.07.473h.069A.009.009 0 0 0 .146.465V.46l.065.027A.149.149 0 0 0 .32.49L.452.44A.032.032 0 0 0 .465.388.12.12 0 0 0 .5.298zM.13.456H.076V.353H.13v.103zM.266.053V.017H.28l.015.015a.009.009 0 0 0 .012 0L.322.017h.027l.015.015a.009.009 0 0 0 .012 0L.391.017h.014v.036l-.02.016H.286L.267.053zm.112.033v.026H.293V.086h.086zm.076.329a.014.014 0 0 1-.008.008l-.133.05a.132.132 0 0 1-.097 0l-.07-.03V.36h.021c.029 0 .057.007.082.02a.06.06 0 0 0 .028.006h.066a.013.013 0 0 1 .003.026H.241V.43h.103a.053.053 0 0 0 .02-.004l.073-.03a.014.014 0 0 1 .01 0 .015.015 0 0 1 .008.02zM.45.378A.03.03 0 0 0 .43.38L.374.403a.03.03 0 0 0 0-.003.03.03 0 0 0-.03-.03H.278a.044.044 0 0 1-.02-.005.202.202 0 0 0-.06-.018A.118.118 0 0 1 .19.299c0-.062.026-.143.097-.17h.1c.07.027.096.108.096.17a.102.102 0 0 1-.032.08z"/><path id="_196899912" class="fil3" d="M.095.422h.017v.017H.095z"/><path id="_196899840" class="fil3" d="M.336.155a.095.095 0 1 0 0 .19.095.095 0 0 0 0-.19zm0 .172a.077.077 0 1 1 0-.155.077.077 0 0 1 0 .155z"/><path id="_196899768" d="M.309.208h.063a.102.102 0 0 1-.007.009H.35a.022.022 0 0 1 .004.01h.018a.208.208 0 0 1-.006.01H.354a.027.027 0 0 1-.005.01.027.027 0 0 1-.01.009.04.04 0 0 1-.018.004l.004.006.032.038v.001H.342A4.753 4.753 0 0 1 .306.263V.254h.007C.327.254.336.249.34.24L.34.236H.302A.214.214 0 0 1 .31.226h.03A.018.018 0 0 0 .328.22a.03.03 0 0 0-.01-.002H.302A.14.14 0 0 1 .31.207z" fill="#0d422f" fill-rule="nonzero"/></g></g></svg>