<svg xmlns="http://www.w3.org/2000/svg" width="69" height="69" viewBox="0 0 69 69"><defs><style>.a{fill:#f6f6f6;}.b{fill:#fff;}.c{fill:#e21f26;}.d{fill:#040505;}</style></defs><g transform="translate(-513 -2461)"><circle class="a" cx="34.5" cy="34.5" r="34.5" transform="translate(513 2461)"/><g transform="translate(525 2477)"><rect class="b" width="5.851" height="0.959" transform="translate(5.323 3.925)"/><g transform="translate(0 -0.001)"><rect class="c" width="22.267" height="14.098" rx="2.258"/><rect class="b" width="22.267" height="2.631" transform="translate(0 2.7)"/><rect class="b" width="9.964" height="0.89" transform="translate(2.24 9.22)"/><rect class="d" width="0.207" height="3.989" transform="translate(20.841 8.345)"/><rect class="d" width="0.207" height="0.943" transform="translate(20.841 5.477)"/></g><g transform="translate(8.035 9.12)"><path class="c" d="M59.035,173.031c.061-.474.089-.9.176-1.321a2.523,2.523,0,0,1,2.326-2.123c3.062-.467,6.119-.967,9.179-1.456,2.458-.392,4.917-.784,7.373-1.191a.588.588,0,0,0,.372-.275q.578-1.128,1.109-2.28a3.575,3.575,0,0,1,2.045-2.014,3.966,3.966,0,0,1-.978-5.043,3.876,3.876,0,0,1,7.233,1.624c.206,1.674-.751,3.091-2.727,4.043a9.31,9.31,0,0,1,.678.835,9.652,9.652,0,0,1,.489.967h1.617c0-.394,0-.75,0-1.106,0-.549-.012-1.1.018-1.645a.647.647,0,0,1,.7-.666.7.7,0,0,1,.666.717c.005.1,0,.2,0,.3q0,9.988,0,19.975a1.76,1.76,0,0,1-.072.511.6.6,0,0,1-.667.427.618.618,0,0,1-.6-.526,2.3,2.3,0,0,1-.027-.447q0-2.356,0-4.713v-.434H52.931v.394c0,1.633,0,3.266,0,4.9,0,.544-.252.838-.693.832a.613.613,0,0,1-.64-.513,1.973,1.973,0,0,1-.039-.445q0-4.169,0-8.339a1.581,1.581,0,0,1,.065-.552c.152-.389.5-.434.868-.434q3.069,0,6.137,0ZM71.485,173v0c.947,0,1.895,0,2.843,0q3.553.008,7.106.02c.688,0,.956-.148,1.191-.739.67-1.687,1.344-3.373,1.99-5.071a4.616,4.616,0,0,0,.4-1.528,2.143,2.143,0,0,0-1.666-2.044,2.063,2.063,0,0,0-2.5,1.258c-.429.911-.88,1.811-1.3,2.726a1.037,1.037,0,0,1-.846.641q-3.556.558-7.112,1.127-5.012.794-10.024,1.583a1.062,1.062,0,0,0-.871.62c-.408.9-.264,1.406.806,1.4Q66.492,172.993,71.485,173Zm16.436,1.439H52.959v1.3H87.921ZM81.5,159.268a2.5,2.5,0,0,0,2.516,2.5,2.507,2.507,0,1,0-.045-5.013A2.5,2.5,0,0,0,81.5,159.268Zm4.987,6.924L83.832,173H87.9v-6.812Z" transform="translate(-51.556 -155.364)"/><path class="c" d="M75.944,174.7a.663.663,0,0,1-.681-.623.654.654,0,0,1,.62-.741c1.211-.135,2.425-.25,3.638-.374l3.9-.4c.433-.044.865-.1,1.3-.121a.8.8,0,0,0,.76-.469c.635-1.211,1.312-2.4,1.968-3.6a.718.718,0,0,1,.738-.46.678.678,0,0,1,.5,1.045c-.365.694-.752,1.375-1.131,2.061-.4.73-.81,1.457-1.207,2.19a.925.925,0,0,1-.8.517c-2.328.231-4.653.484-6.98.724C77.717,174.541,76.862,174.615,75.944,174.7Z" transform="translate(-56.737 -158.107)"/></g></g></g></svg>