<svg xmlns="http://www.w3.org/2000/svg" width="69" height="69" viewBox="0 0 69 69"><defs><style>.a{fill:#fff;}.b,.d{fill:#e21f26;}.c{fill:none;stroke-linecap:round;stroke-linejoin:round;}.c,.d{stroke:#e21f26;}.d{stroke-miterlimit:10;stroke-width:0.3px;}</style></defs><g transform="translate(-513 -2461.25)"><circle class="a" cx="34.5" cy="34.5" r="34.5" transform="translate(513 2461.25)"/><g transform="translate(476.825 2187.273)"><g transform="translate(50.736 297.093)"><path class="b" d="M59.238,317.571c.067-.516.1-.984.191-1.438a2.748,2.748,0,0,1,2.531-2.311c3.333-.508,6.66-1.052,9.989-1.583,2.675-.428,5.351-.854,8.024-1.3a.643.643,0,0,0,.4-.3q.629-1.229,1.207-2.482a3.888,3.888,0,0,1,2.226-2.192,4.318,4.318,0,0,1-1.065-5.49,4.218,4.218,0,0,1,7.872,1.767c.225,1.822-.817,3.364-2.967,4.4a10.155,10.155,0,0,1,.736.909,10.32,10.32,0,0,1,.533,1.052h1.759c0-.429,0-.817,0-1.205,0-.6-.014-1.195.019-1.79a.7.7,0,0,1,.761-.724.761.761,0,0,1,.724.78c.006.109,0,.218,0,.326q0,10.87,0,21.739a1.915,1.915,0,0,1-.078.556.65.65,0,0,1-.725.465.674.674,0,0,1-.651-.573,2.564,2.564,0,0,1-.03-.486q0-2.565,0-5.13V322.1h-38.1v.429c0,1.777,0,3.556,0,5.333,0,.592-.273.913-.753.906a.667.667,0,0,1-.7-.559,2.193,2.193,0,0,1-.043-.485q0-4.537,0-9.075a1.689,1.689,0,0,1,.071-.6c.165-.423.546-.473.945-.472q3.338,0,6.678,0Zm13.55-.035v0c1.032,0,2.062,0,3.094,0q3.866.009,7.733.023c.749,0,1.04-.162,1.3-.805.73-1.836,1.463-3.671,2.166-5.518a5.008,5.008,0,0,0,.434-1.663,2.333,2.333,0,0,0-1.813-2.225,2.245,2.245,0,0,0-2.719,1.37c-.467.991-.958,1.97-1.417,2.965a1.13,1.13,0,0,1-.921.7q-3.872.607-7.741,1.226-5.453.864-10.908,1.723a1.157,1.157,0,0,0-.949.676c-.444.978-.287,1.529.877,1.527Q67.353,317.529,72.787,317.537ZM90.675,319.1H52.625v1.418H90.675Zm-6.982-16.511a2.717,2.717,0,0,0,2.738,2.725,2.727,2.727,0,1,0-.048-5.455A2.716,2.716,0,0,0,83.692,302.593Zm5.427,7.537-2.895,7.413h4.424v-7.413Z" transform="translate(-51.098 -298.344)"/><path class="b" d="M75.546,318.281a.721.721,0,0,1-.741-.678.71.71,0,0,1,.674-.805c1.319-.148,2.64-.273,3.959-.407q2.124-.216,4.246-.432c.471-.048.941-.106,1.414-.133a.869.869,0,0,0,.827-.509c.691-1.319,1.428-2.613,2.143-3.919a.779.779,0,0,1,.8-.5.738.738,0,0,1,.543,1.137c-.4.754-.818,1.5-1.23,2.243-.439.794-.882,1.585-1.314,2.383a1.01,1.01,0,0,1-.867.563c-2.533.25-5.064.526-7.6.787C77.477,318.106,76.546,318.187,75.546,318.281Z" transform="translate(-54.644 -300.221)"/></g><rect class="c" width="24.314" height="12.607" transform="translate(48.675 291.603)"/><path class="c" d="M50.537,289.975H74.85v12.607" transform="translate(-0.278 0)"/><circle class="c" cx="4.391" cy="4.391" r="4.391" transform="translate(56.44 293.515)"/><g transform="translate(59.248 295.428)"><path class="d" d="M64.274,296.764H63.033a1.127,1.127,0,0,1,.421.767h.82v.376h-.812c-.075.767-.685,1.256-1.647,1.286.587.61,1.226,1.377,1.858,2.152h-.722c-.587-.708-1.136-1.362-1.843-2.113v-.467h.413c.813,0,1.248-.338,1.3-.857H61.108v-.376H62.8c-.105-.436-.5-.655-1.158-.655h-.534v-.489h3.166Z" transform="translate(-61.108 -296.387)"/></g></g></g></svg>