<svg xmlns="http://www.w3.org/2000/svg" width="240.752" height="176.564" viewBox="0 0 240.752 176.564">
  <g id="health-insurance-for-diabetic" transform="translate(4354 21298.076)">
    <path id="Path_20457" data-name="Path 20457" d="M351.607,1233.53c-21.72,4.769-43.921.3-65.678-1.864-14.324-1.425-28.135.513-42.494,1.567-36.5,2.677-77-2.034-88.673-35.766-9.73-28.109,6-69.821,39.889-86.326,11.723-5.71,23.658-6.837,35.3-5.665,6.993.7,14.79,3.387,22.323.56,7.946-2.978,13.825-11.252,19.2-17.21,8-8.874,16.435-18.174,27.159-24.169,24.6-13.758,39.223-.344,46.612,21.7,3.593,10.722,5.5,21.893,8.394,32.8,4.1,15.464,13.006,26.7,23.032,39.141,8.926,11.083,17.28,24.047,15.841,38.107-1.631,15.959-16.01,29.045-32.038,34.627a77.328,77.328,0,0,1-8.865,2.5" transform="translate(-4505.92 -22357.16)" fill="#f7f7f7"/>
    <path id="Path_20458" data-name="Path 20458" d="M119.135,1129.511c0-55.169,45.849-99.893,102.406-99.893s102.406,44.724,102.406,99.893" transform="translate(-4453.807 -22290.678)" fill="none" stroke="#000" stroke-miterlimit="10" stroke-width="0.906" stroke-dasharray="3.623 3.623"/>
    <g id="energy-illustration" transform="translate(-4420.602 -23875.742)">
      <rect id="Rectangle_11732" data-name="Rectangle 11732" width="137" height="141" transform="translate(126.602 2601.822)" fill="none"/>
      <g id="Group_6129" data-name="Group 6129" transform="translate(138.39 2628.849)">
        <g id="Group_3682" data-name="Group 3682" transform="translate(12.297 0)">
          <path id="Path_18334" data-name="Path 18334" d="M335.126,221.343h0a8.718,8.718,0,0,0,9-9.3l-1.412-20.969a6.567,6.567,0,0,0-6.33-6.149h0a6.579,6.579,0,0,0-6.75,5.7l-2.842,20.821a8.714,8.714,0,0,0,8.334,9.9Z" transform="translate(-301.032 -158.578)" fill="#eacdcd"/>
          <path id="Path_18335" data-name="Path 18335" d="M344.03,219.019s-7.092,7.873-16.362-.14l.5.327c4.108,5.5,9.474,7.721,16.2,9.1h.227" transform="translate(-301.483 -174.554)" fill="#ddbcbc"/>
          <path id="Path_18336" data-name="Path 18336" d="M330.233,152.091h0a13.652,13.652,0,0,0-13.814,13.745l.119,8.907a19.417,19.417,0,0,0,2.011,8.518c2.461,4.868,6.4,7.6,12.216,7.6h0c4.252,0,7.62-1.279,10-4.4a19.157,19.157,0,0,0,3.764-11.928l-.116-8.7A14.1,14.1,0,0,0,330.233,152.091Z" transform="translate(-296.19 -143.134)" fill="#eacdcd"/>
          <path id="Path_18337" data-name="Path 18337" d="M321.193,235.481l.007.11a8.851,8.851,0,0,1,.015.893,8.712,8.712,0,1,1-17.391-1c-4.455,1.209-26.778,7.94-25.556,21.122.177,1.916.346,3.832.346,5.757v27.781h69.977V253.655S350.339,241.63,321.193,235.481Z" transform="translate(-278.22 -182.365)" fill="#e6e6e6"/>
          <ellipse id="Ellipse_888" data-name="Ellipse 888" cx="1.349" cy="1.349" rx="1.349" ry="1.349" transform="translate(25.736 25.58)" fill="#0a0b0b"/>
          <path id="Path_18338" data-name="Path 18338" d="M329.357,179.2l.442-.614a6.253,6.253,0,0,0-7.809.453l.518.565A5.4,5.4,0,0,1,329.357,179.2Z" transform="translate(-298.811 -155.053)" fill="#0a0b0b"/>
          <ellipse id="Ellipse_889" data-name="Ellipse 889" cx="1.349" cy="1.349" rx="1.349" ry="1.349" transform="translate(39.756 25.58)" fill="#0a0b0b"/>
          <path id="Path_18339" data-name="Path 18339" d="M355.833,179.2l.442-.614a6.254,6.254,0,0,0-7.81.453l.518.565A5.4,5.4,0,0,1,355.833,179.2Z" transform="translate(-311.267 -155.053)" fill="#0a0b0b"/>
          <path id="Path_18340" data-name="Path 18340" d="M341.23,190s.183,6.193-.478,7.351,2.3.421,2.3.421" transform="translate(-307.593 -160.97)" fill="none" stroke="#9f9f9f" stroke-miterlimit="10" stroke-width="0.3"/>
          <path id="Path_18341" data-name="Path 18341" d="M342.982,212.88a8.082,8.082,0,0,1-6.83-.136" transform="translate(-305.474 -171.668)" fill="none" stroke="#9f9f9f" stroke-miterlimit="10" stroke-width="0.3"/>
          <g id="Group_2030" data-name="Group 2030" transform="translate(47.75 25.984)">
            <path id="Path_18342" data-name="Path 18342" d="M368.392,192.05c2.047.037,3.741-2.63,3.775-4.788s-1.638-3-3.636-3.018Z" transform="translate(-368.392 -184.244)" fill="#eacdcd"/>
            <path id="Path_18343" data-name="Path 18343" d="M371.274,189.063a3.3,3.3,0,0,0-1.326,2.794,1.933,1.933,0,0,1,1.288-.309" transform="translate(-369.122 -186.511)" fill="none" stroke="#9f9f9f" stroke-miterlimit="10" stroke-width="0.3"/>
          </g>
          <g id="Group_2031" data-name="Group 2031" transform="translate(16.859 25.984)">
            <path id="Path_18344" data-name="Path 18344" d="M313.831,192.05c-2.047.037-3.741-2.63-3.775-4.788s1.638-3,3.636-3.018Z" transform="translate(-310.056 -184.244)" fill="#eacdcd"/>
            <path id="Path_18345" data-name="Path 18345" d="M313.122,189.063a3.3,3.3,0,0,1,1.326,2.794,1.933,1.933,0,0,0-1.288-.309" transform="translate(-311.499 -186.511)" fill="none" stroke="#9f9f9f" stroke-miterlimit="10" stroke-width="0.3"/>
          </g>
          <path id="Path_18346" data-name="Path 18346" d="M312.159,161.16a10.464,10.464,0,0,0,2.349-6.689s5.325-2.453,5.605-6.867c0,0,8.969,6.236,14.5,2.593,0,0,2.733.21,2.453,2.242,0,0,1.611,10.44,2.732,8.689,0,0,1.682-1.892,1.4-9.109,0,0,3.293-1.4,1.121-4.694,0,0,.21-8.338-9.319-9.039,0,0-1.369-1-2.856-1.961a6.884,6.884,0,0,0-8.193.425q-.191.164-.372.345s-6.517-1.121-9.459,4.414c0,0-6.586-.082-5.115,6.476,0,0-.281,4.946,2.592,6.488Z" transform="translate(-291.664 -135.176)" fill="#0a0b0b"/>
          <line id="Line_33" data-name="Line 33" y2="36.166" transform="translate(13.149 71.171)" fill="none" stroke="#040505" stroke-miterlimit="10" stroke-width="0.3"/>
          <line id="Line_34" data-name="Line 34" y2="36.166" transform="translate(58.542 71.171)" fill="none" stroke="#040505" stroke-miterlimit="10" stroke-width="0.3"/>
          <path id="Path_20099" data-name="Path 20099" d="M0,0A19.628,19.628,0,0,0,6.883,1.64,14.548,14.548,0,0,0,13.116,0V12.3H0Z" transform="translate(40.988 73.181)" fill="#da3c4a"/>
        </g>
        <path id="Path_18435" data-name="Path 18435" d="M233.842,734.567" transform="translate(-209.574 -637.61)" fill="#eb4b4d"/>
        <rect id="Rectangle_501" data-name="Rectangle 501" width="95.269" height="1.524" rx="0.762" transform="translate(0 107.591)" fill="#da3c4a"/>
      </g>
      <g id="diabetes-test" transform="translate(213.488 2642.037)">
        <path id="Path_21818" data-name="Path 21818" d="M61.823,8.12a10.392,10.392,0,0,0-7.648-3.37H34.532A10.363,10.363,0,0,0,24.208,16.026l1.571,17.784A18.537,18.537,0,0,0,37.547,49.533a18.131,18.131,0,0,0,2.88.862V63.917a.886.886,0,0,0,.887.887h6.081a.886.886,0,0,0,.887-.887V50.4a18.14,18.14,0,0,0,2.879-.862,18.666,18.666,0,0,0,11.769-15.72L64.5,16.026A10.385,10.385,0,0,0,61.823,8.12ZM46.508,63.03H42.2v-20.1h4.308ZM62.733,15.874,61.162,33.657A16.894,16.894,0,0,1,50.51,47.883a16.323,16.323,0,0,1-2.23.694v-5.65h1.395a.887.887,0,0,0,0-1.774H39.033a.887.887,0,1,0,0,1.774h1.394v5.65a16.321,16.321,0,0,1-2.23-.7A16.774,16.774,0,0,1,27.545,33.655L25.974,15.874a8.492,8.492,0,0,1,2.219-6.556,8.615,8.615,0,0,1,6.339-2.794H54.175a8.615,8.615,0,0,1,6.339,2.791,8.492,8.492,0,0,1,2.219,6.559Z" transform="translate(-24.167 -4.75)" fill="#eb4c4c"/>
        <path id="Path_21819" data-name="Path 21819" d="M69.387,12.524h4.5a.887.887,0,1,0,0-1.774h-4.5a.887.887,0,1,0,0,1.774Z" transform="translate(-46.033 -7.709)" fill="#eb4c4c"/>
        <path id="Path_21820" data-name="Path 21820" d="M63.438,22.243H40.97a.886.886,0,0,0-.887.887V35.969a.886.886,0,0,0,.887.887H63.438a.886.886,0,0,0,.887-.887V23.13a.886.886,0,0,0-.887-.887Zm-.887,12.839Z" transform="translate(-32.017 -13.378)" fill="#eb4c4c"/>
        <path id="Path_21821" data-name="Path 21821" d="M50.184,36.535a.887.887,0,0,0,1.192,0c.253-.23,2.476-2.307,2.476-4.32a3.081,3.081,0,1,0-6.145,0c0,2.007,2.223,4.089,2.476,4.32Zm.6-5.851c.874,0,1.3.5,1.3,1.531a4.551,4.551,0,0,1-1.3,2.394,4.609,4.609,0,0,1-1.3-2.394C49.482,31.185,49.906,30.684,50.781,30.684Z" transform="translate(-35.778 -16.666)" fill="#fff"/>
        <path id="Path_21822" data-name="Path 21822" d="M42.49,56.918A2.407,2.407,0,1,0,44.9,59.325a2.407,2.407,0,0,0-2.407-2.407Zm0,3.041a.633.633,0,1,1,.633-.633A.633.633,0,0,1,42.49,59.959Z" transform="translate(-32.017 -30.48)" fill="#eb4c4c"/>
        <path id="Path_21823" data-name="Path 21823" d="M55.268,56.918a2.407,2.407,0,1,0,2.407,2.407A2.407,2.407,0,0,0,55.268,56.918Zm0,3.041a.633.633,0,1,1,.633-.633A.634.634,0,0,1,55.268,59.959Z" transform="translate(-38.32 -30.48)" fill="#eb4c4c"/>
        <path id="Path_21824" data-name="Path 21824" d="M68.046,56.918a2.407,2.407,0,1,0,2.407,2.407A2.407,2.407,0,0,0,68.046,56.918Zm0,3.041a.633.633,0,1,1,.633-.633.634.634,0,0,1-.633.633Z" transform="translate(-44.622 -30.48)" fill="#eb4c4c"/>
        <path id="Path_21825" data-name="Path 21825" d="M80.824,56.918a2.407,2.407,0,1,0,2.407,2.407A2.407,2.407,0,0,0,80.824,56.918Zm0,3.041a.633.633,0,1,1,.633-.633A.633.633,0,0,1,80.824,59.959Z" transform="translate(-50.924 -30.48)" fill="#eb4c4c"/>
      </g>
    </g>
  </g>
</svg>
