<svg xmlns="http://www.w3.org/2000/svg" width="242.606" height="177.924" viewBox="0 0 242.606 177.924">
  <g id="Health_Plan_for_Caring_Families" data-name="Health Plan for Caring Families" transform="translate(-175 -4978.234)">
    <path id="Path_20101" data-name="Path 20101" d="M353.145,1234.873c-21.887,4.806-44.259.3-66.184-1.878-14.435-1.436-28.351.517-42.821,1.579-36.782,2.7-77.589-2.05-89.355-36.041-9.8-28.326,6.045-70.358,40.2-86.991,11.813-5.754,23.84-6.89,35.575-5.708,7.047.71,14.9,3.413,22.494.564,8.007-3,13.931-11.339,19.343-17.343,8.057-8.942,16.562-18.313,27.368-24.355,24.787-13.864,39.525-.346,46.971,21.872,3.62,10.8,5.545,22.062,8.459,33.048,4.132,15.583,13.106,26.9,23.209,39.442,8.994,11.168,17.413,24.232,15.963,38.4-1.644,16.082-16.134,29.269-32.285,34.893a77.883,77.883,0,0,1-8.933,2.517" transform="translate(23.08 3919.15)" fill="#f7f7f7"/>
    <path id="Path_20100" data-name="Path 20100" d="M119.135,1130.281c0-55.593,46.2-100.662,103.194-100.662s103.195,45.068,103.195,100.662" transform="translate(75.342 3985.918)" fill="none" stroke="#000" stroke-miterlimit="10" stroke-width="0.906" stroke-dasharray="3.623 3.623"/>
    <g id="Group_2030" data-name="Group 2030" transform="translate(225.086 5018.705)">
      <g id="Group_2032" data-name="Group 2032" transform="translate(63.267 0)">
        <path id="Path_18334" data-name="Path 18334" d="M335.731,223.961h0a9.343,9.343,0,0,0,9.646-9.971l-1.514-22.476a7.039,7.039,0,0,0-6.785-6.59h0a7.052,7.052,0,0,0-7.235,6.111L326.8,213.352a9.341,9.341,0,0,0,8.934,10.609Z" transform="translate(-299.186 -156.685)" fill="#eacdcd"/>
        <path id="Path_18335" data-name="Path 18335" d="M345.206,219.029s-7.6,8.439-17.539-.15l.536.351c4.4,5.9,10.154,8.276,17.366,9.755h.243" transform="translate(-299.601 -171.368)" fill="#ddbcbc"/>
        <path id="Path_18336" data-name="Path 18336" d="M331.226,152.091h0a14.634,14.634,0,0,0-14.807,14.733l.127,9.547A20.813,20.813,0,0,0,318.7,185.5c2.638,5.218,6.861,8.148,13.094,8.148h0c4.557,0,8.168-1.371,10.721-4.712a20.534,20.534,0,0,0,4.034-12.785l-.124-9.329A15.111,15.111,0,0,0,331.226,152.091Z" transform="translate(-294.736 -142.49)" fill="#eacdcd"/>
        <path id="Path_18337" data-name="Path 18337" d="M324.282,235.481l.008.118a9.458,9.458,0,0,1,.016.958,9.338,9.338,0,1,1-18.641-1.076c-4.775,1.3-28.7,8.511-27.393,22.64.19,2.054.371,4.108.371,6.171v29.778H353.65V254.961S355.523,242.071,324.282,235.481Z" transform="translate(-278.22 -178.128)" fill="#e6e6e6"/>
        <ellipse id="Ellipse_888" data-name="Ellipse 888" cx="1.446" cy="1.446" rx="1.446" ry="1.446" transform="translate(27.586 27.418)" fill="#0a0b0b"/>
        <path id="Path_18338" data-name="Path 18338" d="M329.886,179.325l.473-.658a6.7,6.7,0,0,0-8.37.485l.555.606A5.785,5.785,0,0,1,329.886,179.325Z" transform="translate(-297.145 -153.445)" fill="#0a0b0b"/>
        <ellipse id="Ellipse_889" data-name="Ellipse 889" cx="1.446" cy="1.446" rx="1.446" ry="1.446" transform="translate(42.614 27.418)" fill="#0a0b0b"/>
        <path id="Path_18339" data-name="Path 18339" d="M356.362,179.325l.474-.658a6.7,6.7,0,0,0-8.371.485l.555.606A5.785,5.785,0,0,1,356.362,179.325Z" transform="translate(-308.593 -153.445)" fill="#0a0b0b"/>
        <path id="Path_18340" data-name="Path 18340" d="M341.271,190s.2,6.638-.512,7.88,2.462.452,2.462.452" transform="translate(-305.217 -158.883)" fill="none" stroke="#9f9f9f" stroke-miterlimit="10" stroke-width="0.3"/>
        <path id="Path_18341" data-name="Path 18341" d="M343.472,212.889a8.663,8.663,0,0,1-7.32-.145" transform="translate(-303.269 -168.716)" fill="none" stroke="#9f9f9f" stroke-miterlimit="10" stroke-width="0.3"/>
        <g id="Group_2030-2" data-name="Group 2030" transform="translate(51.182 27.851)">
          <path id="Path_18342" data-name="Path 18342" d="M368.392,192.611c2.194.04,4.01-2.819,4.046-5.132s-1.756-3.214-3.9-3.235Z" transform="translate(-368.392 -184.244)" fill="#eacdcd"/>
          <path id="Path_18343" data-name="Path 18343" d="M371.369,189.063a3.531,3.531,0,0,0-1.421,3,2.071,2.071,0,0,1,1.38-.331" transform="translate(-369.063 -186.328)" fill="none" stroke="#9f9f9f" stroke-miterlimit="10" stroke-width="0.3"/>
        </g>
        <g id="Group_2031" data-name="Group 2031" transform="translate(18.071 27.851)">
          <path id="Path_18344" data-name="Path 18344" d="M314.1,192.611c-2.194.04-4.01-2.819-4.046-5.132s1.756-3.214,3.9-3.235Z" transform="translate(-310.056 -184.244)" fill="#eacdcd"/>
          <path id="Path_18345" data-name="Path 18345" d="M313.122,189.063a3.531,3.531,0,0,1,1.421,3,2.071,2.071,0,0,0-1.38-.331" transform="translate(-311.382 -186.328)" fill="none" stroke="#9f9f9f" stroke-miterlimit="10" stroke-width="0.3"/>
        </g>
        <path id="Path_18346" data-name="Path 18346" d="M312.544,163.027a11.217,11.217,0,0,0,2.518-7.17s5.708-2.629,6.008-7.361c0,0,9.614,6.685,15.547,2.779,0,0,2.929.225,2.629,2.4,0,0,1.727,11.191,2.929,9.313,0,0,1.8-2.028,1.5-9.764,0,0,3.53-1.5,1.2-5.032,0,0,.225-8.938-9.989-9.688,0,0-1.467-1.069-3.062-2.1a7.379,7.379,0,0,0-8.781.456q-.2.175-.4.37s-6.985-1.2-10.139,4.732c0,0-7.06-.088-5.483,6.941,0,0-.3,5.3,2.778,6.954Z" transform="translate(-290.576 -135.176)" fill="#0a0b0b"/>
        <line id="Line_33" data-name="Line 33" y2="38.766" transform="translate(14.094 76.287)" fill="none" stroke="#040505" stroke-miterlimit="10" stroke-width="0.3"/>
        <line id="Line_34" data-name="Line 34" y2="38.766" transform="translate(62.75 76.287)" fill="none" stroke="#040505" stroke-miterlimit="10" stroke-width="0.3"/>
      </g>
      <g id="Group_2038" data-name="Group 2038" transform="translate(3.471 2.999)">
        <g id="Group_2033" data-name="Group 2033" transform="translate(10.078)">
          <ellipse id="Ellipse_890" data-name="Ellipse 890" cx="24.534" cy="24.534" rx="24.534" ry="24.534" transform="translate(5.659)" fill="#0a0b0b"/>
          <path id="Path_18347" data-name="Path 18347" d="M197.093,193.007s9.173,15.45,2.066,27.346a9.224,9.224,0,0,1-2.062,2.333c-2.534,2.1-8.6,8.132-5.7,15.656,0,0,37.845,28.06,58.84-1.749,0,0,3.5-6.539-7-14.934,0,0-3.558-2.133-3.273-11.05a32.722,32.722,0,0,1,1.407-8.342c.766-2.555,1.954-6.291,3.174-9.26C246.61,187.991,197.093,193.007,197.093,193.007Z" transform="translate(-190.628 -162.217)" fill="#0a0b0b"/>
        </g>
        <path id="Path_18348" data-name="Path 18348" d="M232.318,162.37h0a14.163,14.163,0,0,0-14.33,14.259l.123,9.24a20.147,20.147,0,0,0,2.085,8.837c2.553,5.049,6.64,9.02,12.672,9.02h0c4.411,0,7.9-2.462,10.376-5.7a19.869,19.869,0,0,0,3.9-12.374l-.12-9.029A14.625,14.625,0,0,0,232.318,162.37Z" transform="translate(-192.379 -149.934)" fill="#eacdcd"/>
        <ellipse id="Ellipse_891" data-name="Ellipse 891" cx="1.4" cy="1.4" rx="1.4" ry="1.4" transform="translate(31.321 29.681)" fill="#0a0b0b"/>
        <path id="Path_18349" data-name="Path 18349" d="M231.022,188.728l.458-.637a6.486,6.486,0,0,0-8.1.469l.537.586A5.6,5.6,0,0,1,231.022,188.728Z" transform="translate(-194.711 -160.537)" fill="#0a0b0b"/>
        <ellipse id="Ellipse_892" data-name="Ellipse 892" cx="1.4" cy="1.4" rx="1.4" ry="1.4" transform="translate(45.866 29.681)" fill="#0a0b0b"/>
        <path id="Path_18350" data-name="Path 18350" d="M235.546,242.14h0a9.77,9.77,0,0,0,10.1-9.426,9.664,9.664,0,0,0-.016-1l-1.583-23.505a7.362,7.362,0,0,0-7.1-6.892h0a7.375,7.375,0,0,0-7.566,6.391L226.2,231.045a9.771,9.771,0,0,0,9.343,11.1Z" transform="translate(-195.892 -166.771)" fill="#eacdcd"/>
        <path id="Path_18351" data-name="Path 18351" d="M256.646,188.728l.458-.637a6.486,6.486,0,0,0-8.1.469l.537.586A5.6,5.6,0,0,1,256.646,188.728Z" transform="translate(-205.79 -160.537)" fill="#0a0b0b"/>
        <path id="Path_18352" data-name="Path 18352" d="M242.04,199.062s.19,6.425-.5,7.626,2.383.437,2.383.437" transform="translate(-202.522 -165.799)" fill="none" stroke="#9f9f9f" stroke-miterlimit="10" stroke-width="0.3"/>
        <path id="Path_18353" data-name="Path 18353" d="M244.171,221.212a8.383,8.383,0,0,1-7.085-.141" transform="translate(-200.638 -175.315)" fill="none" stroke="#9f9f9f" stroke-miterlimit="10" stroke-width="0.3"/>
        <path id="Path_18354" data-name="Path 18354" d="M216.577,168.44s2.609,6.222,18.465-10.035c0,0,8.831-7.025,12.042,15.655l.8-12.644-6.354-12.205-13.114,2.973-11.841,8.028Z" transform="translate(-191.77 -144.243)" fill="#0a0b0b"/>
        <g id="Group_2034" data-name="Group 2034" transform="translate(54.159 28.965)">
          <path id="Path_18355" data-name="Path 18355" d="M268.288,199.587c2.123.038,3.881-2.729,3.916-4.967s-1.7-3.11-3.772-3.131Z" transform="translate(-268.288 -191.489)" fill="#eacdcd"/>
          <path id="Path_18356" data-name="Path 18356" d="M271.17,196.153a3.419,3.419,0,0,0-1.375,2.9,2.007,2.007,0,0,1,1.336-.32" transform="translate(-268.938 -193.506)" fill="none" stroke="#9f9f9f" stroke-miterlimit="10" stroke-width="0.3"/>
        </g>
        <g id="Group_2035" data-name="Group 2035" transform="translate(22.112 28.965)">
          <path id="Path_18357" data-name="Path 18357" d="M215.746,199.587c-2.123.038-3.881-2.729-3.916-4.967s1.7-3.11,3.772-3.131Z" transform="translate(-211.829 -191.489)" fill="#eacdcd"/>
          <path id="Path_18358" data-name="Path 18358" d="M214.8,196.153a3.419,3.419,0,0,1,1.375,2.9,2.007,2.007,0,0,0-1.336-.32" transform="translate(-213.112 -193.506)" fill="none" stroke="#9f9f9f" stroke-miterlimit="10" stroke-width="0.3"/>
        </g>
        <path id="Path_18359" data-name="Path 18359" d="M245.848,229.154s-7.357,8.167-16.974-.145l.519.339a27.994,27.994,0,0,0,16.979,11.085h.236" transform="translate(-197.087 -178.748)" fill="#ddbcbc"/>
        <path id="Path_18360" data-name="Path 18360" d="M213.339,251.821S192.505,254.9,197,259.394c0,0-4.5,17.353,16.344,16.589l33.325-1.38,2.806-5.388s3.8-1.587-.01-5.3c-.46-.448,2.007-2.412,1.463-2.887a33.57,33.57,0,0,0-18.138-8.6" transform="translate(-183.029 -188.612)" fill="#eacdcd"/>
        <path id="Path_18361" data-name="Path 18361" d="M244.367,257.673l-5.98,4.057c-8.729,6.167-20.881,5.422-29.414-1.013l-5.712-4.308-3.786,46.758,48.487.316Z" transform="translate(-184.375 -190.596)" fill="#dbdbdb"/>
        <path id="Path_18362" data-name="Path 18362" d="M205.254,281.784s-2.4,17.634-2.4,21.661" transform="translate(-185.834 -201.567)" fill="none" stroke="#040505" stroke-miterlimit="10" stroke-width="0.3"/>
        <path id="Path_18363" data-name="Path 18363" d="M283.189,252.136s4.342,1.76,5.149,6.08" transform="translate(-220.572 -188.748)" fill="none" stroke="#fff" stroke-miterlimit="10" stroke-width="0.5"/>
        <path id="Path_18364" data-name="Path 18364" d="M220.551,175.544s0,4.934,8.786-3.656" transform="translate(-193.488 -154.049)" fill="none" stroke="#fff" stroke-miterlimit="10" stroke-width="0.5"/>
        <path id="Path_18365" data-name="Path 18365" d="M205.049,241.336s2.486-1.831,3.848-7.182" transform="translate(-186.785 -180.972)" fill="none" stroke="#fff" stroke-miterlimit="10" stroke-width="0.5"/>
        <path id="Path_18366" data-name="Path 18366" d="M200.217,317.743" transform="translate(-184.696 -217.116)" fill="#eb4b4d"/>
        <g id="Group_2036" data-name="Group 2036" transform="translate(0 65.814)">
          <path id="Path_18367" data-name="Path 18367" d="M176.888,315.1v13.812l13.864.536.274-14.819Z" transform="translate(-174.609 -281.582)" fill="#f8f8f8"/>
          <path id="Path_18368" data-name="Path 18368" d="M192.407,256.41s-12.607.614-18.035,34.119l15.521-.471Z" transform="translate(-173.521 -256.41)" fill="#dbdbdb"/>
          <path id="Path_18369" data-name="Path 18369" d="M178.2,311.31s6.937,1.7,12.713-.409" transform="translate(-175.176 -279.972)" fill="none" stroke="#fff" stroke-miterlimit="10" stroke-width="1"/>
          <path id="Path_18370" data-name="Path 18370" d="M172.872,318.573" transform="translate(-172.872 -283.289)" fill="#eb4b4d"/>
          <path id="Path_18371" data-name="Path 18371" d="M174.372,316.137s11.8,2.356,15.521-.447" transform="translate(-173.521 -282.042)" fill="#dbdbdb"/>
        </g>
        <g id="Group_2037" data-name="Group 2037" transform="translate(59.992 67.078)">
          <path id="Path_18372" data-name="Path 18372" d="M298.027,318.718l-1.133,10.636-13.864.536-.274-11.681Z" transform="translate(-280.377 -284.395)" fill="#dbdbdb"/>
          <path id="Path_18373" data-name="Path 18373" d="M278.565,258.636s17.65,5.621,18.9,34.9l-16.491.327Z" transform="translate(-278.565 -258.636)" fill="#dbdbdb"/>
          <path id="Path_18374" data-name="Path 18374" d="M299.975,314.894s-6.937,1.7-12.713-.409" transform="translate(-282.326 -282.785)" fill="#dbdbdb" stroke="#fff" stroke-miterlimit="10" stroke-width="1"/>
          <path id="Path_18375" data-name="Path 18375" d="M314.988,322.157" transform="translate(-294.314 -286.102)" fill="#dbdbdb"/>
          <path id="Path_18376" data-name="Path 18376" d="M299.515,320.125s-12.476,3.005-16.2.2" transform="translate(-280.618 -285.223)" fill="#dbdbdb"/>
        </g>
        <path id="Path_18377" data-name="Path 18377" d="M280.065,281.784s1.527,16.647,1.527,20.675" transform="translate(-219.221 -201.567)" fill="none" stroke="#040505" stroke-miterlimit="10" stroke-width="0.3"/>
        <path id="Path_18378" data-name="Path 18378" d="M246.678,259.408c-22.258,23.671-43.828-1.582-43.828-1.582" transform="translate(-185.834 -191.208)" fill="none" stroke="#fff" stroke-miterlimit="10" stroke-width="1"/>
      </g>
      <rect id="Rectangle_499" data-name="Rectangle 499" width="145.429" height="1.639" rx="0.82" transform="translate(0 115.288)" fill="#da3c4a"/>
      <g id="Group_2042" data-name="Group 2042" transform="translate(52.711 38.772)">
        <path id="Path_18379" data-name="Path 18379" d="M274.67,309.7h18.78V272.124c-4.393-.056-11.309.187-11.309.187s-3.334.952-8.444,3.033c-1.8.732.516,12.617.939,24.191C275.027,310.2,274.943,305.3,274.67,309.7Z" transform="translate(-265.416 -233.159)" fill="#da3c4a"/>
        <path id="Path_18380" data-name="Path 18380" d="M327.265,312.161h9.625c-.221-1.849-.671,2.793-1.363-8.722-1.334-22.206-6.945-25.636-6.945-25.636s-5.654,29.83-2.641,33.284A5.286,5.286,0,0,0,327.265,312.161Z" transform="translate(-287.915 -235.618)" fill="#da3c4a"/>
        <path id="Path_18381" data-name="Path 18381" d="M269.22,312.161a5.3,5.3,0,0,0,1.324-1.075c3.013-3.454-2.641-33.284-2.641-33.284s-5.649,3.428-6.945,25.636c-.683,11.712-1.114,6.941-1.337,8.722Z" transform="translate(-259.621 -235.618)" fill="#da3c4a"/>
        <path id="Path_18382" data-name="Path 18382" d="M315.247,309.7c-.272-4.406-.357.5.033-10.167.423-11.574,2.736-23.459.939-24.191-5.11-2.081-8.444-3.033-8.444-3.033s-6.916-.242-11.309-.187V309.7Z" transform="translate(-275.553 -233.159)" fill="#da3c4a"/>
        <path id="Path_18383" data-name="Path 18383" d="M304.6,266.326a6.313,6.313,0,0,1-2.311-1.018c-2.129-1.439-1.647-6.385-1.647-6.385l-3.645-.6v-.051l-.154.025-.154-.025v.051l-3.645.6s.482,4.946-1.647,6.385a6.317,6.317,0,0,1-2.311,1.018s2.2,5.077,7.6,5.353v.014c.052,0,.1-.005.154-.007s.1.006.154.007v-.014C302.4,271.4,304.6,266.326,304.6,266.326Z" transform="translate(-272.362 -227.175)" fill="#eacdcd"/>
        <path id="Path_18384" data-name="Path 18384" d="M303.548,261.178a14.967,14.967,0,0,1,.009-2.256l-3.645-.6v-.051l-.154.025-.154-.025v.051l-3.645.6a14.489,14.489,0,0,1-.134,3.439A16.031,16.031,0,0,0,303.548,261.178Z" transform="translate(-275.275 -227.175)" fill="#ddbcbc"/>
        <g id="Group_2039" data-name="Group 2039" transform="translate(11.765 17.25)">
          <path id="Path_18385" data-name="Path 18385" d="M284.333,234.579a3.8,3.8,0,0,0-2.6-.652c-1.281.283-1.665,2.173-1.174,3.738s2.583,3.021,3.906,1.63S284.333,234.579,284.333,234.579Z" transform="translate(-280.349 -233.873)" fill="#eacdcd"/>
          <path id="Path_18386" data-name="Path 18386" d="M317.618,234.579a3.8,3.8,0,0,1,2.6-.652c1.281.283,1.665,2.173,1.174,3.738s-2.583,3.021-3.906,1.63S317.618,234.579,317.618,234.579Z" transform="translate(-296.168 -233.873)" fill="#eacdcd"/>
        </g>
        <path id="Path_18387" data-name="Path 18387" d="M304.4,217.6c-.545-2.013-4.7-6.1-9.043-5.784-4.339-.313-8.5,3.771-9.043,5.784-.406,1.5-1.908,15,1.636,19.09s7.407,4.095,7.407,4.095,3.863,0,7.407-4.095S304.808,219.1,304.4,217.6Z" transform="translate(-270.877 -207.078)" fill="#eacdcd"/>
        <g id="Group_2040" data-name="Group 2040" transform="translate(18.485 16.4)">
          <path id="Path_18388" data-name="Path 18388" d="M292.337,233.059a2.5,2.5,0,0,1,1.943-.677c1.278.087,1.778.9,1.482,1.076-.187.114-.807-.631-1.609-.559a2.819,2.819,0,0,0-1.509.68C292.456,233.788,291.932,233.42,292.337,233.059Z" transform="translate(-292.187 -232.375)" fill="#0a0b0b"/>
          <ellipse id="Ellipse_893" data-name="Ellipse 893" cx="0.909" cy="1.068" rx="0.909" ry="1.068" transform="translate(0.92 2.222)" fill="#0a0b0b"/>
          <path id="Path_18389" data-name="Path 18389" d="M310.385,233.059a2.5,2.5,0,0,0-1.943-.677c-1.278.087-1.778.9-1.483,1.076.188.114.807-.631,1.61-.559a2.819,2.819,0,0,1,1.509.68C310.265,233.788,310.79,233.42,310.385,233.059Z" transform="translate(-298.539 -232.375)" fill="#0a0b0b"/>
          <ellipse id="Ellipse_894" data-name="Ellipse 894" cx="0.909" cy="1.068" rx="0.909" ry="1.068" transform="translate(9.258 2.222)" fill="#0a0b0b"/>
        </g>
        <path id="Path_18390" data-name="Path 18390" d="M284.955,228.251a1.868,1.868,0,0,0,.822-1.265c.228-.967,1.455-7.075,1.455-7.075s-3.272.879-3.226,1.111S284,227.96,284.955,228.251Z" transform="translate(-270.165 -210.586)" fill="#0a0b0b"/>
        <path id="Path_18391" data-name="Path 18391" d="M317.873,228.251a1.867,1.867,0,0,1-.821-1.265c-.229-.967-1.455-7.075-1.455-7.075s3.272.879,3.226,1.111S318.832,227.96,317.873,228.251Z" transform="translate(-283.824 -210.586)" fill="#0a0b0b"/>
        <path id="Path_18392" data-name="Path 18392" d="M303.239,213.918s-4.258,1.919-7.7,1.863-.927-2.389-.927-2.389-6.711,5.476-8.239,3.584,1.8-4.17,1.8-4.17-6.41,5.927-8.17,2.283,3.168-9.347,6.31-9.736-6.434-1,2.624-1.8c8.567-.75,12.1,4.359,12.386,4.645.333.328.667-1.756,1.779-1.756s-.676,2.445-.676,2.445,2.007-.068,2.226,1.077-2.226,0-2.226,0S303.733,213,303.239,213.918Z" transform="translate(-268.276 -203.483)" fill="#0a0b0b"/>
        <g id="Group_2041" data-name="Group 2041" transform="translate(10.985 54.106)">
          <path id="Path_18393" data-name="Path 18393" d="M278.974,304.59q.658,1.309,1.372,2.589" transform="translate(-278.974 -301.307)" fill="none" stroke="#040505" stroke-miterlimit="10" stroke-width="0.3"/>
          <path id="Path_18394" data-name="Path 18394" d="M282.251,301.265a25.363,25.363,0,0,1-.279,6.715c-.246,1.1-.637,2.169-.93,3.26-1.022,3.808-.918,5.81-.706,9.74" transform="translate(-279.502 -299.869)" fill="none" stroke="#040505" stroke-miterlimit="10" stroke-width="0.3"/>
          <path id="Path_18395" data-name="Path 18395" d="M325.057,298.806c.647,6.519,2.431,14.841,2.314,21.39" transform="translate(-298.9 -298.806)" fill="none" stroke="#040505" stroke-miterlimit="10" stroke-width="0.3"/>
        </g>
        <path id="Path_18396" data-name="Path 18396" d="M321.376,237.206a1.983,1.983,0,0,0-.8,1.683,1.163,1.163,0,0,1,.775-.186" transform="translate(-285.977 -218.064)" fill="none" stroke="#9f9f9f" stroke-miterlimit="10" stroke-width="0.3"/>
        <path id="Path_18397" data-name="Path 18397" d="M283.3,237.659a1.985,1.985,0,0,1,.8,1.683,1.161,1.161,0,0,0-.776-.186" transform="translate(-269.86 -218.26)" fill="none" stroke="#9f9f9f" stroke-miterlimit="10" stroke-width="0.3"/>
        <path id="Path_18398" data-name="Path 18398" d="M302.075,244.038a13.851,13.851,0,0,1-.216,3.324c-.3.523,1.038.19,1.038.19" transform="translate(-277.866 -221.019)" fill="none" stroke="#9f9f9f" stroke-miterlimit="10" stroke-width="0.3"/>
        <path id="Path_18399" data-name="Path 18399" d="M303,253.691a3.654,3.654,0,0,1-3.088-.061" transform="translate(-277.044 -225.166)" fill="none" stroke="#9f9f9f" stroke-miterlimit="10" stroke-width="0.3"/>
      </g>
    </g>
  </g>
</svg>
