<svg xmlns="http://www.w3.org/2000/svg" width="69" height="69" viewBox="0 0 69 69"><defs><style>.a{fill:#fff;}.b,.d{fill:#e21f26;}.b,.c,.d{stroke:#e21f26;stroke-miterlimit:10;}.c{fill:none;stroke-width:0.5px;}.d{stroke-width:0.2px;}</style></defs><g transform="translate(-513 -2461)"><circle class="a" cx="34.5" cy="34.5" r="34.5" transform="translate(513 2461)"/><g transform="translate(888.579 513.9)"><path class="b" d="M-361.319,1995.037h35.485v-.387q0-3,0-6a1.13,1.13,0,0,1,.847-1.265,1.1,1.1,0,0,1,1.382.954c.012.125.01.251.01.377q0,7.024,0,14.048c0,.168.092.453-.19.441-.256-.01-.182-.287-.182-.462q0-7.072,0-14.143a.8.8,0,0,0-.39-.794.733.733,0,0,0-1.087.556,2.23,2.23,0,0,0-.011.314v6.222c0,.514,0,.515-.5.515h-35.261c-.474,0-.474,0-.474-.464V1986.3a3.553,3.553,0,0,0-.01-.408.73.73,0,0,0-.669-.641.717.717,0,0,0-.772.506,1.831,1.831,0,0,0-.055.5q0,8.251-.006,16.5c0,.164.106.45-.178.447-.258,0-.194-.279-.194-.456q0-8.234,0-16.468a2.156,2.156,0,0,1,.1-.677,1.089,1.089,0,0,1,1.221-.714,1.117,1.117,0,0,1,.929,1.1c.007,1.079,0,2.158,0,3.237v5.807Z" transform="translate(0 -2.151)"/><path class="b" d="M-326.78,1971.549h-5.813c-.77,0-1.105-.338-1.105-1.111q0-5.216,0-10.432c0-.748.347-1.1,1.086-1.1h11.657a.948.948,0,0,1,1.091,1.065q.005,5.264,0,10.527a.934.934,0,0,1-1.07,1.049Q-323.857,1971.551-326.78,1971.549Zm-.023-.377h5.842c.548,0,.72-.166.72-.7q0-5.246,0-10.492c0-.513-.188-.7-.694-.7h-11.685c-.516,0-.7.188-.7.694q0,5.262,0,10.523c0,.5.181.678.678.678Z" transform="translate(-2.475 0)"/><path class="b" d="M-345.361,1987.282h4.5a.883.883,0,0,1,.991.982c0,.429-.364.393-.371-.046a.5.5,0,0,0-.559-.565c-3.038,0-6.075-.016-9.113.012a2.689,2.689,0,0,0-2.57,2.639,2.736,2.736,0,0,0,2.259,2.759,3.893,3.893,0,0,0,.593.053q4.368.005,8.737,0a.841.841,0,0,0,.785-.363.693.693,0,0,0,.026-.745.737.737,0,0,0-.7-.4c-1.278,0-2.556-.019-3.834.007a11.984,11.984,0,0,1-2.614-.467c-.8-.16-1.587-.363-2.38-.548a.5.5,0,0,1-.205-.065c-.054-.047-.114-.142-.1-.2a.224.224,0,0,1,.178-.127,3.306,3.306,0,0,1,.524.094c1.271.294,2.542.592,3.814.884a2.022,2.022,0,0,0,.434.044c1.393,0,2.786,0,4.18,0a1.092,1.092,0,0,1,1.071.681,1.06,1.06,0,0,1-.181,1.172,1.17,1.17,0,0,1-.952.4c-2.965,0-5.93.015-8.895,0a3.089,3.089,0,0,1-3.076-2.646,3.075,3.075,0,0,1,2.288-3.457,3.15,3.15,0,0,1,.773-.1C-348.294,1987.276-346.828,1987.282-345.361,1987.282Z" transform="translate(-0.889 -2.35)"/><path class="b" d="M-347.491,1976.7c-.036.673-.033,1.333-.111,1.984a11.078,11.078,0,0,1-3.228,6.637c-.066.067-.259.117-.305.077-.181-.159,0-.279.1-.383a10.882,10.882,0,0,0,2.576-4.182,10.551,10.551,0,0,0,.55-4.114c-.16-.041-.311-.074-.459-.122a2.079,2.079,0,0,1-1.479-1.937c-.021-1.278-.012-2.555,0-3.833,0-.1.358-.081.359.025.012,1.246,0,2.493.009,3.739a1.756,1.756,0,0,0,1.519,1.729,1.737,1.737,0,0,0,1.88-1.19,2.7,2.7,0,0,0,.107-.771c.011-1.121,0-4.242,0-5.362a.57.57,0,0,1,.006-.217l.068-.111.1-.131c.059.082.166.162.168.245.014.713.008,3.424.008,4.137,0,.555.006,1.11,0,1.665a2.09,2.09,0,0,1-1.739,2.078A1.25,1.25,0,0,0-347.491,1976.7Z" transform="translate(-1.024 -0.963)"/><path class="b" d="M-333.3,1986.56h6.064c.742,0,1.069.327,1.069,1.071q0,2.687,0,5.374c0,.052-.375.018-.375-.044v-5.185c0-.737-.123-.862-.85-.862q-5.986,0-11.973-.006c-.167,0-.475.131-.467-.181.007-.263.3-.162.467-.162C-337.339,1986.557-335.317,1986.56-333.3,1986.56Z" transform="translate(-1.967 -2.289)"/><path class="b" d="M-345.012,1969.974h-4.252a.806.806,0,0,1-.28-.012c-.073-.029-.168-.12-.167-.182s.1-.137.176-.172a.55.55,0,0,1,.217-.008h4.273c.393,0,.4.008.4.412v14.169a.55.55,0,0,1-.01.217c-.029.064-.111.157-.156.149a.279.279,0,0,1-.189-.151.972.972,0,0,1-.013-.311q0-6.865,0-13.73Z" transform="translate(-0.149 -2.885)"/><path class="b" d="M-356.352,1985.08a2.925,2.925,0,0,1,2.918,2.908,2.921,2.921,0,0,1-2.941,2.913,2.894,2.894,0,0,1-2.892-2.92A2.9,2.9,0,0,1-356.352,1985.08Zm-2.542,2.919a2.549,2.549,0,0,0,2.53,2.547,2.59,2.59,0,0,0,2.562-2.561,2.544,2.544,0,0,0-2.543-2.53A2.516,2.516,0,0,0-358.895,1988Z" transform="translate(-0.357 -2.168)"/><path class="c" d="M-356.358,1992.628c.713,0,1.424,0,2.137,0a.7.7,0,0,1,.781.676.713.713,0,0,1-.8.7q-2.121,0-4.242,0c-.493,0-.791-.266-.788-.694s.305-.678.8-.679Zm-.007,1.005c.722,0,1.443,0,2.165,0,.225,0,.382-.1.384-.32s-.159-.318-.382-.318c-1.443,0-2.885,0-4.328.012a.472.472,0,0,0-.348.23c-.1.207.089.392.376.394C-357.787,1993.637-357.076,1993.633-356.365,1993.633Z" transform="translate(-0.357 -2.793)"/><path class="d" d="M-330.535,1963.019c-.189.941-.371,1.805-.532,2.674-.051.278-.167.391-.456.376-.407-.021-.817.008-1.224-.015-.1-.005-.193-.125-.289-.191.094-.06.186-.165.283-.169.417-.019.836-.008,1.3-.008q.162-.779.322-1.553c.131-.644.25-1.292.4-1.932.025-.11.169-.192.258-.286.081.1.217.191.234.3.183,1.208.348,2.419.558,3.634q.1-.673.194-1.346a1.414,1.414,0,0,1,.053-.307,1.237,1.237,0,0,1,.16-.238c.08.067.193.118.233.2.194.416.384.835.546,1.265.09.24.2.353.474.327s.548.02.815-.013a.922.922,0,0,1,.914.406,3.966,3.966,0,0,0,.5.46c.107-.582.218-1.169.325-1.757.172-.946.335-1.892.521-2.834.021-.106.173-.187.264-.279.076.1.209.2.22.313.136,1.437.254,2.875.378,4.313a.146.146,0,0,0,.061.115l.253-1.982c.009-.072-.006-.16.03-.215.056-.086.153-.215.219-.207a.346.346,0,0,1,.246.206c.1.469.175.944.259,1.417.01.058.029.114.041.161.035.006.049.012.053.008.682-.606,1.512-.3,2.282-.36.076-.005.16.124.242.191-.084.059-.165.161-.252.167a5.2,5.2,0,0,1-.91,0,1.593,1.593,0,0,0-1.264.4c-.334.281-.44.222-.508-.21-.029-.185-.064-.37-.1-.555-.008-.04-.027-.077-.065-.187-.119.942-.228,1.813-.338,2.682a2.785,2.785,0,0,1-.068.465c-.028.089-.121.158-.184.236-.062-.079-.171-.152-.18-.237-.074-.676-.132-1.354-.189-2.031-.092-1.094-.18-2.188-.316-3.291-.106.565-.215,1.13-.317,1.7-.131.719-.254,1.44-.392,2.157a.37.37,0,0,1-.166.237c-.047.024-.167-.052-.229-.109a3.631,3.631,0,0,1-.525-.539,1.054,1.054,0,0,0-1.1-.474c-.258.035-.525-.012-.784.011a.394.394,0,0,1-.46-.313c-.11-.3-.25-.593-.415-.976-.12.85-.227,1.607-.333,2.365-.007.052.007.115-.017.154a1.988,1.988,0,0,1-.188.216c-.065-.067-.174-.126-.188-.2-.072-.38-.119-.763-.171-1.146-.132-.973-.261-1.947-.394-2.92A2.384,2.384,0,0,0-330.535,1963.019Z" transform="translate(-2.53 -0.234)"/></g></g></svg>