<svg xmlns="http://www.w3.org/2000/svg" width="4in" height="307.189" viewBox="0 0 0.368 0.295" shape-rendering="geometricPrecision" text-rendering="geometricPrecision" image-rendering="optimizeQuality" fill-rule="evenodd" clip-rule="evenodd"><defs><style>.str0{stroke:#fff;stroke-width:.0142256}.fil2{fill:none;fill-rule:nonzero}.fil0{fill:#b01117}.fil3{fill:#0d422f}.fil1{fill:#fff;fill-rule:nonzero}</style></defs><symbol id="Fm24-51-0" viewBox="12.983 0.05 0.745 0.373"><path class="fil0" d="M12.983.05a.372.372 0 1 0 .745 0h-.745z"/></symbol><symbol id="Symbol13" viewBox="10.196 -11.502 0.745 0.373"><path class="fil0" d="M10.196-11.502a.372.372 0 1 0 .745 0h-.745z"/></symbol><symbol id="Symbol15" viewBox="6.265 -8.474 0.745 0.745"><path class="fil1" d="M6.982-8.172v.003h-.003c-.002 0-.001-.001-.003-.002h-.003s0-.002-.002-.001v.003h-.005c.001.002.003 0 .004.004 0 .003 0 0-.002.001-.002 0-.011.003-.01.007-.002 0 0-.002-.003-.001h-.002l-.002.001h-.004l-.002.005h.002v.004c-.002-.002-.003 0-.002.003-.003-.001-.004.004-.006.006-.002 0-.002 0-.002-.003v-.008c0-.003.004-.004.007-.007.003-.002.003-.005.005-.006-.003-.001-.004.004-.007.004 0-.003-.002-.003-.005-.002l-.003.004v.002H6.92c-.004 0-.006 0-.009.004l-.004.004c0 .001-.002.005 0 .002v.001c.002.002.003.002.003 0 .003 0 .003.003.005.004v-.005h.001c0 .014.002.011.002.011-.004 0 0 .003 0 .006-.002 0-.001 0-.002-.002l-.001.002c0-.002 0-.016-.002-.009-.001.002 0 .004-.002.006a.034.034 0 0 1-.005.006c-.001.001-.001.002-.003.002h-.003l-.003.003v.003h-.002c0 .004.003.004.003.006 0 .003-.003.004-.005.004 0-.002 0-.007-.003-.006 0-.002.002-.002 0-.003l-.005.001c0-.003.002-.003-.001-.001l-.004.001c-.001.003.003 0 .002.004.002 0 .001-.002.002-.002.003.001.003.001.002.002 0 .001-.003 0-.003.003l.002.005v.002c0 .002.002 0 .001.003 0 .003-.004.007-.006.008a.011.011 0 0 1-.004.003l-.005.001s0 .007-.003.005c-.002 0 .001-.003 0-.005-.006 0-.005.005-.002.008.002.003.003.005.001.008 0 .002-.003.003-.005.005v-.003L6.86-8.07l-.003-.003c-.002 0 0-.002-.002 0v.005c0 .003.002.003.004.005l.003.007c-.004.002-.006-.005-.006-.007l-.004-.003.001-.005c0-.002-.001-.008-.003-.008 0 0-.002.002-.003.001-.002-.001 0-.004-.002-.004a.016.016 0 0 0-.003-.006l-.006.002-.008.009-.002.001v.003l-.001.004c0 .002-.002.004-.004.003s-.003-.006-.004-.008l-.002-.006v-.004c-.002-.003-.001 0-.003 0-.001 0-.006-.003-.002-.003l-.004-.002c-.003-.002-.004-.001-.008-.002h-.006l-.002-.002H6.79c-.003 0-.004-.002-.007-.003-.002-.002-.004-.003-.003 0a.01.01 0 0 0 .003.004l.005.002c-.006.001-.001 0 .002.001l.001-.003.002.004c.001-.002 0-.001.002 0l.002.003-.001.003-.003.003-.006.002-.005.003-.006.003c-.004 0-.002-.002-.004-.006l-.006-.006-.006-.012c-.002.003-.004-.003-.006-.004h.004a.008.008 0 0 0 .003-.004c.001-.003 0-.005-.003-.005v.001h-.003-.002-.003v.001c-.001 0-.004-.013-.007-.008H6.74l.003.003h.001c-.002 0-.005.006-.006.001h-.002.001l-.002-.005c0-.002-.003-.003-.004-.004-.003-.002-.006-.006-.006 0 0-.001.003 0 .003.002a.01.01 0 0 1 .006.004h-.003.002c-.001.003-.005.008-.008.004.01 0 .003-.004-.001-.007L6.72-8.12l-.004.002h-.004v.002l-.005.003v.003l-.002.001c-.001.002-.004.003-.006.004l-.003-.001c-.003-.002-.002 0-.002-.003l-.001-.009c.004-.001.015.004.01-.005 0-.002-.001-.002-.002-.003 0 0-.003 0-.001-.002.001 0 .006.002.003-.002h.004l.001-.002c.002-.001.006-.001.004-.004.001 0 .004 0 .005-.002.003-.001.002 0 .002-.003v-.004c.002-.002.003-.002.002 0h.001v.003l.002-.001c.001.004-.003 0-.003.003l.002.001c0-.002.005 0 .005 0 .003 0 .004-.003.007 0-.002-.003 0-.002.002-.002 0-.001 0-.005.002-.006.001 0 .001.003.004 0l-.003-.002s-.002.003-.003 0h.002l.004-.002c.002 0 .005 0 .007-.002-.004-.002-.009.003-.012 0-.005-.006.005-.008.004-.01 0-.002-.003-.003-.004-.002l-.002.004-.004.003c-.002.002 0 .004 0 .006.003 0 0 .001 0 .002l-.002.004h.002v.001l-.004.002c-.001 0 0 .002-.003.001v-.001c-.001-.002-.002-.007-.004-.007-.002.002-.003.002-.007.002v-.002c-.003 0 .002-.002-.001-.002 0-.003 0-.005.005-.006v-.002s.004-.001.004-.003l.002-.001c0-.003.003-.007.006-.007h-.006.003v-.002l.002-.001.001.002.001-.003c0 .002.002 0 .001-.002l.003.002v-.001h.004c-.002-.001-.002-.003 0-.002l.004-.001.002.002v-.002h.002v.001h.002c.001 0 .002.001 0 .001.001.001.006 0 .005.003h.006c.002 0 .006.002.006.004.002.006-.012.001-.013 0l.004.006.002.003h.003c0-.002-.005-.002-.002-.004.002.002.004.001.005.002v-.003l.002-.002h.003v-.006c.002 0 .006.003.002.003 0 .005.005 0 .006 0l.007-.004c-.002.005.007-.003.007.002.006-.003-.003-.006 0-.006l.006.002.006.002s.003.003.003 0l-.002-.001-.001-.002v-.002l.002-.005c.002-.002.007-.001.006.001s0 .01.002.009l-.002.004c-.001 0-.004 0-.004.002h.005l.002-.003v-.002c.004-.004.004.004.007.002l-.002-.001c0-.002 0-.003-.003-.004-.002 0-.001.002-.003-.001v-.005l.001-.003.001.003c.001.002.004 0 .005.002 0-.002-.007-.003 0-.003h-.003.008c.002 0-.002-.002-.003-.004.002-.002.007 0 .01-.002.002-.001-.002 0 0-.002l.003-.002h.004l.004-.003h.004c.003 0 .003-.002.006-.001.002-.002.002-.004.007-.004l-.001.002h.003v.002c.001-.001.01-.002.01.003a.032.032 0 0 1-.011.006l.005-.001c.002 0 .003-.003.005-.002l-.002.002h.006c.003-.004.016-.005.02-.007.002 0 .008-.005.01-.001 0 .002-.009.005-.011.005a.048.048 0 0 0-.006.002l.003.001h.003v.004l.004.003c.001 0 0-.002.003-.002h.004l.003.001v-.002h.003s-.002 0-.002-.002h.011c-.002.004.002 0 .005 0v.002l.005.002h.005c.005-.001.005.002.008.004v-.001h.007c.002 0 .003-.002.005-.001-.006.004.004.002 0 0 .003-.002.01 0 .014 0l.004.003.003.002h.001v.002c.003.002.002 0 .001 0h.006c.002.003-.002.002-.003.002zm-.119.127l-.005-.005-.005-.006c0-.002-.004-.003-.004-.005h.002c.003 0 .012.008.012.01.002 0 .004 0 .004.002-.003.001 0 .004-.004.004zm-.152-.064c.002 0-.002.003-.003.004 0-.002.001-.003.003-.004zm.072.044c0 .003-.001.003-.002.004a.025.025 0 0 1-.006.007c-.003.003-.007.007-.008.01s.001.007.002.01c0 .003 0 .006-.003.01 0 0-.005.002-.005.004 0 .003.002.004 0 .007l-.003.002v.004a.023.023 0 0 1-.004.005c-.003.004-.012.009-.016.005-.002-.002 0-.003-.001-.006-.002-.003-.004-.005-.005-.009a.04.04 0 0 0-.004-.008c-.002-.005 0-.006.001-.01 0-.006-.003-.016-.008-.017a.009.009 0 0 0 .002-.006c0-.004 0-.002-.004-.003-.002 0-.002-.001-.003-.002h-.007l-.004.002H6.696c-.002 0-.002-.001-.003-.002a.087.087 0 0 1-.008-.007c-.002-.002-.002-.003-.002-.005v-.006l.001-.002h-.003l.004-.007.003-.005.004-.003.001-.005c0-.001.003 0 .002-.003h.003c0-.004.001-.002.004-.002l.006-.002h.005c.002-.002.003-.007.006-.004l-.002.003c.002 0 .005-.002.006 0h-.001v.002c.002.001 0 .002 0 .004l.007.002v.001h.005c.003 0 .003.001.003-.003l.013.003c.003 0 .004-.001.005.002.003.003.004.007.006.011 0 .003.003.007.004.01l.007.005c.003.003.004.002.008.002.003 0 .003-.001.003.002zm-.116-.063c-.003-.001.002-.005-.004-.004v-.001h.005c0-.003-.002-.003-.004-.002-.001 0 0-.005.005-.003.002-.003 0 0 .002 0h.004c.004.001.014-.005.013.002 0 0 .003 0 .002.001 0 .004-.002.001-.006.003-.004.003-.004.004-.01.004h-.007zm-.023-.019h-.002s-.015.018-.014.01c-.002 0-.003-.002-.002.002-.007 0-.005.005-.008.01 0 .002-.003.001-.003.002v.003c0 .002 0 .007-.002.008-.001.001-.012-.003-.014-.004-.005-.003-.007-.01-.005-.015l-.003.002-.001-.003c0-.001.002-.002.001-.003H6.59c0-.001-.008-.01-.001-.01 0-.002.002-.003.005-.003-.002-.005 0-.007-.007-.006.005 0 .004.003 0 .003-.005 0-.003-.003-.004-.006h.01c-.004-.007-.016 0-.011-.009H6.58a.023.023 0 0 0-.01-.016c-.004-.002-.018-.004-.02-.002v.002l-.006-.003-.005-.003c0-.002.01 0 .011-.004-.005 0-.022 0-.013-.005.003-.002.008-.002.011-.003h.005s.002-.006 0-.006h-.005c0-.003.003-.003.005-.003l.01-.005.001-.003h.004c.003 0 .005.003.008.002l-.007-.003c.002.001.01-.004.013-.003.002.001 0 .005 0 .005.004.002.003-.003.002-.005.004 0 .007.004.01.005 0-.002-.004-.004-.004-.006.006 0 .01.005.016.005.003 0-.006-.006-.006-.005-.002-.003.003 0 .004 0 0-.003-.002-.002-.003-.004a.033.033 0 0 1 .011-.001h.008c.005 0 .001-.001.005-.002.004-.002.031-.004.032 0-.006 0-.015 0-.02.003.006 0 .012-.002.018 0h.012v.002c-.005 0-.028.002-.03.006.006 0 .015-.005.02-.002-.001.001-.003 0-.004.003.003 0 .006 0 .006-.004.009.001.006.002.002.009l.011-.006a.08.08 0 0 1 .011-.002h.007c.003.004-.003.003-.004.004l-.01.003h.006c-.002.003-.019.014-.014.018 0 0 .005-.003.007 0l-.003.002c.007 0 .004.001.004.007-.002-.003 0-.004-.003-.005l-.004.001c0 .003.006.003.006.007-.005 0 0 .003 0 .005l-.008.002c0 .002.009 0 .004.004h-.01.002l-.001.002c.003-.001.004-.001.005.001.002.005-.004.001-.004.002.001 0 .006.005.006.007-.001.006-.008 0-.007 0-.012 0 0 .008.004.004-.001.004-.01.006-.013.007-.004.002-.004.004-.009.002zm-.113.17c-.001.002-.004 0-.005-.001.002 0 .004 0 .005.002zm-.01-.008c-.002 0-.003-.002-.005-.003l-.004.002c-.003-.002-.004-.002-.001-.004s.008 0 .01.001c.004.001.013.003.015.006a.04.04 0 0 1-.016-.002zm.023.009c-.002 0-.004 0-.004-.003 0-.004.005-.002.008-.001.004 0 .01 0 .013.002-.005.001-.012 0-.017.002zm.023-.096c-.003.004-.005 0-.007-.001l.007.001zm.02.01l-.006-.004h-.006l.006-.012c.003-.002 0 .005 0 .005.006.002.01.004.006.01zm-.075-.058c0 .002 0 .003-.003.003-.004 0 .002-.003.003-.003zm.004.002c.008-.006.002.01 0 0zm.013-.025c.002.004-.003.004-.005.004-.003-.004.004-.006.005-.004zm.067.214l-.005.007c-.002.004-.001.01-.003.014-.002.003-.003.003-.007.004a.011.011 0 0 0-.006.004c-.002.003 0 .01-.005.012v-.002l-.003.006c-.003.003-.005.001-.008.001 0 .003.003.002.002.006-.002.003-.006.003-.009.003 0 .004 0 .005-.004.004 0 .004.002.001.001.004l-.001.002v.002l-.004.001c0 .004.003.003.003.004l-.003.006c-.003 0-.001.005 0 .006 0 .002.004.003.004.004-.003 0-.006.002-.01 0l-.004-.005v-.002h-.002c.001-.002-.003-.006.002-.007l-.003-.003.001-.002.002.001s-.002-.003 0-.003v.002c0-.003 0-.005.002-.008-.002 0-.003.006-.004.002l.001-.002v-.002c0-.003 0-.005.002-.009l.001-.01.002-.008c0-.005.001-.012-.003-.016-.003-.002-.005-.002-.007-.005-.002-.001-.003-.005-.004-.008a.019.019 0 0 0-.002-.003l-.003-.002c-.001-.003.001-.004.002-.006-.002 0-.001 0-.002-.003a.016.016 0 0 0 .006-.006v-.005c-.002 0-.004 0-.003.003l-.014-.006c-.002-.002-.004-.007-.008-.01l-.01-.001-.005-.005H6.48c-.005 0-.03-.009-.024-.013L6.443-8c-.004-.003-.01-.014-.014-.013 0 .006.017.02.013.025a.031.031 0 0 0-.006-.008l-.005-.004c-.002-.002 0-.003 0-.004l-.008-.012c-.003-.004-.007-.004-.01-.007a.041.041 0 0 1-.01-.025c0-.004.002-.009 0-.014-.003-.005-.008-.006-.011-.01.007-.001.011.006.016.01 0-.004-.004-.008-.008-.01-.005-.003-.007-.003-.01-.008l-.006-.01-.004-.001-.002-.004c-.007-.001-.012-.007-.018-.01h-.012c-.003-.001-.009-.006-.01-.002l.001.002a.021.021 0 0 0-.009.003c0-.003.001-.006.005-.006-.006-.003-.007.004-.012.006l.003.003c-.008.004-.022.018-.031.017.006-.008.019-.006.021-.018h-.004c-.002.002-.006.001-.009.002 0-.003 0-.005-.002-.006-.003.005-.009-.004-.009-.007.002-.009.014-.002.013-.012-.003 0-.008.003-.011.002-.004 0-.004-.003-.007-.005.002-.003.006-.002.01-.005 0 .003.003.003.006.002-.002-.004-.008-.004-.01-.007-.005-.006-.001-.002.004-.006.003-.002.004-.005.009-.007.003-.001.009-.004.013-.003v.001l.016.002.018.002c.008 0 .011.003.019.002.004-.001.01-.004.015-.004-.003.003-.007.002-.01.006a.07.07 0 0 1 .012-.006c.002 0 0-.002.002-.002s.003.003.004.003c.002 0 .003.003.004-.002.002.006.006.001.01.002a.06.06 0 0 1 .019.006c-.002 0-.003.002-.003.002.006 0 .017-.002.02.005 0-.005-.003-.005.002-.007.004-.002.004 0 .008 0 .005.001.012.004.015-.002-.002 0-.003-.002-.004-.003l.003-.003c.003 0 .005.002.005.005h-.002c.002.002 0 .002.002.002 0 .003 0 .003.003.005-.002-.006.004-.004.004-.009-.003.002-.005.003-.006 0 .007 0-.006-.007 0-.011.007-.005.007.004.01.007.001.002.005.004.006.004s.003 0 .005.002c0 0-.002.004 0 .005.006.002.006-.011.008-.012-.003 0-.01-.001-.012-.004h.005c-.003-.004-.009 0-.006-.008.002-.006.007-.007.012-.007-.005.003-.006.013.001.012-.003-.004-.004-.01.003-.01.004-.002.004-.002.007.002.001.002-.002.003 0 .004s.01-.003.013-.002c.005.001.006.005.013.005l-.002.001.009.003-.001.001.004.002-.002.002h.004c-.01.003.01.008.013.01.002.003.001.001 0 .004l-.005.004c-.003.001-.001 0-.006-.002-.003-.002-.004-.004-.007 0l.011.01-.001.004-.01-.005c.001.003.007.004.007.008l-.014-.004c-.003-.003-.004-.007-.01-.007-.001 0-.008.005-.008 0s.008-.003.011-.003c-.003-.005.004-.005.004-.009 0-.003-.004-.005-.006-.006-.005-.003-.008-.006-.013-.007l.002.002h-.014c.003.001.012.006.005.007.003.005.001.01-.004.01-.002.002 0 .002-.003.002.001.003.017.008.009.01l-.004-.002a.025.025 0 0 0-.004.002c-.003 0-.004 0-.007-.003.003 0 .007-.01 0-.01.007.006-.007.003-.01.003.003.001.006.003.01.003 0 .003-.003.006-.007.004 0 .004-.008.001-.011 0 .001.001.008.002.008.004.001.002-.003.003-.005.005a.016.016 0 0 0-.004.007c0 .006.001.004.004.007l.002.005h.004c.003 0 .005.001.008.003l.015.004c0 .004.002.014.007.014.006-.001.003-.011 0-.014.01 0 .01-.011.003-.014v-.004h.003c-.006-.008-.001-.013.007-.01.007 0 .015.004.012.013.005-.001.004.003.008.002s.004-.005.006-.008c.002.003.01.012.008.014.002.004.007.006.012.006-.003.003-.007.002-.009.005.004 0 .01-.004.012.001s-.004.006-.007.007c-.004.002-.004.003-.009.003h-.01c-.004.002-.007.009-.013.008h.003a.018.018 0 0 0-.004.006c.004-.003.014-.015.018-.008.002.002-.004.005.002.008.005.003.006 0 .01-.002-.001.004-.007.008-.012.009 0 0-.005.004-.003 0 0-.002.005-.004.006-.004-.006-.001-.022.005-.017.013-.003 0-.008.001-.01.003l-.003.008c-.003-.002-.002 0-.004 0 .001.003.003.004.002.008-.002.003-.007.004-.01.008-.004.005.002.022-.001.022s-.007-.013-.01-.014h-.006c-.003-.001-.009-.001-.007.003-.006.002-.014-.005-.02.003-.003.005-.002.02.004.026.003.002.009.004.012 0 .004-.003 0-.007.007-.008.007 0 .003.011 0 .015.003.001.01-.002.014.002.003.005-.004.01.003.015h.009c.001-.003.008-.008.01-.008-.001.002-.002.005 0 .006v-.003s.002 0 .002-.002c.003 0 .005.003.008.003.001 0 .004-.003.006 0h.002c0 .003.006.006.008.006.003.001.008.001.008.006.003 0 0 .004 0 .005.001 0 0-.002.001-.001h.003v.003c.001-.001 0-.002.004-.001l.003.001c-.002.002.004.001.005.001.004 0 .005.001.007.003s.002 0 .004.003v.003zm-.273-.162c-.002-.003.002-.004.005-.006v.003a.01.01 0 0 1-.005.003zm-.03-.01c-.006 0-.003-.004 0 0zM6.4-8.17c.002-.002.013 0 .016 0 .008.002.007.003 0 .007-.004.002-.006.009-.01.008l-.003.002a.009.009 0 0 0-.008-.004c.003-.004.003-.012.005-.013zm.016-.009c-.001.003 0 .003-.004.003l.002-.002h.002zm.006-.008c0 .003-.002.005-.004.006 0 0-.002 0-.003-.002-.003.003-.008.009-.012.003.008 0 .01-.009.019-.007zm.004-.001c-.002 0-.003 0-.004-.003.003 0 .003 0 .004.003zm.002.005l-.004-.001h.004v.001zm.01-.008l-.003.002c.002.002-.001.003-.004.003-.001 0-.002 0-.003-.003.003-.002.006-.002.01-.002zm0-.001h-.01c.003-.003.008-.004.01 0zm.01.013c.001.005-.011.007-.015.008-.001 0-.006.002-.007 0 0-.003.006-.002.007-.003-.003 0-.012.002-.014 0-.003-.002 0-.006.005-.007l.015.004-.002-.001c-.002-.004 0-.006.003-.005 0 0 .008.006.008.004zm.003-.007c-.002 0-.004 0-.004-.004l.004.004zm.013-.004c-.004-.001-.012-.001-.014-.004h.002c-.001-.001-.002-.003-.004-.003.005-.002.018 0 .016.007zm.002-.011l-.004-.001v-.002c.002 0 .003 0 .004.003zm.008.01c-.004 0-.006-.001-.007-.004.002-.001.014.002.007.004zm-.001-.015h.003s0-.002-.002-.003h.006c0-.002-.002-.001-.003-.002 0-.002.018.006.018.006.005.003.007.009-.002.008l-.001.002a.014.014 0 0 1-.015-.002l.007-.002c-.004-.003-.009 0-.012-.003v-.004zm.054.038c-.003 0-.004.002-.006.003-.004.001-.006 0-.007-.005.005 0 .01 0 .013.002zm-.043-.02v-.002c.003 0 .004 0 .006.002a.008.008 0 0 1-.006 0zm.003.015c-.005-.002-.002-.007-.005-.01.007-.003.008.005.016.005.003 0 .015-.005.018-.001.005.007-.026.005-.029.006zm-.01.003c.002-.002.008 0 .011 0-.002.004-.003.007-.007.006 0 .002-.001.002-.002.003-.005.002-.004-.007-.002-.01zm.004-.006c0 .005-.007.002-.008 0 0-.002.007-.004.008 0zm-.008-.012c.001-.003.004-.003.007-.003v.002a.033.033 0 0 1-.007.001zm.001.002c.004-.001.008.001.005.004-.003 0-.011-.003-.005-.004zm-.017.022c.004.002.007 0 .003-.004l.006-.002c.003 0 .007.003.002.005.006.003.005.008-.001.009-.003-.002-.01-.005-.01-.008zm-.006 0c-.002 0-.003 0-.006-.003.003-.002.007-.001.006.002zm.002-.012c0 .003-.002 0-.003 0 0 0 .003-.002.003 0zm.017.004h-.002c.002 0 .001-.002.002 0zm-.015-.018h.004c-.002.001-.003.002-.004 0zm.003.011v-.003l.006.002a.012.012 0 0 0-.004-.004c.004.002.009 0 .01.004 0 .004-.003.005-.007.006 0-.004-.002-.005-.005-.003-.004-.001-.007-.003-.007-.007.004 0 .005.003.007.005zm-.016.012s.002.002 0 0zm.006.023c0 .002-.002.002-.004.003h-.003a.022.022 0 0 1 .007-.003zm-.004-.001c-.004 0-.008.004-.012.003-.005-.001-.005-.004-.011-.004l-.002-.002c.002-.001.013-.002.012-.003-.001-.003-.011 0-.014-.002a.012.012 0 0 1 .006-.002c-.003-.002-.006 0-.01-.001.003-.004.003-.005.007-.007.003-.001.008-.004.006.001a.009.009 0 0 1 .008 0v.002l.003-.001-.001-.003c.004 0 .004.006.006.006.005 0-.001-.004 0-.006.004-.005.008.004.01.006.002.005.004.005.01.008l-.005.002c.006.004-.01.002-.013.003zm.04-.069l.013-.003.007-.002c.003 0 .008.003.011.004-.002-.003-.005-.004-.009-.003.003-.005.012-.004.016-.003 0-.005.014 0 .015-.004.004 0 .009.002.01.003.003 0 .017 0 .016.003 0 .004-.015.002-.018.005.003 0 .008-.002.01 0-.006.002-.013.01-.02.008.002 0 .002.001.003.002-.003.002-.005.001-.008 0l.002.002c-.004.004-.009 0-.013.003v.002c.002-.002.01-.003.01 0l-.005.001c.003.004 0 .004-.004.003 0 .003 0 .004-.002.005v.002l.002-.001c0 .004-.007.006-.008.003-.005 0-.018.003-.021-.002.003 0 .004-.002.002-.005.005 0 .013.006.016-.002-.003.003-.006.004-.008.001l.003-.001c-.015.003-.003-.01.005-.002l.002-.003c-.004 0-.013-.003-.013-.008.005 0 .012.005.017.004-.003 0-.005-.002-.008-.003v-.001c.004 0 .013-.002.016-.004h-.006a.011.011 0 0 1 .006-.003c-.005 0-.009.003-.014.005-.003 0-.017.003-.008-.003-.005 0-.005.004-.01.002-.004 0-.004-.003-.008-.004v-.001zm.272.007c-.008 0 .002-.003.004-.004l-.001.003.004-.002.002.003.001-.003c.002 0 .002-.002.007 0l-.001.002h.002s.011.007.013.006c0 .004.002.001.003.003l-.005.003c-.002 0-.002-.003-.006 0 0-.002.002-.004.001-.005-.001-.002-.002 0-.002-.003h-.004c0 .004-.003.01-.006.012l-.007-.005.007-.002H6.76c.001-.002.008-.002.008-.003 0-.002-.005-.001-.005-.001l-.002.002c-.003.001-.003-.002-.005-.002 0 .005-.003 0-.004-.002.002 0 .002.002.004.003v-.005zm.026-.005c.002-.003.001-.002.004-.003v.002c.002 0 .006-.003.01 0-.004.003-.017.01-.02.002h.004c0-.002-.006.001-.006-.001-.002-.003.007-.003.008 0zm.07-.007c.004 0 .008-.003.004.002-.002.004-.01.003-.005 0-.003 0-.008.002-.008-.001l.009-.001zm.014 0c.002 0 .002-.002.003-.002l.004-.002.004-.001-.002.002h.004c-.001.005-.006-.002-.006.003-.003 0-.008 0-.01.003 0-.002.001 0 .003-.002zm.008.003c-.002.002-.002 0-.003 0a.019.019 0 0 1 .008-.002v.001s-.005.004-.005 0zm.006 0l.001.001h-.003.002zm.001-.005c.004-.002.004 0 .006.003H6.88c.001-.002.002-.001.002-.003zm.016 0c-.004 0-.006.004-.009 0 .003 0 .005-.002.009 0zm-.26-.253a.373.373 0 1 0 0 .745.373.373 0 0 0 0-.745z"/></symbol><symbol id="Symbol28" viewBox="70.702 -161.451 0.745 0.873"><path class="fil1" d="M71.383-160.758a.392.392 0 0 1-.25.174.288.288 0 0 1-.117 0 .397.397 0 0 1-.251-.174c-.049-.087-.07-.316-.061-.415.018-.187.185-.278.37-.278.187 0 .353.091.372.278.008.099-.015.328-.063.415z"/></symbol><symbol id="Symbol29" viewBox="-3148.72 788.128 2363.04 2363.04"><path class="fil1" d="M-3148.72 3151.16c.044-6299.86.544-6300.3.745-.035-.21 0-.556-.044-.745.035z"/></symbol><symbol id="Fm25-52-0" viewBox="10.201 2.153 0.745 0.373"><path class="fil0" d="M10.201 2.153a.372.372 0 1 0 .746 0H10.2z"/></symbol><symbol id="Fm26-53-0" viewBox="10.201 4.282 0.745 0.373"><path class="fil0" d="M10.201 4.282a.372.372 0 1 0 .746 0H10.2z"/></symbol><symbol id="Symbol7" viewBox="10.196 -6.152 0.745 0.373"><path class="fil0" d="M10.196-6.152a.372.372 0 1 0 .745 0h-.745z"/></symbol><symbol id="Fm19-45-0" viewBox="6.262 -1.733 0.745 0.741"><path class="fil1" d="M6.641-1.369c-.008 0-.017-.001-.02-.01.006-.003.008-.006.01-.011a.08.08 0 0 0 .002-.023c0-.008 0-.017.004-.024.008-.022.051-.022.06 0a.07.07 0 0 1 .003.024c0 .007 0 .016.003.023.002.005.004.008.009.01-.002.01-.011.011-.02.011h-.05zm-.086-.076c-.003.044-.074.044-.077 0l-.002-.032c-.003-.044.084-.044.081 0l-.002.032zm.39-.122a7.996 7.996 0 0 1-.024.01l-.031.05-.035.01-.026-.024-.116.045-.005.002-.076-.058.043-.018.053.019.052-.025-.107-.062.055-.016.148.037a.697.697 0 0 1 .035-.013.371.371 0 1 0-.451.576v-.02l-.005-.165v-.03l.001-.07c0-.006-.01-.006-.01 0l-.003.144c-.015-.001-.024-.007-.028-.029l-.001-.133c.001-.032.026-.064.06-.064h.08a.072.072 0 0 1 .038.013l.032.024-.033.014c-.005.001-.008.01-.009.014l-.002.025h.005l.003-.022c0-.005.002-.008.006-.01a.16.16 0 0 1 .05-.011h.054c.032 0 .047.026.049.056l.006.118c-.003.02-.008.025-.022.026l-.01-.13c0-.004-.006-.004-.006 0l.005.076a.23.23 0 0 1 0 .035l-.012.158.001.023h.003v-.006a.38.38 0 0 0 .295-.364.367.367 0 0 0-.062-.205z"/></symbol><symbol id="Fm10-36-0" viewBox="789.679 408.045 317.203 0.398"><path class="fil1" d="M1106.14 408.437c.213.012.435.003.721-.006a1.559 1.559 0 0 1 .024-.387 6.764 6.764 0 0 0-.745.393z"/></symbol><symbol id="Fm13-39-0" viewBox="5.863 3.191 0.745 0.373"><path class="fil0" d="M5.863 3.191a.372.372 0 1 0 .745 0h-.745z"/></symbol><symbol id="Symbol6" viewBox="5.857 -5.114 0.745 0.373"><path class="fil0" d="M5.857-5.114a.372.372 0 1 0 .745 0h-.745z"/></symbol><symbol id="Fm1-35-0" viewBox="6.648 -2.786 0.745 0.563"><path class="fil1" d="M7.111-2.43c-.026.022-.012-.008-.001-.015.01-.007-.007-.016.022-.027.029-.011.013-.02.025-.017 0 0-.02.038-.046.06zm.214-.344l-.045.018-.03.049a.7.7 0 0 1 .007.06c-.003.035-.01.058-.01.058a.135.135 0 0 0-.02-.089l-.024.008v.006c-.005.038-.063.053-.063.053-.007-.036-.002.017-.002.017l.033-.004c-.005.014.004.041-.05.073-.053.031-.034.063-.034.08s-.049.037-.049.037c.003.021-.018.025-.018.025s.002-.012-.004.004c-.007.016-.049.029-.058.027-.009-.002-.043.016-.039-.022.005-.038-.032-.048-.01-.082.022-.033.013-.05.007-.065-.006-.016-.015-.003-.003-.039.011-.035-.021-.029-.021-.029a.056.056 0 0 0-.01-.01c-.096.053-.181.12-.234.17a.385.385 0 0 0 .023.036h.002l.003.008a.397.397 0 0 0 .681-.401l-.032.012z"/></symbol><symbol id="Fm17-43-0" viewBox="10.201 -0.003 0.745 0.373"><path class="fil0" d="M10.201-.003a.372.372 0 1 0 .746 0H10.2z"/></symbol><symbol id="Symbol9" viewBox="10.196 -9.373 0.745 0.373"><path class="fil0" d="M10.196-9.373a.372.372 0 1 0 .745 0h-.745z"/></symbol><symbol id="Symbol19" viewBox="6.256 -11.924 0.745 0.741"><path class="fil1" d="M6.635-11.56c-.008 0-.017-.001-.02-.01.005-.003.008-.006.01-.011a.08.08 0 0 0 .002-.023c0-.008 0-.017.004-.024.008-.022.051-.022.06 0a.07.07 0 0 1 .003.024c0 .007 0 .016.003.023.002.005.004.008.009.01-.003.01-.011.011-.02.011h-.051zm-.086-.076c-.003.044-.074.044-.077 0l-.003-.032c-.003-.044.085-.044.082 0l-.002.032zm.39-.122a7.996 7.996 0 0 1-.024.01l-.031.05-.035.01-.026-.024-.116.045-.005.002-.076-.058.042-.018.054.019.052-.025-.107-.062.054-.016.148.037a.697.697 0 0 1 .036-.013.371.371 0 1 0-.451.576l-.001-.02-.004-.165v-.1c0-.007-.01-.007-.01 0l-.002.144c-.015-.001-.025-.007-.028-.029l-.001-.133c.001-.032.026-.064.06-.064h.08a.072.072 0 0 1 .037.013l.033.023-.033.014c-.005.002-.008.01-.009.014l-.002.026h.005l.003-.022c0-.005.002-.008.006-.01a.16.16 0 0 1 .05-.011h.054c.031 0 .047.026.048.056l.007.118c-.003.02-.008.025-.022.026l-.01-.13c0-.004-.006-.005-.006 0l.005.076a.23.23 0 0 1 0 .035l-.012.158.001.023h.003v-.006A.38.38 0 0 0 7-11.553a.367.367 0 0 0-.062-.205z"/></symbol><symbol id="Fm21-48-0" viewBox="28.557 -6.795 0.109 0.874"><path class="fil1" d="M28.578-6.754l-.021.795c.036.013.072.026.11.038l-.022-.833c-.001-.055-.066-.055-.068 0z"/></symbol><symbol id="Fm4-57-0" viewBox="6.271 -0.581 0.745 0.745"><path class="fil1" d="M7.016-.209a.373.373 0 1 1-.745 0 .373.373 0 0 1 .745 0z"/></symbol><symbol id="Fm6-59-0" viewBox="10.998 -1.741 0.745 0.745"><path class="fil1" d="M11.744-1.369a.373.373 0 1 1-.746 0 .373.373 0 0 1 .746 0z"/></symbol><symbol id="Symbol21" viewBox="37.164 -80.119 0.12 1.094"><path class="fil1" d="M37.19-80.072l-.026 1.047.12-.012-.016-1.035c-.001-.063-.076-.063-.077 0z"/></symbol><symbol id="Symbol20" viewBox="5.857 -11.502 0.745 0.373"><path class="fil0" d="M5.857-11.502a.372.372 0 1 0 .745 0h-.745z"/></symbol><symbol id="Symbol22" viewBox="789.679 -1734.41 315.92 947.178"><path class="fil1" d="M1104.85-1734.02c.213.012.435.003.721-.006a1.559 1.559 0 0 1 .024-.387 6.764 6.764 0 0 0-.745.393z"/></symbol><symbol id="Symbol24" viewBox="6.174 -7.181 0.745 0.745"><path class="fil1" d="M6.912-6.808a.366.366 0 1 1-.731 0 .366.366 0 0 1 .73 0z"/><path class="fil2 str0" d="M6.912-6.808a.366.366 0 1 1-.731 0 .366.366 0 0 1 .73 0z"/></symbol><symbol id="Fm2-46-0" viewBox="6.871 -3.183 0.745 0.544"><path class="fil1" d="M6.918-2.89a.048.048 0 0 1-.008.047s.011.006.006.024c0 0 .021.012.019.035l.01.005s.001.01-.015.032a.094.094 0 0 0-.013.062s-.005-.003-.01 0a.343.343 0 0 1 .01-.2l.001-.004zm.26-.258a.342.342 0 0 1 .095-.015.391.391 0 0 1-.06.015c-.059.01-.063.017-.063.017s.002-.005.028-.017zm.054.063s.014-.008.012-.013c-.001-.004-.005-.016.009-.01 0 0-.008 0-.004.006.005.006.009.01.008.018 0 0-.002.005-.025 0zm-.019-.007c-.013-.007.025-.014.02-.007 0 0-.006.014-.02.007zm-.154.31c-.017-.03-.017-.056-.002-.092.019-.045.06-.042.068-.062.01-.02.038-.022.038-.022a.05.05 0 0 0 .007.003.142.142 0 0 1 .004-.012h-.001c-.016-.012-.017-.007-.017-.007s-.004.02 0-.005c.003-.026.012-.029.012-.029a.148.148 0 0 0 .008.003l-.02-.012.117-.034.01.003c-.005-.005-.004-.012-.004-.012-.02.003-.016-.013-.016-.013s-.001.01.021-.004c.023-.014.03-.006.05.002.02.007.024.018.024.018.005-.017.054-.034.063-.04.042.024.073.06.095.102a.644.644 0 0 1 .1-.031.418.418 0 0 0-.726.387c.047-.049.107-.1.169-.143z"/><path class="fil1" d="M7.309-3.069c-.024.007.006.023-.013.024l.034.008c-.002-.004-.01-.01-.012-.018-.005-.016.015-.02-.01-.014z"/></symbol><symbol id="Fm16-42-0" viewBox="10.201 1.075 0.745 0.373"><path class="fil0" d="M10.201 1.075a.372.372 0 1 0 .746 0H10.2z"/></symbol><symbol id="Symbol1" viewBox="10.196 -10.437 0.745 0.373"><path class="fil0" d="M10.196-10.437a.372.372 0 1 0 .745 0h-.745z"/></symbol><symbol id="Symbol3" viewBox="10.196 -7.217 0.745 0.373"><path class="fil0" d="M10.196-7.217a.372.372 0 1 0 .745 0h-.745z"/></symbol><symbol id="Symbol5" viewBox="6.864 -14.713 0.745 0.544"><path class="fil1" d="M6.911-14.419a.048.048 0 0 1-.007.046s.01.006.005.025c0 0 .021.011.019.035l.01.005s.001.009-.014.03a.094.094 0 0 0-.014.064s-.005-.004-.01 0a.343.343 0 0 1 .01-.2l.001-.005zm.26-.259a.342.342 0 0 1 .095-.015.391.391 0 0 1-.06.015c-.058.011-.063.017-.063.017s.002-.004.028-.017zm.054.064s.014-.009.012-.013c-.001-.005-.005-.017.009-.012 0 0-.008 0-.004.007.005.007.009.01.008.018 0 0-.002.006-.025 0zm-.019-.008c-.013-.007.025-.013.02-.006 0 0-.006.013-.02.006zm-.154.31c-.017-.03-.017-.056-.002-.091.02-.046.06-.043.069-.062.008-.02.037-.023.037-.023a.05.05 0 0 0 .007.004.142.142 0 0 1 .004-.013c-.017-.011-.018-.007-.018-.007s-.004.02 0-.005c.003-.025.012-.029.012-.029a.148.148 0 0 0 .008.003l-.02-.012.117-.033.01.002c-.005-.004-.004-.012-.004-.012-.02.003-.015-.013-.015-.013s-.002.01.02-.004c.023-.013.03-.005.05.002.02.007.024.018.024.018.005-.017.054-.034.063-.039.042.023.073.06.095.102a.644.644 0 0 1 .1-.032.418.418 0 0 0-.726.388c.047-.05.108-.1.169-.143z"/><path class="fil1" d="M7.302-14.598c-.024.006.006.022-.013.023l.034.009c-.002-.004-.01-.01-.012-.02-.005-.015.015-.019-.01-.012z"/></symbol><symbol id="Symbol8" viewBox="10.196 -5.087 0.745 0.373"><path class="fil0" d="M10.196-5.087a.372.372 0 1 0 .745 0h-.745z"/></symbol><symbol id="Symbol23" viewBox="6.265 -10.79 0.745 0.745"><path class="fil1" d="M7.01-10.418a.373.373 0 1 1-.745 0 .373.373 0 0 1 .745 0z"/></symbol><symbol id="Symbol26" viewBox="28.272 -62.254 0.621 1.094"><path class="fil1" d="M28.589-61.172l-.017-.001.017.001zM28.89-61.711l-.064-.472a.066.066 0 0 0-.03-.032.589.589 0 0 0-.423 0 .073.073 0 0 0-.03.033l-.07.471c-.013.032.064.057.086.029l.05-.349.018.002-.008.31.008.524c.039.007.078.012.118.018l.02-.431c0-.032.037-.032.039 0l.02.44.117.008.008-.56-.006-.301h.016l.046.343c.021.028.1-.002.086-.033z"/></symbol><symbol id="Symbol27" viewBox="12.977 -9.319 0.745 0.373"><path class="fil0" d="M12.977-9.32a.372.372 0 1 0 .746 0h-.746z"/></symbol><symbol id="Fm8-61-0" viewBox="6.175 0.576 0.745 0.745"><path class="fil1" d="M6.914.949a.366.366 0 1 1-.732 0 .366.366 0 0 1 .732 0z"/><path class="fil2 str0" d="M6.914.949a.366.366 0 1 1-.732 0 .366.366 0 0 1 .732 0z"/></symbol><symbol id="Fm23-50-0" viewBox="70.788 -18.775 0.745 0.873"><path class="fil1" d="M71.468-18.082a.392.392 0 0 1-.249.174.288.288 0 0 1-.118 0 .397.397 0 0 1-.25-.174c-.05-.087-.07-.316-.062-.415.019-.187.185-.278.371-.278.187 0 .353.091.371.278.008.099-.014.328-.063.415z"/></symbol><symbol id="Symbol11" viewBox="5.857 -8.295 0.745 0.373"><path class="fil0" d="M5.857-8.295a.372.372 0 1 0 .745 0h-.745z"/></symbol><symbol id="Fm11-37-0" viewBox="-3148.72 788.128 2363.04 442.843"><path class="fil1" d="M-3148.72 1230.14c.036 1.293.447.929.613-.028-.173 0-.458-.037-.613.028z"/></symbol><symbol id="Symbol14" viewBox="5.857 -10.437 0.745 0.373"><path class="fil0" d="M5.857-10.437a.372.372 0 1 0 .745 0h-.745z"/></symbol><symbol id="Fm0-34-0" viewBox="5.863 -2.132 0.745 0.373"><path class="fil0" d="M5.863-2.132a.372.372 0 1 0 .745 0h-.745z"/></symbol><symbol id="Symbol16" viewBox="5.857 -7.243 0.745 0.373"><path class="fil0" d="M5.857-7.243a.372.372 0 1 0 .745 0h-.745z"/></symbol><symbol id="Symbol2" viewBox="6.169 -9.438 0.745 0.745"><path class="fil1" d="M6.908-9.065a.366.366 0 1 1-.732 0 .366.366 0 0 1 .732 0z"/><path class="fil2 str0" d="M6.908-9.065a.366.366 0 1 1-.732 0 .366.366 0 0 1 .732 0z"/></symbol><symbol id="Fm5-58-0" viewBox="10.201 -1.068 0.745 0.373"><path class="fil0" d="M10.201-1.068a.372.372 0 1 0 .746 0H10.2z"/></symbol><symbol id="Fm15-41-0" viewBox="5.863 4.256 0.745 0.373"><path class="fil0" d="M5.863 4.256a.372.372 0 1 0 .745 0h-.745z"/></symbol><symbol id="Fm28-55-0" viewBox="10.201 -2.132 0.745 0.373"><path class="fil0" d="M10.201-2.132a.372.372 0 1 0 .746 0H10.2z"/></symbol><symbol id="Fm18-44-0" viewBox="5.863 -1.068 0.745 0.373"><path class="fil0" d="M5.863-1.068a.372.372 0 1 0 .745 0h-.745z"/></symbol><symbol id="Symbol17" viewBox="5.857 -6.178 0.745 0.373"><path class="fil0" d="M5.857-6.178a.372.372 0 1 0 .745 0h-.745z"/></symbol><symbol id="Fm7-60-0" viewBox="5.863 1.075 0.745 0.373"><path class="fil0" d="M5.863 1.075a.372.372 0 1 0 .745 0h-.745z"/></symbol><symbol id="Fm20-47-0" viewBox="30.134 -6.858 0.096 0.874"><path class="fil1" d="M30.155-6.82l-.021.836.096-.01-.013-.827c-.001-.05-.06-.05-.062 0z"/></symbol><symbol id="Fm14-40-0" viewBox="6.18 2.834 0.745 0.745"><path class="fil1" d="M6.918 3.206a.366.366 0 1 1-.731 0 .366.366 0 0 1 .73 0z"/><path class="fil2 str0" d="M6.918 3.206a.366.366 0 1 1-.731 0 .366.366 0 0 1 .73 0z"/></symbol><symbol id="Fm22-49-0" viewBox="23.02 -5.503 0.496 0.874"><path class="fil1" d="M23.273-4.638l-.013-.002.013.002zM23.515-5.07l-.052-.376a.052.052 0 0 0-.024-.026.47.47 0 0 0-.338 0 .058.058 0 0 0-.024.026l-.056.377c-.01.025.052.045.069.023l.04-.279.014.001-.006.249.006.418c.031.006.063.01.095.014l.015-.344c.001-.025.03-.025.032 0l.015.35c.031.004.062.007.094.008l.007-.447-.005-.241h.012l.037.274c.017.023.08-.001.069-.027z"/></symbol><symbol id="Symbol12" viewBox="5.857 -9.373 0.745 0.373"><path class="fil0" d="M5.857-9.373a.372.372 0 1 0 .745 0h-.745z"/></symbol><symbol id="Fm27-54-0" viewBox="10.201 3.218 0.745 0.373"><path class="fil0" d="M10.201 3.218a.372.372 0 1 0 .746 0H10.2z"/></symbol><symbol id="Fm3-56-0" viewBox="5.863 -0.003 0.745 0.373"><path class="fil0" d="M5.863-.003a.372.372 0 1 0 .745 0h-.745z"/></symbol><symbol id="Fm9-62-0" viewBox="5.863 2.126 0.745 0.373"><path class="fil0" d="M5.863 2.126a.372.372 0 1 0 .745 0h-.745z"/></symbol><symbol id="Symbol10" viewBox="10.196 -8.295 0.745 0.373"><path class="fil0" d="M10.196-8.295a.372.372 0 1 0 .745 0h-.745z"/></symbol><symbol id="Fm12-38-0" viewBox="6.271 1.734 0.745 0.745"><path class="fil1" d="M6.988 2.037v.002h-.003l-.003-.001H6.98s0-.002-.002-.002v.004h-.005c.002.002.003 0 .004.003 0 .004 0 .001-.002.002-.002 0-.01.003-.01.007-.002 0 0-.002-.003-.002H6.96l-.002.002s0-.001 0 0h-.004l-.002.004h.002v.004c-.002-.001-.003.001-.002.003-.003 0-.003.005-.006.006-.002.001-.002 0-.002-.002v-.008c0-.003.004-.005.007-.007s.003-.005.005-.007c-.003 0-.003.004-.007.005 0-.003-.002-.003-.005-.002l-.002.004v.002h-.005c-.002 0 0-.001-.001-.001l-.007.001c-.005 0-.007 0-.01.004l-.004.004s-.002.004 0 .002v.001c.002.001.003.002.003 0 .004 0 .003.002.005.003v-.005h.001c0 .015.003.012.003.012-.005 0-.002.002-.001.005h-.002-.001c0-.001 0-.015-.002-.008 0 .002 0 .004-.002.006a.034.034 0 0 1-.005.006l-.003.002h-.003l-.003.003v.003h-.001l.002.006c0 .002-.003.004-.005.004 0-.002 0-.008-.003-.006 0-.002.002-.002 0-.003s-.004 0-.005.001c.001-.003.002-.003-.001-.002l-.003.002c-.002.002.002 0 .001.003l.002-.001c.003 0 .003 0 .002.002 0 .001-.003 0-.003.003l.003.005v.004c0 .004-.004.007-.006.01a.011.011 0 0 1-.004.001l-.005.002s0 .007-.003.005v-.005c-.006 0-.005.004-.002.008.002.002.004.005.001.008 0 .002-.003.002-.005.004v-.002l-.002-.001-.003-.003c-.002 0 0-.002-.002 0v.004c0 .003.002.003.004.005s.002.006.003.008c-.004.002-.005-.005-.006-.007l-.003-.004V2.14c0-.003-.001-.008-.003-.008 0 0-.002.002-.003 0-.002 0 0-.003-.002-.003a.016.016 0 0 0-.003-.006l-.006.002-.008.008c-.002.002-.002 0-.002.002v.007c-.002.002-.003.003-.005.003-.002-.001-.003-.006-.003-.008l-.003-.007v-.004c-.002-.002-.001 0-.003 0 0 0-.006-.002-.002-.002-.002 0-.002-.002-.004-.003h-.008L6.8 2.117l-.001-.001h-.003l-.007-.004c-.002-.001-.004-.002-.003.001a.01.01 0 0 0 .003.004l.005.002h.002l.001-.002.002.003c.002-.002 0 0 .002 0l.002.004-.001.003-.003.002-.006.003-.005.003-.006.003c-.004 0-.002-.003-.004-.006-.001-.003-.004-.004-.006-.006-.002-.004-.003-.009-.006-.012-.002.002-.004-.003-.006-.004h.004a.008.008 0 0 0 .003-.004c.001-.004 0-.005-.003-.006v.002l-.003-.001h-.002-.003v.002c-.001 0-.003-.014-.007-.008h-.002l.003.003h.001c-.002 0-.005.006-.006 0 0 .002-.001.001-.002 0h.002l-.003-.005-.004-.003c-.003-.002-.006-.006-.006-.001 0 0 .003.001.003.003a.01.01 0 0 1 .006.004h-.003.002c-.001.003-.005.008-.008.003.01 0 .003-.004 0-.007-.002 0-.004-.003-.005-.004l-.004.003h-.004v.002l-.005.002V2.1h-.001l-.007.004h-.003c-.002-.002-.002 0-.002-.003v-.009c.003-.002.014.003.01-.005l-.003-.003c0-.001-.003 0-.001-.002.001-.001.006.002.004-.002h.003l.002-.003c.001 0 .005 0 .003-.003l.005-.002c.003-.002.002 0 .002-.003v-.004c.002-.002.003-.002.002 0h.001v.002h.003c0 .004-.004 0-.004.003h.003c0-.002.004 0 .005 0 .002 0 .003-.003.006 0-.002-.002 0-.001.002-.002 0 0 0-.005.002-.005.001 0 .001.003.004 0l-.002-.002c-.001 0-.002.002-.003 0h.001l.004-.002c.002 0 .005 0 .007-.002-.004-.002-.009.003-.012 0-.005-.006.005-.008.004-.01 0-.002-.003-.003-.004-.003l-.002.005-.004.002c-.002.003 0 .005 0 .007.003 0 .001 0 0 .002l-.002.004h.002l-.004.003c-.001 0 0 .002-.002 0-.001 0 0 0 0 0-.002-.002-.003-.008-.005-.008-.002.003-.003.003-.007.003V2.06c-.002 0 .002-.002-.001-.002 0-.003 0-.006.005-.007l.005-.004h-.002l.003-.001c0-.003.003-.007.006-.008l-.006.002.003-.002.002-.002.002.001c0-.002-.002 0 0-.002 0 .002.002 0 .002-.002 0 0 .002 0 .002.002v-.002h.004c-.002 0-.002-.002.001-.002-.001.002.003 0 .003 0l.002.002V2.03h.002v.001h.002c.001 0 .002.001 0 .001.002.001.006 0 .005.002l.007.001.005.003c.002.007-.012.002-.013.001l.004.006.003.002h.002c0-.001-.005-.001-.001-.003 0 .002.003 0 .004.001v-.002l.002-.002h.003v-.006c.002 0 .006.003.002.003 0 .004.005 0 .006 0 .002-.003.005-.003.007-.004-.001.005.007-.003.007.001.006-.002-.002-.005 0-.005l.006.002.007.002s.002.002.002 0l-.002-.001-.001-.002v-.003l.003-.005c.001-.001.006 0 .005.002 0 .002 0 .009.002.009l-.002.004c-.001 0-.004 0-.004.002l.005-.001.002-.002v-.003c.004-.003.004.005.007.002h-.002c0-.002 0-.003-.003-.004-.002-.001-.001.001-.003-.001v-.005l.001-.004.001.004c.002.001.004 0 .005.002 0-.002-.007-.003 0-.003l-.002-.001h.005l.002.001c.002 0-.002-.002-.003-.004.003-.002.007 0 .01-.002.002-.002-.002 0 0-.002l.003-.002.004-.001.004-.002h.004c.003 0 .003-.002.006-.001V2.01c.002-.002.002-.003.007-.003l-.001.002h.003v.001c.001 0 .01-.001.01.003a.032.032 0 0 1-.011.007c.002 0 .005 0 .005-.002l.005-.002-.002.002h.002v.001h.004c.003-.005.016-.006.02-.007.003 0 .008-.005.01-.002.001.003-.009.005-.011.006a.048.048 0 0 0-.006.002l.003.001H6.9v.004l.004.003.003-.003h.004l.003.002v-.002h.003s-.002 0-.002-.002l.006-.001h.005c-.002.005.002 0 .005.001v.001c.002 0 .002.002.005.002h.006c.005 0 .005.002.007.005v-.002h.012c-.006.003.004.002 0 0 .003-.002.01-.001.014 0l.004.003.003.001h.001l.001.003c.002.001.001 0 0-.001l.006.001c.002.003-.002.002-.003.002zm-.119.127l-.005-.005-.004-.007-.005-.004h.002c.003 0 .012.008.012.01.002 0 .004 0 .004.002-.002 0 0 .004-.004.004zM6.717 2.1c.002 0-.002.003-.003.003l.003-.003zm.072.044l-.002.004a.025.025 0 0 1-.006.007c-.002.003-.007.006-.008.01-.001.003.001.007.002.009 0 .004 0 .007-.002.01-.002.001-.006.002-.006.005s.002.004 0 .006c0 .002-.003.002-.003.003v.004a.023.023 0 0 1-.004.005c-.003.003-.012.008-.016.004-.002-.001 0-.002-.001-.005l-.005-.01a.04.04 0 0 0-.003-.008c-.003-.005 0-.005 0-.01.001-.005-.002-.015-.007-.016a.009.009 0 0 0 .001-.006c0-.004 0-.002-.004-.003-.002 0-.002-.001-.003-.002h-.007c-.002 0-.001.002-.004.002H6.702c-.002 0-.002-.002-.003-.002a.087.087 0 0 1-.007-.007c-.003-.002-.003-.004-.002-.006v-.006c0-.002-.002 0-.003-.001 0-.002.004-.006.005-.008l.002-.004.004-.003.001-.006s.003.002.002-.002h.003c0-.004.001-.002.004-.002l.006-.002.005-.001c.002-.001.003-.006.006-.003l-.002.003c.002 0 .005-.002.006 0l-.001.001c.002.002 0 .002 0 .004l.007.002v.002h.005c.003 0 .003.001.003-.003l.013.002c.003 0 .004 0 .005.003.003.003.004.007.006.01 0 .003.003.008.004.01l.007.006c.003.003.004.001.008.001s.003 0 .003.003zm-.116-.064c-.003 0 .002-.004-.004-.003v-.002h.005c0-.002-.001-.002-.004-.002-.001 0 0-.004.005-.003.002-.002 0 0 .002 0l.004.001c.005 0 .014-.006.013.001 0 0 .003 0 .002.002 0 .004-.002 0-.006.003-.004.002-.004.003-.01.004h-.007zm-.023-.018l-.002-.001s-.014.019-.014.01c-.002.001-.002-.001-.002.002-.007.001-.005.006-.008.011 0 .001-.002 0-.003.002v.003l-.001.008-.015-.004c-.004-.004-.007-.01-.005-.015l-.003.001c0 .001-.002-.004 0-.003-.002 0 0-.001 0-.002h-.002c0-.001-.008-.01 0-.01-.001-.002.001-.003.004-.003-.002-.005 0-.008-.007-.007.005.001.004.004 0 .004-.005 0-.003-.004-.003-.006h.01c-.005-.008-.017 0-.012-.01h-.001a.023.023 0 0 0-.01-.016c-.004-.002-.018-.003-.02 0-.001 0 0 0 0 0-.002.001-.005 0-.006-.002l-.005-.003c0-.002.01 0 .012-.004-.005 0-.023 0-.014-.005.003-.002.008-.002.011-.003h.005c0-.001.002-.006 0-.006h-.005c0-.003.003-.003.005-.004l.01-.004c.001 0 0-.002.002-.003h.003l.008.002-.007-.003c.002 0 .01-.005.013-.003.002.001 0 .005 0 .005.004.002.003-.003.002-.005.004 0 .007.004.01.004l-.004-.005c.006 0 .01.004.016.004.003 0-.006-.005-.006-.004-.002-.003.003-.001.005 0 0-.003-.003-.002-.003-.004a.033.033 0 0 1 .01-.002l.008.002c.005-.001.002-.002.005-.004.004 0 .031-.004.032.001-.006 0-.015 0-.02.002h.019l.011.001v.001c-.005.001-.028.002-.03.007.006 0 .016-.006.02-.002-.001 0-.003 0-.004.003.004 0 .006 0 .006-.004.01 0 .006.002.002.008l.011-.005a.08.08 0 0 1 .011-.002h.007c.003.003-.003.003-.004.003-.004.003-.006.003-.01.004h.006c-.002.002-.019.013-.014.017 0 0 .005-.003.007 0l-.003.002c.007 0 .005.002.004.007-.002-.003.001-.003-.003-.004h-.004c0 .003.006.003.006.008-.005 0 0 .003.001.005l-.009.002c0 .001.01 0 .004.004-.002.001-.007-.001-.01-.001h.002l-.001.002c.003 0 .004 0 .005.002.002.005-.004.001-.004.002.001 0 .006.005.006.007-.001.005-.007 0-.007 0-.012 0 0 .008.004.004 0 .003-.01.005-.013.007-.004.002-.004.003-.009.002zm-.113.17c-.001.002-.004 0-.005-.001.002-.001.004 0 .005.001zm-.01-.009l-.005-.002c-.001 0-.002.002-.004.001-.003-.001-.004-.001-.001-.003s.008 0 .01 0c.004.002.013.004.015.007a.04.04 0 0 1-.016-.003zm.023.01c-.002 0-.004-.001-.004-.004 0-.004.005 0 .008 0 .004 0 .01-.001.013.001-.005.002-.012.001-.017.003zm.023-.096c-.003.004-.004 0-.007-.001l.007.001zm.02.01l-.006-.004H6.58l.006-.012c.004-.002 0 .005 0 .005.006.001.01.003.006.01zm-.075-.058c0 .001 0 .003-.003.003-.004 0 .002-.003.003-.003zm.004.002c.009-.006.002.01 0 0zm.013-.025c.002.003-.003.004-.005.003-.002-.003.004-.006.005-.003zm.067.214l-.005.007c-.002.003 0 .01-.003.014-.002.003-.003.003-.007.004a.011.011 0 0 0-.005.004c-.003.003-.001.009-.006.011V2.32l-.003.006c-.003.002-.005.001-.008 0 0 .004.003.003.002.006-.001.004-.006.004-.009.004 0 .003 0 .005-.004.003 0 .005.002.002.002.004l-.002.003v.002H6.55c-.002.004.002.003.003.005 0 .001-.004.004-.004.006-.003 0-.001.004 0 .006 0 .002.004.003.005.004-.004 0-.007.002-.01 0l-.004-.006h-.002l.001-.001h-.001c0-.002-.004-.007.001-.007l-.003-.003.002-.002v-.003l.001.002c0-.003 0-.005.002-.007-.001 0-.002.005-.004.002l.001-.002v-.002c0-.004 0-.006.002-.01l.001-.009.002-.008c0-.006.002-.013-.003-.016l-.007-.005-.004-.008a.019.019 0 0 0-.002-.003l-.002-.002c-.002-.003 0-.005.002-.007-.003 0-.002 0-.002-.003a.016.016 0 0 0 .005-.005v-.006c-.002 0-.004 0-.003.004l-.014-.006-.007-.01s-.008 0-.01-.002c-.002 0-.003-.004-.006-.004h-.005c-.004 0-.03-.009-.024-.013l-.013-.016c-.004-.004-.01-.014-.014-.013 0 .006.018.02.013.025a.031.031 0 0 0-.006-.008l-.005-.004c-.002-.003 0-.003 0-.004l-.007-.012c-.003-.004-.008-.004-.012-.008a.041.041 0 0 1-.01-.024c0-.004.003-.01 0-.014-.002-.005-.007-.006-.01-.01.007-.001.012.005.016.01 0-.005-.004-.008-.008-.01-.005-.003-.007-.004-.01-.008l-.006-.01-.004-.002-.002-.004c-.007 0-.012-.007-.018-.009h-.012c-.003-.002-.009-.007-.01-.002l.002.001a.02.02 0 0 0-.01.004c0-.004.001-.006.005-.006-.005-.004-.007.004-.011.006 0 0 0 .002.002.003-.008.004-.022.018-.031.016.006-.007.019-.006.021-.017h-.004c-.001.002-.005 0-.009.002 0-.003 0-.005-.002-.007-.003.006-.009-.004-.009-.006.002-.01.014-.002.013-.012-.003 0-.008.003-.011.002-.003 0-.003-.004-.007-.005.003-.003.006-.003.01-.005 0 .003.003.003.006.002-.002-.004-.008-.004-.01-.008-.005-.005 0-.002.004-.005.004-.002.004-.005.009-.007.004-.001.009-.004.013-.004v.002c.006-.001.01.001.016.001l.018.002c.008.001.011.004.02.002.004 0 .009-.004.014-.004-.003.003-.007.003-.01.006a.07.07 0 0 1 .012-.006c.002 0 0-.002.002-.001.002 0 .003.003.004.003.002 0 .003.003.004-.002.002.006.006 0 .011.002a.06.06 0 0 1 .018.005l-.003.003c.006 0 .017-.003.02.005 0-.005-.003-.005.002-.008h.008c.005.002.012.005.015-.001l-.004-.003.003-.004c.003 0 .005.003.005.006h-.002l.002.002c0 .003 0 .002.003.004-.002-.005.004-.004.004-.008-.003.002-.005.002-.006 0 .007 0-.006-.007 0-.011.007-.005.008.004.01.007l.006.004.005.001s-.002.004 0 .006c.006.002.007-.011.008-.012-.003-.001-.01-.002-.012-.004h.005c-.003-.005-.009 0-.006-.009.002-.005.007-.006.012-.006-.005.003-.005.013.001.012-.003-.004-.004-.01.003-.011.004-.001.004-.002.007.002.001.002-.002.004 0 .005.003 0 .01-.004.013-.002.005 0 .006.005.013.005l-.002.001.01.002-.002.002.004.002-.001.001.003.001c-.01.003.01.008.013.01.002.003.002.001 0 .004l-.004.004c-.004.001-.002 0-.007-.003-.003-.001-.004-.004-.006 0l.01.01v.005l-.012-.006c.002.003.008.005.008.009-.005-.003-.01-.002-.014-.005-.003-.002-.004-.006-.01-.007-.001 0-.008.005-.008 0 0-.004.009-.002.011-.003-.003-.004.004-.005.004-.008s-.004-.005-.006-.006l-.013-.008.002.002c-.004.002-.01 0-.014.001.003.001.012.006.005.007.004.004.001.01-.004.01l-.003.002c.001.002.017.007.01.009l-.004-.001a.025.025 0 0 0-.005.002c-.003 0-.004 0-.006-.003.002-.001.006-.011 0-.01.006.005-.008.002-.01.002.003.002.006.004.01.003-.002.004-.004.007-.008.004 0 .005-.007.002-.01.001l.008.003c0 .003-.004.004-.006.005a.016.016 0 0 0-.004.008c0 .006.001.004.004.007.001.001.001.004.003.005h.004l.007.002c.005.003.01.004.016.004 0 .004 0 .015.006.014.006 0 .003-.01 0-.013.01 0 .01-.011.003-.014V2.1h.003c-.006-.009 0-.013.007-.011s.015.005.013.014c.004-.001.003.002.007.002.004-.001.004-.006.006-.009.002.004.01.013.008.014.003.005.007.006.012.007-.003.002-.007.002-.008.005.003 0 .01-.004.012 0 .002.005-.004.006-.008.008l-.008.003h-.01c-.005.002-.008.008-.014.007l.004.001a.018.018 0 0 0-.005.006c.005-.003.014-.015.019-.009.001.003-.005.006.002.01.004.001.005-.002.01-.004-.002.005-.007.009-.012.01 0 0-.006.003-.004-.001l.006-.003c-.006-.002-.022.005-.017.012l-.01.003-.003.009c-.003-.003-.001 0-.004-.001.001.004.003.005.002.008-.002.004-.007.005-.01.008-.004.005.002.022-.001.023-.003 0-.007-.013-.01-.015H6.51c-.003 0-.009 0-.007.004-.006.002-.014-.005-.019.002-.003.006-.003.02.003.026.003.003.009.004.012.001.004-.003 0-.007.007-.008.007 0 .003.01 0 .015.003.001.01-.003.014.002.003.005-.004.01.003.014h.009c.001-.003.008-.008.01-.007-.001.001-.002.004 0 .006V2.25c.001-.001.002 0 .002-.002.003 0 .005.003.008.003.001 0 .004-.003.006-.001-.002.001 0 .002.002.001 0 .003.006.005.008.006.004 0 .008 0 .008.006.003 0 0 .004 0 .005.001 0 0-.002.002-.002h.002v.003h.007c-.002.002.004.002.006.002.003 0 .004 0 .006.003.003.001.002-.001.004.003v.003zm-.273-.162c-.002-.003.002-.004.005-.006v.002a.01.01 0 0 1-.005.004zm-.03-.01c-.006 0-.003-.005 0 0zm.107-.07c.002-.001.013.001.016.001.009.002.007.003 0 .007-.004.002-.006.009-.01.008l-.003.002a.009.009 0 0 0-.007-.005l.004-.012zm.016-.008c-.001.003 0 .002-.004.003l.002-.002h.002zm.006-.008c0 .003-.002.004-.004.005h-.003c-.003.002-.008.007-.012.002.008-.001.01-.009.019-.007zm.004-.002c-.002 0-.003 0-.003-.002.002 0 .002 0 .003.002zm.002.006l-.003-.001h.003zm.01-.008l-.003.001c.002.003-.001.004-.004.004l-.003-.003c.003-.002.006-.002.01-.002zm0-.002h-.01c.003-.002.008-.003.01 0zm.01.014c.001.005-.011.007-.015.007-.001 0-.006.003-.007 0 0-.002.006-.001.007-.002-.003 0-.012.002-.014 0-.003-.002.001-.007.005-.008.002 0 .016.006.016.004h-.003c-.002-.004 0-.006.004-.005-.001 0 .008.006.007.004zm.003-.008c-.002.001-.004 0-.004-.003.002 0 .003.002.004.003zm.014-.003c-.004-.001-.013-.001-.015-.004h.002l-.004-.004c.005-.002.018.001.017.008zm0-.012h-.003v-.002c.002 0 .003 0 .004.002zm.009.01c-.004.001-.006 0-.007-.004.002 0 .014.002.007.004zm-.001-.015h.004L6.48 2l.005-.001c0-.002-.002 0-.003-.001 0-.003.018.006.018.006.005.003.007.008-.001.007 0 .003-.001.002-.002.003a.014.014 0 0 1-.014-.002l.006-.002c-.004-.003-.009 0-.012-.003v-.005zm.054.04c-.002 0-.004 0-.005.002-.004 0-.007 0-.007-.005.004 0 .008 0 .012.002zm-.043-.02v-.003l.006.001a.008.008 0 0 1-.006.001zm.004.014c-.006-.002-.003-.007-.006-.011.007-.002.008.005.016.005.003 0 .015-.004.018 0 .005.007-.026.005-.028.006zm-.011.003c.002-.002.008 0 .011 0-.002.003-.003.007-.007.005 0 .003-.001.002-.002.004-.005.001-.004-.008-.002-.01zm.004-.006c0 .005-.007.001-.008 0 0-.002.007-.004.008 0zm-.008-.012c.001-.003.005-.003.008-.003v.002a.033.033 0 0 1-.008 0zm.001.001c.004 0 .008.002.005.005-.003 0-.011-.003-.005-.005zm-.017.023c.004.002.007 0 .003-.005l.007-.001c.002 0 .006.003.001.005.007.002.005.008 0 .008-.003-.001-.01-.005-.011-.007zm-.005 0c-.003 0-.004-.001-.006-.003.002-.002.007-.002.006.002zm.001-.012c0 .003-.002 0-.003 0 0 0 .003-.002.003 0zm.018.004h-.002s0-.002.002 0zm-.016-.018h.004c-.002.001-.003.002-.004 0zm.003.01v-.003l.006.003a.012.012 0 0 0-.003-.004c.003.001.008 0 .008.004 0 .003-.002.005-.005.005-.001-.003-.003-.004-.006-.003-.003 0-.007-.002-.007-.006.004 0 .005.003.007.005zm-.016.012s.002.002 0 0zm.007.023c0 .002-.002.003-.005.004h-.003a.022.022 0 0 1 .008-.004zm-.005 0c-.004 0-.007.004-.012.003-.005-.002-.005-.005-.011-.004l-.002-.003.013-.003c-.002-.002-.012 0-.015-.001a.012.012 0 0 1 .006-.003c-.003-.002-.006 0-.01 0 .003-.004.003-.005.007-.008.003 0 .008-.003.006.002a.009.009 0 0 1 .008 0v.002l.004-.002-.002-.002c.004 0 .004.006.007.006.004 0-.002-.005 0-.007.003-.004.007.005.008.007.003.005.005.004.01.008l-.004.002c.006.004-.01.002-.013.002zm.04-.07l.014-.003s.003-.002.006-.001l.011.003c-.001-.003-.005-.003-.009-.003.003-.004.012-.004.017-.002-.002-.006.013 0 .014-.004.004 0 .009.002.01.003.003-.001.017-.001.017.002-.001.005-.016.002-.019.006.003 0 .009-.002.01 0-.005.002-.013.009-.02.008l.004.002h-.009l.002.002c-.004.004-.009 0-.013.003v.001c.002-.001.01-.003.01.001H6.53c.003.004 0 .005-.004.004 0 .003 0 .004-.002.004v.002h.003c0 .004-.008.006-.009.003-.005 0-.018.003-.021-.002.003-.001.004-.002.002-.006.005 0 .013.006.016-.001-.003.003-.006.004-.007 0h.002c-.015.003-.003-.01.005-.002l.002-.003c-.004 0-.012-.003-.013-.008.005 0 .012.005.017.004-.003 0-.005-.002-.007-.003v-.002c.003 0 .012-.001.015-.003h-.006a.011.011 0 0 1 .006-.003c-.005 0-.009.003-.014.004-.002.001-.017.003-.008-.002-.004 0-.004.003-.01.002-.004-.001-.004-.003-.007-.004v-.001zm.272.008c-.008 0 .002-.004.004-.004V2l.004-.002s.002.003.001.004l.002-.003c.002 0 .002-.003.006-.001L6.778 2h.002l.013.007c0 .003.002 0 .004.003l-.006.002c-.002 0-.002-.003-.006 0 0-.002.002-.003.001-.004-.001-.002-.002 0-.002-.003H6.78c0 .004-.003.01-.006.012-.001-.002-.007-.004-.007-.005l.007-.002h-.008c.001-.002.009-.002.008-.003 0-.002-.005-.002-.005-.002l-.002.003c-.003 0-.003-.002-.005-.002 0 .004-.003 0-.003-.002.001 0 .001.002.003.002v-.004zm.026-.005c.002-.004.001-.002.004-.004v.002c.002.001.007-.002.01.001-.003.002-.017.009-.02.002h.005c-.001-.003-.006 0-.007-.002-.002-.003.007-.002.008 0zm.07-.008c.005 0 .008-.002.004.003-.002.003-.01.003-.005-.001-.003 0-.008.002-.008 0l.01-.002zm.015.001l.002-.003.004-.001.004-.002-.002.003h.004c0 .005-.006-.002-.005.003-.004 0-.009 0-.01.003 0-.002 0-.001.003-.003zm.007.002c-.001.003-.002.001-.003 0a.019.019 0 0 1 .008-.001v.001s-.005.003-.005 0zm.007 0v.002h-.003l.003-.001zm0-.004c.004-.003.004 0 .006.002h-.007l.001-.002zm.016-.001c-.004 0-.006.005-.009 0 .003.001.005-.002.009 0zm-.26-.253a.373.373 0 1 0 0 .746.373.373 0 0 0 0-.746z"/></symbol><symbol id="Symbol4" viewBox="6.642 -13.718 0.745 0.563"><path class="fil1" d="M7.105-13.361c-.027.021-.013-.009-.002-.016.01-.007-.006-.015.023-.027.028-.011.013-.019.025-.017 0 0-.02.039-.046.06zm.214-.344l-.045.017-.03.049a.7.7 0 0 1 .006.06c-.003.035-.01.058-.01.058a.135.135 0 0 0-.02-.088l-.024.007v.006c-.005.038-.062.053-.062.053-.008-.036-.002.017-.002.017l.032-.004c-.005.015.004.041-.049.073-.053.031-.035.063-.035.08s-.048.038-.048.038c.002.02-.019.024-.019.024s.002-.012-.004.004-.048.03-.057.027c-.01-.001-.044.017-.04-.022.005-.038-.032-.048-.01-.081.023-.033.014-.05.007-.066-.006-.015-.015-.003-.003-.038.012-.035-.02-.03-.02-.03a.056.056 0 0 0-.01-.01c-.096.054-.182.12-.234.17a.385.385 0 0 0 .022.036h.002l.004.008a.397.397 0 0 0 .68-.401l-.031.013z"/></symbol><symbol id="Symbol18" viewBox="35.192 -78.173 0.137 1.094"><path class="fil1" d="M35.218-78.122l-.026.995c.045.017.09.033.137.048l-.027-1.043c-.002-.068-.083-.068-.084 0z"/></symbol><symbol id="Symbol25" viewBox="10.992 -11.95 0.745 0.745"><path class="fil1" d="M11.738-11.578a.373.373 0 1 1-.746 0 .373.373 0 0 1 .746 0z"/></symbol><g id="Layer_x0020_1"><g id="_197187064"><path id="_197187520" class="fil3" d="M.204.215h.005V.28C.202.28.203.282.203.274V.262.238.215zM.2.125v.01C.201.14.2.139.197.139H.166L.2.124zM.257.123L.25.082V.082a.034.034 0 0 0-.002-.01L.246.07.243.066A.024.024 0 0 0 .236.06L.233.057H.229C.226.054.227.055.225.056L.223.063C.223.064.22.067.218.069a.054.054 0 0 1-.005.007L.21.079C.207.08.208.079.206.08.202.082.205.087.203.09v.004L.2.098.196.1.193.102a.141.141 0 0 0-.009.004L.168.114a.094.094 0 0 1-.007.003L.167.111.142.116C.14.116.13.12.13.122.13.13.122.13.12.127.118.12.12.116.127.118L.13.115.137.113.143.111.147.11.17.104h.002L.174.103.18.1.184.1.19.097C.191.097.196.094.197.091V.085L.2.08.197.077.196.074V.068L.12.114.112.11.106.106a.018.018 0 0 0-.01-.002L.09.106a.027.027 0 0 0-.013.011.032.032 0 0 0-.002.007v.005c0 .005 0 .011.004.014L.086.15l.017.01.004.004a.309.309 0 0 0 .02.013H.2S.202.176.202.179s0 .004-.003.003H.12L.115.18.111.177.103.171.087.161C.085.158.072.148.07.148L.062.143C.061.14.055.139.054.137c0-.002.002-.002.002-.006 0-.001 0-.003-.002-.005L.042.12A.168.168 0 0 0 .03.112L.025.11C.022.11.022.113.02.114A.016.016 0 0 0 .014.113H.013c-.004 0-.007.002-.01.005L.001.122 0 .126v.005l.003.004c0 .002.003.003.005.004l.004.003.004.003.004.002a.083.083 0 0 0 .01.006.12.12 0 0 1 .008.006l.005.003.004.004A.096.096 0 0 1 .055.17a.126.126 0 0 0 .014.01l.005.003.008.006c.002 0 .003.002.004.003A.13.13 0 0 1 .1.203l.005.002.004.003.009.006h.04v.064C.157.28.157.28.153.28H.15L.143.282C.142.284.141.287.142.288c.001.003.002.004.005.004H.217C.222.292.224.293.23.29.232.286.23.28.23.273V.235.216c0-.003.005-.002.006 0v.067c0 .003 0 .005.002.007l.006.002c.004 0 .006.001.01-.001C.26.289.26.284.26.28V.267.242.217h.01C.271.214.27.215.27.21.271.186.261.15.257.123z"/><path id="_197187448" class="fil3" d="M.35.126C.35.108.354.09.354.073.354.07.354.068.35.067H.296C.291.068.293.075.293.08c0 .015.005.03.005.045L.297.13C.293.148.287.166.284.184A.278.278 0 0 1 .28.196L.278.208v.006c0 .003.002.003.004.003h.015C.3.217.3.217.3.22v.07l.002.002c.002.002.003.003.006.003s.01 0 .011-.003L.32.289V.286.279.267v-.05h.006v.065c0 .011.002.013.012.013S.348.29.348.282V.217h.01c.005 0 .008.001.01-.002L.367.206V.203L.365.202C.36.185.35.154.35.137V.126z"/><path id="_197187376" class="fil3" d="M.18.045L.183.05l.003.003a.027.027 0 0 0 .027.004L.222.051A.032.032 0 0 0 .228.043.027.027 0 0 0 .224.01L.219.007.215.004C.205-.001.194.002.185.007a.026.026 0 0 0-.007.01C.173.025.175.035.18.044z"/><path id="_197187304" class="fil3" d="M.06.12C.067.12.075.115.079.11.085.103.085.087.077.079A.025.025 0 0 0 .059.07C.053.07.046.07.042.075L.04.077.038.079C.032.085.032.094.034.102l.004.009c.003.002.005.005.008.006L.051.12.06.12z"/><path id="_197187232" class="fil3" d="M.338.058C.346.05.348.042.336.036A.069.069 0 0 0 .321.03C.32.033.323.034.323.036s-.005 0-.006 0C.315.034.31.03.31.026V.026c0-.003 0-.002-.002 0L.305.026C.301.032.301.04.302.047.306.062.328.07.338.058z"/><path id="_197187160" class="fil3" d="M.307.005l.001.003h.003C.31.01.31.01.309.013.311.015.31.015.308.016H.307V.013H.303L.303.011C.308.009.303.009.305.007L.307.005zM.295.013C.293.018.298.026.299.03L.304.023C.316.01.338.011.347.028v.001A.079.079 0 0 0 .352.017V.014A.016.016 0 0 0 .345.007C.332-.001.303-.006.295.013z"/><path id="_197187088" class="fil3" d="M.2.07c0 .003.002.004.003.004.003.002.004 0 .006-.002a.042.042 0 0 0 .008-.01l-.01.009C.205.07.205.069.204.068V.063c0-.006-.005.004-.005.006z"/></g></g></svg>