<svg xmlns="http://www.w3.org/2000/svg" width="69" height="69" viewBox="0 0 69 69"><defs><style>.a,.f{fill:#fff;}.b,.g{fill:none;}.b,.e,.f,.g,.h{stroke:#e21f26;}.b,.h{stroke-miterlimit:10;}.b{stroke-width:1.5px;}.c{fill:#d9d9d9;}.d,.h{fill:#e21f26;}.e{fill:#fcfdfe;}.e,.f,.g{stroke-linecap:round;stroke-linejoin:round;}.h{stroke-width:0.3px;}</style></defs><g transform="translate(-513 -2461)"><circle class="a" cx="34.5" cy="34.5" r="34.5" transform="translate(513 2461)"/><g transform="translate(332.082 2186.055)"><path class="b" d="M224.355,320.9v-.925h0V295.393a5.448,5.448,0,0,0-5.448-5.449H196.918a5.531,5.531,0,0,1,4.945,5.438v7.011h0v18.5a5.438,5.438,0,0,0,5.428,5.449h21.937A5.438,5.438,0,0,1,224.355,320.9Z" transform="translate(0 0)"/><rect class="c" width="5.644" height="1.007" transform="translate(204.422 297.603)"/><rect class="c" width="9.711" height="1.007" transform="translate(204.422 300.778)"/><rect class="c" width="15.111" height="0.883" transform="translate(204.422 308.424)"/><rect class="c" width="15.111" height="0.883" transform="translate(204.422 304.663)"/><rect class="c" width="15.111" height="0.883" transform="translate(204.422 312.184)"/><g transform="translate(214.133 292.834)"><circle class="d" cx="3.622" cy="3.622" r="3.622"/><g transform="translate(1.561 1.269)"><path class="a" d="M224.674,295.488v1.745h1.63v.978h-1.63v1.754h-1.111V298.21h-1.621v-.978h1.621v-1.745Z" transform="translate(-221.942 -295.488)"/></g></g><g transform="translate(210.822 315.944)"><path class="e" d="M217.31,324.6h21.452v11.123" transform="translate(-215.913 -324.596)"/><rect class="f" width="21.452" height="11.123" transform="translate(0 1.436)"/><circle class="g" cx="3.875" cy="3.875" r="3.875" transform="translate(7.602 3.123)"/><g transform="translate(10.079 4.811)"><path class="h" d="M231.675,331.34h-1.095a1,1,0,0,1,.371.677h.723v.332h-.717c-.066.677-.6,1.108-1.453,1.134.518.537,1.082,1.214,1.639,1.9h-.637c-.518-.624-1-1.2-1.626-1.865v-.411h.365c.717,0,1.1-.3,1.148-.756h-1.513v-.332h1.493c-.093-.385-.445-.577-1.022-.577h-.471v-.431h2.793Z" transform="translate(-228.882 -331.008)"/></g></g></g></g></svg>