<svg xmlns="http://www.w3.org/2000/svg" width="69" height="69" viewBox="0 0 69 69"><defs><style>.a{fill:#f6f6f6;}.b,.d{fill:#e21f26;}.c{fill:#fff;stroke-width:1.5px;}.c,.d{stroke:#e21f26;}.d{stroke-width:0.2px;}.e{stroke:none;}.f{fill:none;}</style></defs><g transform="translate(-513 -2461.25)"><circle class="a" cx="34.5" cy="34.5" r="34.5" transform="translate(513 2461.25)"/><g transform="translate(187.968 2044.82)"><path class="b" d="M352.353,455.268l-5.99-5.9V443.01a2.607,2.607,0,0,0-2.6-2.6h-.091a2.593,2.593,0,0,0-.435.053v-.635a2.626,2.626,0,0,0-2.48-2.65,2.771,2.771,0,0,0-2.012.738,2.14,2.14,0,0,0-.688,1.554c0,2.027-.013,11.469-.021,14.425,0,.07,0,.139,0,.208a7.878,7.878,0,0,0,2.561,5.61c.014.012.027.025.042.036l6.7,5.4v6.822a.859.859,0,0,0,.859.859h6.04a.859.859,0,0,0,.859-.859V461.82A9.252,9.252,0,0,0,352.353,455.268Zm-8.63-13.143h.036a.886.886,0,0,1,.885.885v5.375a2.762,2.762,0,0,0-1.412.137V442.3A.882.882,0,0,1,343.723,442.125Zm9.654,28.987h-4.321v-6.374a.861.861,0,0,0-.32-.669l-7-5.645a6.149,6.149,0,0,1-1.986-4.358c0-.056,0-.114,0-.171.008-2.956.021-12.4.021-14.429a.432.432,0,0,1,.156-.31,1.057,1.057,0,0,1,.746-.265.922.922,0,0,1,.841.933v10.562a2.675,2.675,0,0,0-.068.319,2.8,2.8,0,0,0,.761,2.378l6.052,6.332a.859.859,0,0,0,1.242-1.187l-6.056-6.335-.009-.01a1.065,1.065,0,0,1-.01-1.484l.113-.1a1.059,1.059,0,0,1,1.414.091l.009.009,6.185,6.094a7.526,7.526,0,0,1,2.23,5.328v9.293Z" transform="translate(0 -1.742)"/><path class="b" d="M391.34,439.467a2.14,2.14,0,0,0-.688-1.554,2.77,2.77,0,0,0-2.013-.738,2.625,2.625,0,0,0-2.48,2.65v.636a2.585,2.585,0,0,0-.434-.053h-.091a2.606,2.606,0,0,0-2.6,2.6v6.355l-5.991,5.9a9.255,9.255,0,0,0-2.742,6.551v10.152a.859.859,0,0,0,.859.859h6.04a.859.859,0,0,0,.859-.859v-6.822l6.7-5.4.042-.036a7.875,7.875,0,0,0,2.561-5.61c0-.069,0-.138,0-.208-.008-2.956-.021-12.4-.021-14.425Zm-5.712,2.658h.042a.878.878,0,0,1,.489.172v6.224a2.768,2.768,0,0,0-1.411-.136V443.01a.886.886,0,0,1,.879-.886Zm4.013,11.942a6.149,6.149,0,0,1-1.986,4.358l-7,5.645a.859.859,0,0,0-.32.669v6.374h-4.321V461.82a7.525,7.525,0,0,1,2.229-5.328l6.185-6.094.009-.009a1.059,1.059,0,0,1,1.414-.091c.029.025.085.077.113.1a1.064,1.064,0,0,1-.01,1.483l-.007.007-3.053,3.175a.859.859,0,1,0,1.239,1.191l3.05-3.172a2.8,2.8,0,0,0,.763-2.379,2.833,2.833,0,0,0-.069-.319V439.825a.922.922,0,0,1,.841-.933,1.056,1.056,0,0,1,.746.265.433.433,0,0,1,.157.31c0,2.027.012,11.473.02,14.429,0,.057,0,.114,0,.171Z" transform="translate(-9.334 -1.742)"/><path class="b" d="M383.573,465.235a.859.859,0,1,0-.3,1.035.865.865,0,0,0,.3-1.035Z" transform="translate(-11.296 -8.829)"/><g class="c" transform="translate(351.032 430.43)"><circle class="e" cx="10" cy="10" r="10"/><circle class="f" cx="10" cy="10" r="9.25"/></g><path class="d" d="M6.472-8.162v4.473h4.264v1.414H6.472v4.5H4.943v-4.5H.7V-3.689H4.943V-8.162Z" transform="translate(355.367 443.706)"/></g></g></svg>