<svg id="Layer_1" data-name="Layer 1" xmlns="http://www.w3.org/2000/svg" viewBox="0 0 288 288"><defs><style>.cls-1{fill:#114430;}</style></defs><title>Regain green</title><g id="pRX64i.tif"><path class="cls-1" d="M136.52,287c-4.33-.56-8.68-1-13-1.7C89.93,280.22,61.65,265,38.67,240.13A140,140,0,0,1,2.77,166.4c-1.22-7.42-1.56-15-2.33-22.74h18c1.1,39.19,16.22,71.77,46.41,96.85,22.8,18.94,49.33,28.44,79,28.59,59.84.32,112-42.33,123.86-101.07,11.79-58.28-19.92-117.81-75-140.7S79.54,24.49,48.11,62.18L61.7,75.07,17.06,81.32l6.24-44.57L35.88,50a19.84,19.84,0,0,1,1.66-2.64c23.88-25.75,53.1-41.85,88-46.13,49.53-6.07,91.57,9.8,125.41,46.41,20,21.66,31.6,47.57,35.72,76.78.52,3.68.9,7.39,1.34,11.08v15.71a20.21,20.21,0,0,0-.55,2.71,127.8,127.8,0,0,1-9.91,42.61c-21.57,49.73-59,79.57-112.58,88.76-4.21.72-8.48,1.12-12.72,1.67Z"/><path class="cls-1" d="M72.67,143.38c0-11.13.22-22.26-.07-33.37-.25-9.44,3.63-16.59,10.84-22.22,8.36-6.51,18-10.11,28.24-12.38C137.76,69.59,163.6,70.15,189,79c7.47,2.6,14.36,6.32,20,12.09a24,24,0,0,1,7.15,17.39q-.07,34.78,0,69.56a24.46,24.46,0,0,1-8.35,18.86c-7.49,6.88-16.57,10.79-26.23,13.3-28,7.29-55.82,6.93-83.22-3a47.39,47.39,0,0,1-19-12,23.55,23.55,0,0,1-6.66-16.74C72.72,166.75,72.67,155.07,72.67,143.38Zm76-53.93c-13.94-.09-24,.91-33.78,3.42-7.35,1.88-14.53,4.29-20.64,9-5.07,3.93-5.15,7.39.09,11.14a53.76,53.76,0,0,0,10.52,5.75c9.84,4.1,20.25,5.79,30.83,6.45,15.81,1,31.41-.19,46.35-5.8A58.22,58.22,0,0,0,195.45,112c4-2.92,3.93-6.08,0-9.2a45.74,45.74,0,0,0-10-6C172.51,91.22,158.83,89.61,148.71,89.45ZM90.42,132.14c0,2.9.2,5.86,0,8.79a7.94,7.94,0,0,0,4,8c4.33,2.52,8.71,5.2,13.41,6.77,21.34,7.13,43.05,7.38,64.89,2.48,7.59-1.7,15-4.16,21.23-8.95,1.76-1.35,3.8-3.36,4.14-5.33.65-3.85.19-7.89.19-11.62C162.21,147.58,126.49,146.7,90.42,132.14ZM198.3,168.22c-36.18,15.27-71.92,14.39-107.88-.17a31.21,31.21,0,0,1,0,5.13c-1.33,7.74,2.76,12.09,9.16,15.08.85.39,1.66.85,2.53,1.2,24.5,9.87,49.47,10.1,74.74,3.56,6.54-1.69,12.84-4.14,18.07-8.58,1.47-1.25,3-3.17,3.27-4.95C198.65,175.74,198.3,171.88,198.3,168.22Z"/></g></svg>