<?xml version="1.0" encoding="UTF-8"?>
<svg width="40px" height="40px" viewBox="0 0 40 40" version="1.1" xmlns="http://www.w3.org/2000/svg" xmlns:xlink="http://www.w3.org/1999/xlink">
    <title>AIA_Icon_Pay premium</title>
    <g id="AIA_Icon_Pay-premium" stroke="none" stroke-width="1" fill="none" fill-rule="evenodd">
        <g id="Group-35">
            <g id="Group-7-Copy-3">
                <rect id="Rectangle" x="0" y="0" width="40" height="40"></rect>
            </g>
            <g id="Group-24-Copy" transform="translate(1.111111, 5.185185)">
                <g id="icons/home" fill="#4197D3">
                    <path d="M37.2252006,15.1835231 C37.8099414,16.4825354 37.3188208,17.6767913 35.9442794,18.596435 L35.798942,18.690584 L35.7035694,18.7410516 L28.3388729,21.9688 C25.4698234,23.2742454 22.5349691,23.6898411 19.5503779,23.2108913 L19.2185528,23.1539931 C16.8177348,22.7151404 15.1189167,22.9583541 14.0646937,23.8258825 C14.5922085,24.7063329 14.668342,25.837666 14.2095699,26.7985844 L14.1106586,26.988371 L13.6685422,27.7612173 C12.8490694,29.1801366 11.055582,29.5677031 9.69685413,28.6457817 C9.65689988,28.6192645 9.61763638,28.5915878 9.58574348,28.5678836 L9.54426705,28.5359479 L1.82939979,22.9720191 C0.565789064,22.1391523 0.223543317,20.5074972 1.02074974,19.2460812 L1.12189784,19.0965632 L1.50733909,18.5737561 C2.36737651,17.3963983 3.96921166,16.9980416 5.2283904,17.6447328 L5.39059874,17.7350322 L6.27559259,18.3207752 L6.40467947,18.2022549 C8.54066111,16.2503496 10.2383766,15.0131789 11.5350402,14.4821292 C12.9663945,13.8959168 14.8386935,13.7809115 17.1272988,14.108566 L17.7341152,14.1698576 C20.4991049,14.4614868 22.3300177,14.8322985 23.285822,15.3141048 C24.2516609,15.8009695 24.8493471,16.6410914 25.0719483,17.772025 L33.4708271,14.0071741 L33.5578068,13.9746271 C35.2959195,13.4470441 36.6146701,13.8298721 37.2252006,15.1835231 Z M2.78159667,19.3275454 L2.68963487,19.4416708 L2.3267944,19.933493 L2.24821106,20.0493019 C1.91489369,20.5961798 2.03221372,21.2654656 2.54579363,21.6800932 L2.66189185,21.7649067 L10.4259341,27.3642463 C10.4543113,27.3865172 10.4813376,27.4061396 10.5141053,27.4279329 C11.1418888,27.8538741 11.9124445,27.7203951 12.3241082,27.1436371 L12.3969669,27.0303286 L12.8360657,26.2627578 C13.2152544,25.5934441 13.0632641,24.710392 12.5336276,24.2344021 L12.4227105,24.1448155 L4.62623119,18.9868148 L4.54015214,18.9403444 C3.97093078,18.6602718 3.23212211,18.8196933 2.78159667,19.3275454 Z M34.1243095,15.3372313 L34.0268979,15.3648148 L25.0583607,19.3856268 C24.9875973,19.4173488 24.9124026,19.4375786 24.8356071,19.4457109 L24.7583828,19.4497882 L20.3334495,19.4497882 C19.9284406,19.4497882 19.6001161,19.1214637 19.6001161,18.7164549 C19.6001161,18.3384467 19.8861233,18.027239 20.2535447,17.9874247 L20.3334495,17.9831216 L23.6191329,17.983283 C23.474213,17.3215124 23.1446367,16.8854066 22.6256325,16.6237845 C21.818407,16.2168745 19.9122815,15.851556 16.9529791,15.5644556 C14.8676992,15.2666068 13.2462562,15.3662033 12.0909031,15.8393792 C11.0149937,16.2800188 9.48648871,17.3873349 7.53758707,19.154381 L13.0234942,22.7847485 C14.4061486,21.5670238 16.4883646,21.2115383 19.2115765,21.663983 L19.4820428,21.7111889 C22.1793407,22.2033217 24.8224615,21.8902458 27.4389939,20.7633035 L27.740785,20.6296594 L35.0608979,17.4208148 L35.1403885,17.3701256 C35.9179815,16.8528686 36.1244346,16.3991696 35.9214988,15.8665441 L35.8880082,15.7860405 C35.635181,15.2254794 35.1316167,15.0581155 34.1243095,15.3372313 Z M30.2789324,0.148148148 C30.7024561,0.148148148 31.0548979,0.483978238 31.0548979,0.906204637 C31.0548979,1.32843104 30.7024561,1.66426113 30.2789324,1.66426113 L30.2789324,1.66426113 L27.8402312,1.66414815 C28.2223598,2.12164964 28.5009507,2.66057972 28.6472434,3.23480426 L28.6472434,3.23480426 L28.6868979,3.40614815 L30.2789324,3.40665655 C30.6742212,3.40665655 31.0075897,3.69920187 31.050282,4.08149362 L31.050282,4.08149362 L31.0548979,4.16471304 C31.0548979,4.58693944 30.7024561,4.92276953 30.2789324,4.92276953 L30.2789324,4.92276953 L28.6882312,4.92214815 L28.6706492,5.01226474 C28.2724977,6.8064444 26.638476,8.14543804 24.6958246,8.21466888 L24.6958246,8.21466888 L24.5376543,8.21748358 L24.2235645,8.21748148 L28.5194493,12.0896571 C28.8129409,12.3623241 28.8453865,12.8018549 28.6019454,13.1125987 L28.6019454,13.1125987 L28.5455513,13.1771077 C28.2520097,13.4715351 27.7722629,13.4849802 27.4642552,13.2061631 L27.4642552,13.2061631 L21.7073103,8.0176585 C21.5572668,7.87468697 21.4666975,7.67800226 21.466767,7.47770869 C21.4587752,7.05125895 21.808629,6.70869857 22.242663,6.7013706 L22.242663,6.7013706 L24.5405269,6.70137169 C25.706615,6.69864164 26.7111376,5.98632423 27.0710093,4.97987238 L27.0710093,4.97987238 L27.0895645,4.92214815 L22.2388633,4.92276953 C21.8435745,4.92276953 21.510206,4.6302242 21.4675137,4.24793246 L21.4675137,4.24793246 L21.4628979,4.16471304 C21.4628979,3.74248664 21.8153396,3.40665655 22.2388633,3.40665655 L22.2388633,3.40665655 L27.0855645,3.40614815 L27.0715574,3.36262633 C26.7265287,2.41710834 25.7851904,1.72177152 24.6803759,1.6676574 L24.6803759,1.6676574 L24.541454,1.66426113 L22.2388633,1.66426113 C21.8153396,1.66426113 21.4628979,1.32843104 21.4628979,0.906204637 C21.4628979,0.483978238 21.8153396,0.148148148 22.2388633,0.148148148 L22.2388633,0.148148148 Z" id="Combined-Shape"></path>
                </g>
                <line x1="20.9910326" y1="9.60594226" x2="22.8485496" y2="11.2801352" id="Path-24" stroke="#EB9AA7" stroke-width="1.48148148" stroke-linecap="round" stroke-linejoin="round"></line>
                <line x1="5.72480211" y1="21.8363647" x2="9.74174869" y2="24.6892177" id="Path-27" stroke="#EB9AA7" stroke-width="1.48148148" stroke-linecap="round" stroke-linejoin="round"></line>
            </g>
        </g>
    </g>
</svg>