<svg xmlns="http://www.w3.org/2000/svg" width="69" height="69" viewBox="0 0 69 69"><defs><style>.a{fill:#fff;}.b,.c,.d,.f{fill:#e21f26;}.b{stroke:#e21f26;stroke-width:0.5px;}.b,.c,.d{stroke-miterlimit:10;}.c{stroke-linecap:square;stroke-linejoin:bevel;}.d{stroke-linecap:round;}.e,.f{stroke:none;}</style></defs><g transform="translate(-513 -2461)"><circle class="a" cx="34.5" cy="34.5" r="34.5" transform="translate(513 2461)"/><g transform="translate(1125.687 489.48)"><path class="b" d="M-575.164,2000.169c0-.537-.006-1.034,0-1.53a2.883,2.883,0,0,1,1.966-2.716,2.757,2.757,0,0,1,3.625,2.317,14.109,14.109,0,0,1,.111,1.912c.1.005.213.017.326.017.814,0,1.628.011,2.441,0a1.234,1.234,0,0,1,1.242.806c1.207,2.627,2.43,5.248,3.633,7.876a1.744,1.744,0,0,0,.909.913c2.067.95,4.12,1.931,6.186,2.88a1.283,1.283,0,0,1,.825,1.3c-.011,2.45,0,4.9-.005,7.352,0,.74-.259,1-1,1-1.758,0-3.515.007-5.272-.006-.28,0-.374.081-.4.354a5.123,5.123,0,0,1-4.344,4.518,5.2,5.2,0,0,1-5.861-4.261c-.027-.157-.032-.319-.049-.5H-582.7a5.1,5.1,0,0,1-.928,2.6,5.051,5.051,0,0,1-4.946,2.159,5.135,5.135,0,0,1-4.419-4.631c-.021-.246-.159-.235-.33-.235q-2.164,0-4.329,0c-.786,0-1.037-.248-1.037-1.026q0-10.036,0-20.072c0-.776.252-1.023,1.041-1.023h22.481Zm9.812,2.6c-.258-.569-.488-1.056-.7-1.551a.606.606,0,0,0-.632-.4q-15.49.006-30.98,0c-.276,0-.377.069-.377.363q.011,10.051,0,20.1c0,.292.1.367.376.365,1.453-.011,2.907-.005,4.36-.006.094,0,.188-.014.278-.021a5.256,5.256,0,0,1,4.669-4.7,5.251,5.251,0,0,1,5.686,4.788h11.816c.071-.35.115-.683.209-1a5.589,5.589,0,0,1,.369-.969,5.184,5.184,0,0,1,5.635-2.74,5.208,5.208,0,0,1,4.061,4.271c.031.285.113.381.411.379q2.6-.022,5.206,0c.335,0,.42-.1.418-.424-.013-2.256-.005-4.511-.008-6.766,0-1.153.108-.96-.911-1.439-1.95-.917-3.909-1.818-5.851-2.753a2.423,2.423,0,0,0-1.115-.245c-1.66.011-3.319,0-4.979,0-.955,0-1.909,0-2.864,0a.715.715,0,0,1-.78-.7q-.014-2.927,0-5.855a.68.68,0,0,1,.593-.67,2.974,2.974,0,0,1,.486-.032C-568.458,2002.766-566.94,2002.766-565.352,2002.766Zm-.316,14.8a4.482,4.482,0,0,0-4.521,4.486,4.484,4.484,0,0,0,4.5,4.508,4.516,4.516,0,0,0,4.527-4.488A4.516,4.516,0,0,0-565.668,2017.567Zm-26.7,4.48a4.5,4.5,0,0,0,4.425,4.513,4.5,4.5,0,0,0,4.587-4.449,4.493,4.493,0,0,0-4.426-4.542A4.475,4.475,0,0,0-592.364,2022.047Zm30.046-12.669c-.032-.086-.044-.126-.061-.163-.865-1.874-1.733-3.747-2.591-5.625a.314.314,0,0,0-.35-.2c-1.561.014-3.123.021-4.685.032-.126,0-.252.018-.383.028-.01.094-.023.158-.023.222,0,1.81,0,3.621-.006,5.431,0,.244.1.283.311.282,1.388-.007,2.776,0,4.164,0Zm-7.764-9.224a14.393,14.393,0,0,0-.221-2.166,2.112,2.112,0,0,0-3.509-.943c-.915.888-.68,2.019-.69,3.109Z" transform="translate(0 -4.819)"/><g class="c" transform="translate(-23.659 -1.911)"><path class="e" d="M-551.138,1992.059c-.084.1-.147.227-.238.253a.413.413,0,0,1-.35-.065c-.475-.516-.942-1.042-1.381-1.59-.073-.091,0-.3.011-.458.155.015.373-.03.454.055.47.493.908,1.015,1.353,1.531A1.6,1.6,0,0,1-551.138,1992.059Z"/><path class="f" d="M -551.4800415039062 1992.324829101562 C -551.5739135742188 1992.324829101562 -551.6777954101562 1992.298950195312 -551.725341796875 1992.247314453125 C -552.20068359375 1991.731201171875 -552.6673583984375 1991.204833984375 -553.1061401367188 1990.657470703125 C -553.1796264648438 1990.566284179688 -553.102783203125 1990.354614257812 -553.0950927734375 1990.198974609375 C -553.06884765625 1990.201538085938 -553.0408325195312 1990.202270507812 -553.0119018554688 1990.202270507812 C -552.9620971679688 1990.202270507812 -552.9097290039062 1990.199951171875 -552.8599243164062 1990.199951171875 C -552.76806640625 1990.199951171875 -552.6846923828125 1990.2080078125 -552.6409301757812 1990.253784179688 C -552.17138671875 1990.746459960938 -551.732666015625 1991.268798828125 -551.2880859375 1991.785034179688 C -551.22802734375 1991.854614257812 -551.19677734375 1991.949340820312 -551.1376953125 1992.059326171875 C -551.22216796875 1992.155029296875 -551.2842407226562 1992.286254882812 -551.3755493164062 1992.312133789062 C -551.4058227539062 1992.320556640625 -551.442138671875 1992.324829101562 -551.4800415039062 1992.324829101562 Z"/></g><g class="c" transform="translate(-28.113)"><path class="e" d="M-543.91,1987.835c0,.3,0,.605,0,.908,0,.2-.094.343-.3.353a.315.315,0,0,1-.346-.344q-.015-.94,0-1.88a.316.316,0,0,1,.339-.352c.234.007.306.166.306.375C-543.911,1987.208-543.91,1987.522-543.91,1987.835Z"/><path class="f" d="M -544.2327270507812 1989.096801757812 C -544.4389038085938 1989.096801757812 -544.5512084960938 1988.951904296875 -544.554443359375 1988.752197265625 C -544.5645141601562 1988.125366210938 -544.5650024414062 1987.498901367188 -544.554931640625 1986.8720703125 C -544.5521240234375 1986.672973632812 -544.4497680664062 1986.51953125 -544.2298583984375 1986.51953125 C -544.2251586914062 1986.51953125 -544.220458984375 1986.519653320312 -544.2156372070312 1986.519775390625 C -543.9816284179688 1986.526489257812 -543.9095458984375 1986.685546875 -543.9100341796875 1986.89501953125 C -543.910888671875 1987.20849609375 -543.9104614257812 1987.521850585938 -543.9104614257812 1987.835083007812 C -543.9104614257812 1988.137939453125 -543.9114379882812 1988.440185546875 -543.9104614257812 1988.742919921875 C -543.9095458984375 1988.94580078125 -544.004150390625 1989.085571289062 -544.2080078125 1989.09619140625 C -544.2163696289062 1989.0966796875 -544.224609375 1989.096801757812 -544.2327270507812 1989.096801757812 Z"/></g><g class="c" transform="translate(-31.137 -2)"><path class="e" d="M-538.741,1992.122a2.329,2.329,0,0,1,.173-.285c.373-.435.752-.865,1.128-1.3.148-.171.326-.239.5-.075a.328.328,0,0,1-.005.494c-.4.458-.79.918-1.205,1.359a.438.438,0,0,1-.37.08C-538.608,1992.37-538.666,1992.22-538.741,1992.122Z"/><path class="f" d="M -538.421142578125 1992.407104492188 C -538.45556640625 1992.407104492188 -538.4882202148438 1992.403442382812 -538.51611328125 1992.395629882812 C -538.60791015625 1992.36962890625 -538.6655883789062 1992.220092773438 -538.7410278320312 1992.121704101562 C -538.6665649414062 1991.99755859375 -538.6286010742188 1991.90771484375 -538.5679931640625 1991.836669921875 C -538.195068359375 1991.401733398438 -537.8158569335938 1990.971557617188 -537.4400634765625 1990.53857421875 C -537.3507690429688 1990.435546875 -537.2505493164062 1990.369750976562 -537.1458740234375 1990.369750976562 C -537.0770874023438 1990.369750976562 -537.00634765625 1990.398193359375 -536.9354248046875 1990.463134765625 C -536.7744140625 1990.611083984375 -536.8028564453125 1990.798095703125 -536.9407348632812 1990.956665039062 C -537.3377075195312 1991.414184570312 -537.7308349609375 1991.875122070312 -538.1460571289062 1992.315307617188 C -538.2017822265625 1992.374267578125 -538.3192138671875 1992.407104492188 -538.421142578125 1992.407104492188 Z"/></g><g class="c" transform="translate(-33.172 -7.025)"><path class="e" d="M-533.569,2000.055a6.348,6.348,0,0,1,.909.014c.132.02.242.188.362.289-.111.114-.216.321-.332.327a18.456,18.456,0,0,1-1.885,0c-.112-.006-.28-.2-.3-.332-.037-.2.138-.3.338-.3Z"/><path class="f" d="M -533.04052734375 2000.044799804688 C -532.91259765625 2000.044799804688 -532.7855224609375 2000.050048828125 -532.660400390625 2000.068481445312 C -532.5281982421875 2000.088134765625 -532.418212890625 2000.2568359375 -532.2980346679688 2000.357788085938 C -532.4086303710938 2000.471557617188 -532.5142822265625 2000.678344726562 -532.630126953125 2000.684692382812 C -532.9342041015625 2000.699951171875 -533.2390747070312 2000.70751953125 -533.5439453125 2000.70751953125 C -533.867919921875 2000.70751953125 -534.19189453125 2000.698974609375 -534.5150146484375 2000.68212890625 C -534.6265258789062 2000.676391601562 -534.795166015625 2000.480224609375 -534.8182373046875 2000.3505859375 C -534.8547973632812 2000.147705078125 -534.6798706054688 2000.055541992188 -534.4799194335938 2000.054565429688 C -534.378662109375 2000.05419921875 -534.2774047851562 2000.054077148438 -534.1762084960938 2000.054077148438 C -533.9736938476562 2000.054077148438 -533.7713623046875 2000.054565429688 -533.5692138671875 2000.054565429688 C -533.5673828125 2000.054565429688 -533.5654907226562 2000.054565429688 -533.5636596679688 2000.054565429688 C -533.3897094726562 2000.054565429688 -533.21435546875 2000.044799804688 -533.04052734375 2000.044799804688 Z"/></g><g class="c" transform="translate(-21.19 -7.024)"><path class="e" d="M-556.678,2000.054a5.331,5.331,0,0,1,.841.013c.134.022.245.183.367.282-.107.116-.208.326-.32.332a16.989,16.989,0,0,1-1.812,0c-.106-.006-.268-.2-.284-.319-.025-.187.124-.306.334-.3C-557.262,2000.056-556.97,2000.054-556.678,2000.054Z"/><path class="f" d="M -556.1859741210938 2000.043334960938 C -556.0684814453125 2000.043334960938 -555.951904296875 2000.048706054688 -555.83740234375 2000.067138671875 C -555.7037353515625 2000.0888671875 -555.59228515625 2000.250244140625 -555.470703125 2000.348876953125 C -555.577392578125 2000.46484375 -555.6782836914062 2000.6748046875 -555.790771484375 2000.680419921875 C -556.0761108398438 2000.695678710938 -556.3624267578125 2000.703002929688 -556.648681640625 2000.703002929688 C -556.9669799804688 2000.703002929688 -557.2852783203125 2000.693969726562 -557.6026000976562 2000.677001953125 C -557.7083129882812 2000.67138671875 -557.8707275390625 2000.47998046875 -557.8870849609375 2000.35791015625 C -557.9124145507812 2000.171752929688 -557.7653198242188 2000.05322265625 -557.557373046875 2000.05322265625 C -557.5560913085938 2000.05322265625 -557.5548095703125 2000.05322265625 -557.5535278320312 2000.05322265625 C -557.4413452148438 2000.05419921875 -557.3291625976562 2000.054443359375 -557.2169799804688 2000.054443359375 C -557.0374755859375 2000.054443359375 -556.8579711914062 2000.0537109375 -556.6784057617188 2000.0537109375 C -556.5147705078125 2000.0537109375 -556.3494873046875 2000.043334960938 -556.1859741210938 2000.043334960938 Z"/></g><g class="d" transform="translate(-11.601 -14.234)"><path class="e" d="M -569.9881591796875 2022.818603515625 L -573.5491333007812 2022.818603515625 L -573.5491333007812 2020.5498046875 L -573.5491333007812 2020.2998046875 L -573.7991333007812 2020.2998046875 L -576.1019897460938 2020.2998046875 L -576.1019897460938 2016.702880859375 L -573.81591796875 2016.702880859375 L -573.56591796875 2016.702880859375 L -573.56591796875 2016.452880859375 L -573.56591796875 2014.172973632812 L -570.0064086914062 2014.172973632812 L -570.0064086914062 2016.43701171875 L -570.0064086914062 2016.68701171875 L -569.7564086914062 2016.68701171875 L -567.4371948242188 2016.68701171875 L -567.4371948242188 2020.280639648438 L -569.7381591796875 2020.280639648438 L -569.9881591796875 2020.280639648438 L -569.9881591796875 2020.530639648438 L -569.9881591796875 2022.818603515625 Z M -573.39453125 2020.151977539062 L -573.39453125 2022.41943359375 L -573.39453125 2022.66943359375 L -573.14453125 2022.66943359375 L -570.386474609375 2022.66943359375 L -570.136474609375 2022.66943359375 L -570.136474609375 2022.41943359375 L -570.136474609375 2020.126953125 L -567.8311767578125 2020.126953125 L -567.5811767578125 2020.126953125 L -567.5811767578125 2019.876953125 L -567.5811767578125 2017.1044921875 L -567.5811767578125 2016.8544921875 L -567.8311767578125 2016.8544921875 L -570.1393432617188 2016.8544921875 L -570.1393432617188 2014.5771484375 L -570.1393432617188 2014.3271484375 L -570.3893432617188 2014.3271484375 L -573.1724243164062 2014.3271484375 L -573.4224243164062 2014.3271484375 L -573.4224243164062 2014.5771484375 L -573.4224243164062 2016.8583984375 L -575.7002563476562 2016.8583984375 L -575.9502563476562 2016.8583984375 L -575.9502563476562 2017.1083984375 L -575.9502563476562 2019.901977539062 L -575.9502563476562 2020.151977539062 L -575.7002563476562 2020.151977539062 L -573.39453125 2020.151977539062 Z"/><path class="f" d="M -573.81591796875 2013.922973632812 L -569.7564086914062 2013.922973632812 L -569.7564086914062 2016.43701171875 L -567.1871948242188 2016.43701171875 L -567.1871948242188 2020.530639648438 L -569.7381591796875 2020.530639648438 L -569.7381591796875 2023.068603515625 L -573.7991333007812 2023.068603515625 L -573.7991333007812 2020.5498046875 L -576.3519897460938 2020.5498046875 L -576.3519897460938 2016.452880859375 L -573.81591796875 2016.452880859375 L -573.81591796875 2013.922973632812 Z M -567.8311767578125 2019.876953125 L -567.8311767578125 2017.1044921875 L -570.3893432617188 2017.1044921875 L -570.3893432617188 2014.5771484375 L -573.1724243164062 2014.5771484375 L -573.1724243164062 2017.1083984375 L -575.7002563476562 2017.1083984375 L -575.7002563476562 2019.901977539062 L -573.14453125 2019.901977539062 L -573.14453125 2022.41943359375 L -570.386474609375 2022.41943359375 L -570.386474609375 2019.876953125 L -567.8311767578125 2019.876953125 Z"/></g><path class="b" d="M-532.745,2045.158a2.558,2.558,0,0,1,2.547,2.57,2.568,2.568,0,0,1-2.574,2.511,2.527,2.527,0,0,1-2.515-2.589A2.524,2.524,0,0,1-532.745,2045.158Zm-.014,4.432a1.915,1.915,0,0,0,1.909-1.86,1.9,1.9,0,0,0-1.908-1.921,1.869,1.869,0,0,0-1.879,1.836A1.88,1.88,0,0,0-532.759,2049.59Z" transform="translate(-32.931 -30.457)"/><path class="b" d="M-581.432,2047.676a2.513,2.513,0,0,1,2.512-2.517,2.55,2.55,0,0,1,2.569,2.544,2.569,2.569,0,0,1-2.481,2.537A2.513,2.513,0,0,1-581.432,2047.676Zm.651,0a1.867,1.867,0,0,0,1.9,1.912A1.915,1.915,0,0,0-577,2047.7a1.891,1.891,0,0,0-1.938-1.888A1.848,1.848,0,0,0-580.781,2047.678Z" transform="translate(-8.962 -30.458)"/></g></g></svg>