<svg xmlns="http://www.w3.org/2000/svg" width="69" height="69" viewBox="0 0 69 69">
  <g id="ayush-benefit" transform="translate(-513 -2461.25)">
    <circle id="Ellipse_1138" data-name="Ellipse 1138" cx="34.5" cy="34.5" r="34.5" transform="translate(513 2461.25)" fill="#fff"/>
    <g id="AYUSH_Benefits" data-name="AYUSH Benefits" transform="translate(44.183 2192.162)">
      <path id="Path_18629" data-name="Path 18629" d="M518.091,301.923h.435q2.648,0,5.3,0c.78,0,1.155.373,1.134,1.151a21.833,21.833,0,0,1-6.9,15.738,21.109,21.109,0,0,1-12.181,5.875,21.525,21.525,0,0,1-17.917-5.619,21.21,21.21,0,0,1-6.823-12.553c-.189-1.133-.24-2.289-.316-3.438-.052-.787.331-1.153,1.118-1.154h10.876c4.182,0,8.365,0,12.547.008a1.412,1.412,0,0,0,.983-.359q5.412-4.54,10.843-9.058a3.936,3.936,0,0,1,6.354,1.854,3.862,3.862,0,0,1-1.33,4.119c-1.274,1.037-2.558,2.061-3.836,3.091-.106.085-.208.173-.311.259Zm-35.441,1.866c.665,7.564,4.108,13.389,10.81,16.9,7.236,3.79,14.45,3.262,21.155-1.407,5.323-3.707,8.051-8.992,8.535-15.494Zm26.231-1.948.042.082c1.993,0,3.987,0,5.98-.01a.847.847,0,0,0,.452-.224q2.747-2.2,5.481-4.415a3.66,3.66,0,0,0,.638-.673,2.018,2.018,0,0,0-2.91-2.747q-4.163,3.423-8.317,6.857Q509.563,301.274,508.881,301.84Z" transform="translate(0 -0.284)" fill="#e21f26"/>
      <path id="Path_18630" data-name="Path 18630" d="M495.57,296.072c.183-.362.33-.664.487-.96a8.758,8.758,0,0,1,7.15-4.857,20.388,20.388,0,0,1,3.283-.019c.746.04,1.054.508.9,1.237a12,12,0,0,1-3.439,6.5,8.067,8.067,0,0,1-4.626,2.093,34.814,34.814,0,0,1-3.486.114c-.636.018-1.274.077-1.909.06a11.1,11.1,0,0,1-6.334-1.877,9.072,9.072,0,0,1-3.046-4.039,23.253,23.253,0,0,1-.906-2.857.919.919,0,0,1,.873-1.3,11.09,11.09,0,0,1,8.59,2.308,9.07,9.07,0,0,1,2.238,3.117C495.411,295.727,495.472,295.862,495.57,296.072Zm-9.921-4.167c.632,2.009,1.439,3.865,3.216,5.074a9.06,9.06,0,0,0,5.533,1.388C493.162,293.626,490.1,291.682,485.648,291.9Zm11.019,6.54a7.908,7.908,0,0,0,8.8-6.471,8.971,8.971,0,0,0-5.7,1.445A10.052,10.052,0,0,0,496.668,298.445Z" transform="translate(-0.537)" fill="#e21f26"/>
      <path id="Path_18631" data-name="Path 18631" d="M513.6,317.486a1.385,1.385,0,0,1-1.388,1.394,1.416,1.416,0,0,1-1.391-1.4,1.4,1.4,0,0,1,1.4-1.387A1.37,1.37,0,0,1,513.6,317.486Z" transform="translate(-5.817 -5.041)" fill="#e21f26"/>
      <path id="Path_18632" data-name="Path 18632" d="M493.739,315.735a1.08,1.08,0,0,1-2.159.04,1.08,1.08,0,1,1,2.159-.04Z" transform="translate(-2.087 -4.762)" fill="#e21f26"/>
    </g>
  </g>
</svg>
