<svg xmlns="http://www.w3.org/2000/svg" xmlns:xlink="http://www.w3.org/1999/xlink" width="240.752" height="176.564" viewBox="0 0 240.752 176.564">
  <defs>
    <clipPath id="clip-path">
      <rect id="Rectangle_11728" data-name="Rectangle 11728" width="29.722" height="50.157" fill="none"/>
    </clipPath>
  </defs>
  <g id="bigger-better-health-plan_" data-name="bigger-better-health-plan " transform="translate(4354 21298.076)">
    <path id="Path_20457" data-name="Path 20457" d="M351.607,1233.53c-21.72,4.769-43.921.3-65.678-1.864-14.324-1.425-28.135.513-42.494,1.567-36.5,2.677-77-2.034-88.673-35.766-9.73-28.109,6-69.821,39.889-86.326,11.723-5.71,23.658-6.837,35.3-5.665,6.993.7,14.79,3.387,22.323.56,7.946-2.978,13.825-11.252,19.2-17.21,8-8.874,16.435-18.174,27.159-24.169,24.6-13.758,39.223-.344,46.612,21.7,3.593,10.722,5.5,21.893,8.394,32.8,4.1,15.464,13.006,26.7,23.032,39.141,8.926,11.083,17.28,24.047,15.841,38.107-1.631,15.959-16.01,29.045-32.038,34.627a77.328,77.328,0,0,1-8.865,2.5" transform="translate(-4505.92 -22357.16)" fill="#f7f7f7"/>
    <g id="Koti_Suraksha_" data-name="Koti Suraksha " transform="translate(-4434.781 -23750.588)">
      <rect id="Rectangle_11731" data-name="Rectangle 11731" width="137.175" height="140.563" transform="translate(128.949 2482)" fill="none"/>
      <g id="Group_6134" data-name="Group 6134" transform="translate(175.49 2547.68) rotate(-20)">
        <path id="Path_21495" data-name="Path 21495" d="M19.455,0,0,46.412l1.7.346L21.152.345,19.458,0Z" transform="translate(8.57 0.001)" fill="#272626"/>
        <g id="Group_6133" data-name="Group 6133" transform="translate(0 0)">
          <g id="Group_6132" data-name="Group 6132" clip-path="url(#clip-path)">
            <path id="Path_21496" data-name="Path 21496" d="M8.988.107l-.8,1.96A3.154,3.154,0,0,1,6.246,3.773C3.21,4.816,2.054,2.8,1.668,1.754A.866.866,0,0,0,.68,1.326l-.017,0c-.469.088-.763.451-.632.79,1.67,4.35,6.519,3.562,8.4,2.352a4.353,4.353,0,0,0,1.7-1.849L10.985.514c.032-.077-.027-.157-.13-.178L9.231.005a.218.218,0,0,0-.244.1" transform="translate(0 44.734)" fill="#272626"/>
          </g>
        </g>
      </g>
      <g id="optima-restore" transform="translate(158.091 2543.259)">
        <g id="Group_2032" data-name="Group 2032" transform="translate(37.244 0)">
          <path id="Path_18334" data-name="Path 18334" d="M332.02,207.9h0a5.5,5.5,0,0,0,5.688-5.306,5.437,5.437,0,0,0-.009-.564l-.891-13.231a4.143,4.143,0,0,0-3.994-3.88h0a4.151,4.151,0,0,0-4.259,3.6l-1.793,13.137a5.5,5.5,0,0,0,5.259,6.245Z" transform="translate(-310.507 -168.299)" fill="#eacdcd"/>
          <path id="Path_18335" data-name="Path 18335" d="M337.992,218.967s-4.475,4.968-10.324-.088l.315.206c2.592,3.473,5.978,4.872,10.223,5.742h.143" transform="translate(-311.146 -190.912)" fill="#ddbcbc"/>
          <path id="Path_18336" data-name="Path 18336" d="M325.135,152.091h0a8.614,8.614,0,0,0-8.717,8.673l.075,5.62a12.251,12.251,0,0,0,1.269,5.375,8.07,8.07,0,0,0,7.708,4.8h0a7.384,7.384,0,0,0,6.311-2.774,12.087,12.087,0,0,0,2.375-7.526l-.073-5.492A8.9,8.9,0,0,0,325.135,152.091Z" transform="translate(-303.654 -146.439)" fill="#eacdcd"/>
          <path id="Path_18337" data-name="Path 18337" d="M305.335,235.481l0,.07a5.5,5.5,0,0,1-5.678,5.87,5.492,5.492,0,0,1-5.286-5.939c-2.811.763-16.9,5.01-16.126,13.327.112,1.209.219,2.418.219,3.632v17.529h44.155V246.948S323.726,239.361,305.335,235.481Z" transform="translate(-278.22 -201.72)" fill="#e6e6e6"/>
          <ellipse id="Ellipse_888" data-name="Ellipse 888" cx="0.851" cy="0.851" rx="0.851" ry="0.851" transform="translate(16.239 16.14)" fill="#0a0b0b"/>
          <path id="Path_18338" data-name="Path 18338" d="M326.638,178.544l.279-.388a3.946,3.946,0,0,0-4.928.286l.327.356A3.406,3.406,0,0,1,326.638,178.544Z" transform="translate(-307.364 -163.31)" fill="#0a0b0b"/>
          <ellipse id="Ellipse_889" data-name="Ellipse 889" cx="0.851" cy="0.851" rx="0.851" ry="0.851" transform="translate(25.086 16.14)" fill="#0a0b0b"/>
          <path id="Path_18339" data-name="Path 18339" d="M353.114,178.544l.279-.388a3.946,3.946,0,0,0-4.928.286l.327.356A3.406,3.406,0,0,1,353.114,178.544Z" transform="translate(-324.993 -163.31)" fill="#0a0b0b"/>
          <path id="Path_18340" data-name="Path 18340" d="M341.018,190s.116,3.908-.3,4.638,1.449.266,1.449.266" transform="translate(-319.794 -171.684)" fill="none" stroke="#9f9f9f" stroke-miterlimit="10" stroke-width="0.3"/>
          <path id="Path_18341" data-name="Path 18341" d="M340.461,212.83a5.1,5.1,0,0,1-4.309-.086" transform="translate(-316.795 -186.826)" fill="none" stroke="#9f9f9f" stroke-miterlimit="10" stroke-width="0.3"/>
          <g id="Group_2030" data-name="Group 2030" transform="translate(30.13 16.395)">
            <path id="Path_18342" data-name="Path 18342" d="M368.392,189.169c1.292.023,2.36-1.659,2.382-3.021s-1.034-1.892-2.294-1.9Z" transform="translate(-368.392 -184.244)" fill="#eacdcd"/>
            <path id="Path_18343" data-name="Path 18343" d="M370.783,189.063a2.079,2.079,0,0,0-.837,1.763,1.22,1.22,0,0,1,.813-.195" transform="translate(-369.426 -187.453)" fill="none" stroke="#9f9f9f" stroke-miterlimit="10" stroke-width="0.3"/>
          </g>
          <g id="Group_2031" data-name="Group 2031" transform="translate(10.638 16.395)">
            <path id="Path_18344" data-name="Path 18344" d="M312.438,189.169c-1.292.023-2.36-1.659-2.382-3.021s1.034-1.892,2.294-1.9Z" transform="translate(-310.056 -184.244)" fill="#eacdcd"/>
            <path id="Path_18345" data-name="Path 18345" d="M313.122,189.063a2.079,2.079,0,0,1,.837,1.763,1.22,1.22,0,0,0-.813-.195" transform="translate(-312.097 -187.453)" fill="none" stroke="#9f9f9f" stroke-miterlimit="10" stroke-width="0.3"/>
          </g>
          <path id="Path_18346" data-name="Path 18346" d="M310.18,151.571a6.6,6.6,0,0,0,1.482-4.221s3.36-1.548,3.537-4.333c0,0,5.659,3.935,9.152,1.636,0,0,1.724.133,1.547,1.415,0,0,1.017,6.588,1.724,5.482,0,0,1.061-1.194.884-5.748a1.857,1.857,0,0,0,.707-2.962s.133-5.261-5.881-5.7c0,0-.864-.629-1.8-1.238a4.344,4.344,0,0,0-5.169.268q-.12.1-.235.218s-4.112-.707-5.969,2.785c0,0-4.156-.052-3.227,4.086,0,0-.177,3.121,1.636,4.093Z" transform="translate(-297.248 -135.176)" fill="#0a0b0b"/>
          <line id="Line_33" data-name="Line 33" y2="22.82" transform="translate(8.297 44.907)" fill="none" stroke="#040505" stroke-miterlimit="10" stroke-width="0.3"/>
          <line id="Line_34" data-name="Line 34" y2="22.82" transform="translate(36.939 44.907)" fill="none" stroke="#040505" stroke-miterlimit="10" stroke-width="0.3"/>
        </g>
        <g id="Group_2038" data-name="Group 2038" transform="translate(2.043 1.766)">
          <g id="Group_2033" data-name="Group 2033" transform="translate(5.933)">
            <ellipse id="Ellipse_890" data-name="Ellipse 890" cx="14.442" cy="14.442" rx="14.442" ry="14.442" transform="translate(3.331)" fill="#0a0b0b"/>
            <path id="Path_18347" data-name="Path 18347" d="M194.433,192.09s5.4,9.095,1.216,16.1a5.428,5.428,0,0,1-1.214,1.374c-1.492,1.238-5.065,4.787-3.354,9.216,0,0,22.278,16.518,34.638-1.03,0,0,2.06-3.849-4.12-8.791,0,0-2.095-1.255-1.927-6.5a19.262,19.262,0,0,1,.828-4.91c.451-1.5,1.15-3.7,1.869-5.451C223.583,189.137,194.433,192.09,194.433,192.09Z" transform="translate(-190.628 -173.965)" fill="#0a0b0b"/>
          </g>
          <path id="Path_18348" data-name="Path 18348" d="M226.423,162.37h0a8.337,8.337,0,0,0-8.436,8.394l.072,5.439a11.861,11.861,0,0,0,1.228,5.2c1.5,2.972,3.909,5.31,7.46,5.31h0a7.711,7.711,0,0,0,6.108-3.353,11.7,11.7,0,0,0,2.3-7.284l-.071-5.315A8.609,8.609,0,0,0,226.423,162.37Z" transform="translate(-202.912 -155.049)" fill="#eacdcd"/>
          <ellipse id="Ellipse_891" data-name="Ellipse 891" cx="0.824" cy="0.824" rx="0.824" ry="0.824" transform="translate(18.438 17.472)" fill="#0a0b0b"/>
          <path id="Path_18349" data-name="Path 18349" d="M227.878,187.973l.27-.375a3.818,3.818,0,0,0-4.769.276l.316.345A3.3,3.3,0,0,1,227.878,187.973Z" transform="translate(-206.503 -171.377)" fill="#0a0b0b"/>
          <ellipse id="Ellipse_892" data-name="Ellipse 892" cx="0.824" cy="0.824" rx="0.824" ry="0.824" transform="translate(27 17.472)" fill="#0a0b0b"/>
          <path id="Path_18350" data-name="Path 18350" d="M231.665,225.345h0a5.752,5.752,0,0,0,5.948-5.549,5.686,5.686,0,0,0-.01-.589l-.932-13.837a4.334,4.334,0,0,0-4.177-4.057h0a4.341,4.341,0,0,0-4.454,3.762l-1.875,13.738a5.752,5.752,0,0,0,5.5,6.531Z" transform="translate(-208.322 -180.979)" fill="#eacdcd"/>
          <path id="Path_18351" data-name="Path 18351" d="M253.5,187.973l.27-.375a3.818,3.818,0,0,0-4.769.276l.316.345A3.3,3.3,0,0,1,253.5,187.973Z" transform="translate(-223.565 -171.377)" fill="#0a0b0b"/>
          <path id="Path_18352" data-name="Path 18352" d="M241.795,199.062s.112,3.782-.292,4.489,1.4.257,1.4.257" transform="translate(-218.532 -179.481)" fill="none" stroke="#9f9f9f" stroke-miterlimit="10" stroke-width="0.3"/>
          <path id="Path_18353" data-name="Path 18353" d="M241.257,221.154a4.935,4.935,0,0,1-4.171-.083" transform="translate(-215.63 -194.137)" fill="none" stroke="#9f9f9f" stroke-miterlimit="10" stroke-width="0.3"/>
          <path id="Path_18354" data-name="Path 18354" d="M216.577,160.53s1.536,3.662,10.87-5.907c0,0,5.2-4.135,7.089,9.215l.472-7.443-3.741-7.185-7.72,1.75-6.971,4.726Z" transform="translate(-201.974 -146.286)" fill="#0a0b0b"/>
          <g id="Group_2034" data-name="Group 2034" transform="translate(31.882 17.05)">
            <path id="Path_18355" data-name="Path 18355" d="M268.288,196.256c1.25.022,2.285-1.606,2.305-2.924s-1-1.831-2.22-1.843Z" transform="translate(-268.288 -191.489)" fill="#eacdcd"/>
            <path id="Path_18356" data-name="Path 18356" d="M270.6,196.153a2.013,2.013,0,0,0-.81,1.706,1.181,1.181,0,0,1,.787-.188" transform="translate(-269.289 -194.595)" fill="none" stroke="#9f9f9f" stroke-miterlimit="10" stroke-width="0.3"/>
          </g>
          <g id="Group_2035" data-name="Group 2035" transform="translate(13.017 17.05)">
            <path id="Path_18357" data-name="Path 18357" d="M214.135,196.256c-1.25.022-2.285-1.606-2.305-2.924s1-1.831,2.22-1.843Z" transform="translate(-211.829 -191.489)" fill="#eacdcd"/>
            <path id="Path_18358" data-name="Path 18358" d="M214.8,196.153a2.012,2.012,0,0,1,.81,1.706,1.181,1.181,0,0,0-.787-.188" transform="translate(-213.805 -194.595)" fill="none" stroke="#9f9f9f" stroke-miterlimit="10" stroke-width="0.3"/>
          </g>
          <path id="Path_18359" data-name="Path 18359" d="M238.866,229.095s-4.331,4.808-9.992-.086l.305.2a16.48,16.48,0,0,0,10,6.526h.139" transform="translate(-210.162 -199.422)" fill="#ddbcbc"/>
          <path id="Path_18360" data-name="Path 18360" d="M206.356,251.821s-12.264,1.815-9.621,4.458c0,0-2.649,10.215,9.621,9.766l19.618-.812,1.652-3.172s2.236-.934-.006-3.12c-.271-.264,1.182-1.42.861-1.7a19.762,19.762,0,0,0-10.677-5.063" transform="translate(-188.513 -214.612)" fill="#eacdcd"/>
          <path id="Path_18361" data-name="Path 18361" d="M225.9,257.154l-3.52,2.388a14.88,14.88,0,0,1-17.315-.6L201.7,256.41l-2.229,27.525,28.543.186Z" transform="translate(-190.586 -217.668)" fill="#dbdbdb"/>
          <path id="Path_18362" data-name="Path 18362" d="M204.265,281.784s-1.415,10.38-1.415,12.751" transform="translate(-192.833 -234.564)" fill="none" stroke="#040505" stroke-miterlimit="10" stroke-width="0.3"/>
          <path id="Path_18363" data-name="Path 18363" d="M283.189,252.136a5.293,5.293,0,0,1,3.031,3.579" transform="translate(-246.328 -214.822)" fill="none" stroke="#fff" stroke-miterlimit="10" stroke-width="0.5"/>
          <path id="Path_18364" data-name="Path 18364" d="M220.551,174.04s0,2.9,5.172-2.152" transform="translate(-204.62 -161.387)" fill="none" stroke="#fff" stroke-miterlimit="10" stroke-width="0.5"/>
          <path id="Path_18365" data-name="Path 18365" d="M205.049,238.382s1.464-1.078,2.265-4.228" transform="translate(-194.297 -202.848)" fill="none" stroke="#fff" stroke-miterlimit="10" stroke-width="0.5"/>
          <path id="Path_18366" data-name="Path 18366" d="M200.217,317.743" transform="translate(-191.08 -258.508)" fill="#eb4b4d"/>
          <g id="Group_2036" data-name="Group 2036" transform="translate(0 38.742)">
            <path id="Path_18367" data-name="Path 18367" d="M176.888,314.9v8.131l8.162.315.161-8.723Z" transform="translate(-175.546 -295.174)" fill="#eacdcd"/>
            <path id="Path_18368" data-name="Path 18368" d="M184.989,256.41s-7.421.361-10.617,20.084l9.137-.277Z" transform="translate(-173.871 -256.41)" fill="#dbdbdb"/>
            <path id="Path_18369" data-name="Path 18369" d="M178.2,311.142a14.861,14.861,0,0,0,7.484-.241" transform="translate(-176.42 -292.694)" fill="none" stroke="#fff" stroke-miterlimit="10" stroke-width="1"/>
            <path id="Path_18370" data-name="Path 18370" d="M172.872,318.573" transform="translate(-172.872 -297.803)" fill="#eb4b4d"/>
            <path id="Path_18371" data-name="Path 18371" d="M174.372,315.953s6.944,1.387,9.137-.263" transform="translate(-173.871 -295.883)" fill="#dbdbdb"/>
          </g>
          <g id="Group_2037" data-name="Group 2037" transform="translate(35.316 39.486)">
            <path id="Path_18372" data-name="Path 18372" d="M291.746,318.508l-.667,6.261-8.162.315-.161-6.876Z" transform="translate(-281.356 -298.304)" fill="#dbdbdb"/>
            <path id="Path_18373" data-name="Path 18373" d="M278.565,258.636s10.39,3.309,11.124,20.545l-9.708.192Z" transform="translate(-278.565 -258.636)" fill="#dbdbdb"/>
            <path id="Path_18374" data-name="Path 18374" d="M294.746,314.725a14.862,14.862,0,0,1-7.484-.24" transform="translate(-284.356 -295.824)" fill="#dbdbdb" stroke="#fff" stroke-miterlimit="10" stroke-width="1"/>
            <path id="Path_18375" data-name="Path 18375" d="M314.988,322.157" transform="translate(-302.818 -300.933)" fill="#dbdbdb"/>
            <path id="Path_18376" data-name="Path 18376" d="M292.851,320.125s-7.344,1.769-9.537.12" transform="translate(-281.727 -299.58)" fill="#dbdbdb"/>
          </g>
          <path id="Path_18377" data-name="Path 18377" d="M280.065,281.784s.9,9.8.9,12.171" transform="translate(-244.248 -234.564)" fill="none" stroke="#040505" stroke-miterlimit="10" stroke-width="0.3"/>
          <path id="Path_18378" data-name="Path 18378" d="M228.65,258.757c-13.1,13.934-25.8-.931-25.8-.931" transform="translate(-192.833 -218.611)" fill="none" stroke="#fff" stroke-miterlimit="10" stroke-width="1"/>
        </g>
        <g id="Group_2042" data-name="Group 2042" transform="translate(31.029 22.823)">
          <path id="Path_18379" data-name="Path 18379" d="M273.993,294.241h11.056V272.12c-2.586-.033-6.657.11-6.657.11s-1.963.56-4.971,1.786c-1.058.431.3,7.427.553,14.24C274.2,294.535,274.153,291.648,273.993,294.241Z" transform="translate(-268.545 -249.183)" fill="#da3c4a"/>
          <path id="Path_18380" data-name="Path 18380" d="M326.357,298.028h5.666c-.13-1.088-.395,1.644-.8-5.135-.786-13.072-4.088-15.091-4.088-15.091s-3.328,17.56-1.554,19.593A3.114,3.114,0,0,0,326.357,298.028Z" transform="translate(-303.192 -252.971)" fill="#da3c4a"/>
          <path id="Path_18381" data-name="Path 18381" d="M265.272,298.028a3.116,3.116,0,0,0,.779-.632c1.774-2.033-1.554-19.593-1.554-19.593s-3.326,2.018-4.088,15.091c-.4,6.894-.656,4.086-.787,5.135Z" transform="translate(-259.621 -252.971)" fill="#da3c4a"/>
          <path id="Path_18382" data-name="Path 18382" d="M307.522,294.241c-.16-2.593-.21.294.019-5.985.249-6.813,1.611-13.809.553-14.24-3.008-1.225-4.971-1.786-4.971-1.786s-4.071-.143-6.657-.11v22.121Z" transform="translate(-284.155 -249.183)" fill="#da3c4a"/>
          <path id="Path_18383" data-name="Path 18383" d="M298.221,263.014a3.719,3.719,0,0,1-1.361-.6c-1.253-.847-.969-3.759-.969-3.759l-2.145-.352v-.03l-.091.015-.091-.015v.03l-2.146.352s.284,2.911-.969,3.759a3.721,3.721,0,0,1-1.361.6,5.491,5.491,0,0,0,4.475,3.151v.008l.091,0,.091,0v-.008A5.491,5.491,0,0,0,298.221,263.014Z" transform="translate(-279.242 -239.967)" fill="#eacdcd"/>
          <path id="Path_18384" data-name="Path 18384" d="M300.371,259.984a8.8,8.8,0,0,1,.005-1.328l-2.146-.352v-.03l-.091.015-.091-.015v.03l-2.145.352a8.531,8.531,0,0,1-.079,2.024A9.438,9.438,0,0,0,300.371,259.984Z" transform="translate(-283.728 -239.967)" fill="#ddbcbc"/>
          <g id="Group_2039" data-name="Group 2039" transform="translate(6.926 10.154)">
            <path id="Path_18385" data-name="Path 18385" d="M282.694,234.288a2.236,2.236,0,0,0-1.533-.384c-.754.166-.98,1.279-.691,2.2s1.52,1.779,2.3.96S282.694,234.288,282.694,234.288Z" transform="translate(-280.349 -233.873)" fill="#eacdcd"/>
            <path id="Path_18386" data-name="Path 18386" d="M317.337,234.288a2.236,2.236,0,0,1,1.533-.384c.754.166.98,1.279.691,2.2s-1.52,1.779-2.3.96S317.337,234.288,317.337,234.288Z" transform="translate(-304.709 -233.873)" fill="#eacdcd"/>
          </g>
          <path id="Path_18387" data-name="Path 18387" d="M296.69,215.213a5.864,5.864,0,0,0-10.647,0c-.239.881-1.123,8.827.963,11.238a5.149,5.149,0,0,0,8.72,0C297.813,224.04,296.929,216.094,296.69,215.213Z" transform="translate(-276.955 -209.02)" fill="#eacdcd"/>
          <g id="Group_2040" data-name="Group 2040" transform="translate(10.882 9.654)">
            <path id="Path_18388" data-name="Path 18388" d="M292.275,232.778a1.472,1.472,0,0,1,1.144-.4c.752.051,1.047.528.872.633-.11.067-.475-.371-.947-.329a1.659,1.659,0,0,0-.888.4C292.346,233.207,292.037,232.99,292.275,232.778Z" transform="translate(-292.187 -232.375)" fill="#0a0b0b"/>
            <ellipse id="Ellipse_893" data-name="Ellipse 893" cx="0.535" cy="0.628" rx="0.535" ry="0.628" transform="translate(0.541 1.308)" fill="#0a0b0b"/>
            <path id="Path_18389" data-name="Path 18389" d="M308.942,232.778a1.473,1.473,0,0,0-1.144-.4c-.752.051-1.046.528-.873.633.111.067.475-.371.948-.329a1.659,1.659,0,0,1,.888.4C308.871,233.207,309.18,232.99,308.942,232.778Z" transform="translate(-301.969 -232.375)" fill="#0a0b0b"/>
            <ellipse id="Ellipse_894" data-name="Ellipse 894" cx="0.535" cy="0.628" rx="0.535" ry="0.628" transform="translate(5.45 1.308)" fill="#0a0b0b"/>
          </g>
          <path id="Path_18390" data-name="Path 18390" d="M284.564,224.82a1.1,1.1,0,0,0,.484-.744c.134-.569.857-4.165.857-4.165a9.8,9.8,0,0,0-1.9.654C284.032,220.7,284,224.649,284.564,224.82Z" transform="translate(-275.858 -214.422)" fill="#0a0b0b"/>
          <path id="Path_18391" data-name="Path 18391" d="M316.936,224.82a1.1,1.1,0,0,1-.484-.744c-.135-.569-.857-4.165-.857-4.165a9.8,9.8,0,0,1,1.9.654C317.468,220.7,317.5,224.649,316.936,224.82Z" transform="translate(-296.893 -214.422)" fill="#0a0b0b"/>
          <path id="Path_18392" data-name="Path 18392" d="M293.531,209.626a12.952,12.952,0,0,1-4.53,1.1c-2.024-.033-.546-1.406-.546-1.406s-3.951,3.223-4.85,2.11,1.06-2.455,1.06-2.455-3.773,3.489-4.81,1.344,1.865-5.5,3.715-5.731-3.788-.591,1.545-1.058c5.043-.441,7.121,2.566,7.292,2.734.2.193.393-1.033,1.047-1.033s-.4,1.439-.4,1.439,1.181-.04,1.31.634-1.31,0-1.31,0S293.822,209.084,293.531,209.626Z" transform="translate(-272.949 -203.483)" fill="#0a0b0b"/>
          <g id="Group_2041" data-name="Group 2041" transform="translate(6.467 31.85)">
            <path id="Path_18393" data-name="Path 18393" d="M278.974,304.59q.387.77.808,1.524" transform="translate(-278.974 -302.657)" fill="none" stroke="#040505" stroke-miterlimit="10" stroke-width="0.3"/>
            <path id="Path_18394" data-name="Path 18394" d="M281.405,301.265a14.931,14.931,0,0,1-.164,3.953c-.145.649-.375,1.277-.548,1.919a15.239,15.239,0,0,0-.416,5.734" transform="translate(-279.787 -300.443)" fill="none" stroke="#040505" stroke-miterlimit="10" stroke-width="0.3"/>
            <path id="Path_18395" data-name="Path 18395" d="M325.057,298.806c.381,3.837,1.431,8.736,1.362,12.591" transform="translate(-309.659 -298.806)" fill="none" stroke="#040505" stroke-miterlimit="10" stroke-width="0.3"/>
          </g>
          <path id="Path_18396" data-name="Path 18396" d="M321.047,237.206a1.168,1.168,0,0,0-.47.991.684.684,0,0,1,.456-.11" transform="translate(-300.208 -225.938)" fill="none" stroke="#9f9f9f" stroke-miterlimit="10" stroke-width="0.3"/>
          <path id="Path_18397" data-name="Path 18397" d="M283.3,237.659a1.168,1.168,0,0,1,.47.991.683.683,0,0,0-.457-.109" transform="translate(-275.388 -226.24)" fill="none" stroke="#9f9f9f" stroke-miterlimit="10" stroke-width="0.3"/>
          <path id="Path_18398" data-name="Path 18398" d="M301.969,244.038a8.153,8.153,0,0,1-.127,1.957c-.176.308.611.112.611.112" transform="translate(-287.717 -230.487)" fill="none" stroke="#9f9f9f" stroke-miterlimit="10" stroke-width="0.3"/>
          <path id="Path_18399" data-name="Path 18399" d="M301.734,253.666a2.151,2.151,0,0,1-1.818-.036" transform="translate(-286.452 -236.874)" fill="none" stroke="#9f9f9f" stroke-miterlimit="10" stroke-width="0.3"/>
        </g>
        <rect id="Rectangle_11824" data-name="Rectangle 11824" width="95.269" height="1.524" rx="0.762" transform="translate(-5.31 68.027)" fill="#da3c4a"/>
      </g>
      <path id="Path_21497" data-name="Path 21497" d="M0,39.371H0c3.763-3.12,9.911-3.019,16.665-1.074,6.359,1.832,11.338,5.018,13.17,9.264L43.532,0C39.227,1.4,7.862,12.245,0,39.371" transform="matrix(0.974, -0.225, 0.225, 0.974, 158.851, 2504.975)" fill="#eb4c4c"/>
      <path id="Path_21498" data-name="Path 21498" d="M13.867,0,0,48.148c3.683-3.1,9.863-3.366,16.358-1.5,6.709,1.932,11.8,5.679,13.095,10.4-.007-.044-.01-.077-.01-.077C37.187,29.849,16.716,3.491,13.867,0" transform="matrix(0.974, -0.225, 0.225, 0.974, 188.298, 2498.34)" fill="#eb4c4c"/>
      <path id="Path_21499" data-name="Path 21499" d="M40.448,24.16A71.392,71.392,0,0,1,56.171,11.375,91.661,91.661,0,0,1,69.792,4.523,34.014,34.014,0,0,1,73.757,2.9c.1-.027.188-.043.277-.06C41.12-6.327,8.372,7.4.012,33.748a.24.24,0,0,0,.371.266c3.771-2.817,9.761-2.663,16.362-.927,10.723,2.82,13.53,9.394,13.53,9.394A42.5,42.5,0,0,1,40.448,24.16" transform="matrix(0.974, -0.225, 0.225, 0.974, 128.102, 2508.548)" fill="#eb4c4c"/>
      <path id="Path_21500" data-name="Path 21500" d="M0,0C.087.1.179.207.282.346c.806,1.067,1.635,2.114,2.412,3.2a90.515,90.515,0,0,1,7.7,13,71.564,71.564,0,0,1,6.347,19.28,53.027,53.027,0,0,1,.722,10.946c-.032.818-.98,8.405-1.59,10.721a.487.487,0,0,1-.054.124c3.661-3.268,10.087-3.506,16.9-1.542,5.933,1.708,10.689,4.627,12.717,8.479a.691.691,0,0,0,1.289-.151C52.778,37.924,32.374,9.538,0,0" transform="matrix(0.974, -0.225, 0.225, 0.974, 202.052, 2494.724)" fill="#eb4c4c"/>
    </g>
    <path id="Path_20458" data-name="Path 20458" d="M119.135,1129.511c0-55.169,45.849-99.893,102.406-99.893s102.406,44.724,102.406,99.893" transform="translate(-4453.807 -22290.678)" fill="none" stroke="#000" stroke-miterlimit="10" stroke-width="0.906" stroke-dasharray="3.623 3.623"/>
  </g>
</svg>
