<svg xmlns="http://www.w3.org/2000/svg" width="69" height="69" viewBox="0 0 69 69"><defs><style>.a{fill:#fff;}.b,.c{fill:none;stroke:#e21f26;stroke-linecap:round;stroke-width:3px;}.b{stroke-miterlimit:10;}.c{stroke-linejoin:round;}.d{fill:#e21f26;}</style></defs><g transform="translate(-513 -2461.25)"><circle class="a" cx="34.5" cy="34.5" r="34.5" transform="translate(513 2461.25)"/><g transform="translate(329.863 2039.369)"><path class="b" d="M227.379,436.715a22.461,22.461,0,1,0,11.9,29.452" transform="translate(0 0.066)"/><path class="c" d="M223.971,432.881l3.323,4.3-5.006,1.336" transform="translate(0.841 0)"/><g transform="translate(208.056 450.193)"><path class="d" d="M213.534,449.654a4.222,4.222,0,0,1,1.407.222,3.161,3.161,0,0,1,1.079.622,2.705,2.705,0,0,1,.692.972,3.188,3.188,0,0,1,.243,1.261,4.045,4.045,0,0,1-.234,1.407,5.2,5.2,0,0,1-.639,1.211,8.28,8.28,0,0,1-.952,1.109q-.545.537-1.167,1.1l-3.181,2.9a8.039,8.039,0,0,1,.806-.174,4.736,4.736,0,0,1,.746-.064h3.282a.654.654,0,0,1,.469.162.558.558,0,0,1,.171.426c0,.011,0,.027,0,.047s-.009.07-.018.153-.024.211-.046.383-.055.414-.094.721h-8.408l.077-.674a1.427,1.427,0,0,1,.136-.426,1.3,1.3,0,0,1,.324-.417l4.229-3.778q.615-.545,1.062-1.023a6.86,6.86,0,0,0,.746-.938,3.78,3.78,0,0,0,.443-.925,3.345,3.345,0,0,0,.146-.994,1.5,1.5,0,0,0-.444-1.163,1.716,1.716,0,0,0-1.2-.406,2.4,2.4,0,0,0-.72.106,2.144,2.144,0,0,0-.609.3,2.256,2.256,0,0,0-.482.469,2.745,2.745,0,0,0-.346.6.979.979,0,0,1-.327.452.839.839,0,0,1-.483.135,1.734,1.734,0,0,1-.272-.025l-1.039-.188a5.284,5.284,0,0,1,.681-1.547,4.347,4.347,0,0,1,2.387-1.791A5.211,5.211,0,0,1,213.534,449.654Z" transform="translate(-207.685 -449.654)"/><path class="d" d="M225.137,457.5h1.543l-.161,1.16a.462.462,0,0,1-.141.285.444.444,0,0,1-.328.124H224.94l-.366,3.036h-1.841l.366-3.036h-5.116a.721.721,0,0,1-.4-.128.451.451,0,0,1-.218-.316l-.076-1.031,6.813-7.827h1.977Zm-1.329-4.186a10.338,10.338,0,0,1,.222-1.109l-4.52,5.295H223.3Z" transform="translate(-207.376 -449.65)"/></g></g></g></svg>