<svg xmlns="http://www.w3.org/2000/svg" width="240.752" height="176.564" viewBox="0 0 240.752 176.564">
  <g id="health-insurance-for-coronavirus" transform="translate(3174 21017.156)">
    <g id="health-insurance-for-coronavirus-2" data-name="health-insurance-for-coronavirus" transform="translate(1180 280.92)">
      <path id="Path_20457" data-name="Path 20457" d="M351.607,1233.53c-21.72,4.769-43.921.3-65.678-1.864-14.324-1.425-28.135.513-42.494,1.567-36.5,2.677-77-2.034-88.673-35.766-9.73-28.109,6-69.821,39.889-86.326,11.723-5.71,23.658-6.837,35.3-5.665,6.993.7,14.79,3.387,22.323.56,7.946-2.978,13.825-11.252,19.2-17.21,8-8.874,16.435-18.174,27.159-24.169,24.6-13.758,39.223-.344,46.612,21.7,3.593,10.722,5.5,21.893,8.394,32.8,4.1,15.464,13.006,26.7,23.032,39.141,8.926,11.083,17.28,24.047,15.841,38.107-1.631,15.959-16.01,29.045-32.038,34.627a77.328,77.328,0,0,1-8.865,2.5" transform="translate(-4505.92 -22357.16)" fill="#f7f7f7"/>
      <path id="Path_20458" data-name="Path 20458" d="M119.135,1129.511c0-55.169,42.869-99.893,95.75-99.893s95.751,44.724,95.751,99.893" transform="translate(-4448.496 -22289.678)" fill="none" stroke="#000" stroke-miterlimit="10" stroke-width="0.906" stroke-dasharray="3.623 3.623"/>
      <g id="energy-illustration" transform="translate(-4426.602 -23875.742)">
        <rect id="Rectangle_11732" data-name="Rectangle 11732" width="137" height="141" transform="translate(126.602 2601.822)" fill="none"/>
      </g>
    </g>
    <g id="Group_6405" data-name="Group 6405" transform="translate(-3124.914 -20975.045)">
      <g id="Group_2032" data-name="Group 2032" transform="translate(63.267 0)">
        <path id="Path_18334" data-name="Path 18334" d="M335.731,223.961h0a9.343,9.343,0,0,0,9.646-9.971l-1.514-22.476a7.039,7.039,0,0,0-6.785-6.59h0a7.052,7.052,0,0,0-7.235,6.111L326.8,213.352a9.341,9.341,0,0,0,8.934,10.609Z" transform="translate(-299.186 -156.685)" fill="#eacdcd"/>
        <path id="Path_18335" data-name="Path 18335" d="M345.206,219.029s-7.6,8.439-17.539-.15l.536.351c4.4,5.9,10.154,8.276,17.366,9.755h.243" transform="translate(-299.601 -171.368)" fill="#ddbcbc"/>
        <path id="Path_18336" data-name="Path 18336" d="M331.226,152.091h0a14.634,14.634,0,0,0-14.807,14.733l.127,9.547A20.813,20.813,0,0,0,318.7,185.5c2.638,5.218,6.861,8.148,13.094,8.148h0c4.557,0,8.168-1.371,10.721-4.712a20.534,20.534,0,0,0,4.034-12.785l-.124-9.329A15.111,15.111,0,0,0,331.226,152.091Z" transform="translate(-294.736 -142.49)" fill="#eacdcd"/>
        <path id="Path_18337" data-name="Path 18337" d="M324.282,235.481l.008.118a9.458,9.458,0,0,1,.016.958,9.338,9.338,0,1,1-18.641-1.076c-4.775,1.3-28.7,8.511-27.393,22.64.19,2.054.371,4.108.371,6.171v29.778H353.65V254.961S355.523,242.071,324.282,235.481Z" transform="translate(-278.22 -178.128)" fill="#e6e6e6"/>
        <ellipse id="Ellipse_888" data-name="Ellipse 888" cx="1.446" cy="1.446" rx="1.446" ry="1.446" transform="translate(27.586 27.418)" fill="#0a0b0b"/>
        <path id="Path_18338" data-name="Path 18338" d="M329.886,179.325l.473-.658a6.7,6.7,0,0,0-8.37.485l.555.606A5.785,5.785,0,0,1,329.886,179.325Z" transform="translate(-297.145 -153.445)" fill="#0a0b0b"/>
        <ellipse id="Ellipse_889" data-name="Ellipse 889" cx="1.446" cy="1.446" rx="1.446" ry="1.446" transform="translate(42.614 27.418)" fill="#0a0b0b"/>
        <path id="Path_18339" data-name="Path 18339" d="M356.362,179.325l.474-.658a6.7,6.7,0,0,0-8.371.485l.555.606A5.785,5.785,0,0,1,356.362,179.325Z" transform="translate(-308.593 -153.445)" fill="#0a0b0b"/>
        <path id="Path_18340" data-name="Path 18340" d="M341.271,190s.2,6.638-.512,7.88,2.462.452,2.462.452" transform="translate(-305.217 -158.883)" fill="none" stroke="#9f9f9f" stroke-miterlimit="10" stroke-width="0.3"/>
        <path id="Path_18341" data-name="Path 18341" d="M343.472,212.889a8.663,8.663,0,0,1-7.32-.145" transform="translate(-303.269 -168.716)" fill="none" stroke="#9f9f9f" stroke-miterlimit="10" stroke-width="0.3"/>
        <g id="Group_2030" data-name="Group 2030" transform="translate(51.182 27.851)">
          <path id="Path_18342" data-name="Path 18342" d="M368.392,192.611c2.194.04,4.01-2.819,4.046-5.132s-1.756-3.214-3.9-3.235Z" transform="translate(-368.392 -184.244)" fill="#eacdcd"/>
          <path id="Path_18343" data-name="Path 18343" d="M371.369,189.063a3.531,3.531,0,0,0-1.421,3,2.071,2.071,0,0,1,1.38-.331" transform="translate(-369.063 -186.328)" fill="none" stroke="#9f9f9f" stroke-miterlimit="10" stroke-width="0.3"/>
        </g>
        <g id="Group_2031" data-name="Group 2031" transform="translate(18.071 27.851)">
          <path id="Path_18344" data-name="Path 18344" d="M314.1,192.611c-2.194.04-4.01-2.819-4.046-5.132s1.756-3.214,3.9-3.235Z" transform="translate(-310.056 -184.244)" fill="#eacdcd"/>
          <path id="Path_18345" data-name="Path 18345" d="M313.122,189.063a3.531,3.531,0,0,1,1.421,3,2.071,2.071,0,0,0-1.38-.331" transform="translate(-311.382 -186.328)" fill="none" stroke="#9f9f9f" stroke-miterlimit="10" stroke-width="0.3"/>
        </g>
        <path id="Path_18346" data-name="Path 18346" d="M312.544,163.027a11.217,11.217,0,0,0,2.518-7.17s5.708-2.629,6.008-7.361c0,0,9.614,6.685,15.547,2.779,0,0,2.929.225,2.629,2.4,0,0,1.727,11.191,2.929,9.313,0,0,1.8-2.028,1.5-9.764,0,0,3.53-1.5,1.2-5.032,0,0,.225-8.938-9.989-9.688,0,0-1.467-1.069-3.062-2.1a7.379,7.379,0,0,0-8.781.456q-.2.175-.4.37s-6.985-1.2-10.139,4.732c0,0-7.06-.088-5.483,6.941,0,0-.3,5.3,2.778,6.954Z" transform="translate(-290.576 -135.176)" fill="#0a0b0b"/>
        <line id="Line_33" data-name="Line 33" y2="38.766" transform="translate(14.094 76.287)" fill="none" stroke="#040505" stroke-miterlimit="10" stroke-width="0.3"/>
        <line id="Line_34" data-name="Line 34" y2="38.766" transform="translate(62.75 76.287)" fill="none" stroke="#040505" stroke-miterlimit="10" stroke-width="0.3"/>
      </g>
      <g id="Group_2038" data-name="Group 2038" transform="translate(3.471 2.999)">
        <g id="Group_2033" data-name="Group 2033" transform="translate(10.078)">
          <ellipse id="Ellipse_890" data-name="Ellipse 890" cx="24.534" cy="24.534" rx="24.534" ry="24.534" transform="translate(5.659)" fill="#0a0b0b"/>
          <path id="Path_18347" data-name="Path 18347" d="M197.093,193.007s9.173,15.45,2.066,27.346a9.224,9.224,0,0,1-2.062,2.333c-2.534,2.1-8.6,8.132-5.7,15.656,0,0,37.845,28.06,58.84-1.749,0,0,3.5-6.539-7-14.934,0,0-3.558-2.133-3.273-11.05a32.722,32.722,0,0,1,1.407-8.342c.766-2.555,1.954-6.291,3.174-9.26C246.61,187.991,197.093,193.007,197.093,193.007Z" transform="translate(-190.628 -162.217)" fill="#0a0b0b"/>
        </g>
        <path id="Path_18348" data-name="Path 18348" d="M232.318,162.37h0a14.163,14.163,0,0,0-14.33,14.259l.123,9.24a20.147,20.147,0,0,0,2.085,8.837c2.553,5.049,6.64,9.02,12.672,9.02h0c4.411,0,7.9-2.462,10.376-5.7a19.869,19.869,0,0,0,3.9-12.374l-.12-9.029A14.625,14.625,0,0,0,232.318,162.37Z" transform="translate(-192.379 -149.934)" fill="#eacdcd"/>
        <ellipse id="Ellipse_891" data-name="Ellipse 891" cx="1.4" cy="1.4" rx="1.4" ry="1.4" transform="translate(31.321 29.681)" fill="#0a0b0b"/>
        <path id="Path_18349" data-name="Path 18349" d="M231.022,188.728l.458-.637a6.486,6.486,0,0,0-8.1.469l.537.586A5.6,5.6,0,0,1,231.022,188.728Z" transform="translate(-194.711 -160.537)" fill="#0a0b0b"/>
        <ellipse id="Ellipse_892" data-name="Ellipse 892" cx="1.4" cy="1.4" rx="1.4" ry="1.4" transform="translate(45.866 29.681)" fill="#0a0b0b"/>
        <path id="Path_18350" data-name="Path 18350" d="M235.546,242.14h0a9.77,9.77,0,0,0,10.1-9.426,9.664,9.664,0,0,0-.016-1l-1.583-23.505a7.362,7.362,0,0,0-7.1-6.892h0a7.375,7.375,0,0,0-7.566,6.391L226.2,231.045a9.771,9.771,0,0,0,9.343,11.1Z" transform="translate(-195.892 -166.771)" fill="#eacdcd"/>
        <path id="Path_18351" data-name="Path 18351" d="M256.646,188.728l.458-.637a6.486,6.486,0,0,0-8.1.469l.537.586A5.6,5.6,0,0,1,256.646,188.728Z" transform="translate(-205.79 -160.537)" fill="#0a0b0b"/>
        <path id="Path_18352" data-name="Path 18352" d="M242.04,199.062s.19,6.425-.5,7.626,2.383.437,2.383.437" transform="translate(-202.522 -165.799)" fill="none" stroke="#9f9f9f" stroke-miterlimit="10" stroke-width="0.3"/>
        <path id="Path_18353" data-name="Path 18353" d="M244.171,221.212a8.383,8.383,0,0,1-7.085-.141" transform="translate(-200.638 -175.315)" fill="none" stroke="#9f9f9f" stroke-miterlimit="10" stroke-width="0.3"/>
        <path id="Path_18354" data-name="Path 18354" d="M216.577,168.44s2.609,6.222,18.465-10.035c0,0,8.831-7.025,12.042,15.655l.8-12.644-6.354-12.205-13.114,2.973-11.841,8.028Z" transform="translate(-191.77 -144.243)" fill="#0a0b0b"/>
        <g id="Group_2034" data-name="Group 2034" transform="translate(54.159 28.965)">
          <path id="Path_18355" data-name="Path 18355" d="M268.288,199.587c2.123.038,3.881-2.729,3.916-4.967s-1.7-3.11-3.772-3.131Z" transform="translate(-268.288 -191.489)" fill="#eacdcd"/>
          <path id="Path_18356" data-name="Path 18356" d="M271.17,196.153a3.419,3.419,0,0,0-1.375,2.9,2.007,2.007,0,0,1,1.336-.32" transform="translate(-268.938 -193.506)" fill="none" stroke="#9f9f9f" stroke-miterlimit="10" stroke-width="0.3"/>
        </g>
        <g id="Group_2035" data-name="Group 2035" transform="translate(22.112 28.965)">
          <path id="Path_18357" data-name="Path 18357" d="M215.746,199.587c-2.123.038-3.881-2.729-3.916-4.967s1.7-3.11,3.772-3.131Z" transform="translate(-211.829 -191.489)" fill="#eacdcd"/>
          <path id="Path_18358" data-name="Path 18358" d="M214.8,196.153a3.419,3.419,0,0,1,1.375,2.9,2.007,2.007,0,0,0-1.336-.32" transform="translate(-213.112 -193.506)" fill="none" stroke="#9f9f9f" stroke-miterlimit="10" stroke-width="0.3"/>
        </g>
        <path id="Path_18359" data-name="Path 18359" d="M245.848,229.154s-7.357,8.167-16.974-.145l.519.339a27.994,27.994,0,0,0,16.979,11.085h.236" transform="translate(-197.087 -178.748)" fill="#ddbcbc"/>
        <path id="Path_18360" data-name="Path 18360" d="M213.339,251.821S192.505,254.9,197,259.394c0,0-4.5,17.353,16.344,16.589l33.325-1.38,2.806-5.388s3.8-1.587-.01-5.3c-.46-.448,2.007-2.412,1.463-2.887a33.57,33.57,0,0,0-18.138-8.6" transform="translate(-183.029 -188.612)" fill="#eacdcd"/>
        <path id="Path_18361" data-name="Path 18361" d="M244.367,257.673l-5.98,4.057c-8.729,6.167-20.881,5.422-29.414-1.013l-5.712-4.308-3.786,46.758,48.487.316Z" transform="translate(-184.375 -190.596)" fill="#dbdbdb"/>
        <path id="Path_18362" data-name="Path 18362" d="M205.254,281.784s-2.4,17.634-2.4,21.661" transform="translate(-185.834 -201.567)" fill="none" stroke="#040505" stroke-miterlimit="10" stroke-width="0.3"/>
        <path id="Path_18363" data-name="Path 18363" d="M283.189,252.136s4.342,1.76,5.149,6.08" transform="translate(-220.572 -188.748)" fill="none" stroke="#fff" stroke-miterlimit="10" stroke-width="0.5"/>
        <path id="Path_18364" data-name="Path 18364" d="M220.551,175.544s0,4.934,8.786-3.656" transform="translate(-193.488 -154.049)" fill="none" stroke="#fff" stroke-miterlimit="10" stroke-width="0.5"/>
        <path id="Path_18365" data-name="Path 18365" d="M205.049,241.336s2.486-1.831,3.848-7.182" transform="translate(-186.785 -180.972)" fill="none" stroke="#fff" stroke-miterlimit="10" stroke-width="0.5"/>
        <path id="Path_18366" data-name="Path 18366" d="M200.217,317.743" transform="translate(-184.696 -217.116)" fill="#eb4b4d"/>
        <g id="Group_2036" data-name="Group 2036" transform="translate(0 65.814)">
          <path id="Path_18367" data-name="Path 18367" d="M176.888,315.1v13.812l13.864.536.274-14.819Z" transform="translate(-174.609 -281.582)" fill="#f8f8f8"/>
          <path id="Path_18368" data-name="Path 18368" d="M192.407,256.41s-12.607.614-18.035,34.119l15.521-.471Z" transform="translate(-173.521 -256.41)" fill="#dbdbdb"/>
          <path id="Path_18369" data-name="Path 18369" d="M178.2,311.31s6.937,1.7,12.713-.409" transform="translate(-175.176 -279.972)" fill="none" stroke="#fff" stroke-miterlimit="10" stroke-width="1"/>
          <path id="Path_18370" data-name="Path 18370" d="M172.872,318.573" transform="translate(-172.872 -283.289)" fill="#eb4b4d"/>
          <path id="Path_18371" data-name="Path 18371" d="M174.372,316.137s11.8,2.356,15.521-.447" transform="translate(-173.521 -282.042)" fill="#dbdbdb"/>
        </g>
        <g id="Group_2037" data-name="Group 2037" transform="translate(59.992 67.078)">
          <path id="Path_18372" data-name="Path 18372" d="M298.027,318.718l-1.133,10.636-13.864.536-.274-11.681Z" transform="translate(-280.377 -284.395)" fill="#dbdbdb"/>
          <path id="Path_18373" data-name="Path 18373" d="M278.565,258.636s17.65,5.621,18.9,34.9l-16.491.327Z" transform="translate(-278.565 -258.636)" fill="#dbdbdb"/>
          <path id="Path_18374" data-name="Path 18374" d="M299.975,314.894s-6.937,1.7-12.713-.409" transform="translate(-282.326 -282.785)" fill="#dbdbdb" stroke="#fff" stroke-miterlimit="10" stroke-width="1"/>
          <path id="Path_18375" data-name="Path 18375" d="M314.988,322.157" transform="translate(-294.314 -286.102)" fill="#dbdbdb"/>
          <path id="Path_18376" data-name="Path 18376" d="M299.515,320.125s-12.476,3.005-16.2.2" transform="translate(-280.618 -285.223)" fill="#dbdbdb"/>
        </g>
        <path id="Path_18377" data-name="Path 18377" d="M280.065,281.784s1.527,16.647,1.527,20.675" transform="translate(-219.221 -201.567)" fill="none" stroke="#040505" stroke-miterlimit="10" stroke-width="0.3"/>
        <path id="Path_18378" data-name="Path 18378" d="M246.678,259.408c-22.258,23.671-43.828-1.582-43.828-1.582" transform="translate(-185.834 -191.208)" fill="none" stroke="#fff" stroke-miterlimit="10" stroke-width="1"/>
      </g>
      <rect id="Rectangle_499" data-name="Rectangle 499" width="145.429" height="1.639" rx="0.82" transform="translate(0 115.288)" fill="#da3c4a"/>
      <g id="Group_2042" data-name="Group 2042" transform="translate(52.711 38.772)">
        <path id="Path_18379" data-name="Path 18379" d="M274.67,309.7h18.78V272.124c-4.393-.056-11.309.187-11.309.187s-3.334.952-8.444,3.033c-1.8.732.516,12.617.939,24.191C275.027,310.2,274.943,305.3,274.67,309.7Z" transform="translate(-265.416 -233.159)" fill="#da3c4a"/>
        <path id="Path_18380" data-name="Path 18380" d="M327.265,312.161h9.625c-.221-1.849-.671,2.793-1.363-8.722-1.334-22.206-6.945-25.636-6.945-25.636s-5.654,29.83-2.641,33.284A5.286,5.286,0,0,0,327.265,312.161Z" transform="translate(-287.915 -235.618)" fill="#da3c4a"/>
        <path id="Path_18381" data-name="Path 18381" d="M269.22,312.161a5.3,5.3,0,0,0,1.324-1.075c3.013-3.454-2.641-33.284-2.641-33.284s-5.649,3.428-6.945,25.636c-.683,11.712-1.114,6.941-1.337,8.722Z" transform="translate(-259.621 -235.618)" fill="#da3c4a"/>
        <path id="Path_18382" data-name="Path 18382" d="M315.247,309.7c-.272-4.406-.357.5.033-10.167.423-11.574,2.736-23.459.939-24.191-5.11-2.081-8.444-3.033-8.444-3.033s-6.916-.242-11.309-.187V309.7Z" transform="translate(-275.553 -233.159)" fill="#da3c4a"/>
        <path id="Path_18383" data-name="Path 18383" d="M304.6,266.326a6.313,6.313,0,0,1-2.311-1.018c-2.129-1.439-1.647-6.385-1.647-6.385l-3.645-.6v-.051l-.154.025-.154-.025v.051l-3.645.6s.482,4.946-1.647,6.385a6.317,6.317,0,0,1-2.311,1.018s2.2,5.077,7.6,5.353v.014c.052,0,.1-.005.154-.007s.1.006.154.007v-.014C302.4,271.4,304.6,266.326,304.6,266.326Z" transform="translate(-272.362 -227.175)" fill="#eacdcd"/>
        <path id="Path_18384" data-name="Path 18384" d="M303.548,261.178a14.967,14.967,0,0,1,.009-2.256l-3.645-.6v-.051l-.154.025-.154-.025v.051l-3.645.6a14.489,14.489,0,0,1-.134,3.439A16.031,16.031,0,0,0,303.548,261.178Z" transform="translate(-275.275 -227.175)" fill="#ddbcbc"/>
        <g id="Group_2039" data-name="Group 2039" transform="translate(11.765 17.25)">
          <path id="Path_18385" data-name="Path 18385" d="M284.333,234.579a3.8,3.8,0,0,0-2.6-.652c-1.281.283-1.665,2.173-1.174,3.738s2.583,3.021,3.906,1.63S284.333,234.579,284.333,234.579Z" transform="translate(-280.349 -233.873)" fill="#eacdcd"/>
          <path id="Path_18386" data-name="Path 18386" d="M317.618,234.579a3.8,3.8,0,0,1,2.6-.652c1.281.283,1.665,2.173,1.174,3.738s-2.583,3.021-3.906,1.63S317.618,234.579,317.618,234.579Z" transform="translate(-296.168 -233.873)" fill="#eacdcd"/>
        </g>
        <path id="Path_18387" data-name="Path 18387" d="M304.4,217.6c-.545-2.013-4.7-6.1-9.043-5.784-4.339-.313-8.5,3.771-9.043,5.784-.406,1.5-1.908,15,1.636,19.09s7.407,4.095,7.407,4.095,3.863,0,7.407-4.095S304.808,219.1,304.4,217.6Z" transform="translate(-270.877 -207.078)" fill="#eacdcd"/>
        <g id="Group_2040" data-name="Group 2040" transform="translate(18.485 16.4)">
          <path id="Path_18388" data-name="Path 18388" d="M292.337,233.059a2.5,2.5,0,0,1,1.943-.677c1.278.087,1.778.9,1.482,1.076-.187.114-.807-.631-1.609-.559a2.819,2.819,0,0,0-1.509.68C292.456,233.788,291.932,233.42,292.337,233.059Z" transform="translate(-292.187 -232.375)" fill="#0a0b0b"/>
          <ellipse id="Ellipse_893" data-name="Ellipse 893" cx="0.909" cy="1.068" rx="0.909" ry="1.068" transform="translate(0.92 2.222)" fill="#0a0b0b"/>
          <path id="Path_18389" data-name="Path 18389" d="M310.385,233.059a2.5,2.5,0,0,0-1.943-.677c-1.278.087-1.778.9-1.483,1.076.188.114.807-.631,1.61-.559a2.819,2.819,0,0,1,1.509.68C310.265,233.788,310.79,233.42,310.385,233.059Z" transform="translate(-298.539 -232.375)" fill="#0a0b0b"/>
          <ellipse id="Ellipse_894" data-name="Ellipse 894" cx="0.909" cy="1.068" rx="0.909" ry="1.068" transform="translate(9.258 2.222)" fill="#0a0b0b"/>
        </g>
        <path id="Path_18390" data-name="Path 18390" d="M284.955,228.251a1.868,1.868,0,0,0,.822-1.265c.228-.967,1.455-7.075,1.455-7.075s-3.272.879-3.226,1.111S284,227.96,284.955,228.251Z" transform="translate(-270.165 -210.586)" fill="#0a0b0b"/>
        <path id="Path_18391" data-name="Path 18391" d="M317.873,228.251a1.867,1.867,0,0,1-.821-1.265c-.229-.967-1.455-7.075-1.455-7.075s3.272.879,3.226,1.111S318.832,227.96,317.873,228.251Z" transform="translate(-283.824 -210.586)" fill="#0a0b0b"/>
        <path id="Path_18392" data-name="Path 18392" d="M303.239,213.918s-4.258,1.919-7.7,1.863-.927-2.389-.927-2.389-6.711,5.476-8.239,3.584,1.8-4.17,1.8-4.17-6.41,5.927-8.17,2.283,3.168-9.347,6.31-9.736-6.434-1,2.624-1.8c8.567-.75,12.1,4.359,12.386,4.645.333.328.667-1.756,1.779-1.756s-.676,2.445-.676,2.445,2.007-.068,2.226,1.077-2.226,0-2.226,0S303.733,213,303.239,213.918Z" transform="translate(-268.276 -203.483)" fill="#0a0b0b"/>
        <g id="Group_2041" data-name="Group 2041" transform="translate(10.985 54.106)">
          <path id="Path_18393" data-name="Path 18393" d="M278.974,304.59q.658,1.309,1.372,2.589" transform="translate(-278.974 -301.307)" fill="none" stroke="#040505" stroke-miterlimit="10" stroke-width="0.3"/>
          <path id="Path_18394" data-name="Path 18394" d="M282.251,301.265a25.363,25.363,0,0,1-.279,6.715c-.246,1.1-.637,2.169-.93,3.26-1.022,3.808-.918,5.81-.706,9.74" transform="translate(-279.502 -299.869)" fill="none" stroke="#040505" stroke-miterlimit="10" stroke-width="0.3"/>
          <path id="Path_18395" data-name="Path 18395" d="M325.057,298.806c.647,6.519,2.431,14.841,2.314,21.39" transform="translate(-298.9 -298.806)" fill="none" stroke="#040505" stroke-miterlimit="10" stroke-width="0.3"/>
        </g>
        <path id="Path_18396" data-name="Path 18396" d="M321.376,237.206a1.983,1.983,0,0,0-.8,1.683,1.163,1.163,0,0,1,.775-.186" transform="translate(-285.977 -218.064)" fill="none" stroke="#9f9f9f" stroke-miterlimit="10" stroke-width="0.3"/>
        <path id="Path_18397" data-name="Path 18397" d="M283.3,237.659a1.985,1.985,0,0,1,.8,1.683,1.161,1.161,0,0,0-.776-.186" transform="translate(-269.86 -218.26)" fill="none" stroke="#9f9f9f" stroke-miterlimit="10" stroke-width="0.3"/>
        <path id="Path_18398" data-name="Path 18398" d="M302.075,244.038a13.851,13.851,0,0,1-.216,3.324c-.3.523,1.038.19,1.038.19" transform="translate(-277.866 -221.019)" fill="none" stroke="#9f9f9f" stroke-miterlimit="10" stroke-width="0.3"/>
        <path id="Path_18399" data-name="Path 18399" d="M303,253.691a3.654,3.654,0,0,1-3.088-.061" transform="translate(-277.044 -225.166)" fill="none" stroke="#9f9f9f" stroke-miterlimit="10" stroke-width="0.3"/>
      </g>
    </g>
    <g id="Group_6401" data-name="Group 6401" transform="translate(-37 205)">
      <path id="Path_21830" data-name="Path 21830" d="M4.272,0H14.95c1.18,0,2.136,2.242,2.136,2.242s1.324,3.772,2.136,6.727.215,5.047-8.979,5.632S-.321,11.931,0,8.969A25.556,25.556,0,0,1,2.136,2.242S3.092,0,4.272,0Z" transform="translate(-2997 -21143.697)" fill="#da3c4a"/>
      <path id="Path_21831" data-name="Path 21831" d="M-2986.381-21137.975l3.455-8.447s2.663-5.039,3.182-6.307" transform="translate(7)" fill="none" stroke="#da3c4a" stroke-width="1"/>
      <path id="Path_21832" data-name="Path 21832" d="M-2980.853-21137.975l-3.455-8.447-3.7-6.238" transform="translate(-15)" fill="none" stroke="#da3c4a" stroke-width="1"/>
    </g>
    <g id="Group_6406" data-name="Group 6406" transform="translate(-94 210)">
      <path id="Path_21830-2" data-name="Path 21830" d="M4.272,0H14.95c1.18,0,2.136,2.242,2.136,2.242s1.324,3.772,2.136,6.727.215,5.047-8.979,5.632S-.321,11.931,0,8.969A25.556,25.556,0,0,1,2.136,2.242S3.092,0,4.272,0Z" transform="translate(-2997 -21143.697)" fill="#da3c4a"/>
      <path id="Path_21831-2" data-name="Path 21831" d="M-2986.381-21137.975l3.455-8.447s3-6.164,3.517-7.432" transform="translate(7)" fill="none" stroke="#da3c4a" stroke-width="1"/>
      <path id="Path_21832-2" data-name="Path 21832" d="M-2980.853-21137.975l-3.455-8.447-2.908-7.08" transform="translate(-15)" fill="none" stroke="#da3c4a" stroke-width="1"/>
    </g>
    <g id="Group_6407" data-name="Group 6407" transform="translate(-56.012 235.154)">
      <path id="Path_21830-3" data-name="Path 21830" d="M2.828,0h7.1c.785,0,1.421,1.492,1.421,1.492S12.235,4,12.775,5.968,12.918,9.326,6.8,9.715-.227,7.938-.014,5.968A17,17,0,0,1,1.407,1.492S2.043,0,2.828,0Z" transform="translate(-2997.732 -21147.096)" fill="#da3c4a"/>
      <path id="Path_21831-3" data-name="Path 21831" d="M-2986.381-21143.289l2.051-5.771,2.779-5.055.4-.184" transform="translate(-0.642 -0.002)" fill="none" stroke="#da3c4a" stroke-width="0.6"/>
      <path id="Path_21832-3" data-name="Path 21832" d="M-2981.6-21143.437l-2.841-6.7-2.259-3.975-.215-.1" transform="translate(-15 -0.118)" fill="none" stroke="#da3c4a" stroke-width="0.6"/>
    </g>
    <g id="Group_6402" data-name="Group 6402" transform="translate(-3251.212 -21041.357)">
      <g id="Group_21" data-name="Group 21" transform="translate(215.375 40.628)">
        <path id="Path_42" data-name="Path 42" d="M231.524,51.446a6.809,6.809,0,0,0-.222-2.68,10.4,10.4,0,0,1,2.327-1.615l-.353-.723a11.879,11.879,0,0,1-2.719.629,2.646,2.646,0,0,1,.141.263,6.842,6.842,0,0,0-4.169-3.269,10.085,10.085,0,0,1-.236-2.848l-.8-.058a11.758,11.758,0,0,1-.821,2.659,6.811,6.811,0,0,0-2,.312,4.74,4.74,0,0,1-1.134-1.521l-.721.356a6.653,6.653,0,0,1,.536,1.732,6.835,6.835,0,0,0-1.43,1.067,10.735,10.735,0,0,1-2.58-1.211l-.453.677a11.4,11.4,0,0,1,1.89,2,6.9,6.9,0,0,0-.8,2.133,4.847,4.847,0,0,1-1.732.179l-.047.813a6.672,6.672,0,0,1,1.651.342A6.781,6.781,0,0,0,218.1,52.5a12.578,12.578,0,0,1-2.224,1.482l.358.732a10.751,10.751,0,0,1,2.543-.61,6.809,6.809,0,0,0,1.453,1.751,4.88,4.88,0,0,1-.714,1.576l.679.45a6.676,6.676,0,0,1,1.13-1.257,6.892,6.892,0,0,0,2.774.866,11.658,11.658,0,0,1,.856,2.628l.8-.141a10.529,10.529,0,0,1,.111-2.558,6.827,6.827,0,0,0,2.57-1.005,4.98,4.98,0,0,1,1.159,1.238l.673-.459a6.707,6.707,0,0,1-.772-1.625,6.851,6.851,0,0,0,1.587-2.391,12.442,12.442,0,0,1,2.664.335l.209-.787A11.416,11.416,0,0,1,231.524,51.446Zm-9.432-7.12c-.079.032-.157.065-.235.1C221.934,44.39,222.014,44.356,222.092,44.326Z" transform="translate(-215.881 -41.144)" fill="#ffc7c7"/>
        <path id="Path_43" data-name="Path 43" d="M243.471,46.145,242.8,45.7a6.874,6.874,0,0,1-1.306,1.388c.45.228,1.251.778,1.251.778A4.371,4.371,0,0,1,243.471,46.145Z" transform="translate(-229.434 -43.555)" fill="#fec7c7"/>
      </g>
      <g id="Group_22" data-name="Group 22" transform="translate(220.777 43.788)">
        <path id="Path_44" data-name="Path 44" d="M235.935,54.621c-.355-.019-.586-.676-1.067-1.486-.054-.1-.128-.2-.191-.313s-.144-.212-.217-.323a7.453,7.453,0,0,0-.524-.65,5.252,5.252,0,0,0-3.125-1.723,7.616,7.616,0,0,0-.83-.1c-.132,0-.263-.011-.389-.011s-.25,0-.366.006c-.941.026-1.62.181-1.826-.108a.332.332,0,0,1-.033-.274,1.09,1.09,0,0,1,.2-.393,3.22,3.22,0,0,1,1.193-.909,4.516,4.516,0,0,1,.465-.192c.165-.059.342-.106.526-.154a5.643,5.643,0,0,1,2.57.019,5.509,5.509,0,0,1,2.594,1.431,5.625,5.625,0,0,1,1.388,2.163c.057.182.113.356.151.527a4.483,4.483,0,0,1,.086.5,3.219,3.219,0,0,1-.132,1.494,1.081,1.081,0,0,1-.225.38A.328.328,0,0,1,235.935,54.621Z" transform="translate(-227.353 -47.855)" fill="#ff8d8d" opacity="0.37"/>
      </g>
      <g id="Group_27" data-name="Group 27" transform="translate(214.925 43.553)">
        <g id="Group_23" data-name="Group 23" transform="translate(0.99 0)">
          <path id="Path_45" data-name="Path 45" d="M217.975,47.371c.124.08.024.454-.224.835a2.244,2.244,0,0,1-.26.332c-.17.177-.329.266-.411.212-.124-.08-.024-.454.224-.835S217.851,47.291,217.975,47.371Z" transform="translate(-217.026 -47.356)" fill="#eba0a0"/>
          <path id="Path_46" data-name="Path 46" d="M218.065,49.039a2.619,2.619,0,0,0,.436-.688c.129.078.276.167.427.253a2.688,2.688,0,0,1-.72.541Z" transform="translate(-217.576 -47.882)" fill="#eba0a0"/>
        </g>
        <g id="Group_24" data-name="Group 24" transform="translate(0.301 5.053)">
          <path id="Path_47" data-name="Path 47" d="M215.87,58.086c.147.007.251.38.23.833a2.259,2.259,0,0,1-.057.418c-.057.239-.15.4-.247.392-.147-.007-.25-.38-.23-.833S215.723,58.079,215.87,58.086Z" transform="translate(-215.565 -58.086)" fill="#eba0a0"/>
          <path id="Path_48" data-name="Path 48" d="M216.6,59.756a1.808,1.808,0,0,0,.028-.814c.152.011.316.014.49.012a2.6,2.6,0,0,1-.341.817Z" transform="translate(-216.113 -58.539)" fill="#eba0a0"/>
        </g>
        <g id="Group_25" data-name="Group 25" transform="translate(0 9.659)">
          <path id="Path_49" data-name="Path 49" d="M214.995,67.878c.132-.066.4.208.609.614a2.264,2.264,0,0,1,.156.392c.067.236.064.418-.024.462-.131.066-.4-.208-.609-.614S214.863,67.945,214.995,67.878Z" transform="translate(-214.925 -67.868)" fill="#eba0a0"/>
          <path id="Path_50" data-name="Path 50" d="M216.256,68.868a2.622,2.622,0,0,0-.375-.723c.132-.072.283-.155.434-.242a2.69,2.69,0,0,1,.105.894Z" transform="translate(-215.431 -67.887)" fill="#eba0a0"/>
        </g>
        <g id="Group_26" data-name="Group 26" transform="translate(3.62 12.947)">
          <path id="Path_51" data-name="Path 51" d="M222.628,75.634c.08-.124.454-.025.836.22a2.22,2.22,0,0,1,.333.259c.178.17.267.329.214.411-.08.124-.454.025-.836-.221S222.549,75.757,222.628,75.634Z" transform="translate(-222.613 -75.237)" fill="#eba0a0"/>
          <path id="Path_52" data-name="Path 52" d="M224.3,75.7a1.8,1.8,0,0,0-.689-.434c.086-.126.171-.267.257-.418a2.6,2.6,0,0,1,.534.706Z" transform="translate(-223.14 -74.851)" fill="#eba0a0"/>
        </g>
      </g>
      <g id="Group_31" data-name="Group 31" transform="translate(224.106 51.837)">
        <g id="Group_28" data-name="Group 28" transform="translate(0 7.283)">
          <path id="Path_53" data-name="Path 53" d="M234.425,81.561c-.027-.145.312-.331.758-.415a2.239,2.239,0,0,1,.42-.041c.245,0,.42.055.438.151.027.145-.312.331-.759.415S234.453,81.705,234.425,81.561Z" transform="translate(-234.424 -80.78)" fill="#eba0a0"/>
          <path id="Path_54" data-name="Path 54" d="M235.83,80.74a2.629,2.629,0,0,0-.8.16c-.032-.147-.07-.315-.112-.484a2.7,2.7,0,0,1,.889.146Z" transform="translate(-234.686 -80.416)" fill="#eba0a0"/>
        </g>
        <g id="Group_29" data-name="Group 29" transform="translate(4.698 4.675)">
          <path id="Path_55" data-name="Path 55" d="M244.589,75.965c-.085-.121.148-.43.52-.691a2.238,2.238,0,0,1,.366-.211c.224-.1.4-.123.461-.043.085.121-.148.43-.52.691S244.674,76.086,244.589,75.965Z" transform="translate(-244.491 -74.927)" fill="#eba0a0"/>
          <path id="Path_56" data-name="Path 56" d="M245.352,75.028a1.805,1.805,0,0,0-.662.475c-.084-.127-.182-.259-.29-.4a2.59,2.59,0,0,1,.856-.228Z" transform="translate(-244.4 -74.877)" fill="#eba0a0"/>
        </g>
        <g id="Group_30" data-name="Group 30" transform="translate(8.654)">
          <path id="Path_57" data-name="Path 57" d="M253.957,66.546c-.143-.036-.169-.422-.059-.863a2.277,2.277,0,0,1,.139-.4c.1-.222.226-.357.321-.334.143.036.169.422.058.863S254.1,66.582,253.957,66.546Z" transform="translate(-253.346 -64.948)" fill="#eba0a0"/>
          <path id="Path_58" data-name="Path 58" d="M253.478,65.672a2.613,2.613,0,0,0-.19.792c-.147-.032-.315-.068-.486-.1a2.679,2.679,0,0,1,.506-.744Z" transform="translate(-252.802 -65.303)" fill="#eba0a0"/>
        </g>
      </g>
      <path id="Path_59" data-name="Path 59" d="M228.406,65.18c.226.481.146.994-.177,1.145s-.769-.115-.994-.6-.146-.994.178-1.145S228.181,64.7,228.406,65.18Z" transform="translate(-6.445 -12.896)" fill="#f7b4b4"/>
      <path id="Path_60" data-name="Path 60" d="M227.449,64.352c.226.481.146.994-.178,1.145s-.768-.115-.994-.6-.146-.994.178-1.145S227.224,63.872,227.449,64.352Z" transform="translate(-5.939 -12.458)" fill="#f5f5f5"/>
      <path id="Path_61" data-name="Path 61" d="M224.1,54.977c.319-.424.81-.594,1.1-.379s.258.733-.062,1.157-.81.594-1.1.379S223.776,55.4,224.1,54.977Z" transform="translate(-4.715 -7.585)" fill="#f7b4b4"/>
      <path id="Path_62" data-name="Path 62" d="M223.093,54.263c.32-.424.81-.594,1.1-.379s.258.733-.062,1.157-.809.594-1.1.379S222.774,54.687,223.093,54.263Z" transform="translate(-4.185 -7.207)" fill="#f5f5f5"/>
      <path id="Path_63" data-name="Path 63" d="M234.773,69.33a.633.633,0,1,1-.842-.3A.633.633,0,0,1,234.773,69.33Z" transform="translate(-9.864 -15.237)" fill="#f7b4b4"/>
      <path id="Path_64" data-name="Path 64" d="M234.468,68.678a.633.633,0,1,1-.841-.3A.633.633,0,0,1,234.468,68.678Z" transform="translate(-9.702 -14.892)" fill="#f5f5f5"/>
      <path id="Path_65" data-name="Path 65" d="M237.433,54a.778.778,0,1,1-.508-.977A.778.778,0,0,1,237.433,54Z" transform="translate(-11.105 -6.78)" fill="#f7b4b4"/>
      <path id="Path_66" data-name="Path 66" d="M237.7,53.152a.779.779,0,1,1-.508-.977A.778.778,0,0,1,237.7,53.152Z" transform="translate(-11.246 -6.333)" fill="#f5f5f5"/>
      <path id="Path_67" data-name="Path 67" d="M241.9,67.737a.464.464,0,1,1-.617-.223A.465.465,0,0,1,241.9,67.737Z" transform="translate(-13.803 -14.445)" fill="#f7b4b4"/>
      <path id="Path_68" data-name="Path 68" d="M241.672,67.259a.464.464,0,1,1-.617-.223A.464.464,0,0,1,241.672,67.259Z" transform="translate(-13.684 -14.192)" fill="#f5f5f5"/>
      <g id="Group_37" data-name="Group 37" transform="translate(219.82 40.169)">
        <g id="Group_32" data-name="Group 32" transform="translate(12.756 5.251)">
          <path id="Path_69" data-name="Path 69" d="M253.469,52.781c-.13.065-.4-.206-.6-.606a2.185,2.185,0,0,1-.154-.387c-.066-.233-.063-.413.023-.457.13-.066.4.206.6.606S253.6,52.715,253.469,52.781Z" transform="translate(-252.547 -51.321)" fill="#eba0a0"/>
          <path id="Path_70" data-name="Path 70" d="M252.587,52.384a2.591,2.591,0,0,0,.371.714c-.131.071-.28.153-.428.239a2.653,2.653,0,0,1-.1-.883Z" transform="translate(-252.411 -51.883)" fill="#eba0a0"/>
        </g>
        <g id="Group_33" data-name="Group 33" transform="translate(8.66 2.138)">
          <path id="Path_71" data-name="Path 71" d="M245.092,45.642c-.079.122-.449.024-.826-.218a2.2,2.2,0,0,1-.329-.256c-.175-.168-.263-.325-.211-.406.079-.122.448-.024.825.218S245.171,45.519,245.092,45.642Z" transform="translate(-243.711 -44.709)" fill="#eba0a0"/>
          <path id="Path_72" data-name="Path 72" d="M244.132,45.735a1.788,1.788,0,0,0,.681.428c-.085.124-.17.263-.254.412a2.561,2.561,0,0,1-.527-.7Z" transform="translate(-243.881 -45.252)" fill="#eba0a0"/>
        </g>
        <g id="Group_34" data-name="Group 34" transform="translate(4.745)">
          <path id="Path_73" data-name="Path 73" d="M237.021,40.486c-.009.146-.379.242-.827.215a2.184,2.184,0,0,1-.413-.062c-.235-.06-.388-.154-.383-.25.009-.146.379-.242.827-.215S237.03,40.34,237.021,40.486Z" transform="translate(-235.399 -40.169)" fill="#eba0a0"/>
          <path id="Path_74" data-name="Path 74" d="M236.261,41.185a2.583,2.583,0,0,0,.8.039c0,.149-.009.319-.009.491a2.654,2.654,0,0,1-.816-.355Z" transform="translate(-235.844 -40.707)" fill="#eba0a0"/>
        </g>
        <g id="Group_36" data-name="Group 36" transform="translate(0 1.463)">
          <g id="Group_35" data-name="Group 35">
            <path id="Path_75" data-name="Path 75" d="M226.779,43.346c.066.129-.2.4-.6.6a2.215,2.215,0,0,1-.387.156c-.233.067-.413.064-.457-.022-.066-.13.2-.4.6-.6S226.712,43.216,226.779,43.346Z" transform="translate(-225.321 -43.277)" fill="#eba0a0"/>
          </g>
          <path id="Path_76" data-name="Path 76" d="M226.384,44.6a1.785,1.785,0,0,0,.713-.373c.065.136.142.279.229.427a2.569,2.569,0,0,1-.869.1Z" transform="translate(-225.883 -43.778)" fill="#eba0a0"/>
        </g>
      </g>
      <path id="Path_77" data-name="Path 77" d="M243.218,62.243c-.026.531-.336.946-.693.929s-.625-.461-.6-.992.336-.946.693-.929S243.244,61.713,243.218,62.243Z" transform="translate(-14.286 -11.155)" fill="#f7b4b4"/>
      <path id="Path_78" data-name="Path 78" d="M243.516,61.494c-.026.53-.336.946-.693.929s-.625-.461-.6-.992.336-.946.693-.929S243.542,60.963,243.516,61.494Z" transform="translate(-14.444 -10.758)" fill="#f5f5f5"/>
      <path id="Path_79" data-name="Path 79" d="M234.237,59.474a.962.962,0,1,1-1.278-.463A.961.961,0,0,1,234.237,59.474Z" transform="translate(-9.249 -9.921)" fill="#f7b4b4"/>
      <path id="Path_80" data-name="Path 80" d="M233.734,58.4a.962.962,0,1,1-1.279-.463A.962.962,0,0,1,233.734,58.4Z" transform="translate(-8.982 -9.352)" fill="#f5f5f5"/>
      <g id="Group_38" data-name="Group 38" transform="translate(219.747 53.245)">
        <path id="Path_81" data-name="Path 81" d="M234.9,67.953c.069.047.049.222-.071.5a3.992,3.992,0,0,1-.712,1.03,5.835,5.835,0,0,1-.639.595,6.383,6.383,0,0,1-6.32.922,5.855,5.855,0,0,1-.783-.388,3.978,3.978,0,0,1-.977-.784c-.194-.227-.262-.39-.21-.454.114-.142.66.154,1.552.445.222.074.469.141.732.206a8.58,8.58,0,0,0,.849.152,7,7,0,0,0,3.807-.555c.278-.119.532-.257.77-.388s.451-.272.643-.406C234.307,68.29,234.745,67.849,234.9,67.953Z" transform="translate(-225.166 -67.938)" fill="#eba0a0"/>
      </g>
      <g id="Group_39" data-name="Group 39" transform="translate(218.315 52.446)" opacity="0.2">
        <path id="Path_82" data-name="Path 82" d="M222.463,66.315a.587.587,0,1,1-.274.806A.6.6,0,0,1,222.463,66.315Z" transform="translate(-222.125 -66.24)" fill="#e0e0e0"/>
      </g>
    </g>
    <g id="Group_6400" data-name="Group 6400" transform="translate(-3370.711 -20983.109)">
      <g id="Group_21-2" data-name="Group 21" transform="translate(215.369 40.623)">
        <path id="Path_42-2" data-name="Path 42" d="M231.329,51.318a6.724,6.724,0,0,0-.219-2.647,10.265,10.265,0,0,1,2.3-1.595l-.349-.714a11.731,11.731,0,0,1-2.685.621,2.611,2.611,0,0,1,.139.259,6.757,6.757,0,0,0-4.117-3.229,9.959,9.959,0,0,1-.233-2.812l-.792-.058a11.612,11.612,0,0,1-.811,2.626,6.726,6.726,0,0,0-1.97.308,4.681,4.681,0,0,1-1.12-1.5l-.712.351a6.57,6.57,0,0,1,.529,1.711,6.749,6.749,0,0,0-1.412,1.053,10.6,10.6,0,0,1-2.547-1.2l-.447.669a11.253,11.253,0,0,1,1.867,1.973,6.811,6.811,0,0,0-.793,2.107,4.787,4.787,0,0,1-1.71.177l-.047.8a6.589,6.589,0,0,1,1.63.338,6.7,6.7,0,0,0,.25,1.8,12.421,12.421,0,0,1-2.2,1.463l.353.723a10.616,10.616,0,0,1,2.511-.6,6.724,6.724,0,0,0,1.435,1.729,4.819,4.819,0,0,1-.705,1.556l.67.444a6.591,6.591,0,0,1,1.116-1.242,6.806,6.806,0,0,0,2.739.855,11.513,11.513,0,0,1,.845,2.595l.792-.139a10.4,10.4,0,0,1,.11-2.526,6.742,6.742,0,0,0,2.538-.993,4.917,4.917,0,0,1,1.145,1.223l.664-.453a6.624,6.624,0,0,1-.762-1.6,6.766,6.766,0,0,0,1.568-2.361,12.287,12.287,0,0,1,2.631.331l.206-.777A11.275,11.275,0,0,1,231.329,51.318Zm-9.315-7.031c-.078.032-.155.064-.232.1C221.859,44.349,221.937,44.316,222.014,44.287Z" transform="translate(-215.881 -41.144)" fill="#ffc7c7"/>
        <path id="Path_43-2" data-name="Path 43" d="M243.447,46.139l-.662-.439a6.788,6.788,0,0,1-1.289,1.37c.444.225,1.235.769,1.235.769A4.316,4.316,0,0,1,243.447,46.139Z" transform="translate(-229.584 -43.581)" fill="#fec7c7"/>
      </g>
      <g id="Group_22-2" data-name="Group 22" transform="translate(220.704 43.743)">
        <path id="Path_44-2" data-name="Path 44" d="M235.828,54.537c-.351-.019-.579-.668-1.053-1.468-.053-.1-.126-.2-.188-.309s-.142-.21-.214-.319a7.363,7.363,0,0,0-.518-.642,5.186,5.186,0,0,0-3.086-1.7,7.521,7.521,0,0,0-.82-.095c-.13,0-.259-.011-.384-.011s-.247,0-.362.006c-.93.026-1.6.179-1.8-.107a.328.328,0,0,1-.033-.271,1.076,1.076,0,0,1,.2-.388,3.18,3.18,0,0,1,1.178-.9,4.461,4.461,0,0,1,.459-.19c.163-.059.338-.1.52-.152a5.572,5.572,0,0,1,2.538.019,5.44,5.44,0,0,1,2.562,1.413,5.555,5.555,0,0,1,1.37,2.136c.057.179.112.352.149.521a4.422,4.422,0,0,1,.085.49,3.178,3.178,0,0,1-.13,1.475,1.068,1.068,0,0,1-.222.375A.324.324,0,0,1,235.828,54.537Z" transform="translate(-227.353 -47.855)" fill="#ff8d8d" opacity="0.37"/>
      </g>
      <g id="Group_27-2" data-name="Group 27" transform="translate(214.925 43.511)">
        <g id="Group_23-2" data-name="Group 23" transform="translate(0.977 0)">
          <path id="Path_45-2" data-name="Path 45" d="M217.963,47.371c.122.079.023.448-.221.825a2.215,2.215,0,0,1-.257.328c-.168.174-.325.262-.406.21-.122-.079-.023-.448.221-.825S217.84,47.292,217.963,47.371Z" transform="translate(-217.026 -47.356)" fill="#eba0a0"/>
          <path id="Path_46-2" data-name="Path 46" d="M218.065,49.031a2.587,2.587,0,0,0,.431-.68c.127.077.273.165.422.25a2.655,2.655,0,0,1-.711.534Z" transform="translate(-217.582 -47.888)" fill="#eba0a0"/>
        </g>
        <g id="Group_24-2" data-name="Group 24" transform="translate(0.298 4.99)">
          <path id="Path_47-2" data-name="Path 47" d="M215.867,58.086c.146.007.247.375.227.823a2.229,2.229,0,0,1-.056.413c-.056.236-.148.391-.244.387-.146-.007-.247-.375-.227-.823S215.721,58.079,215.867,58.086Z" transform="translate(-215.565 -58.086)" fill="#eba0a0"/>
          <path id="Path_48-2" data-name="Path 48" d="M216.6,59.746a1.785,1.785,0,0,0,.027-.8c.15.011.312.013.484.012a2.568,2.568,0,0,1-.337.807Z" transform="translate(-216.119 -58.544)" fill="#eba0a0"/>
        </g>
        <g id="Group_25-2" data-name="Group 25" transform="translate(0 9.538)">
          <path id="Path_49-2" data-name="Path 49" d="M214.994,67.878c.13-.066.4.206.6.606a2.237,2.237,0,0,1,.154.387c.066.233.063.413-.023.457-.13.066-.4-.206-.6-.606S214.864,67.944,214.994,67.878Z" transform="translate(-214.925 -67.868)" fill="#eba0a0"/>
          <path id="Path_50-2" data-name="Path 50" d="M216.252,68.856a2.589,2.589,0,0,0-.371-.714c.131-.071.28-.153.428-.239a2.656,2.656,0,0,1,.1.883Z" transform="translate(-215.436 -67.887)" fill="#eba0a0"/>
        </g>
        <g id="Group_26-2" data-name="Group 26" transform="translate(3.575 12.786)">
          <path id="Path_51-2" data-name="Path 51" d="M222.628,75.633c.079-.123.448-.025.826.218a2.19,2.19,0,0,1,.329.256c.175.167.264.325.211.405-.079.122-.448.025-.825-.218S222.549,75.755,222.628,75.633Z" transform="translate(-222.613 -75.241)" fill="#eba0a0"/>
          <path id="Path_52-2" data-name="Path 52" d="M224.29,75.692a1.782,1.782,0,0,0-.681-.428c.085-.124.169-.264.254-.413a2.565,2.565,0,0,1,.527.7Z" transform="translate(-223.146 -74.851)" fill="#eba0a0"/>
        </g>
      </g>
      <g id="Group_31-2" data-name="Group 31" transform="translate(223.992 51.692)">
        <g id="Group_28-2" data-name="Group 28" transform="translate(0 7.193)">
          <path id="Path_53-2" data-name="Path 53" d="M234.425,81.555c-.027-.143.308-.327.749-.41a2.211,2.211,0,0,1,.415-.041c.242,0,.414.054.432.149.027.143-.308.326-.749.41S234.452,81.7,234.425,81.555Z" transform="translate(-234.424 -80.784)" fill="#eba0a0"/>
          <path id="Path_54-2" data-name="Path 54" d="M235.818,80.735a2.6,2.6,0,0,0-.789.158c-.032-.145-.069-.311-.111-.478a2.664,2.664,0,0,1,.877.145Z" transform="translate(-234.689 -80.416)" fill="#eba0a0"/>
        </g>
        <g id="Group_29-2" data-name="Group 29" transform="translate(4.639 4.617)">
          <path id="Path_55-2" data-name="Path 55" d="M244.589,75.953c-.084-.12.146-.425.513-.682a2.208,2.208,0,0,1,.361-.208c.221-.1.4-.121.455-.042.084.119-.146.425-.513.682S244.673,76.072,244.589,75.953Z" transform="translate(-244.492 -74.928)" fill="#eba0a0"/>
          <path id="Path_56-2" data-name="Path 56" d="M245.34,75.026a1.783,1.783,0,0,0-.654.469c-.083-.126-.18-.256-.286-.391a2.558,2.558,0,0,1,.845-.225Z" transform="translate(-244.4 -74.877)" fill="#eba0a0"/>
        </g>
        <g id="Group_30-2" data-name="Group 30" transform="translate(8.546)">
          <path id="Path_57-2" data-name="Path 57" d="M253.955,66.526c-.141-.035-.167-.417-.058-.852a2.246,2.246,0,0,1,.137-.394c.1-.219.223-.353.317-.33.141.035.167.417.058.852S254.1,66.562,253.955,66.526Z" transform="translate(-253.352 -64.948)" fill="#eba0a0"/>
          <path id="Path_58-2" data-name="Path 58" d="M253.47,65.671a2.581,2.581,0,0,0-.188.782c-.145-.032-.312-.067-.48-.1a2.646,2.646,0,0,1,.5-.735Z" transform="translate(-252.802 -65.307)" fill="#eba0a0"/>
        </g>
      </g>
      <path id="Path_59-2" data-name="Path 59" d="M228.39,65.172c.223.475.144.981-.175,1.131s-.759-.114-.982-.589-.144-.982.176-1.131S228.167,64.7,228.39,65.172Z" transform="translate(-6.517 -13.039)" fill="#f7b4b4"/>
      <path id="Path_60-2" data-name="Path 60" d="M227.433,64.344c.223.475.144.981-.176,1.131s-.758-.114-.981-.589-.144-.981.176-1.131S227.21,63.87,227.433,64.344Z" transform="translate(-6.005 -12.596)" fill="#f5f5f5"/>
      <path id="Path_61-2" data-name="Path 61" d="M224.092,54.971c.315-.419.8-.587,1.082-.374s.254.724-.061,1.143-.8.587-1.082.374S223.777,55.39,224.092,54.971Z" transform="translate(-4.768 -7.669)" fill="#f7b4b4"/>
      <path id="Path_62-2" data-name="Path 62" d="M223.09,54.257c.316-.419.8-.586,1.082-.374s.255.724-.061,1.143-.8.586-1.082.374S222.775,54.676,223.09,54.257Z" transform="translate(-4.232 -7.287)" fill="#f5f5f5"/>
      <path id="Path_63-2" data-name="Path 63" d="M234.758,69.326a.625.625,0,1,1-.831-.3A.625.625,0,0,1,234.758,69.326Z" transform="translate(-9.973 -15.406)" fill="#f7b4b4"/>
      <path id="Path_64-2" data-name="Path 64" d="M234.453,68.674a.625.625,0,1,1-.831-.3A.625.625,0,0,1,234.453,68.674Z" transform="translate(-9.81 -15.057)" fill="#f5f5f5"/>
      <path id="Path_65-2" data-name="Path 65" d="M237.414,53.984a.769.769,0,1,1-.5-.965A.768.768,0,0,1,237.414,53.984Z" transform="translate(-11.228 -6.855)" fill="#f7b4b4"/>
      <path id="Path_66-2" data-name="Path 66" d="M237.681,53.14a.769.769,0,1,1-.5-.965A.769.769,0,0,1,237.681,53.14Z" transform="translate(-11.371 -6.403)" fill="#f5f5f5"/>
      <path id="Path_67-2" data-name="Path 67" d="M241.885,67.733a.459.459,0,1,1-.61-.22A.459.459,0,0,1,241.885,67.733Z" transform="translate(-13.956 -14.605)" fill="#f7b4b4"/>
      <path id="Path_68-2" data-name="Path 68" d="M241.661,67.255a.459.459,0,1,1-.61-.22A.459.459,0,0,1,241.661,67.255Z" transform="translate(-13.836 -14.35)" fill="#f5f5f5"/>
      <g id="Group_37-2" data-name="Group 37" transform="translate(219.759 40.169)">
        <g id="Group_32-2" data-name="Group 32" transform="translate(12.597 5.186)">
          <path id="Path_69-2" data-name="Path 69" d="M253.459,52.763c-.128.065-.394-.2-.594-.6a2.16,2.16,0,0,1-.152-.382c-.066-.23-.062-.408.023-.451.128-.065.395.2.594.6S253.588,52.7,253.459,52.763Z" transform="translate(-252.548 -51.321)" fill="#eba0a0"/>
          <path id="Path_70-2" data-name="Path 70" d="M252.585,52.384a2.559,2.559,0,0,0,.366.705c-.129.07-.276.151-.423.236a2.62,2.62,0,0,1-.1-.872Z" transform="translate(-252.411 -51.89)" fill="#eba0a0"/>
        </g>
        <g id="Group_33-2" data-name="Group 33" transform="translate(8.552 2.111)">
          <path id="Path_71-2" data-name="Path 71" d="M245.075,45.63c-.078.121-.443.024-.816-.216a2.167,2.167,0,0,1-.325-.253c-.173-.166-.26-.321-.208-.4.078-.121.443-.024.815.216S245.153,45.509,245.075,45.63Z" transform="translate(-243.711 -44.709)" fill="#eba0a0"/>
          <path id="Path_72-2" data-name="Path 72" d="M244.131,45.735a1.766,1.766,0,0,0,.673.423c-.084.122-.167.26-.251.407a2.529,2.529,0,0,1-.521-.689Z" transform="translate(-243.883 -45.258)" fill="#eba0a0"/>
        </g>
        <g id="Group_34-2" data-name="Group 34" transform="translate(4.686)">
          <path id="Path_73-2" data-name="Path 73" d="M237,40.482c-.009.144-.374.239-.817.212a2.157,2.157,0,0,1-.407-.061c-.232-.059-.384-.152-.378-.246.008-.144.374-.239.817-.213S237.009,40.338,237,40.482Z" transform="translate(-235.399 -40.169)" fill="#eba0a0"/>
          <path id="Path_74-2" data-name="Path 74" d="M236.261,41.185a2.551,2.551,0,0,0,.794.039c0,.147-.008.315-.009.485a2.621,2.621,0,0,1-.805-.35Z" transform="translate(-235.849 -40.713)" fill="#eba0a0"/>
        </g>
        <g id="Group_36-2" data-name="Group 36" transform="translate(0 1.445)">
          <g id="Group_35-2" data-name="Group 35">
            <path id="Path_75-2" data-name="Path 75" d="M226.761,43.345c.065.128-.2.4-.6.6a2.187,2.187,0,0,1-.382.154c-.23.066-.408.063-.452-.021-.065-.128.2-.4.6-.6S226.7,43.217,226.761,43.345Z" transform="translate(-225.321 -43.277)" fill="#eba0a0"/>
          </g>
          <path id="Path_76-2" data-name="Path 76" d="M226.384,44.591a1.762,1.762,0,0,0,.7-.368c.064.134.14.275.226.422a2.537,2.537,0,0,1-.858.1Z" transform="translate(-225.89 -43.783)" fill="#eba0a0"/>
        </g>
      </g>
      <path id="Path_77-2" data-name="Path 77" d="M243.2,62.231c-.026.524-.332.935-.685.917s-.617-.456-.591-.98.332-.934.684-.917S243.228,61.707,243.2,62.231Z" transform="translate(-14.445 -11.278)" fill="#f7b4b4"/>
      <path id="Path_78-2" data-name="Path 78" d="M243.5,61.481c-.026.524-.332.934-.685.917s-.617-.456-.591-.98.332-.934.684-.917S243.526,60.957,243.5,61.481Z" transform="translate(-14.604 -10.877)" fill="#f5f5f5"/>
      <path id="Path_79-2" data-name="Path 79" d="M234.214,59.467a.95.95,0,1,1-1.263-.457A.949.949,0,0,1,234.214,59.467Z" transform="translate(-9.351 -10.031)" fill="#f7b4b4"/>
      <path id="Path_80-2" data-name="Path 80" d="M233.711,58.392a.95.95,0,1,1-1.263-.457A.95.95,0,0,1,233.711,58.392Z" transform="translate(-9.082 -9.456)" fill="#f5f5f5"/>
      <g id="Group_38-2" data-name="Group 38" transform="translate(219.687 53.082)">
        <path id="Path_81-2" data-name="Path 81" d="M234.774,67.953c.068.047.049.219-.07.489a3.942,3.942,0,0,1-.7,1.017,5.76,5.76,0,0,1-.632.587,6.3,6.3,0,0,1-6.241.91,5.78,5.78,0,0,1-.773-.383,3.928,3.928,0,0,1-.964-.774c-.192-.224-.259-.385-.207-.449.113-.14.652.153,1.533.439.219.073.463.139.723.2a8.473,8.473,0,0,0,.838.15,6.909,6.909,0,0,0,3.759-.548c.274-.118.525-.254.76-.384s.445-.269.635-.4C234.193,68.285,234.626,67.85,234.774,67.953Z" transform="translate(-225.166 -67.938)" fill="#eba0a0"/>
      </g>
      <g id="Group_39-2" data-name="Group 39" transform="translate(218.273 52.293)" opacity="0.2">
        <path id="Path_82-2" data-name="Path 82" d="M222.459,66.314a.58.58,0,1,1-.27.8A.6.6,0,0,1,222.459,66.314Z" transform="translate(-222.125 -66.24)" fill="#e0e0e0"/>
      </g>
    </g>
    <g id="Group_6403" data-name="Group 6403" transform="translate(-3378.711 -20957.197)">
      <g id="Group_21-3" data-name="Group 21" transform="translate(215.19 40.44)">
        <path id="Path_42-3" data-name="Path 42" d="M225.1,47.218a4.014,4.014,0,0,0-.131-1.58,6.129,6.129,0,0,1,1.372-.952l-.208-.426a7,7,0,0,1-1.6.371,1.558,1.558,0,0,1,.083.155,4.034,4.034,0,0,0-2.458-1.928,5.946,5.946,0,0,1-.139-1.679l-.473-.034a6.932,6.932,0,0,1-.484,1.568,4.015,4.015,0,0,0-1.176.184,2.8,2.8,0,0,1-.669-.9l-.425.21a3.923,3.923,0,0,1,.316,1.021,4.03,4.03,0,0,0-.843.629,6.329,6.329,0,0,1-1.521-.714l-.267.4a6.719,6.719,0,0,1,1.114,1.178,4.066,4.066,0,0,0-.474,1.258,2.858,2.858,0,0,1-1.021.105l-.028.479a3.933,3.933,0,0,1,.973.2,4,4,0,0,0,.149,1.076,7.415,7.415,0,0,1-1.311.874l.211.431a6.338,6.338,0,0,1,1.5-.36,4.015,4.015,0,0,0,.856,1.032,2.877,2.877,0,0,1-.421.929l.4.265a3.935,3.935,0,0,1,.666-.741,4.064,4.064,0,0,0,1.635.511,6.874,6.874,0,0,1,.5,1.549l.473-.083a6.208,6.208,0,0,1,.066-1.508,4.025,4.025,0,0,0,1.515-.593,2.936,2.936,0,0,1,.684.73l.4-.271a3.955,3.955,0,0,1-.455-.958,4.039,4.039,0,0,0,.936-1.41,7.336,7.336,0,0,1,1.571.2l.123-.464A6.731,6.731,0,0,1,225.1,47.218Zm-5.561-4.2c-.046.019-.092.038-.139.059C219.45,43.058,219.5,43.038,219.543,43.02Z" transform="translate(-215.881 -41.144)" fill="#ffc7c7"/>
        <path id="Path_43-3" data-name="Path 43" d="M242.66,45.962l-.4-.262a4.053,4.053,0,0,1-.77.818c.265.134.737.459.737.459A2.577,2.577,0,0,1,242.66,45.962Z" transform="translate(-234.384 -44.435)" fill="#fec7c7"/>
      </g>
      <g id="Group_22-3" data-name="Group 22" transform="translate(218.375 42.303)">
        <path id="Path_44-3" data-name="Path 44" d="M232.413,51.844c-.209-.011-.346-.4-.629-.876-.032-.061-.076-.121-.112-.184s-.085-.125-.128-.19a4.4,4.4,0,0,0-.309-.383,3.1,3.1,0,0,0-1.843-1.016,4.491,4.491,0,0,0-.489-.057c-.078,0-.155-.007-.229-.007s-.147,0-.216,0c-.555.016-.955.107-1.077-.064a.2.2,0,0,1-.019-.162.643.643,0,0,1,.119-.232,1.9,1.9,0,0,1,.7-.536,2.664,2.664,0,0,1,.274-.113c.1-.035.2-.062.31-.091a3.327,3.327,0,0,1,1.515.011,3.248,3.248,0,0,1,1.529.843,3.317,3.317,0,0,1,.818,1.275c.034.107.067.21.089.311a2.643,2.643,0,0,1,.051.292,1.9,1.9,0,0,1-.078.881.637.637,0,0,1-.133.224A.194.194,0,0,1,232.413,51.844Z" transform="translate(-227.353 -47.855)" fill="#ff8d8d" opacity="0.37"/>
      </g>
      <g id="Group_27-3" data-name="Group 27" transform="translate(214.925 42.165)">
        <g id="Group_23-3" data-name="Group 23" transform="translate(0.583 0)">
          <path id="Path_45-3" data-name="Path 45" d="M217.585,47.365c.073.047.014.268-.132.493a1.323,1.323,0,0,1-.154.2c-.1.1-.194.157-.242.125-.073-.047-.014-.268.132-.493S217.512,47.317,217.585,47.365Z" transform="translate(-217.026 -47.356)" fill="#eba0a0"/>
          <path id="Path_46-3" data-name="Path 46" d="M218.065,48.757a1.544,1.544,0,0,0,.257-.406c.076.046.163.1.252.149a1.585,1.585,0,0,1-.424.319Z" transform="translate(-217.777 -48.075)" fill="#eba0a0"/>
        </g>
        <g id="Group_24-3" data-name="Group 24" transform="translate(0.178 2.979)">
          <path id="Path_47-3" data-name="Path 47" d="M215.745,58.086c.087,0,.148.224.136.491a1.333,1.333,0,0,1-.033.247c-.034.141-.088.233-.146.231-.087,0-.147-.224-.135-.491S215.658,58.082,215.745,58.086Z" transform="translate(-215.565 -58.086)" fill="#eba0a0"/>
          <path id="Path_48-3" data-name="Path 48" d="M216.6,59.422a1.066,1.066,0,0,0,.016-.48c.089.006.187.008.289.007a1.533,1.533,0,0,1-.2.482Z" transform="translate(-216.313 -58.704)" fill="#eba0a0"/>
        </g>
        <g id="Group_25-3" data-name="Group 25" transform="translate(0 5.695)">
          <path id="Path_49-3" data-name="Path 49" d="M214.966,67.874c.078-.039.238.123.359.362a1.334,1.334,0,0,1,.092.231c.039.139.037.247-.014.273-.077.039-.238-.123-.359-.362S214.888,67.913,214.966,67.874Z" transform="translate(-214.925 -67.868)" fill="#eba0a0"/>
          <path id="Path_50-3" data-name="Path 50" d="M216.1,68.472a1.546,1.546,0,0,0-.221-.426c.078-.042.167-.091.256-.142a1.586,1.586,0,0,1,.062.527Z" transform="translate(-215.615 -67.893)" fill="#eba0a0"/>
        </g>
        <g id="Group_26-3" data-name="Group 26" transform="translate(2.135 7.633)">
          <path id="Path_51-3" data-name="Path 51" d="M222.622,75.612c.047-.073.268-.015.493.13a1.309,1.309,0,0,1,.2.153c.1.1.157.194.126.242-.047.073-.268.015-.493-.13S222.575,75.685,222.622,75.612Z" transform="translate(-222.613 -75.378)" fill="#eba0a0"/>
          <path id="Path_52-3" data-name="Path 52" d="M224.015,75.353a1.064,1.064,0,0,0-.406-.256c.051-.074.1-.157.152-.247a1.531,1.531,0,0,1,.315.416Z" transform="translate(-223.333 -74.851)" fill="#eba0a0"/>
        </g>
      </g>
      <g id="Group_31-3" data-name="Group 31" transform="translate(220.338 47.049)">
        <g id="Group_28-3" data-name="Group 28" transform="translate(0 4.294)">
          <path id="Path_53-3" data-name="Path 53" d="M234.425,81.373c-.016-.086.184-.2.447-.245a1.32,1.32,0,0,1,.248-.024c.145,0,.247.032.258.089.016.085-.184.195-.447.245S234.441,81.459,234.425,81.373Z" transform="translate(-234.424 -80.913)" fill="#eba0a0"/>
          <path id="Path_54-3" data-name="Path 54" d="M235.456,80.607a1.55,1.55,0,0,0-.471.094c-.019-.087-.041-.186-.066-.285a1.59,1.59,0,0,1,.524.086Z" transform="translate(-234.782 -80.416)" fill="#eba0a0"/>
        </g>
        <g id="Group_29-3" data-name="Group 29" transform="translate(2.77 2.756)">
          <path id="Path_55-3" data-name="Path 55" d="M244.582,75.558c-.05-.071.087-.253.307-.407a1.319,1.319,0,0,1,.216-.124c.132-.059.239-.072.272-.025.05.071-.087.253-.307.407S244.632,75.629,244.582,75.558Z" transform="translate(-244.524 -74.946)" fill="#eba0a0"/>
          <path id="Path_56-3" data-name="Path 56" d="M244.961,74.966a1.064,1.064,0,0,0-.39.28c-.049-.075-.107-.153-.171-.233a1.527,1.527,0,0,1,.5-.134Z" transform="translate(-244.4 -74.877)" fill="#eba0a0"/>
        </g>
        <g id="Group_30-3" data-name="Group 30" transform="translate(5.102)">
          <path id="Path_57-3" data-name="Path 57" d="M253.9,65.891c-.084-.021-.1-.249-.035-.509a1.339,1.339,0,0,1,.082-.235c.061-.131.133-.211.189-.2.084.021.1.249.034.509S253.989,65.912,253.9,65.891Z" transform="translate(-253.544 -64.948)" fill="#eba0a0"/>
          <path id="Path_58-3" data-name="Path 58" d="M253.2,65.65a1.541,1.541,0,0,0-.112.467c-.087-.019-.186-.04-.287-.06a1.58,1.58,0,0,1,.3-.439Z" transform="translate(-252.802 -65.432)" fill="#eba0a0"/>
        </g>
      </g>
      <path id="Path_59-3" data-name="Path 59" d="M227.872,64.918c.133.283.086.586-.1.675s-.453-.068-.586-.351-.086-.586.1-.675S227.74,64.635,227.872,64.918Z" transform="translate(-8.8 -17.606)" fill="#f7b4b4"/>
      <path id="Path_60-3" data-name="Path 60" d="M226.915,64.09c.133.283.086.586-.1.675s-.453-.068-.586-.351-.086-.586.1-.675S226.783,63.807,226.915,64.09Z" transform="translate(-8.108 -17.008)" fill="#f5f5f5"/>
      <path id="Path_61-3" data-name="Path 61" d="M223.989,54.783c.188-.25.478-.35.646-.223s.152.432-.036.682-.478.35-.646.223S223.8,55.034,223.989,54.783Z" transform="translate(-6.438 -10.356)" fill="#f7b4b4"/>
      <path id="Path_62-3" data-name="Path 62" d="M222.987,54.069c.189-.25.477-.35.646-.223s.152.432-.036.682-.477.35-.646.223S222.8,54.319,222.987,54.069Z" transform="translate(-5.714 -9.839)" fill="#f5f5f5"/>
      <path id="Path_63-3" data-name="Path 63" d="M234.278,69.181a.373.373,0,1,1-.5-.18A.373.373,0,0,1,234.278,69.181Z" transform="translate(-13.467 -20.802)" fill="#f7b4b4"/>
      <path id="Path_64-3" data-name="Path 64" d="M233.973,68.529a.373.373,0,1,1-.5-.18A.373.373,0,0,1,233.973,68.529Z" transform="translate(-13.246 -20.331)" fill="#f5f5f5"/>
      <path id="Path_65-3" data-name="Path 65" d="M236.809,53.58a.459.459,0,1,1-.3-.576A.459.459,0,0,1,236.809,53.58Z" transform="translate(-15.161 -9.256)" fill="#f7b4b4"/>
      <path id="Path_66-3" data-name="Path 66" d="M237.076,52.736a.459.459,0,1,1-.3-.576A.459.459,0,0,1,237.076,52.736Z" transform="translate(-15.353 -8.646)" fill="#f5f5f5"/>
      <path id="Path_67-3" data-name="Path 67" d="M241.532,67.627a.274.274,0,1,1-.364-.132A.274.274,0,0,1,241.532,67.627Z" transform="translate(-18.844 -19.721)" fill="#f7b4b4"/>
      <path id="Path_68-3" data-name="Path 68" d="M241.308,67.149a.274.274,0,1,1-.364-.132A.274.274,0,0,1,241.308,67.149Z" transform="translate(-18.682 -19.376)" fill="#f5f5f5"/>
      <g id="Group_37-3" data-name="Group 37" transform="translate(217.811 40.169)">
        <g id="Group_32-3" data-name="Group 32" transform="translate(7.521 3.096)">
          <path id="Path_69-3" data-name="Path 69" d="M253.14,52.182c-.077.039-.235-.121-.355-.358a1.289,1.289,0,0,1-.091-.228c-.039-.137-.037-.244.014-.269.077-.039.236.121.355.357S253.217,52.143,253.14,52.182Z" transform="translate(-252.596 -51.321)" fill="#eba0a0"/>
          <path id="Path_70-3" data-name="Path 70" d="M252.515,52.384a1.528,1.528,0,0,0,.218.421c-.077.042-.165.09-.253.141a1.564,1.564,0,0,1-.061-.521Z" transform="translate(-252.411 -52.089)" fill="#eba0a0"/>
        </g>
        <g id="Group_33-3" data-name="Group 33" transform="translate(5.106 1.26)">
          <path id="Path_71-3" data-name="Path 71" d="M244.525,45.259c-.047.072-.265.014-.487-.129a1.294,1.294,0,0,1-.194-.151c-.1-.1-.155-.192-.124-.239.046-.072.264-.014.487.129S244.572,45.187,244.525,45.259Z" transform="translate(-243.711 -44.709)" fill="#eba0a0"/>
          <path id="Path_72-3" data-name="Path 72" d="M244.091,45.735a1.054,1.054,0,0,0,.4.253c-.05.073-.1.155-.15.243a1.51,1.51,0,0,1-.311-.411Z" transform="translate(-243.943 -45.45)" fill="#eba0a0"/>
        </g>
        <g id="Group_34-3" data-name="Group 34" transform="translate(2.798)">
          <path id="Path_73-3" data-name="Path 73" d="M236.355,40.356c-.005.086-.223.142-.488.127a1.288,1.288,0,0,1-.243-.036c-.138-.035-.229-.091-.226-.147.005-.086.223-.143.488-.127S236.36,40.27,236.355,40.356Z" transform="translate(-235.399 -40.169)" fill="#eba0a0"/>
          <path id="Path_74-3" data-name="Path 74" d="M236.252,41.185a1.523,1.523,0,0,0,.474.023c0,.088-.005.188-.006.289a1.565,1.565,0,0,1-.481-.209Z" transform="translate(-236.006 -40.903)" fill="#eba0a0"/>
        </g>
        <g id="Group_36-3" data-name="Group 36" transform="translate(0 0.863)">
          <g id="Group_35-3" data-name="Group 35">
            <path id="Path_75-3" data-name="Path 75" d="M226.181,43.318c.039.076-.12.236-.356.356a1.306,1.306,0,0,1-.228.092c-.137.039-.244.038-.27-.013-.039-.077.12-.236.356-.356S226.141,43.241,226.181,43.318Z" transform="translate(-225.321 -43.277)" fill="#eba0a0"/>
          </g>
          <path id="Path_76-3" data-name="Path 76" d="M226.384,44.443a1.052,1.052,0,0,0,.421-.22c.038.08.084.164.135.252a1.515,1.515,0,0,1-.512.062Z" transform="translate(-226.089 -43.96)" fill="#eba0a0"/>
        </g>
      </g>
      <path id="Path_77-3" data-name="Path 77" d="M242.687,61.836c-.015.313-.2.558-.409.548s-.368-.272-.353-.585.2-.558.409-.547S242.7,61.523,242.687,61.836Z" transform="translate(-19.504 -15.229)" fill="#f7b4b4"/>
      <path id="Path_78-3" data-name="Path 78" d="M242.985,61.086c-.015.313-.2.558-.409.547s-.368-.272-.353-.585.2-.558.409-.547S243,60.773,242.985,61.086Z" transform="translate(-19.719 -14.687)" fill="#f5f5f5"/>
      <path id="Path_79-3" data-name="Path 79" d="M233.485,59.246a.567.567,0,1,1-.754-.273A.566.566,0,0,1,233.485,59.246Z" transform="translate(-12.627 -13.545)" fill="#f7b4b4"/>
      <path id="Path_80-3" data-name="Path 80" d="M232.981,58.171a.567.567,0,1,1-.754-.273A.567.567,0,0,1,232.981,58.171Z" transform="translate(-12.263 -12.768)" fill="#f5f5f5"/>
      <g id="Group_38-3" data-name="Group 38" transform="translate(217.768 47.879)">
        <path id="Path_81-3" data-name="Path 81" d="M230.9,67.947c.041.028.029.131-.042.292a2.354,2.354,0,0,1-.42.607,3.44,3.44,0,0,1-.377.351,3.763,3.763,0,0,1-3.726.544,3.452,3.452,0,0,1-.461-.228,2.345,2.345,0,0,1-.576-.462c-.114-.134-.155-.23-.124-.268.067-.084.389.091.915.262.131.044.276.083.432.122a5.058,5.058,0,0,0,.5.09,4.125,4.125,0,0,0,2.244-.327c.164-.07.313-.152.454-.229s.266-.16.379-.24C230.556,68.145,230.814,67.886,230.9,67.947Z" transform="translate(-225.166 -67.938)" fill="#eba0a0"/>
      </g>
      <g id="Group_39-3" data-name="Group 39" transform="translate(216.924 47.407)" opacity="0.2">
        <path id="Path_82-3" data-name="Path 82" d="M222.324,66.284a.346.346,0,1,1-.161.475A.355.355,0,0,1,222.324,66.284Z" transform="translate(-222.125 -66.24)" fill="#e0e0e0"/>
      </g>
    </g>
    <g id="Group_6404" data-name="Group 6404" transform="translate(-3228.611 -21041.357)">
      <g id="Group_21-4" data-name="Group 21" transform="translate(215.647 40.905)">
        <path id="Path_42-4" data-name="Path 42" d="M240.965,57.665a10.918,10.918,0,0,0-.356-4.3c.707-.978,3.732-2.59,3.732-2.59l-.566-1.159a19.05,19.05,0,0,1-4.361,1.008,4.247,4.247,0,0,1,.227.421,10.971,10.971,0,0,0-6.685-5.243c-.51-1.06-.379-4.567-.379-4.567l-1.287-.094a18.858,18.858,0,0,1-1.317,4.264,10.921,10.921,0,0,0-3.2.5,7.6,7.6,0,0,1-1.818-2.44l-1.157.57a10.667,10.667,0,0,1,.859,2.778,10.962,10.962,0,0,0-2.292,1.71c-1.234-.147-4.136-1.941-4.136-1.941l-.726,1.086a18.274,18.274,0,0,1,3.031,3.2,11.059,11.059,0,0,0-1.288,3.421,7.773,7.773,0,0,1-2.777.287l-.076,1.3a10.7,10.7,0,0,1,2.647.549,10.876,10.876,0,0,0,.405,2.925,20.169,20.169,0,0,1-3.566,2.376l.574,1.173a17.239,17.239,0,0,1,4.078-.979,10.919,10.919,0,0,0,2.329,2.807,7.825,7.825,0,0,1-1.146,2.527l1.088.721a10.7,10.7,0,0,1,1.811-2.016,11.052,11.052,0,0,0,4.447,1.389,18.694,18.694,0,0,1,1.373,4.213l1.286-.226a16.885,16.885,0,0,1,.178-4.1,10.947,10.947,0,0,0,4.121-1.612,7.986,7.986,0,0,1,1.859,1.985l1.079-.736a10.756,10.756,0,0,1-1.238-2.606,10.986,10.986,0,0,0,2.545-3.834,19.952,19.952,0,0,1,4.272.537l.335-1.262A18.306,18.306,0,0,1,240.965,57.665ZM225.84,46.247c-.126.052-.251.1-.377.16C225.588,46.349,225.715,46.3,225.84,46.247Z" transform="translate(-215.881 -41.144)" fill="#ffc7c7"/>
        <path id="Path_43-4" data-name="Path 43" d="M244.664,46.414l-1.075-.714a11.022,11.022,0,0,1-2.094,2.225c.721.365,2.006,1.248,2.006,1.248A7.009,7.009,0,0,1,244.664,46.414Z" transform="translate(-222.154 -42.26)" fill="#fec7c7"/>
      </g>
      <g id="Group_22-4" data-name="Group 22" transform="translate(224.309 45.973)">
        <path id="Path_44-4" data-name="Path 44" d="M241.115,58.7c-.569-.031-.94-1.084-1.71-2.383-.086-.166-.205-.328-.306-.5s-.231-.341-.348-.517a11.963,11.963,0,0,0-.84-1.043A8.422,8.422,0,0,0,232.9,51.5a12.214,12.214,0,0,0-1.331-.154c-.211,0-.421-.018-.623-.018s-.4-.007-.587.009c-1.509.042-2.6.291-2.928-.174a.533.533,0,0,1-.053-.439,1.747,1.747,0,0,1,.322-.63,5.163,5.163,0,0,1,1.913-1.458,7.244,7.244,0,0,1,.746-.308c.265-.1.548-.17.844-.247a9.048,9.048,0,0,1,4.121.03,8.834,8.834,0,0,1,4.16,2.294,9.02,9.02,0,0,1,2.225,3.468c.092.291.181.571.242.846a7.19,7.19,0,0,1,.137.8,5.16,5.16,0,0,1-.211,2.4,1.734,1.734,0,0,1-.361.609A.526.526,0,0,1,241.115,58.7Z" transform="translate(-227.353 -47.855)" fill="#ff8d8d" opacity="0.37"/>
      </g>
      <g id="Group_27-4" data-name="Group 27" transform="translate(214.925 45.596)">
        <g id="Group_23-4" data-name="Group 23" transform="translate(1.587 0)">
          <path id="Path_45-4" data-name="Path 45" d="M218.547,47.38c.2.128.038.728-.359,1.34a3.6,3.6,0,0,1-.418.532c-.273.283-.528.426-.659.341-.2-.128-.038-.728.359-1.34S218.348,47.252,218.547,47.38Z" transform="translate(-217.026 -47.356)" fill="#eba0a0"/>
          <path id="Path_46-4" data-name="Path 46" d="M218.065,49.455a4.2,4.2,0,0,0,.7-1.1c.207.125.443.268.685.406a4.311,4.311,0,0,1-1.154.868Z" transform="translate(-217.281 -47.599)" fill="#eba0a0"/>
        </g>
        <g id="Group_24-4" data-name="Group 24" transform="translate(0.483 8.102)">
          <path id="Path_47-4" data-name="Path 47" d="M216.055,58.086c.236.011.4.609.369,1.337a3.622,3.622,0,0,1-.091.671c-.091.383-.24.635-.4.628-.236-.011-.4-.609-.368-1.337S215.819,58.075,216.055,58.086Z" transform="translate(-215.565 -58.086)" fill="#eba0a0"/>
          <path id="Path_48-4" data-name="Path 48" d="M216.6,60.248a2.9,2.9,0,0,0,.044-1.306c.243.017.507.022.786.019a4.171,4.171,0,0,1-.547,1.31Z" transform="translate(-215.818 -58.296)" fill="#eba0a0"/>
        </g>
        <g id="Group_25-4" data-name="Group 25" transform="translate(0 15.489)">
          <path id="Path_49-4" data-name="Path 49" d="M215.037,67.884c.211-.106.649.334.977.984a3.634,3.634,0,0,1,.251.629c.107.378.1.671-.038.741-.211.106-.649-.334-.977-.984S214.826,67.991,215.037,67.884Z" transform="translate(-214.925 -67.868)" fill="#eba0a0"/>
          <path id="Path_50-4" data-name="Path 50" d="M216.483,69.45a4.2,4.2,0,0,0-.6-1.16c.212-.116.455-.248.7-.387a4.314,4.314,0,0,1,.169,1.434Z" transform="translate(-215.159 -67.877)" fill="#eba0a0"/>
        </g>
        <g id="Group_26-4" data-name="Group 26" transform="translate(5.806 20.762)">
          <path id="Path_51-4" data-name="Path 51" d="M222.637,75.666c.128-.2.728-.041,1.341.353a3.562,3.562,0,0,1,.534.415c.285.272.428.527.343.658-.128.2-.728.041-1.34-.354S222.51,75.865,222.637,75.666Z" transform="translate(-222.613 -75.03)" fill="#eba0a0"/>
          <path id="Path_52-4" data-name="Path 52" d="M224.715,76.217a2.893,2.893,0,0,0-1.105-.7c.137-.2.275-.428.412-.671a4.165,4.165,0,0,1,.856,1.133Z" transform="translate(-222.857 -74.851)" fill="#eba0a0"/>
        </g>
      </g>
      <g id="Group_31-4" data-name="Group 31" transform="translate(229.648 58.88)">
        <g id="Group_28-4" data-name="Group 28" transform="translate(0 11.679)">
          <path id="Path_53-4" data-name="Path 53" d="M234.426,81.836c-.044-.233.5-.531,1.216-.666a3.592,3.592,0,0,1,.674-.066c.393,0,.673.088.7.242.044.232-.5.53-1.216.666S234.47,82.068,234.426,81.836Z" transform="translate(-234.424 -80.584)" fill="#eba0a0"/>
          <path id="Path_54-4" data-name="Path 54" d="M236.379,80.935a4.216,4.216,0,0,0-1.281.257c-.052-.236-.113-.505-.18-.775a4.325,4.325,0,0,1,1.425.235Z" transform="translate(-234.545 -80.416)" fill="#eba0a0"/>
        </g>
        <g id="Group_29-4" data-name="Group 29" transform="translate(7.533 7.497)">
          <path id="Path_55-4" data-name="Path 55" d="M244.6,76.565c-.136-.194.238-.689.834-1.108a3.586,3.586,0,0,1,.587-.338c.359-.161.649-.2.739-.069.136.193-.238.689-.834,1.108S244.736,76.758,244.6,76.565Z" transform="translate(-244.442 -74.9)" fill="#eba0a0"/>
          <path id="Path_56-4" data-name="Path 56" d="M245.926,75.119a2.9,2.9,0,0,0-1.062.762c-.134-.2-.292-.416-.464-.635a4.154,4.154,0,0,1,1.372-.365Z" transform="translate(-244.4 -74.877)" fill="#eba0a0"/>
        </g>
        <g id="Group_30-4" data-name="Group 30" transform="translate(13.877)">
          <path id="Path_57-4" data-name="Path 57" d="M254.034,67.511c-.23-.057-.272-.677-.094-1.383a3.649,3.649,0,0,1,.223-.64c.166-.356.362-.573.514-.535.229.057.271.677.094,1.383S254.263,67.568,254.034,67.511Z" transform="translate(-253.054 -64.948)" fill="#eba0a0"/>
          <path id="Path_58-4" data-name="Path 58" d="M253.886,65.7a4.191,4.191,0,0,0-.305,1.27c-.236-.051-.506-.109-.779-.162a4.3,4.3,0,0,1,.812-1.194Z" transform="translate(-252.802 -65.112)" fill="#eba0a0"/>
        </g>
      </g>
      <path id="Path_59-4" data-name="Path 59" d="M229.19,65.566c.362.771.234,1.593-.285,1.836s-1.232-.185-1.594-.956-.233-1.594.285-1.836S228.829,64.795,229.19,65.566Z" transform="translate(-2.983 -5.969)" fill="#f7b4b4"/>
      <path id="Path_60-4" data-name="Path 60" d="M228.233,64.738c.362.771.233,1.593-.285,1.836s-1.232-.185-1.593-.956-.233-1.593.285-1.836S227.872,63.967,228.233,64.738Z" transform="translate(-2.749 -5.766)" fill="#f5f5f5"/>
      <path id="Path_61-4" data-name="Path 61" d="M224.251,55.262c.512-.68,1.3-.953,1.756-.608s.413,1.175-.1,1.855-1.3.953-1.756.608S223.739,55.943,224.251,55.262Z" transform="translate(-2.183 -3.511)" fill="#f7b4b4"/>
      <path id="Path_62-4" data-name="Path 62" d="M223.249,54.547c.513-.68,1.3-.952,1.756-.608s.414,1.176-.1,1.856-1.3.952-1.756.608S222.737,55.228,223.249,54.547Z" transform="translate(-1.937 -3.336)" fill="#f5f5f5"/>
      <path id="Path_63-4" data-name="Path 63" d="M235.5,69.55a1.015,1.015,0,1,1-1.35-.489A1.015,1.015,0,0,1,235.5,69.55Z" transform="translate(-4.566 -7.052)" fill="#f7b4b4"/>
      <path id="Path_64-4" data-name="Path 64" d="M235.2,68.9a1.015,1.015,0,1,1-1.349-.489A1.015,1.015,0,0,1,235.2,68.9Z" transform="translate(-4.491 -6.893)" fill="#f5f5f5"/>
      <path id="Path_65-4" data-name="Path 65" d="M238.351,54.608a1.248,1.248,0,1,1-.814-1.567A1.248,1.248,0,0,1,238.351,54.608Z" transform="translate(-5.14 -3.138)" fill="#f7b4b4"/>
      <path id="Path_66-4" data-name="Path 66" d="M238.618,53.764A1.249,1.249,0,1,1,237.8,52.2,1.248,1.248,0,0,1,238.618,53.764Z" transform="translate(-5.205 -2.931)" fill="#f5f5f5"/>
      <path id="Path_67-4" data-name="Path 67" d="M242.43,67.9a.745.745,0,1,1-.99-.358A.745.745,0,0,1,242.43,67.9Z" transform="translate(-6.389 -6.686)" fill="#f7b4b4"/>
      <path id="Path_68-4" data-name="Path 68" d="M242.206,67.42a.745.745,0,1,1-.99-.358A.745.745,0,0,1,242.206,67.42Z" transform="translate(-6.334 -6.569)" fill="#f5f5f5"/>
      <g id="Group_37-4" data-name="Group 37" transform="translate(222.775 40.169)">
        <g id="Group_32-4" data-name="Group 32" transform="translate(20.455 8.42)">
          <path id="Path_69-4" data-name="Path 69" d="M253.953,53.663c-.208.1-.64-.33-.965-.973a3.507,3.507,0,0,1-.247-.621c-.106-.374-.1-.663.037-.732.208-.106.641.33.965.972S254.161,53.557,253.953,53.663Z" transform="translate(-252.474 -51.321)" fill="#eba0a0"/>
          <path id="Path_70-4" data-name="Path 70" d="M252.693,52.384a4.154,4.154,0,0,0,.594,1.145c-.21.114-.448.245-.687.383a4.254,4.254,0,0,1-.166-1.417Z" transform="translate(-252.411 -51.581)" fill="#eba0a0"/>
        </g>
        <g id="Group_33-4" data-name="Group 33" transform="translate(13.886 3.428)">
          <path id="Path_71-4" data-name="Path 71" d="M245.926,46.2c-.127.2-.72.039-1.324-.35a3.519,3.519,0,0,1-.528-.41c-.281-.269-.422-.521-.338-.651.126-.2.719-.039,1.324.35S246.052,46.009,245.926,46.2Z" transform="translate(-243.711 -44.709)" fill="#eba0a0"/>
          <path id="Path_72-4" data-name="Path 72" d="M244.193,45.735a2.867,2.867,0,0,0,1.093.687c-.136.2-.272.422-.408.661a4.107,4.107,0,0,1-.846-1.119Z" transform="translate(-243.79 -44.96)" fill="#eba0a0"/>
        </g>
        <g id="Group_34-4" data-name="Group 34" transform="translate(7.61)">
          <path id="Path_73-4" data-name="Path 73" d="M238,40.677c-.014.233-.608.387-1.326.344a3.5,3.5,0,0,1-.661-.1c-.376-.1-.623-.246-.614-.4.014-.233.607-.388,1.326-.345S238.014,40.443,238,40.677Z" transform="translate(-235.399 -40.169)" fill="#eba0a0"/>
          <path id="Path_74-4" data-name="Path 74" d="M236.274,41.185a4.142,4.142,0,0,0,1.289.063c-.007.239-.014.511-.015.787a4.256,4.256,0,0,1-1.308-.569Z" transform="translate(-235.605 -40.418)" fill="#eba0a0"/>
        </g>
        <g id="Group_36-4" data-name="Group 36" transform="translate(0 2.347)">
          <g id="Group_35-4" data-name="Group 35">
            <path id="Path_75-4" data-name="Path 75" d="M227.659,43.387c.106.208-.328.642-.969.968a3.551,3.551,0,0,1-.62.25c-.374.107-.663.1-.733-.035-.106-.208.328-.642.969-.969S227.552,43.179,227.659,43.387Z" transform="translate(-225.321 -43.277)" fill="#eba0a0"/>
          </g>
          <path id="Path_76-4" data-name="Path 76" d="M226.384,44.821a2.862,2.862,0,0,0,1.144-.6c.1.217.228.447.367.685a4.12,4.12,0,0,1-1.393.168Z" transform="translate(-225.581 -43.509)" fill="#eba0a0"/>
        </g>
      </g>
      <path id="Path_77-4" data-name="Path 77" d="M244,62.842c-.041.851-.539,1.518-1.112,1.49s-1-.74-.96-1.591.539-1.517,1.112-1.489S244.041,61.992,244,62.842Z" transform="translate(-6.612 -5.163)" fill="#f7b4b4"/>
      <path id="Path_78-4" data-name="Path 78" d="M244.3,62.093c-.042.85-.539,1.517-1.112,1.489s-1-.74-.96-1.591.539-1.517,1.111-1.489S244.339,61.242,244.3,62.093Z" transform="translate(-6.685 -4.979)" fill="#f5f5f5"/>
      <path id="Path_79-4" data-name="Path 79" d="M235.343,59.808a1.542,1.542,0,1,1-2.05-.742A1.541,1.541,0,0,1,235.343,59.808Z" transform="translate(-4.281 -4.592)" fill="#f7b4b4"/>
      <path id="Path_80-4" data-name="Path 80" d="M234.84,58.733a1.542,1.542,0,1,1-2.051-.742A1.543,1.543,0,0,1,234.84,58.733Z" transform="translate(-4.158 -4.329)" fill="#f5f5f5"/>
      <g id="Group_38-4" data-name="Group 38" transform="translate(222.658 61.137)">
        <path id="Path_81-4" data-name="Path 81" d="M240.768,67.962c.11.076.079.356-.114.794a6.4,6.4,0,0,1-1.142,1.651,9.356,9.356,0,0,1-1.025.954,10.235,10.235,0,0,1-10.135,1.478,9.387,9.387,0,0,1-1.255-.621,6.379,6.379,0,0,1-1.566-1.256c-.311-.364-.421-.625-.337-.729.183-.227,1.059.248,2.489.713.356.119.751.226,1.174.331a13.759,13.759,0,0,0,1.361.244,11.219,11.219,0,0,0,6.1-.89c.445-.191.852-.412,1.235-.623s.723-.436,1.031-.652C239.825,68.5,240.527,67.8,240.768,67.962Z" transform="translate(-225.166 -67.938)" fill="#eba0a0"/>
      </g>
      <g id="Group_39-4" data-name="Group 39" transform="translate(220.362 59.855)" opacity="0.2">
        <path id="Path_82-4" data-name="Path 82" d="M222.667,66.36a.941.941,0,1,1-.439,1.293A.966.966,0,0,1,222.667,66.36Z" transform="translate(-222.125 -66.24)" fill="#e0e0e0"/>
      </g>
    </g>
  </g>
</svg>
