<svg xmlns="http://www.w3.org/2000/svg" xmlns:xlink="http://www.w3.org/1999/xlink" width="240.752" height="176.564" viewBox="0 0 240.752 176.564">
  <defs>
    <clipPath id="clip-path">
      <rect id="Rectangle_11720" data-name="Rectangle 11720" width="114.084" height="113.247" fill="none"/>
    </clipPath>
  </defs>
  <g id="Health_Plan_For_Energetic_Employees" data-name="Health Plan For Energetic Employees" transform="translate(4354 21298.076)">
    <path id="Path_20457" data-name="Path 20457" d="M351.607,1233.53c-21.72,4.769-43.921.3-65.678-1.864-14.324-1.425-28.135.513-42.494,1.567-36.5,2.677-77-2.034-88.673-35.766-9.73-28.109,6-69.821,39.889-86.326,11.723-5.71,23.658-6.837,35.3-5.665,6.993.7,14.79,3.387,22.323.56,7.946-2.978,13.825-11.252,19.2-17.21,8-8.874,16.435-18.174,27.159-24.169,24.6-13.758,39.223-.344,46.612,21.7,3.593,10.722,5.5,21.893,8.394,32.8,4.1,15.464,13.006,26.7,23.032,39.141,8.926,11.083,17.28,24.047,15.841,38.107-1.631,15.959-16.01,29.045-32.038,34.627a77.328,77.328,0,0,1-8.865,2.5" transform="translate(-4505.92 -22357.16)" fill="#f7f7f7"/>
    <path id="Path_20458" data-name="Path 20458" d="M119.135,1129.511c0-55.169,45.849-99.893,102.406-99.893s102.406,44.724,102.406,99.893" transform="translate(-4453.807 -22290.678)" fill="none" stroke="#000" stroke-miterlimit="10" stroke-width="0.906" stroke-dasharray="3.623 3.623"/>
    <g id="Group_6124" data-name="Group 6124" transform="translate(-4292.999 -21258.059)">
      <g id="Group_6123" data-name="Group 6123" clip-path="url(#clip-path)">
        <path id="Path_21445" data-name="Path 21445" d="M50.075,119.828c.245,8.2,1.033,17.749.3,26.354H103.9c-.836-7.347-1.863-15.3-2.171-21.23-.146-2.817-.284-5.427-.414-7.851-.042-.036.931-.257.89-.293-1.393-1.213,1.4-3.736,1.4-3.736l1.9-19.213s-7.178-8-6.171-7.624c-.014-.095-.02-.121-.02-.121a97.576,97.576,0,0,0-13.529-2.5A16.7,16.7,0,0,1,77.16,89.9c-4.824-.64-8.889-6.341-8.889-6.472a57.176,57.176,0,0,0-12.034,2.447c-.012.005-1.883,6.177-1.9,6.184.505-.148-5,5.49-5,5.49S50.061,119.382,50.075,119.828Z" transform="translate(-20.511 -33.965)" fill="#ce2539"/>
        <path id="Path_21446" data-name="Path 21446" d="M19.6,139.58c-1.719-3.771-2.888-6.666-2.553-6.944.636-.528,7.717-6.676,12.965-11.235.007-.7.03-1.453.069-2.261.543-11.044,4.01-30.876,6.67-32.125C33.376,88,19.157,94.324,0,133.32c0,0,1.174,4.089,6.9,11.219q1.178,1.467,2.623,3.1H23.443c-1.34-2.737-2.711-5.589-3.842-8.064" transform="translate(0 -35.426)" fill="#ce2539"/>
        <path id="Path_21448" data-name="Path 21448" d="M151.167,133.1c.335.279-.833,3.173-2.552,6.944-1.131,2.475-2.5,5.328-3.842,8.064H158.7q1.448-1.634,2.623-3.1c5.722-7.13,6.9-11.219,6.9-11.219-17.854-36.344-30.94-44.021-35.254-45.624.1.7.6,5.162,1.974,30.867,4.863,4.224,15.447,13.42,16.232,14.072" transform="translate(-54.132 -35.894)" fill="#ce2539"/>
        <path id="Path_21450" data-name="Path 21450" d="M24.337,175.677a25.376,25.376,0,0,1-12.705,4.96q1.178,1.467,2.623,3.1H28.179c-1.34-2.737-2.711-5.589-3.842-8.064" transform="translate(-4.736 -71.523)" fill="#f9ccd3"/>
        <path id="Path_21451" data-name="Path 21451" d="M169.429,180.637a25.373,25.373,0,0,1-12.7-4.96c-1.132,2.475-2.5,5.328-3.842,8.064h13.924q1.447-1.635,2.623-3.1" transform="translate(-62.243 -71.523)" fill="#f9ccd3"/>
        <path id="Path_21452" data-name="Path 21452" d="M88.7,75.24h0a8.111,8.111,0,0,0,8.388-7.825,8.281,8.281,0,0,0-.014-.832L95.755,47.071a6.119,6.119,0,0,0-12.172-.416L80.939,66.03A8.11,8.11,0,0,0,88.7,75.24" transform="translate(-32.922 -16.833)" fill="#f9ccd3"/>
        <path id="Path_21453" data-name="Path 21453" d="M96.886,69.7s-6.6,7.326-15.227-.13l.466.3C85.947,75,90.94,77.061,97.2,78.344h.211" transform="translate(-33.246 -28.324)" fill="#e2a9b3"/>
        <path id="Path_21454" data-name="Path 21454" d="M85.165,14.059h0A12.7,12.7,0,0,0,72.31,26.85l.11,8.288a18.075,18.075,0,0,0,1.871,7.927c2.29,4.529,5.957,7.073,11.368,7.072,3.956,0,7.091-1.189,9.307-4.09a17.821,17.821,0,0,0,3.5-11.1l-.107-8.1a13.119,13.119,0,0,0-13.2-12.79" transform="translate(-29.439 -5.724)" fill="#f9ccd3"/>
        <path id="Path_21455" data-name="Path 21455" d="M82.21,40.149A1.256,1.256,0,1,0,83.465,41.4a1.256,1.256,0,0,0-1.256-1.256" transform="translate(-32.959 -16.346)" fill="#0a0b0b"/>
        <path id="Path_21456" data-name="Path 21456" d="M83.795,36.765l.411-.572a5.819,5.819,0,0,0-7.267.421l.482.526a5.021,5.021,0,0,1,6.374-.376" transform="translate(-31.324 -14.297)" fill="#0a0b0b"/>
        <path id="Path_21457" data-name="Path 21457" d="M104.216,40.149a1.256,1.256,0,1,0,1.256,1.256,1.256,1.256,0,0,0-1.256-1.256" transform="translate(-41.918 -16.346)" fill="#0a0b0b"/>
        <path id="Path_21458" data-name="Path 21458" d="M105.8,36.765l.411-.572a5.819,5.819,0,0,0-7.267.421l.482.526a5.021,5.021,0,0,1,6.374-.376" transform="translate(-40.284 -14.297)" fill="#0a0b0b"/>
        <path id="Path_21459" data-name="Path 21459" d="M92.988,45.57s.171,5.763-.445,6.841,2.137.392,2.137.392" transform="translate(-37.641 -18.553)" fill="none" stroke="#c44658" stroke-miterlimit="10" stroke-width="0.3"/>
        <path id="Path_21460" data-name="Path 21460" d="M95.067,64.6a7.522,7.522,0,0,1-6.356-.126" transform="translate(-36.117 -26.248)" fill="none" stroke="#c44658" stroke-miterlimit="10" stroke-width="0.3"/>
        <path id="Path_21461" data-name="Path 21461" d="M115.508,48.048c1.9.035,3.481-2.447,3.512-4.455s-1.524-2.79-3.383-2.808Z" transform="translate(-47.027 -16.604)" fill="#f9ccd3"/>
        <path id="Path_21462" data-name="Path 21462" d="M118.036,44.789a3.067,3.067,0,0,0-1.234,2.6A1.8,1.8,0,0,1,118,47.1" transform="translate(-47.552 -18.235)" fill="none" stroke="#c44658" stroke-miterlimit="10" stroke-width="0.3"/>
        <path id="Path_21463" data-name="Path 21463" d="M70.534,48.048c-1.9.035-3.481-2.447-3.512-4.455s1.524-2.79,3.383-2.808Z" transform="translate(-27.286 -16.604)" fill="#f9ccd3"/>
        <path id="Path_21464" data-name="Path 21464" d="M69.569,44.789a3.064,3.064,0,0,1,1.234,2.6,1.8,1.8,0,0,0-1.2-.288" transform="translate(-28.324 -18.235)" fill="none" stroke="#c44658" stroke-miterlimit="10" stroke-width="0.3"/>
        <path id="Path_21465" data-name="Path 21465" d="M69.3,24.18a9.74,9.74,0,0,0,2.185-6.225s4.955-2.283,5.216-6.39c0,0,8.346,5.8,13.5,2.412,0,0,2.544.2,2.283,2.087,0,0,1.5,9.715,2.543,8.085,0,0,1.565-1.76,1.3-8.477,0,0,3.065-1.3,1.043-4.368,0,0,.2-7.759-8.671-8.411,0,0-1.275-.928-2.659-1.825a6.405,6.405,0,0,0-7.624.4c-.117.1-.234.209-.346.321,0,0-6.064-1.043-8.8,4.107,0,0-6.129-.076-4.76,6.025,0,0-.261,4.6,2.413,6.037Z" transform="translate(-26.183 0)" fill="#0a0b0b"/>
        <path id="Path_21466" data-name="Path 21466" d="M79,84.616a3.751,3.751,0,0,0-2.013,2.433s6.292,6.473,10.41,6.572Z" transform="translate(-31.345 -34.45)" fill="#aaa"/>
        <path id="Path_21467" data-name="Path 21467" d="M94.55,94.4l8.122-9.332a3.81,3.81,0,0,1,1.653,2.92S98.043,94.643,94.55,94.4" transform="translate(-38.494 -34.633)" fill="#aaa"/>
        <path id="Path_21468" data-name="Path 21468" d="M88.992,99.6s-6.2,33.192-4.04,37.239a24.841,24.841,0,0,0,3.781,5.141,3,3,0,0,0,3.8,0c1.646-1.773,3.8-4.338,3.8-5.64,0-2.109-4.7-36.764-4.7-36.764Z" transform="translate(-34.4 -40.537)" fill="#dbdbdb"/>
        <path id="Path_21469" data-name="Path 21469" d="M89,95.07a39.013,39.013,0,0,1,6.028-.144.632.632,0,0,1,.484.939c-.639,1.151-1.944,3.146-3.308,3.146-1.917,0-4.9-3.808-3.2-3.94" transform="translate(-36.028 -38.617)" fill="#aaa"/>
        <path id="Path_21470" data-name="Path 21470" d="M114.79,189.84H9.358a.857.857,0,1,1,0-1.713H114.79a.857.857,0,0,1,0,1.713" transform="translate(-3.541 -76.593)" fill="#da3c4a"/>
      </g>
    </g>
  </g>
</svg>
