<svg xmlns="http://www.w3.org/2000/svg" width="240.752" height="176.564" viewBox="0 0 240.752 176.564">
  <g id="health-insurance-for-women" transform="translate(4354 21298.076)">
    <path id="Path_20457" data-name="Path 20457" d="M351.607,1233.53c-21.72,4.769-43.921.3-65.678-1.864-14.324-1.425-28.135.513-42.494,1.567-36.5,2.677-77-2.034-88.673-35.766-9.73-28.109,6-69.821,39.889-86.326,11.723-5.71,23.658-6.837,35.3-5.665,6.993.7,14.79,3.387,22.323.56,7.946-2.978,13.825-11.252,19.2-17.21,8-8.874,16.435-18.174,27.159-24.169,24.6-13.758,39.223-.344,46.612,21.7,3.593,10.722,5.5,21.893,8.394,32.8,4.1,15.464,13.006,26.7,23.032,39.141,8.926,11.083,17.28,24.047,15.841,38.107-1.631,15.959-16.01,29.045-32.038,34.627a77.328,77.328,0,0,1-8.865,2.5" transform="translate(-4505.92 -22357.16)" fill="#f7f7f7"/>
    <path id="Path_20458" data-name="Path 20458" d="M119.135,1129.511c0-55.169,45.849-99.893,102.406-99.893s102.406,44.724,102.406,99.893" transform="translate(-4453.807 -22290.678)" fill="none" stroke="#000" stroke-miterlimit="10" stroke-width="0.906" stroke-dasharray="3.623 3.623"/>
    <g id="energy-illustration" transform="translate(-4426.602 -23875.742)">
      <g id="Group_6383" data-name="Group 6383" transform="translate(148.602 2623.006)">
        <g id="Group_2059" data-name="Group 2059">
          <g id="Group_2058" data-name="Group 2058" transform="translate(18.938 15.248)">
            <path id="Path_18418" data-name="Path 18418" d="M244.282,228.549h0a10.038,10.038,0,0,0,10.38-9.684,9.92,9.92,0,0,0-.017-1.029l-1.626-24.148a7.564,7.564,0,0,0-7.29-7.081h0a7.577,7.577,0,0,0-7.773,6.566l-3.272,23.977a10.038,10.038,0,0,0,9.6,11.4Z" transform="translate(-226.26 -169.726)" fill="#eacdcd"/>
            <path id="Path_18419" data-name="Path 18419" d="M241.189,157.662h0a14.551,14.551,0,0,0-14.723,14.65l.127,9.492a20.7,20.7,0,0,0,2.142,9.079c2.622,5.188,6.822,9.267,13.019,9.267h0c4.532,0,8.121-2.529,10.66-5.851a20.414,20.414,0,0,0,4.011-12.712l-.124-9.276A15.025,15.025,0,0,0,241.189,157.662Z" transform="translate(-222.874 -157.662)" fill="#eacdcd"/>
            <circle id="Ellipse_897" data-name="Ellipse 897" cx="1.438" cy="1.438" r="1.438" transform="translate(9.461 21.215)" fill="#0a0b0b"/>
            <path id="Path_18420" data-name="Path 18420" d="M239.709,190.07l.471-.654a6.664,6.664,0,0,0-8.323.482l.552.6A5.752,5.752,0,0,1,239.709,190.07Z" transform="translate(-225.122 -170.385)" fill="#9f9f9f"/>
            <circle id="Ellipse_898" data-name="Ellipse 898" cx="1.438" cy="1.438" r="1.438" transform="translate(24.404 21.215)" fill="#0a0b0b"/>
            <path id="Path_18421" data-name="Path 18421" d="M265.333,190.07l.471-.654a6.664,6.664,0,0,0-8.323.482l.552.6A5.752,5.752,0,0,1,265.333,190.07Z" transform="translate(-235.803 -170.385)" fill="#9f9f9f"/>
            <path id="Path_18422" data-name="Path 18422" d="M250.534,197.894s.195,4.536-.51,5.771,2.448.449,2.448.449" transform="translate(-232.652 -174.433)" fill="none" stroke="#9f9f9f" stroke-miterlimit="10" stroke-width="0.3"/>
            <path id="Path_18423" data-name="Path 18423" d="M252.843,216.508a8.612,8.612,0,0,1-7.279-.145" transform="translate(-230.836 -182.132)" fill="none" stroke="#9f9f9f" stroke-miterlimit="10" stroke-width="0.3"/>
            <g id="Group_2056" data-name="Group 2056" transform="translate(32.924 18.73)">
              <path id="Path_18424" data-name="Path 18424" d="M276.766,198.1c2.182.039,3.987-2.8,4.023-5.1s-1.746-3.2-3.875-3.217Z" transform="translate(-276.766 -189.781)" fill="#eacdcd"/>
              <path id="Path_18425" data-name="Path 18425" d="M279.685,194.444a3.514,3.514,0,0,0-1.413,2.979,2.061,2.061,0,0,1,1.373-.329" transform="translate(-277.392 -191.725)" fill="none" stroke="#9f9f9f" stroke-miterlimit="10" stroke-width="0.3"/>
            </g>
            <g id="Group_2057" data-name="Group 2057" transform="translate(0 18.73)">
              <path id="Path_18426" data-name="Path 18426" d="M224.331,198.1c-2.182.039-3.987-2.8-4.023-5.1s1.746-3.2,3.875-3.217Z" transform="translate(-220.307 -189.781)" fill="#eacdcd"/>
              <path id="Path_18427" data-name="Path 18427" d="M223.275,194.444a3.514,3.514,0,0,1,1.413,2.979,2.061,2.061,0,0,0-1.373-.329" transform="translate(-221.544 -191.725)" fill="none" stroke="#9f9f9f" stroke-miterlimit="10" stroke-width="0.3"/>
            </g>
            <path id="Path_18428" data-name="Path 18428" d="M255.16,223.96s-7.927,8.739-17.808.2l.533.349A29.871,29.871,0,0,0,255.819,235.9h.243" transform="translate(-227.412 -185.299)" fill="#ddbcbc"/>
          </g>
          <ellipse id="Ellipse_899" data-name="Ellipse 899" cx="8.222" cy="5.289" rx="8.222" ry="5.289" transform="matrix(0.979, -0.205, 0.205, 0.979, 24.534, 3.374)" fill="#bac1c0"/>
          <path id="Path_18429" data-name="Path 18429" d="M244.553,162.159c-7.089,4.776-5.833,5.83-21.051,10.306a2.249,2.249,0,0,1-2.391-.746c-3.528-4.42-14.276-20.183,8.139-24.294a22.368,22.368,0,0,1,5.166-.823c2.214-.11,4.926.331,7.7.164,11.313-.678,14.768,11.425,10.828,20.086-.585,1.287-.675,4.476-1.172,6.024,0,0-2.021-6-3.236-9.682C247.976,161.505,246.028,161.165,244.553,162.159Z" transform="translate(-199.335 -137.796)" fill="#cdcdcc"/>
          <path id="Path_18430" data-name="Path 18430" d="M235.154,233.275l.008.121a9.717,9.717,0,0,1,.016.984,9.6,9.6,0,0,1-9.926,9.26,9.739,9.739,0,0,1-.975-.084,9.591,9.591,0,0,1-8.249-10.281c-4.907,1.331-29.489,8.744-28.143,23.26.2,2.109.381,4.22.381,6.339V288.8h77.06V253.288S267.25,240.046,235.154,233.275Z" transform="translate(-187.832 -173.934)" fill="#e6e6e6"/>
          <line id="Line_37" data-name="Line 37" y2="35.162" transform="translate(14.479 79.224)" fill="none" stroke="#040505" stroke-miterlimit="10" stroke-width="0.3"/>
          <line id="Line_38" data-name="Line 38" y2="35.162" transform="translate(64.467 79.224)" fill="none" stroke="#040505" stroke-miterlimit="10" stroke-width="0.3"/>
          <ellipse id="Ellipse_900" data-name="Ellipse 900" cx="5.517" cy="6.559" rx="5.517" ry="6.559" transform="translate(24.317 30.33)" fill="none" stroke="#da3c4a" stroke-miterlimit="10" stroke-width="1"/>
          <ellipse id="Ellipse_901" data-name="Ellipse 901" cx="5.517" cy="6.559" rx="5.517" ry="6.559" transform="translate(39.259 30.33)" fill="none" stroke="#da3c4a" stroke-miterlimit="10" stroke-width="1"/>
        </g>
        <path id="Path_18431" data-name="Path 18431" d="M226.75,233.276a41.038,41.038,0,0,0,19.126,0s10.507,1.977,16.108,4.965l-9.384,4.476a34.376,34.376,0,0,1-29.526.036l-9.52-4.512A67.268,67.268,0,0,1,226.75,233.276Z" transform="translate(-198.554 -173.934)" fill="#da3c4a"/>
        <path id="Path_18432" data-name="Path 18432" d="M261.978,242.918s-18.172-7.968-25.926-9.159" transform="translate(-207.933 -174.135)" fill="none" stroke="#f5685b" stroke-miterlimit="10" stroke-width="0.3"/>
        <path id="Path_18433" data-name="Path 18433" d="M269.437,242.128s8.085-3.5,11.165-3.2" transform="translate(-221.85 -176.282)" fill="none" stroke="#f5685b" stroke-miterlimit="10" stroke-width="0.3"/>
        <path id="Path_18434" data-name="Path 18434" d="M260.241,238.87s8.085-3.5,11.165-3.2" transform="translate(-218.016 -174.924)" fill="none" stroke="#f5685b" stroke-miterlimit="10" stroke-width="0.3"/>
      </g>
      <rect id="Rectangle_11732" data-name="Rectangle 11732" width="137" height="141" transform="translate(126.602 2601.822)" fill="none"/>
      <g id="Group_6129" data-name="Group 6129" transform="translate(139.602 2629.849)">
        <path id="Path_18435" data-name="Path 18435" d="M233.842,734.567" transform="translate(-209.574 -637.61)" fill="#eb4b4d"/>
        <rect id="Rectangle_501" data-name="Rectangle 501" width="95.269" height="1.524" rx="0.762" transform="translate(0 107.591)" fill="#da3c4a"/>
      </g>
      <g id="shield" transform="translate(184.706 2639.819)">
        <path id="Path_21483" data-name="Path 21483" d="M121.472,105.662a46.059,46.059,0,0,0,1.74,9.336c2.262,7.488,6.257,12.812,11.88,15.838,5.624-3.026,9.619-8.35,11.88-15.838a46.065,46.065,0,0,0,1.74-9.336l-13.621-6.81Z" transform="translate(-82.304 -88.844)" fill="#da3c4a"/>
        <path id="Path_21484" data-name="Path 21484" d="M75.656,12.115a1.518,1.518,0,0,0-.837-1.279L53.468.16a1.519,1.519,0,0,0-1.358,0L30.759,10.836a1.518,1.518,0,0,0-.837,1.279,53.81,53.81,0,0,0,2.154,16.3,39.78,39.78,0,0,0,6.522,13.2A30.868,30.868,0,0,0,52.249,51.74a1.52,1.52,0,0,0,1.08,0A30.868,30.868,0,0,0,66.981,41.618,39.781,39.781,0,0,0,73.5,28.42a53.808,53.808,0,0,0,2.154-16.3ZM53.462,45.063a1.518,1.518,0,0,1-1.346,0C45.353,41.719,40.6,35.653,38,27.033A49.582,49.582,0,0,1,36.064,16.01a1.519,1.519,0,0,1,.837-1.453l15.21-7.6a1.519,1.519,0,0,1,1.358,0l15.21,7.6a1.519,1.519,0,0,1,.837,1.453,49.582,49.582,0,0,1-1.937,11.023c-2.6,8.62-7.353,14.686-14.115,18.03Z" transform="translate(0)" fill="#da3c4a"/>
      </g>
    </g>
  </g>
</svg>
