<svg xmlns="http://www.w3.org/2000/svg" width="69" height="69" viewBox="0 0 69 69"><defs><style>.a{fill:#f6f6f6;}.b{fill:#e21f26;stroke:#e21f26;stroke-width:0.5px;}</style></defs><g transform="translate(-513 -2461)"><circle class="a" cx="34.5" cy="34.5" r="34.5" transform="translate(513 2461)"/><g transform="translate(4404.785 1418.902)"><path class="b" d="M-3849.194,1104.731c-.6-.414-1.2-.817-1.786-1.243a21.991,21.991,0,0,1-6.489-7.484,1.155,1.155,0,0,0-1.206-.7c-4.175.028-8.35.015-12.525.015-.956,0-1.125-.173-1.125-1.145q0-5.062,0-10.124c0-.852.2-1.055,1.046-1.055h7.237c.009-.185.021-.332.021-.479q0-2.552,0-5.1c0-.858.2-1.06,1.039-1.06h7.269v-.512q0-3.216,0-6.431c0-.834.195-1.027,1.024-1.027h7.673c.747,0,.965.216.965.957q0,5.85,0,11.7v.481c1.081.217,2.138.4,3.179.644a20.937,20.937,0,0,1,5.343,2.074,2.559,2.559,0,0,1,.448.408v.747a1.9,1.9,0,0,0-.082.311,26.616,26.616,0,0,1-1.177,5.7,24.773,24.773,0,0,1-5.091,9.014,22.572,22.572,0,0,1-5.266,4.315Zm-.232-21.988c-.567.049-1.672.106-2.766.247a20.982,20.982,0,0,0-6.211,1.8c-.917.427-.912.437-.837,1.423.007.1.012.193.025.289a25.952,25.952,0,0,0,2.387,7.885,21.451,21.451,0,0,0,7.633,8.711.427.427,0,0,0,.549.02,20.378,20.378,0,0,0,4.778-4.256,24.8,24.8,0,0,0,5.38-13.273c.033-.3-.1-.406-.331-.523A23.5,23.5,0,0,0-3849.426,1082.743Zm-4.9-13.014v12.289a25.467,25.467,0,0,1,6.9-.576v-11.713Zm-4.2,24.2c-.069-.176-.122-.314-.178-.45a28.069,28.069,0,0,1-2-8.292c-.055-.606.021-.791.594-1.037,1.34-.576,2.692-1.124,4.048-1.66.256-.1.37-.2.363-.49-.021-.912-.008-1.825-.008-2.737v-1.55h-6.907v16.217Zm-5.524,0v-9.573h-6.874v9.573Z" transform="translate(-1.859 -7.135)"/><path class="b" d="M-3856.851,1056.423c-1.058,0-2.008,0-2.958,0a.635.635,0,0,1-.668-.56.608.608,0,0,1,.392-.7,1.011,1.011,0,0,1,.4-.06q2.011-.006,4.023,0c.573,0,.808.222.813.8q.015,2.012,0,4.024c0,.533-.255.819-.675.813s-.661-.308-.666-.833c-.006-.719,0-1.437,0-2.23-.138.1-.234.165-.32.239l-17.743,15.114a3.961,3.961,0,0,1-.52.409.614.614,0,0,1-.826-.125.579.579,0,0,1-.028-.828,7.59,7.59,0,0,1,.76-.7q8.791-7.492,17.583-14.981C-3857.165,1056.706-3857.053,1056.6-3856.851,1056.423Z" transform="translate(0 0)"/><path class="b" d="M-3826.342,1108.974c.895,0,1.722,0,2.549,0s1.027.214,1.028,1.035q0,1.868,0,3.735c0,.843-.216,1.061-1.046,1.062h-2.53c0,.843,0,1.64,0,2.438,0,.96-.174,1.134-1.135,1.134-1.245,0-2.489,0-3.733,0-.707,0-.95-.242-.954-.943,0-.856,0-1.711,0-2.628h-1.632c-.359,0-.719.007-1.079,0-.6-.015-.857-.27-.861-.873q-.012-2.054,0-4.108c0-.582.257-.835.838-.845.747-.014,1.493,0,2.24,0h.492v-1.408c0-.415,0-.83,0-1.245.008-.665.241-.915.89-.919q2.033-.012,4.065,0c.616,0,.854.244.864.856.011.733,0,1.466,0,2.2Zm-8.007,4.466c.882,0,1.722,0,2.564,0,.75,0,.98.238.982,1,0,.58,0,1.161,0,1.742v.8h3.1c0-.9,0-1.768,0-2.635,0-.649.254-.9.9-.909.276,0,.552,0,.829,0h1.812v-3.107c-.863,0-1.7,0-2.542,0-.785,0-1-.223-1-1.016q0-1.258,0-2.52h-3.1c0,.863,0,1.692,0,2.521,0,.792-.222,1.014-1.006,1.015-.839,0-1.678,0-2.541,0Z" transform="translate(-21.515 -27.025)"/></g></g></svg>