<svg xmlns="http://www.w3.org/2000/svg" width="4in" height="327.761" viewBox="0 0 0.376 0.321" shape-rendering="geometricPrecision" text-rendering="geometricPrecision" image-rendering="optimizeQuality" fill-rule="evenodd" clip-rule="evenodd"><defs><style>.str0{stroke:#fff;stroke-width:.0141971}.fil2{fill:none;fill-rule:nonzero}.fil0{fill:#b01117}.fil3{fill:#0d422f}.fil1{fill:#fff;fill-rule:nonzero}</style></defs><symbol id="Fm24-51-0" viewBox="12.961 -0.37 0.744 0.372"><path class="fil0" d="M12.96-.37a.371.371 0 1 0 .745 0h-.744z"/></symbol><symbol id="Symbol13" viewBox="10.179 -11.899 0.744 0.372"><path class="fil0" d="M10.18-11.9a.371.371 0 1 0 .743 0h-.744z"/></symbol><symbol id="Symbol15" viewBox="6.256 -8.877 0.744 0.744"><path class="fil1" d="M6.972-8.575v.002h-.003c-.002 0-.001 0-.003-.002h-.003l-.002-.001v.003h-.005c.002.002.003 0 .004.004 0 .003 0 0-.002.001s-.01.004-.01.007l-.003-.001h-.002l-.002.001h-.004l-.002.005h.002v.004c-.002-.002-.003.001-.002.003-.003-.001-.003.004-.006.006-.002 0-.002 0-.002-.002v-.008c0-.004.004-.005.007-.008.003-.002.003-.004.005-.006-.003 0-.004.004-.007.005 0-.003-.002-.004-.005-.002l-.003.003.001.002H6.912c-.005 0-.007.001-.01.005L6.9-8.55l-.001.002v.001c.002 0 .003.002.003 0 .004 0 .003.002.005.003v-.005h.001c0 .014.003.011.003.011-.005 0-.002.003-.001.006l-.002-.001-.001.001c0-.002 0-.016-.002-.009 0 .003 0 .004-.002.006a.034.034 0 0 1-.005.007l-.003.001h-.003l-.002.003-.001.003h-.001c0 .004.002.004.002.006 0 .003-.003.005-.005.004 0-.001.001-.007-.003-.006 0-.002.002-.002 0-.003l-.005.002c.001-.004.002-.004-.001-.002l-.003.001c-.002.003.002 0 .002.004 0 0 0-.002.002-.002.002.001.002.001.001.002 0 .002-.003 0-.003.003 0 .002.002.004.003.005v.005c0 .003-.004.007-.006.008a.011.011 0 0 1-.004.003l-.005.001s0 .007-.003.005l.001-.005c-.006 0-.006.005-.003.008.002.003.004.005.002.008l-.005.005-.001-.003-.002-.001c-.001-.002-.001-.002-.003-.002-.002-.001 0-.003-.002-.001v.005c0 .003.003.003.004.005.002.001.002.005.003.007-.003.002-.005-.005-.006-.007l-.003-.003v-.005c0-.002-.001-.008-.003-.008 0 0-.002.002-.003.001-.002-.001 0-.004-.002-.004a.016.016 0 0 0-.003-.006l-.005.002-.01.009-.001.001v.007c-.002.002-.003.004-.005.003l-.003-.008-.003-.006v-.004c-.002-.002-.001 0-.003 0 0 0-.006-.003-.001-.003-.003 0-.003-.001-.005-.002-.003-.002-.004-.001-.007-.001l-.007-.001-.001-.002h-.003c-.003 0-.004-.002-.006-.003-.002-.002-.004-.003-.004 0a.01.01 0 0 0 .004.004l.004.002c-.005.001 0 .001.002.001 0-.002 0-.002.002-.003v.004c.003-.002.002 0 .003 0l.003.003c-.002 0-.002 0-.002.003l-.003.003c-.002.002-.003.001-.005.002l-.005.003-.007.003c-.004 0-.002-.002-.004-.006 0-.002-.004-.004-.005-.006-.002-.004-.003-.008-.007-.012-.002.003-.003-.003-.005-.004h.003a.008.008 0 0 0 .003-.004c.001-.003.001-.005-.002-.005v.001h-.004-.005v.001s-.003-.013-.006-.008h-.002l.002.004v-.001h.002c-.002 0-.005.006-.006.001h-.002.001l-.002-.005-.005-.004c-.002-.001-.006-.006-.006 0 .001 0 .004 0 .004.002a.01.01 0 0 1 .006.004h-.003.001c0 .003-.005.008-.007.004.009 0 .002-.004-.001-.007-.002-.001-.003-.004-.005-.004l-.003.002h-.004v.002l-.005.003-.001.002v.002h-.001l-.007.004-.003-.001-.002-.003v-.008c.004-.002.015.003.01-.006l-.003-.003s-.002 0 0-.001c0-.002.005.001.003-.003h.003l.002-.002c.001-.001.005-.001.003-.004l.005-.001c.003-.002.002 0 .002-.004v-.004c.002-.002.003-.001.003.001v.002l.003-.001c0 .005-.003 0-.004.004h.003c0-.002.004 0 .005 0 .003 0 .004-.003.006 0-.001-.003 0-.002.002-.002 0-.001 0-.005.002-.006.002 0 .002.004.004 0l-.002-.002s-.002.003-.003 0h.001l.004-.002.008-.001c-.004-.002-.01.002-.013-.001-.004-.005.005-.007.005-.01 0-.002-.003-.003-.004-.002-.002 0-.002.003-.002.004l-.004.003c-.002.002 0 .004 0 .006.002 0 0 .001 0 .003l-.003.003h.002v.001l-.004.002s0 .002-.002.001v-.001l-.004-.007c-.003.003-.004.002-.007.002v-.001c-.003 0 .002-.003-.002-.003 0-.003.001-.005.005-.006v-.001l.005-.003h-.001l.002-.002c0-.003.004-.007.006-.007l-.006.001.003-.002.002-.002c0 .002 0 .001.002.002v-.003c.001.003.002 0 .002-.001.001 0 .003 0 .003.002v-.002h.003c-.002 0-.002-.002.001-.002l.004-.001.001.002v-.002h.002v.002c.001 0 0-.002.003 0 0 0 .002 0 0 0 0 .002.005 0 .004.003h.007c.001.001.005.002.005.004.002.006-.011.001-.013.001l.005.005c0 .002 0 .002.002.003h.003c0-.002-.005-.002-.002-.003l.005.001-.001-.002.003-.002h.003l-.001-.006c.002 0 .007.002.003.002 0 .005.005 0 .005 0l.007-.004c-.001.005.008-.002.008.002.005-.002-.003-.005 0-.006l.006.002.006.002s.002.003.002.001l-.001-.002-.002-.001v-.003l.003-.005c.002-.002.006-.001.005.001 0 .003 0 .01.002.01 0 0 0 .002-.002.003l-.004.002h.005l.002-.003v-.002c.005-.004.004.004.007.002H6.81c0-.003 0-.004-.002-.005-.003 0-.002.002-.004 0v-.006c0-.001.002 0 .001-.003h.001v.004l.005.001c0-.001-.006-.003 0-.002l-.002-.002h.005l.002.002c.003 0-.002-.003-.003-.004.003-.003.007 0 .01-.002.002-.002-.002 0 0-.003l.003-.001.004-.001.004-.003.004.001.006-.002c.002-.002.003-.004.007-.003l-.001.001h.003v.002c.001-.001.01-.002.01.003a.032.032 0 0 1-.01.007s.004 0 .004-.002c.002 0 .003-.003.005-.002l-.002.002h.006c.003-.004.016-.005.02-.007.003 0 .008-.005.01 0 .001.002-.009.004-.011.005a.047.047 0 0 0-.006.002h.007v.005l.003.003.003-.003h.004l.003.001v-.001h.003L6.9-8.59c.003-.001.002-.002.006-.002l.005.001c-.002.004.002 0 .005.001v.001l.005.002h.006c.005-.001.005.002.007.005v-.002h.007c.002 0 .003-.002.005 0-.006.003.004.001 0 0 .003-.003.01-.002.014 0l.004.002.003.002h.001v.003c.003 0 .002 0 .001-.001h.006c.002.004-.002.002-.003.003zm-.119.126l-.005-.005-.004-.006-.005-.005h.003c.003 0 .011.008.011.01.002 0 .004 0 .004.002-.002.001 0 .004-.004.004zm-.152-.064c.002 0-.001.003-.003.004l.003-.004zm.072.044c0 .003 0 .003-.002.005a.025.025 0 0 1-.005.006c-.003.003-.008.007-.009.01l.002.01c.001.003 0 .006-.002.01-.001 0-.006.002-.006.004 0 .003.003.004 0 .007l-.003.002v.004a.023.023 0 0 1-.003.005c-.003.003-.013.009-.017.005v-.006c-.002-.003-.005-.005-.006-.009a.04.04 0 0 0-.003-.008c-.003-.006 0-.006 0-.01.001-.006-.002-.016-.007-.017a.009.009 0 0 0 .002-.006c0-.004 0-.002-.004-.003-.003 0-.002-.001-.004-.002H6.7c-.002.001-.002.002-.005.002h-.008l-.004-.002a.087.087 0 0 1-.007-.006l-.002-.006v-.006-.001h-.002c0-.003.003-.007.004-.008l.003-.005.003-.002c.001-.002 0-.004.002-.006 0-.001.003.001.002-.003h.002c0-.004.002-.002.005-.002l.006-.002h.005c.001-.002.003-.007.006-.004-.002.001-.002.002-.002.003h.006l-.001.001v.005l.007.002v.001h.005c.003 0 .002.001.002-.003l.013.003c.003 0 .004-.001.006.002.003.004.003.007.005.011l.005.01.006.005c.003.003.004.002.009.002.003 0 .002-.001.002.002zm-.115-.063c-.003-.001.001-.004-.004-.003v-.002h.005c-.001-.003-.002-.003-.004-.002-.002 0 0-.005.004-.003.002-.003 0 0 .002 0h.004c.005.001.014-.005.013.002l.003.001c-.001.004-.003.001-.006.004-.004.002-.005.003-.01.003h-.007zm-.023-.018s-.002-.002-.003-.001c0 0-.014.018-.014.01-.001 0-.002-.002-.002.002-.006 0-.005.005-.007.01 0 .002-.003.001-.003.002v.003c0 .002 0 .007-.002.008-.001.001-.012-.002-.014-.004-.005-.003-.007-.01-.005-.015l-.003.002-.001-.003c-.001-.001.002-.002.001-.003H6.58s-.008-.01-.001-.009c0-.003.002-.004.005-.003-.002-.005 0-.008-.007-.007.005 0 .003.004 0 .004-.006 0-.003-.004-.004-.006.003-.002.007 0 .01 0-.004-.008-.016 0-.011-.01H6.57a.023.023 0 0 0-.01-.016c-.004-.002-.017-.003-.02-.001v.001l-.005-.002v-.001l-.005-.002c0-.003.01 0 .011-.004-.005 0-.022 0-.013-.006.003-.002.008-.001.01-.002l.006-.001s.002-.006 0-.006H6.54c0-.002.003-.002.005-.003l.01-.004.001-.004h.004c.003.001.005.003.008.003-.002-.002-.005-.003-.007-.003.002 0 .01-.005.012-.003.003 0 .001.005.001.005.003.002.003-.003.002-.005.004 0 .006.003.01.004 0-.002-.004-.004-.004-.005.006 0 .01.004.016.004.003 0-.007-.005-.006-.005-.002-.003.003 0 .004 0 0-.002-.002-.001-.003-.003a.033.033 0 0 1 .01-.002c.004 0 .006.002.009.001.005 0 .001-.002.005-.003.003-.001.03-.004.031 0-.006.001-.015 0-.019.003h.03v.002c-.006 0-.028.002-.03.006.006.001.015-.005.02-.001-.002 0-.004 0-.004.002.003 0 .006 0 .006-.004.009.002.006.003.001.009l.012-.005a.08.08 0 0 1 .01-.003h.008c.002.004-.003.003-.004.004-.004.003-.007.003-.011.004h.006c-.001.002-.018.013-.013.017 0 0 .005-.003.007 0l-.004.002c.007 0 .005.001.004.007-.001-.003.001-.003-.002-.005 0 0-.004 0-.004.002-.001.002.006.002.006.006-.006 0-.001.004 0 .005l-.008.002c0 .002.009 0 .003.004-.002.002-.007 0-.009 0h.002l-.002.002c.003-.001.005-.001.006.001.002.005-.004.002-.005.002.002.001.007.006.006.008 0 .005-.007-.001-.006-.001-.012 0 0 .008.004.004-.001.004-.01.006-.014.007-.003.002-.003.004-.008.003zm-.113.17c-.001.001-.004 0-.006-.002l.006.001zm-.01-.01l-.005-.002-.004.002c-.003-.002-.004-.002-.001-.004s.008 0 .01 0c.004.002.013.004.015.007a.04.04 0 0 1-.016-.002zm.023.01c-.002 0-.005 0-.004-.004 0-.003.005 0 .008 0 .004 0 .01-.001.012.001-.004.002-.011.002-.016.003zm.022-.096c-.002.004-.004 0-.006-.001l.006.001zm.021.01l-.006-.004c-.002 0-.006.002-.007 0l.007-.012c.003-.002 0 .005 0 .005.006.002.01.004.006.01zm-.075-.058c0 .002-.001.003-.003.003-.004 0 .002-.003.003-.003zm.004.003c.008-.006.002.01 0 0zm.013-.025c.002.003-.003.004-.005.003-.003-.004.003-.006.005-.003zm.066.213c0 .003-.003.004-.005.007-.001.003 0 .01-.002.014-.002.003-.003.003-.007.004a.011.011 0 0 0-.006.004c-.002.003 0 .009-.005.011v-.001c-.001 0-.002.005-.004.006-.002.002-.004.001-.008 0 .001.004.004.003.003.006-.002.004-.006.004-.01.004.002.003 0 .005-.003.003 0 .005.002.002.001.004l-.001.003v.002h-.004c-.001.004.003.003.003.005l-.003.006c-.003 0-.001.004 0 .006 0 .002.004.003.004.004h-.01l-.004-.006h-.001v-.001c0-.002-.004-.007.001-.007l-.003-.003.001-.003.001.002v-.004l.001.002c0-.003 0-.005.002-.007-.002 0-.003.005-.004.002v-.002-.002l.003-.01v-.009l.002-.008c0-.005.002-.013-.002-.016l-.007-.005-.004-.008a.019.019 0 0 0-.002-.003l-.003-.002c-.001-.003.001-.004.002-.006-.002 0-.001-.001-.002-.004a.016.016 0 0 0 .006-.005v-.006c-.002 0-.004 0-.003.004l-.014-.006c-.002-.002-.004-.007-.008-.01 0 0-.007 0-.01-.002-.001 0-.003-.004-.005-.004H6.47c-.005 0-.03-.009-.024-.013l-.013-.016c-.004-.004-.01-.014-.014-.013 0 .006.018.02.013.025a.031.031 0 0 0-.006-.008l-.005-.004c-.002-.002 0-.003 0-.004l-.007-.012c-.003-.004-.008-.004-.012-.007a.041.041 0 0 1-.01-.025c0-.004.003-.009 0-.014-.002-.005-.006-.006-.01-.01.007 0 .012.006.016.01 0-.004-.004-.008-.008-.01-.005-.003-.006-.003-.01-.008l-.006-.01-.004-.001-.002-.004c-.007-.001-.011-.007-.018-.01h-.012c-.003-.001-.009-.006-.01-.002l.002.002a.02.02 0 0 0-.01.003c0-.003.001-.005.005-.006-.005-.003-.007.004-.011.006l.002.003c-.008.005-.022.019-.03.017.005-.008.018-.006.02-.018h-.004c-.001.002-.005.001-.009.002.001-.002 0-.005-.001-.006-.004.006-.01-.004-.01-.007.002-.009.014-.002.013-.012-.003 0-.008.003-.011.002-.003 0-.003-.003-.007-.005.003-.003.007-.002.01-.005 0 .004.003.004.006.003-.002-.005-.007-.005-.01-.008-.004-.006 0-.002.004-.006.004-.002.004-.005.01-.007.003 0 .008-.004.012-.003v.001l.017.002.017.002c.008 0 .011.004.02.002.004-.001.01-.004.014-.004-.003.003-.007.003-.01.006a.07.07 0 0 1 .013-.006s0-.002.002-.002l.003.003c.002 0 .003.003.004-.001.002.005.006 0 .011.001a.06.06 0 0 1 .018.006c-.002 0-.003.002-.003.002.006 0 .017-.002.02.006 0-.006-.003-.006.002-.008.004-.002.004 0 .008 0 .005.002.012.004.015-.002l-.004-.002.003-.004c.003 0 .005.002.005.005h-.002c.002.002 0 .002.002.003 0 .003 0 .002.003.004-.002-.005.004-.004.004-.009-.003.003-.005.003-.006 0 .007.001-.006-.006 0-.01.007-.006.007.003.01.006.001.003.005.004.006.004s.003 0 .005.002c0 0-.002.004 0 .005.006.003.006-.01.008-.012-.003 0-.01-.001-.012-.004h.005c-.003-.004-.009 0-.006-.008.002-.006.007-.006.012-.006-.005.002-.006.013.001.011-.003-.004-.004-.01.003-.01.004-.002.004-.002.007.002.001.002-.002.003 0 .005.002 0 .01-.004.013-.003.005.001.005.005.012.005l-.001.002.009.002-.001.002.004.002-.002.001h.003c-.01.003.011.008.013.011.003.003.002 0 0 .003l-.004.004c-.003.002-.001 0-.006-.002-.003-.002-.004-.004-.007 0l.011.01-.001.004-.01-.005c.001.003.006.005.006.008-.004-.002-.01-.002-.013-.004-.003-.003-.004-.007-.01-.007-.001 0-.008.005-.008 0-.001-.004.008-.003.011-.003-.003-.005.004-.005.003-.009 0-.002-.003-.005-.005-.006-.005-.003-.008-.006-.013-.007l.002.002c-.005.002-.01 0-.014 0 .003.002.012.006.005.008.003.004.001.009-.004.01l-.003.001c.001.003.017.008.009.01-.001 0-.002-.002-.004-.001a.025.025 0 0 0-.004.001c-.003 0-.004 0-.007-.002.003-.002.007-.012 0-.011.007.006-.007.003-.01.003.003.001.006.003.01.003 0 .003-.003.006-.007.004 0 .004-.008.001-.011 0 .001.001.008.002.008.004.001.002-.003.003-.005.005a.016.016 0 0 0-.004.008c0 .005.001.003.004.007l.002.004h.004c.003 0 .005.001.008.003l.015.004c0 .004.002.014.007.014s.003-.01 0-.014c.01 0 .01-.011.003-.014v-.004h.003c-.006-.008-.001-.012.007-.01.007.001.015.004.012.013.005-.001.004.003.008.002s.004-.005.006-.008c.002.003.01.012.007.014.003.004.008.006.012.006-.002.003-.006.002-.008.005.004 0 .01-.004.012.001s-.004.006-.007.007c-.004.002-.004.003-.009.003h-.01c-.005.002-.007.009-.013.008h.003a.018.018 0 0 0-.004.006c.004-.003.014-.014.018-.008.002.002-.004.005.002.008.005.003.006 0 .01-.002-.001.004-.007.008-.012.009 0 0-.006.004-.004 0 .001-.002.006-.004.007-.004-.006-.001-.022.005-.017.013-.003 0-.008.001-.01.003l-.003.008c-.003-.002-.002 0-.004 0 .001.003.003.004.002.008-.002.003-.007.004-.01.008-.004.004.002.021-.001.022-.003 0-.007-.013-.01-.014h-.006c-.003-.001-.009-.002-.007.003-.006.002-.014-.005-.02.003-.003.005-.002.02.004.025.003.003.009.004.012.002.004-.004 0-.008.007-.009.007 0 .003.011 0 .015.003.001.01-.002.014.002.003.005-.004.01.003.014l.009.001c0-.004.008-.008.01-.008-.001.001-.002.005 0 .006v-.003s.002 0 .002-.002c.003 0 .005.003.008.003 0 0 .004-.003.006-.001-.003.001 0 .002.001.001 0 .003.006.006.009.006.003 0 .008.001.008.006.003 0 0 .004 0 .005l.001-.002h.003l-.001.003h.004a.01.01 0 0 1 .004.001c-.002.001.004 0 .005.001.003 0 .004 0 .007.003.002.002.002 0 .003.003v.003zm-.271-.162c-.003-.003.001-.004.004-.006v.003a.01.01 0 0 1-.004.003zm-.031-.01c-.006 0-.003-.004 0 0zm.107-.069c.002-.002.014 0 .016.001.009.002.007.003 0 .006-.004.003-.006.01-.01.009-.001 0-.002 0-.003.002a.009.009 0 0 0-.007-.005c.002-.003.003-.012.004-.013zm.016-.008c-.001.003 0 .002-.004.002l.002-.002h.002zm.006-.008c0 .002-.002.004-.004.005 0 0-.002.001-.003-.001-.003.003-.008.008-.012.003.008-.002.01-.01.019-.007zm.004-.002c-.002 0-.003 0-.003-.002.002-.001.002 0 .003.002zm.002.006c-.002 0-.003-.001-.003-.002h.003v.002zm.01-.008l-.003.001c.002.003-.001.003-.004.003-.001 0-.002 0-.003-.002.003-.002.006-.003.01-.002zm0-.002h-.01c.003-.002.008-.004.01 0zm.01.014c.001.004-.011.006-.015.007-.001 0-.006.002-.007 0 0-.003.006-.002.007-.003-.003 0-.012.002-.014 0-.003-.002.001-.006.005-.007l.016.004h-.003c-.002-.004 0-.007.004-.006l.007.005zm.003-.008c-.002 0-.004 0-.004-.003.002 0 .003.001.004.003zm.013-.003c-.004-.002-.012-.002-.014-.005h.002L6.44-8.6c.005-.002.018 0 .016.008zm.002-.012h-.004v-.003c.002 0 .003.001.004.003zm.008.01c-.004.001-.006 0-.007-.004.002 0 .014.002.007.004zm-.001-.015h.003s0-.002-.002-.002l.006-.001c0-.002-.002-.001-.003-.001 0-.003.018.006.017.005.006.004.008.009 0 .008 0 .002-.001.002-.002.003a.014.014 0 0 1-.015-.003l.007-.002c-.004-.002-.009 0-.012-.003v-.004zm.054.039l-.006.002c-.004.001-.006 0-.007-.004.005 0 .01-.001.013.002zm-.043-.02v-.002c.003 0 .004-.001.006.001a.008.008 0 0 1-.006 0zm.004.014c-.006-.002-.003-.006-.006-.01.007-.003.008.005.016.005.003 0 .015-.005.018 0 .004.006-.026.005-.028.005zm-.011.003c.002-.002.008 0 .011.001-.002.003-.003.006-.007.005 0 .002-.001.002-.002.003-.005.002-.004-.007-.002-.009zm.004-.006c0 .005-.007.002-.008 0 0-.001.007-.004.008 0zm-.008-.012c.001-.003.004-.003.008-.002v.001a.032.032 0 0 1-.008.001zm.001.002c.004 0 .008.001.005.005-.003 0-.011-.004-.005-.005zm-.017.022c.004.002.007 0 .003-.004l.007-.002c.002.001.006.004.001.005.006.003.005.009-.001.009-.003-.001-.01-.005-.01-.008zm-.006 0c-.002 0-.003 0-.006-.003.003-.002.008-.001.006.003zm.002-.012c0 .004-.002 0-.003 0h.003zm.017.004H6.46s0-.002.001 0zm-.015-.018l.004.001h-.004zm.003.011v-.003l.006.002a.012.012 0 0 0-.003-.003c.003 0 .008-.001.008.003s-.002.005-.006.006c0-.003-.002-.004-.005-.003-.003 0-.007-.003-.007-.007.004 0 .005.004.007.005zm-.016.012s.002.002 0 0zm.007.023c0 .002-.002.002-.005.003h-.003a.022.022 0 0 1 .008-.003zm-.005-.001c-.004 0-.008.004-.012.003-.005-.001-.005-.004-.011-.003l-.002-.003.013-.003c-.002-.003-.012 0-.015-.002a.012.012 0 0 1 .006-.002c-.003-.002-.006 0-.01-.001.003-.004.003-.005.007-.007.003-.001.008-.004.006.002a.009.009 0 0 1 .008-.001v.002l.004-.001-.002-.003c.004 0 .004.006.006.006.005 0-.001-.004 0-.006.004-.004.008.005.01.006.002.005.004.005.01.008l-.005.002c.006.005-.01.002-.013.003zm.04-.069l.013-.003c.001 0 .004-.002.007-.001l.011.003c-.002-.003-.005-.003-.009-.003.003-.005.012-.004.016-.003 0-.005.014.001.015-.003l.01.002c.003 0 .017 0 .016.003 0 .005-.016.002-.018.005h.01c-.006.002-.013.01-.02.008l.003.003h-.008l.002.002c-.004.004-.009 0-.013.003v.001c.002-.002.009-.003.01 0l-.005.001c.003.004 0 .005-.004.004 0 .002 0 .003-.002.004v.002l.002-.001c0 .004-.007.006-.008.003-.005.001-.018.003-.021-.001.003-.002.004-.003.002-.006.005 0 .013.006.016-.001-.003.002-.006.003-.008 0h.003c-.015.002-.003-.01.005-.003l.002-.003c-.005 0-.013-.003-.013-.007.005 0 .012.005.017.003-.003 0-.005-.002-.008-.003v-.001c.004 0 .013-.001.016-.003h-.006a.01.01 0 0 1 .006-.003c-.005 0-.009.003-.014.004-.003 0-.017.003-.008-.003-.005.001-.005.004-.01.003l-.008-.004v-.002zm.271.008c-.008-.001.002-.004.005-.005l-.002.003.005-.002.001.003.002-.002c.002 0 .002-.003.006-.001v.002h.001l.013.007c0 .003.002 0 .004.002l-.006.003c-.001 0-.002-.003-.006 0 0-.002.003-.003.001-.005-.001-.001-.002.001-.001-.002h-.004c0 .003-.003.009-.007.011L6.752-8.6l.007-.003-.008.001c0-.003.008-.003.008-.003 0-.003-.006-.002-.006-.002l-.002.002c-.002.001-.003-.001-.004-.001 0 .004-.003 0-.004-.002.002 0 .002.001.003.002v-.004zm.027-.006c.001-.003 0-.002.004-.003l-.001.002c.003 0 .007-.002.01.001-.003.002-.017.009-.02.002h.005c-.001-.003-.006 0-.007-.002-.002-.003.007-.003.009 0zm.07-.007c.004 0 .007-.002.004.003-.003.003-.01.002-.006-.001-.002 0-.007.002-.008-.001l.01-.001zm.014 0l.002-.002.004-.001.004-.002-.002.003h.004c0 .004-.006-.002-.005.003-.004-.001-.009 0-.01.002 0-.002 0 0 .003-.002zm.007.003c-.001.003-.002 0-.003 0a.019.019 0 0 1 .008-.001c0 .001-.004.004-.005.001zm.007 0v.001s-.002.002-.003 0h.003zm0-.005c.004-.002.004 0 .006.003H6.87c0-.001.002 0 .001-.003zm.016 0c-.004 0-.006.005-.009 0 .003.001.006-.002.009 0zm-.259-.252a.372.372 0 1 0 0 .743.372.372 0 0 0 0-.743z"/></symbol><symbol id="Symbol28" viewBox="70.564 -161.548 0.744 0.872"><path class="fil1" d="M71.244-160.856a.39.39 0 0 1-.249.174.288.288 0 0 1-.117 0 .396.396 0 0 1-.251-.174c-.049-.087-.069-.316-.06-.415.017-.186.184-.277.37-.277.185 0 .351.091.37.277.008.1-.015.328-.063.415z"/></symbol><symbol id="Symbol29" viewBox="-3142.4 786.129 2358.3 2358.3"><path class="fil1" d="M-3142.4 3144.43c.044-6287.24.543-6287.68.744-.035-.21 0-.556-.043-.744.035z"/></symbol><symbol id="Fm25-52-0" viewBox="10.185 1.729 0.744 0.372"><path class="fil0" d="M10.185 1.729a.371.371 0 1 0 .744 0h-.744z"/></symbol><symbol id="Fm26-53-0" viewBox="10.185 3.854 0.744 0.372"><path class="fil0" d="M10.185 3.854a.371.371 0 1 0 .744 0h-.744z"/></symbol><symbol id="Symbol7" viewBox="10.179 -6.56 0.744 0.372"><path class="fil0" d="M10.18-6.56a.371.371 0 1 0 .743 0h-.744z"/></symbol><symbol id="Fm19-45-0" viewBox="6.253 -2.15 0.744 0.74"><path class="fil1" d="M6.632-1.786c-.009 0-.017-.001-.02-.011.005-.002.008-.005.01-.01a.08.08 0 0 0 .002-.024c0-.007 0-.016.003-.023.01-.022.052-.022.06 0a.07.07 0 0 1 .004.023c0 .008 0 .017.002.023.002.006.005.009.01.011-.003.01-.011.01-.02.011h-.051zm-.086-.076c-.003.044-.074.044-.077 0l-.002-.032c-.003-.044.084-.044.081 0l-.002.032zm.389-.122a7.975 7.975 0 0 1-.024.01l-.031.05-.035.01-.026-.024-.115.045-.005.002-.076-.058.042-.018.054.019.052-.025-.108-.062.055-.016.148.037a.695.695 0 0 1 .035-.013.37.37 0 1 0-.45.575v-.02l-.005-.164v-.031l.001-.07c0-.006-.01-.006-.01 0l-.003.145c-.015-.002-.024-.008-.028-.03l-.001-.132c.001-.033.026-.064.06-.064h.08a.072.072 0 0 1 .037.012l.033.024-.033.014c-.005.002-.008.01-.009.014l-.002.026h.005l.003-.023c0-.004.002-.007.006-.009a.16.16 0 0 1 .05-.011h.054c.031 0 .047.026.048.056l.007.117c-.004.02-.009.025-.023.027l-.009-.13c0-.005-.007-.005-.006 0l.004.076a.23.23 0 0 1 0 .034l-.012.158.002.023h.002v-.006a.38.38 0 0 0 .295-.363.366.366 0 0 0-.062-.205z"/></symbol><symbol id="Fm10-36-0" viewBox="788.101 406.808 316.567 0.397"><path class="fil1" d="M1103.92 407.199c.213.012.434.003.72-.006a1.556 1.556 0 0 1 .024-.386 6.75 6.75 0 0 0-.744.392z"/></symbol><symbol id="Fm13-39-0" viewBox="5.855 2.765 0.744 0.372"><path class="fil0" d="M5.855 2.765a.371.371 0 1 0 .744 0h-.744z"/></symbol><symbol id="Symbol6" viewBox="5.849 -5.524 0.744 0.372"><path class="fil0" d="M5.85-5.524a.372.372 0 1 0 .743 0H5.85z"/></symbol><symbol id="Fm1-35-0" viewBox="6.639 -3.201 0.744 0.562"><path class="fil1" d="M7.1-2.845c-.025.022-.011-.008 0-.015.01-.008-.007-.016.022-.027.029-.011.013-.02.025-.017 0 0-.02.038-.046.06zm.215-.343l-.045.018-.03.048.006.06c-.003.035-.01.058-.01.058a.134.134 0 0 0-.02-.088l-.023.007v.006c-.005.038-.063.053-.063.053-.008-.036-.002.017-.002.017l.032-.004c-.004.014.004.041-.049.072-.053.032-.034.064-.035.08 0 .018-.048.038-.048.038.002.02-.019.024-.019.024s.003-.012-.003.004c-.007.016-.048.03-.058.028-.008-.002-.043.016-.039-.022.005-.038-.032-.049-.01-.082s.013-.05.007-.065c-.006-.016-.015-.003-.003-.039.012-.035-.02-.029-.02-.029a.056.056 0 0 0-.01-.01 1.23 1.23 0 0 0-.234.17.384.384 0 0 0 .022.036l.002-.001.004.009a.396.396 0 0 0 .68-.4l-.032.012z"/></symbol><symbol id="Fm17-43-0" viewBox="10.185 -0.423 0.744 0.372"><path class="fil0" d="M10.185-.423a.371.371 0 1 0 .744 0h-.744z"/></symbol><symbol id="Symbol9" viewBox="10.179 -9.774 0.744 0.372"><path class="fil0" d="M10.18-9.774a.372.372 0 1 0 .743 0h-.744z"/></symbol><symbol id="Symbol19" viewBox="6.247 -12.32 0.744 0.74"><path class="fil1" d="M6.626-11.957c-.009 0-.017-.001-.02-.01.005-.003.008-.006.01-.011a.08.08 0 0 0 .002-.023c0-.008 0-.016.003-.024.01-.022.052-.022.06 0a.07.07 0 0 1 .004.024c0 .007 0 .016.002.023.002.005.005.008.01.01-.003.01-.012.011-.02.011h-.051zm-.086-.076c-.003.044-.074.044-.077 0l-.003-.032c-.002-.044.085-.044.082 0l-.002.032zm.389-.121a7.975 7.975 0 0 1-.024.01l-.031.05-.035.01-.026-.025-.115.045-.006.002-.075-.058.042-.018.054.02.051-.025-.107-.063.055-.015.148.036a.695.695 0 0 1 .035-.012.37.37 0 1 0-.45.575v-.02l-.005-.165v-.03l.001-.07c0-.007-.01-.007-.01 0l-.003.144c-.015-.002-.024-.007-.028-.03l-.001-.132c.001-.032.026-.064.06-.064h.08a.072.072 0 0 1 .037.013l.033.024-.033.014c-.005.001-.008.009-.009.014l-.002.025h.005l.002-.022c0-.005.002-.008.007-.01a.16.16 0 0 1 .05-.011h.053c.032 0 .048.026.049.056l.007.118c-.004.02-.009.025-.023.026l-.01-.13c0-.004-.006-.005-.006 0l.005.076a.23.23 0 0 1 0 .035l-.012.158.002.022h.002v-.005a.38.38 0 0 0 .295-.364.366.366 0 0 0-.062-.204z"/></symbol><symbol id="Fm21-48-0" viewBox="28.504 -7.202 0.109 0.872"><path class="fil1" d="M28.524-7.161l-.02.793c.036.014.072.027.109.039l-.021-.832c-.002-.054-.066-.054-.068 0z"/></symbol><symbol id="Fm4-57-0" viewBox="6.263 -1 0.744 0.744"><path class="fil1" d="M7.006-.628a.372.372 0 1 1-.743 0 .372.372 0 0 1 .743 0z"/></symbol><symbol id="Fm6-59-0" viewBox="10.98 -2.158 0.744 0.744"><path class="fil1" d="M11.724-1.786a.372.372 0 1 1-.744 0 .372.372 0 0 1 .744 0z"/></symbol><symbol id="Symbol21" viewBox="37.094 -80.379 0.12 1.092"><path class="fil1" d="M37.12-80.332l-.026 1.045.12-.012-.017-1.033c0-.062-.075-.062-.077 0z"/></symbol><symbol id="Symbol20" viewBox="5.849 -11.899 0.744 0.372"><path class="fil0" d="M5.85-11.9a.371.371 0 1 0 .743 0H5.85z"/></symbol><symbol id="Symbol22" viewBox="788.101 -1731.35 315.287 945.281"><path class="fil1" d="M1102.64-1730.96c.213.012.434.003.72-.006a1.556 1.556 0 0 1 .024-.386 6.75 6.75 0 0 0-.744.392z"/></symbol><symbol id="Symbol24" viewBox="6.165 -7.586 0.744 0.744"><path class="fil1" d="M6.902-7.214a.365.365 0 1 1-.73 0 .365.365 0 0 1 .73 0z"/><path class="fil2 str0" d="M6.902-7.214a.365.365 0 1 1-.73 0 .365.365 0 0 1 .73 0z"/></symbol><symbol id="Fm2-46-0" viewBox="6.861 -3.597 0.744 0.543"><path class="fil1" d="M6.909-3.304a.048.048 0 0 1-.008.047s.01.005.005.024c0 0 .021.012.019.035l.01.005s.001.01-.014.031a.094.094 0 0 0-.014.063s-.005-.004-.01 0a.342.342 0 0 1 .01-.2l.002-.005zm.258-.258a.34.34 0 0 1 .095-.015.39.39 0 0 1-.06.015c-.058.01-.062.017-.062.017s.001-.005.027-.017zm.055.063s.013-.008.012-.013c-.002-.004-.006-.016.008-.01 0 0-.008 0-.003.006s.008.01.007.018c0 0-.001.005-.024 0zm-.02-.007c-.012-.007.026-.014.02-.007 0 0-.006.014-.02.007zm-.153.31c-.017-.03-.017-.057-.002-.092.019-.046.06-.042.068-.062.009-.02.038-.022.038-.022a.05.05 0 0 0 .007.003.142.142 0 0 1 .003-.012c-.016-.012-.017-.007-.017-.007s-.004.02 0-.005c.003-.026.012-.03.012-.03a.148.148 0 0 0 .008.004l-.021-.012.117-.034.01.003c-.005-.005-.004-.012-.004-.012-.02.003-.015-.013-.015-.013s-.002.01.02-.004c.023-.014.03-.006.05.002.02.007.024.018.024.018.006-.017.054-.034.063-.04a.233.233 0 0 1 .095.102.643.643 0 0 1 .1-.032.417.417 0 0 0-.725.387c.047-.048.107-.1.169-.142z"/><path class="fil1" d="M7.298-3.483c-.024.007.007.023-.013.024l.034.008c-.002-.004-.01-.01-.012-.018-.005-.016.016-.02-.009-.014z"/></symbol><symbol id="Fm16-42-0" viewBox="10.185 0.653 0.744 0.372"><path class="fil0" d="M10.185.653a.371.371 0 1 0 .744 0h-.744z"/></symbol><symbol id="Symbol1" viewBox="10.179 -10.836 0.744 0.372"><path class="fil0" d="M10.18-10.836a.371.371 0 1 0 .743 0h-.744z"/></symbol><symbol id="Symbol3" viewBox="10.179 -7.622 0.744 0.372"><path class="fil0" d="M10.18-7.622a.372.372 0 1 0 .743 0h-.744z"/></symbol><symbol id="Symbol5" viewBox="6.854 -15.103 0.744 0.543"><path class="fil1" d="M6.902-14.81a.048.048 0 0 1-.008.046s.01.006.006.024c0 0 .02.012.018.035l.01.005s.001.01-.014.031a.094.094 0 0 0-.014.063s-.005-.003-.01 0a.342.342 0 0 1 .01-.2l.002-.004zm.258-.258a.34.34 0 0 1 .095-.015.39.39 0 0 1-.059.015c-.059.01-.063.017-.063.017s.001-.005.027-.017zm.055.063s.013-.008.012-.013c-.002-.005-.006-.017.008-.011 0 0-.008 0-.003.006.005.007.009.01.007.019 0 0-.001.005-.024-.001zm-.019-.008c-.013-.007.025-.013.02-.006 0 0-.007.013-.02.006zm-.154.31c-.017-.03-.017-.056-.002-.091.019-.046.06-.043.068-.062.01-.02.038-.023.038-.023a.05.05 0 0 0 .007.004.142.142 0 0 1 .004-.013h-.001c-.016-.012-.017-.007-.017-.007s-.004.02 0-.005c.003-.025.012-.029.012-.029a.148.148 0 0 0 .008.003l-.02-.012.116-.033.01.002c-.005-.004-.003-.011-.003-.011-.02.002-.016-.013-.016-.013s-.002.01.02-.005c.023-.013.03-.005.05.002.02.007.024.018.024.018.006-.016.054-.033.063-.039a.233.233 0 0 1 .095.102.643.643 0 0 1 .1-.032.417.417 0 0 0-.725.387c.047-.049.108-.1.169-.143z"/><path class="fil1" d="M7.291-14.99c-.024.007.007.023-.012.024l.033.009c-.002-.004-.01-.01-.012-.019-.005-.016.016-.02-.009-.013z"/></symbol><symbol id="Symbol8" viewBox="10.179 -5.497 0.744 0.372"><path class="fil0" d="M10.18-5.497a.371.371 0 1 0 .743 0h-.744z"/></symbol><symbol id="Symbol23" viewBox="6.256 -11.189 0.744 0.744"><path class="fil1" d="M7-10.817a.372.372 0 1 1-.744 0 .372.372 0 0 1 .744 0z"/></symbol><symbol id="Symbol26" viewBox="28.219 -62.55 0.619 1.092"><path class="fil1" d="M28.535-61.47l-.016-.001.016.002zM28.837-62.008l-.065-.47a.065.065 0 0 0-.03-.033.588.588 0 0 0-.421 0 .073.073 0 0 0-.03.033l-.07.471c-.014.031.064.056.085.028l.05-.348.018.002-.008.31.008.523c.039.007.078.012.118.017l.02-.43c0-.031.037-.031.039 0l.02.439c.038.003.077.007.116.008l.009-.558-.006-.3h.015l.047.342c.02.028.098-.002.085-.034z"/></symbol><symbol id="Symbol27" viewBox="12.955 -9.721 0.744 0.372"><path class="fil0" d="M12.955-9.72a.371.371 0 1 0 .744 0h-.744z"/></symbol><symbol id="Fm8-61-0" viewBox="6.167 0.155 0.744 0.744"><path class="fil1" d="M6.904.527a.365.365 0 1 1-.73 0 .365.365 0 0 1 .73 0z"/><path class="fil2 str0" d="M6.904.527a.365.365 0 1 1-.73 0 .365.365 0 0 1 .73 0z"/></symbol><symbol id="Fm23-50-0" viewBox="70.65 -19.157 0.744 0.872"><path class="fil1" d="M71.33-18.466a.39.39 0 0 1-.25.174.288.288 0 0 1-.117 0 .396.396 0 0 1-.25-.174c-.05-.087-.07-.315-.061-.414.018-.186.184-.278.37-.278s.352.092.37.278c.008.099-.014.327-.063.414z"/></symbol><symbol id="Symbol11" viewBox="5.849 -8.698 0.744 0.372"><path class="fil0" d="M5.85-8.698a.371.371 0 1 0 .743 0H5.85z"/></symbol><symbol id="Fm11-37-0" viewBox="-3142.4 786.129 2358.3 441.956"><path class="fil1" d="M-3142.4 1227.25c.036 1.29.447.927.612-.028-.173 0-.457-.037-.612.028z"/></symbol><symbol id="Symbol14" viewBox="5.849 -10.836 0.744 0.372"><path class="fil0" d="M5.85-10.836a.371.371 0 1 0 .743 0H5.85z"/></symbol><symbol id="Fm0-34-0" viewBox="5.855 -2.548 0.744 0.372"><path class="fil0" d="M5.855-2.548a.371.371 0 1 0 .744 0h-.744z"/></symbol><symbol id="Symbol16" viewBox="5.849 -7.649 0.744 0.372"><path class="fil0" d="M5.85-7.649a.371.371 0 1 0 .743 0H5.85z"/></symbol><symbol id="Symbol2" viewBox="6.161 -9.839 0.744 0.744"><path class="fil1" d="M6.898-9.467a.365.365 0 1 1-.73 0 .365.365 0 0 1 .73 0z"/><path class="fil2 str0" d="M6.898-9.467a.365.365 0 1 1-.73 0 .365.365 0 0 1 .73 0z"/></symbol><symbol id="Fm5-58-0" viewBox="10.185 -1.486 0.744 0.372"><path class="fil0" d="M10.185-1.486a.371.371 0 1 0 .744 0h-.744z"/></symbol><symbol id="Fm15-41-0" viewBox="5.855 3.827 0.744 0.372"><path class="fil0" d="M5.855 3.827a.371.371 0 1 0 .744 0h-.744z"/></symbol><symbol id="Fm28-55-0" viewBox="10.185 -2.548 0.744 0.372"><path class="fil0" d="M10.185-2.548a.371.371 0 1 0 .744 0h-.744z"/></symbol><symbol id="Fm18-44-0" viewBox="5.855 -1.486 0.744 0.372"><path class="fil0" d="M5.855-1.486a.371.371 0 1 0 .744 0h-.744z"/></symbol><symbol id="Symbol17" viewBox="5.849 -6.586 0.744 0.372"><path class="fil0" d="M5.85-6.586a.371.371 0 1 0 .743 0H5.85z"/></symbol><symbol id="Fm7-60-0" viewBox="5.855 0.653 0.744 0.372"><path class="fil0" d="M5.855.653a.371.371 0 1 0 .744 0h-.744z"/></symbol><symbol id="Fm20-47-0" viewBox="30.077 -7.265 0.096 0.872"><path class="fil1" d="M30.099-7.227l-.022.835.096-.01-.013-.825c0-.05-.06-.05-.061 0z"/></symbol><symbol id="Fm14-40-0" viewBox="6.171 2.408 0.744 0.744"><path class="fil1" d="M6.908 2.78a.365.365 0 1 1-.73 0 .365.365 0 0 1 .73 0z"/><path class="fil2 str0" d="M6.908 2.78a.365.365 0 1 1-.73 0 .365.365 0 0 1 .73 0z"/></symbol><symbol id="Fm22-49-0" viewBox="22.978 -5.913 0.495 0.872"><path class="fil1" d="M23.23-5.049l-.012-.002.013.002zM23.472-5.48l-.052-.376a.052.052 0 0 0-.024-.025.47.47 0 0 0-.337 0 .058.058 0 0 0-.024.026l-.056.376c-.01.025.051.045.068.023l.041-.278.014.001-.006.248.006.417c.03.006.062.01.094.014l.016-.343c0-.025.03-.025.03 0l.017.35c.03.003.062.006.093.007l.007-.446-.005-.24h.013l.036.273c.017.023.08-.001.069-.026z"/></symbol><symbol id="Symbol12" viewBox="5.849 -9.774 0.744 0.372"><path class="fil0" d="M5.85-9.774a.371.371 0 1 0 .743 0H5.85z"/></symbol><symbol id="Fm27-54-0" viewBox="10.185 2.791 0.744 0.372"><path class="fil0" d="M10.185 2.791a.371.371 0 1 0 .744 0h-.744z"/></symbol><symbol id="Fm3-56-0" viewBox="5.855 -0.423 0.744 0.372"><path class="fil0" d="M5.855-.423a.371.371 0 1 0 .744 0h-.744z"/></symbol><symbol id="Fm9-62-0" viewBox="5.855 1.702 0.744 0.372"><path class="fil0" d="M5.855 1.702a.371.371 0 1 0 .744 0h-.744z"/></symbol><symbol id="Symbol10" viewBox="10.179 -8.698 0.744 0.372"><path class="fil0" d="M10.18-8.698a.372.372 0 1 0 .743 0h-.744z"/></symbol><symbol id="Fm12-38-0" viewBox="6.262 1.311 0.744 0.744"><path class="fil1" d="M6.978 1.613v.002h-.003l-.003-.001H6.97l-.001-.002c0 .002 0 .003-.002.003 0 0-.005 0-.004.001.002.001.003 0 .004.003 0 .003 0 0-.002.001s-.01.004-.01.007H6.95l-.002-.001-.002.001h-.004l-.001.005.001.004c-.002-.001-.003.001-.002.003-.003 0-.003.005-.006.006-.002.001-.001 0-.002-.002v-.008c0-.003.005-.005.007-.007.003-.002.003-.005.005-.007-.003 0-.003.004-.007.005 0-.003-.002-.004-.004-.002l-.003.003v.002H6.93c-.002 0 0 .002-.003.001l-.001-.002c-.003 0-.003.002-.007.002s-.007 0-.01.004l-.003.004-.001.002.001.002V1.64c.001.002.002.003.002 0 .004.001.003.003.005.004v-.005h.001c0 .015.003.011.003.011-.005 0-.001.003 0 .006l-.002-.001-.002.001c0-.002 0-.015-.002-.008l-.002.006a.034.034 0 0 1-.005.006l-.002.002h-.004l-.002.002v.003h-.002c0 .004.002.004.002.006 0 .003-.003.005-.005.004 0-.001.001-.007-.002-.005 0-.002.001-.003-.001-.004l-.005.002c.001-.004.002-.003-.001-.002l-.003.001c-.002.003.002.001.002.004.001 0 0-.002.002-.001.002 0 .002 0 .001.001 0 .002-.003.001-.003.004l.003.005v.004c0 .003-.004.007-.006.009a.011.011 0 0 1-.004.002c-.001 0-.004 0-.005.002 0 0 0 .007-.003.004-.001 0 .002-.003.001-.005-.006 0-.005.005-.003.009.002.002.004.004.002.008l-.005.004-.001-.003h-.002c-.001-.003-.001-.002-.003-.003s0-.002-.002 0v.004c0 .003.003.003.005.005 0 .001 0 .005.002.007-.003.002-.005-.005-.006-.006 0-.002-.003-.003-.003-.004v-.005c0-.002 0-.007-.003-.008 0 0-.002.002-.003.001-.002-.001.001-.003-.002-.003a.016.016 0 0 0-.003-.006l-.005.001-.009.01h-.002v.007c-.001.002-.003.004-.005.003l-.003-.007-.003-.007V1.7c-.002-.002 0 0-.003 0 0 0-.005-.002-.001-.003-.003 0-.003-.001-.004-.002-.003-.002-.004-.001-.008-.001l-.007-.001-.001-.002h-.003c-.003 0-.004-.001-.006-.003-.002-.001-.004-.003-.003.001a.01.01 0 0 0 .003.004l.004.001c-.005.001 0 .001.003.001v-.002l.002.003c.002-.002 0 0 .002 0l.003.003c-.002 0-.002.001-.002.003l-.003.003c-.001.002-.003.001-.005.002l-.005.003-.006.003c-.005 0-.003-.002-.005-.005 0-.003-.004-.005-.005-.007-.002-.003-.003-.008-.007-.011-.002.002-.003-.004-.005-.005h.004a.008.008 0 0 0 .003-.004c0-.003 0-.004-.003-.005v.001h-.003-.006v.001s-.003-.013-.006-.008h-.002l.002.004v-.001h.002c-.002.001-.005.006-.006.002l-.002-.001h.001l-.002-.005-.005-.004c-.002-.001-.005-.005-.006 0 .001 0 .004.001.004.003a.01.01 0 0 1 .006.004h-.003.001c0 .003-.005.007-.007.003.01 0 .002-.004-.001-.007-.002 0-.003-.004-.005-.004l-.003.003h-.004v.002l-.005.002v.003c-.001 0 0 0 0 0 0 .002-.001 0-.002.001l-.006.004-.004-.001-.002-.002v-.01c.004-.001.015.004.01-.005l-.002-.003s-.003 0-.001-.001c0-.001.005.001.003-.003.001 0 .002.002.003.001l.002-.003c.002-.001.005 0 .003-.003l.006-.002c.002-.002.001 0 .001-.003V1.64c.002-.002.003-.001.003.001v.002h.003c0 .004-.003 0-.003.003h.002c0-.002.004 0 .005 0 .003 0 .004-.003.006 0-.001-.003.001-.002.003-.002l.001-.006c.002 0 .002.004.004 0l-.002-.001s-.002.002-.003 0h.002v-.001l.003-.002.008-.001c-.004-.002-.01.002-.013-.001-.004-.005.005-.007.005-.01 0-.002-.003-.003-.004-.002-.002.001-.002.004-.002.004l-.004.003c-.002.003 0 .005 0 .007.002 0 0 0 0 .002l-.002.004h.001l-.004.002s0 .002-.002.001v-.001l-.004-.007c-.002.003-.004.003-.007.003v-.002c-.003 0 .002-.003-.002-.002.001-.004.001-.006.006-.007v-.001l.004-.003h-.001l.002-.002c0-.002.004-.006.006-.007l-.005.001.003-.001v-.001l.001-.002c0 .002 0 .002.002.002v-.002c.001.002.003 0 .002-.002.001 0 .003 0 .003.002v-.002h.003c-.001 0-.002-.002.001-.002 0 .002.003 0 .004 0l.001.001v-.001h.002v.001c.002 0 0-.002.003 0 0 0 .002 0 0 0 .001.002.006 0 .004.003h.007l.006.004c.001.006-.012.001-.014.001l.005.005c0 .002 0 .002.002.003h.003c0-.001-.005-.001-.002-.003l.005.001-.001-.002.003-.002h.003l-.001-.006c.002 0 .007.002.003.002 0 .005.005 0 .005 0 .002-.002.005-.002.007-.003-.001.005.008-.003.008.001.005-.002-.003-.005 0-.006l.006.003.006.002s.002.002.003 0c0 0-.002 0-.002-.002L6.8 1.608v-.003l.003-.005c.002-.001.006 0 .006.002h-.001c0 .002 0 .009.002.008 0 .002 0 .003-.002.004l-.004.002h.005l.002-.002V1.61c.005-.004.004.004.007.002h-.002c0-.002 0-.004-.002-.005-.002 0-.002.002-.004 0v-.005c0-.002.002-.001.002-.004v.004c.002.001.004 0 .005.002 0-.002-.006-.003 0-.003L6.815 1.6h.005l.002.001c.003 0-.002-.003-.003-.004.003-.002.008 0 .01-.002s-.001 0 0-.002l.003-.002.004-.001.004-.002h.004c.003 0 .003-.002.006-.001v-.001c.003-.002.003-.003.007-.003l-.001.002h.003v.001c.002 0 .01-.001.01.003a.032.032 0 0 1-.01.007c.001 0 .004 0 .004-.002l.005-.002-.002.002h.006c.003-.004.016-.005.02-.006.003-.001.008-.005.01-.002.001.003-.009.005-.011.006a.047.047 0 0 0-.006.002h.007V1.6l.003.003c.002 0 .001-.002.003-.003h.004l.003.002V1.6h.003c0-.001-.002 0-.002-.002l.006-.001h.005c-.001.004.002 0 .006.001-.002 0 0 0-.001.001.002 0 .002.002.005.002h.006c.005 0 .005.002.007.005v-.002h.007c.002 0 .003-.002.005 0-.005.003.004.001 0 0 .003-.002.01-.001.014 0l.004.002.003.002h.001l.001.003c.002.001.001 0 0-.001l.006.001c.002.003-.002.001-.003.002zm-.118.126c-.002 0-.005-.003-.006-.005l-.004-.006c-.001-.001-.004-.003-.004-.005h.002c.003.001.011.009.012.01.001 0 .003 0 .003.002-.002.001 0 .004-.003.004zm-.153-.063c.002 0-.001.003-.002.003l.002-.003zm.072.044l-.002.004a.025.025 0 0 1-.005.007c-.003.002-.008.006-.009.01l.002.008c.001.004.001.008-.002.01l-.006.005c0 .003.003.004 0 .007l-.003.002v.005a.023.023 0 0 1-.003.004c-.003.004-.013.009-.017.005v-.005c-.002-.004-.005-.006-.006-.01a.04.04 0 0 0-.003-.008c-.003-.005 0-.006.001-.01 0-.005-.003-.015-.008-.017a.009.009 0 0 0 .002-.005c0-.005 0-.003-.004-.003-.002 0-.002-.002-.004-.003h-.006l-.004.003H6.693c-.002 0-.003-.002-.003-.003a.087.087 0 0 1-.008-.006c-.002-.002-.002-.004-.002-.006v-.006-.001h-.002c0-.003.003-.007.004-.008l.003-.004.003-.003c.001-.002 0-.004.002-.006 0-.001.003.001.002-.003h.002c0-.004.002-.002.005-.002s.004 0 .006-.002h.005c.001-.002.003-.006.006-.003l-.002.002h.006l-.001.001v.005l.007.002v.001h.003l.002.001c.003 0 .003 0 .002-.004l.013.003c.003 0 .004-.001.006.002.003.004.004.008.005.011l.005.01.006.005c.003.004.005.002.009.002.003 0 .002-.001.002.003zm-.115-.064c-.003-.001.001-.004-.004-.003V1.65h.005c0-.002-.002-.003-.004-.002-.002 0 0-.004.005-.003.002-.003 0 0 .002 0l.004.001c.004 0 .013-.006.012.001 0 0 .004 0 .003.002 0 .003-.003 0-.006.003l-.01.004-.007-.001zm-.023-.018l-.002-.001s-.015.018-.014.01c-.002 0-.003-.001-.002.002-.007 0-.005.006-.008.01 0 .002-.003.001-.003.002v.003c0 .003 0 .007-.002.008-.001.001-.012-.002-.014-.004-.005-.003-.007-.01-.005-.015l-.003.002-.001-.003.001-.002h-.002c0-.002-.008-.01-.001-.01 0-.003.002-.003.005-.003-.002-.005 0-.008-.007-.007.005 0 .003.004 0 .004-.005 0-.003-.004-.004-.006.003-.002.007 0 .01 0-.004-.008-.016 0-.011-.01h-.001a.023.023 0 0 0-.01-.016c-.004-.002-.018-.003-.02-.001v.001c-.002.001-.005-.001-.006-.002l-.005-.003c0-.003.01 0 .011-.004-.005 0-.022 0-.013-.006l.011-.002h.005c0-.001.002-.006 0-.006h-.005c0-.003.003-.003.005-.004l.01-.004.001-.003c.003-.002.002 0 .004 0l.008.002c-.002-.002-.005-.002-.007-.003.002 0 .01-.005.013-.003.002 0 0 .005 0 .005.004.002.003-.003.002-.005.004 0 .007.003.01.004 0-.002-.004-.004-.004-.005.006 0 .01.004.016.004.003 0-.006-.005-.006-.004-.002-.003.003-.001.004 0 0-.003-.002-.002-.003-.004a.033.033 0 0 1 .011-.002c.003 0 .005.002.008.001.005 0 .001-.001.005-.003.003-.001.03-.004.032.001-.007 0-.016 0-.02.002h.018l.012.001v.001c-.005.001-.028.002-.03.007.006 0 .015-.006.02-.002-.002 0-.004 0-.004.003.003-.001.006 0 .006-.004.009 0 .006.002.001.008l.012-.005a.08.08 0 0 1 .011-.003h.007c.002.004-.003.004-.004.004-.004.003-.007.003-.011.004h.006c-.001.002-.018.013-.013.017 0 0 .005-.003.007 0l-.004.002c.007 0 .005.001.004.007-.001-.003.002-.003-.002-.004h-.004c-.001.003.006.003.006.007-.006.001-.001.004 0 .005l-.008.002c0 .002.009 0 .004.004-.003.002-.008 0-.01 0h.002l-.001.002.005.001c.002.006-.004.002-.005.002.002.001.007.006.006.008 0 .005-.007 0-.006 0-.012 0 0 .007.004.004-.001.003-.01.005-.013.007-.004.001-.004.003-.01.002zm-.113.17c-.001.001-.004 0-.005-.002.002 0 .004 0 .005.002zm-.01-.01l-.005-.002c-.002 0-.002.003-.004.002-.003-.002-.004-.002-.001-.004s.008 0 .01.001c.004.001.013.003.015.006a.04.04 0 0 1-.016-.002zm.023.01c-.002 0-.004 0-.004-.003 0-.004.005-.001.008-.001.004 0 .01 0 .013.002-.005.002-.012 0-.017.002zm.023-.095c-.003.003-.005 0-.007-.002.003 0 .004 0 .007.002zm.02.009c-.003-.002-.003-.003-.006-.003h-.006c-.001-.002.005-.012.006-.013.003-.002 0 .005 0 .005.006.002.01.004.006.01zm-.075-.058c0 .002 0 .004-.003.004-.004 0 .002-.003.003-.004zm.004.003c.008-.006.002.01 0 0zm.013-.025c.002.003-.003.004-.005.003-.002-.004.004-.006.005-.003zm.067.213l-.005.007c-.002.003-.001.01-.003.014-.002.003-.003.003-.007.004a.011.011 0 0 0-.006.004c-.002.003 0 .009-.005.011v-.001l-.003.006c-.003.003-.005.001-.008.001 0 .003.003.002.002.006-.002.003-.006.003-.009.003 0 .004 0 .005-.004.004 0 .004.002 0 .001.004l-.001.002v.002l-.004.001c0 .003.003.002.003.004l-.003.006c-.003 0-.001.004 0 .006 0 .002.004.003.005.004-.004 0-.007.002-.01 0l-.005-.005v-.001H6.53c0-.003-.004-.008.001-.008l-.003-.003.001-.002h.002s-.002-.002 0-.003v.002c0-.002 0-.005.002-.007-.002 0-.002.005-.004.002l.001-.002v-.002c0-.004 0-.006.002-.009l.001-.01.002-.008c0-.005.001-.013-.003-.016-.003-.002-.005-.002-.007-.005-.002-.001-.003-.005-.004-.008a.019.019 0 0 0-.002-.003l-.003-.002c-.001-.003.001-.004.003-.006-.003 0-.002 0-.002-.003a.016.016 0 0 0 .005-.006v-.005c-.002 0-.004 0-.003.003l-.014-.006-.007-.01-.01-.001c-.002-.002-.003-.004-.006-.005h-.005c-.004 0-.03-.009-.024-.013l-.013-.016c-.004-.003-.01-.014-.014-.013 0 .006.018.02.014.025a.031.031 0 0 0-.006-.008c-.002-.001-.005-.002-.006-.004v-.004L6.42 1.77c-.003-.005-.008-.005-.011-.008a.041.041 0 0 1-.01-.025c0-.004.002-.009 0-.014-.002-.005-.007-.006-.01-.01.006 0 .01.006.015.01 0-.004-.004-.008-.008-.01-.005-.003-.006-.003-.01-.008l-.006-.009-.004-.002-.002-.004c-.007-.001-.011-.007-.018-.009l-.011-.001c-.004 0-.01-.006-.01-.002v.002a.02.02 0 0 0-.008.004c-.001-.004 0-.006.004-.007-.005-.003-.007.005-.011.006l.002.003c-.008.005-.022.019-.03.017.005-.007.018-.006.02-.017H6.31c-.002.002-.006 0-.01.001.001-.002 0-.004-.001-.006-.004.006-.01-.004-.01-.006.002-.01.014-.003.013-.013l-.01.003c-.004-.001-.004-.004-.008-.005.003-.004.007-.003.01-.005 0 .003.003.003.006.002-.002-.005-.007-.005-.01-.008-.004-.005 0-.002.004-.005s.004-.006.01-.007c.003-.002.008-.004.013-.004l-.001.002c.007-.001.01 0 .017.001l.017.002c.008 0 .012.004.02.002.004-.001.01-.004.014-.004-.002.003-.007.003-.009.006a.07.07 0 0 1 .012-.006s0-.002.002-.002l.003.004c.002 0 .003.002.004-.002.002.005.007 0 .011.001a.06.06 0 0 1 .018.006c-.002 0-.002.002-.003.002.006 0 .017-.002.02.006 0-.005-.002-.006.003-.008h.007c.005.002.012.004.015-.002l-.004-.002.003-.004c.003 0 .005.002.005.005H6.47c.002.003 0 .002.002.003 0 .003 0 .002.003.004-.002-.005.004-.004.004-.009-.003.003-.005.003-.006 0 .007.001-.006-.006 0-.01.007-.006.008.003.01.007l.006.003c.001 0 .003 0 .005.002 0 0-.002.004 0 .005.006.003.006-.01.008-.012-.003 0-.01-.001-.012-.003h.005c-.003-.005-.009-.001-.006-.009.002-.006.007-.006.012-.006-.005.002-.006.013.001.012-.003-.005-.004-.01.003-.011.004-.001.004-.002.007.002.001.002-.002.004 0 .005.002 0 .01-.004.013-.003.005.002.006.006.013.006h-.002l.009.003-.001.002.004.002-.002.001.004.001c-.01.002.01.008.013.01.002.003.001 0 0 .004l-.005.004c-.003 0-.001 0-.006-.003-.003-.001-.004-.004-.006 0l.01.01-.001.004-.01-.005c.001.003.007.005.007.008-.005-.002-.01-.001-.014-.004-.003-.003-.004-.007-.01-.007-.001 0-.008.005-.008 0 0-.004.009-.002.011-.003-.003-.005.004-.005.004-.008s-.004-.005-.006-.007c-.004-.003-.008-.006-.013-.007l.002.002c-.005.002-.01 0-.014 0 .003.002.012.006.005.008.003.004.001.009-.004.01l-.003.001c.001.003.017.008.01.01-.002 0-.003-.002-.004-.001a.025.025 0 0 0-.005.002c-.003 0-.004 0-.006-.003.002-.001.006-.012 0-.01.006.005-.008.002-.01.002.003.002.005.003.01.003-.002.003-.004.006-.008.004 0 .004-.007.001-.01.001 0 0 .007.001.008.003 0 .003-.004.003-.006.005a.016.016 0 0 0-.004.008c0 .005.001.003.004.007l.003.004h.004l.007.003.015.004c0 .004.002.014.007.014.006 0 .003-.01 0-.013.01 0 .01-.012.003-.015v-.004h.003c-.006-.008 0-.012.007-.01.007.001.015.004.013.013.004 0 .003.003.007.002.004 0 .004-.005.006-.008.002.003.01.012.008.014.002.004.007.006.012.007-.003.002-.007.001-.009.005.004 0 .01-.005.012 0s-.004.006-.007.007c-.004.002-.004.003-.009.003h-.01c-.004.002-.007.009-.013.008h.003a.018.018 0 0 0-.004.006c.004-.003.014-.014.018-.008.002.002-.004.005.002.009.005.002.006-.001.01-.003-.001.004-.007.008-.012.009 0 0-.005.004-.003 0 0-.002.005-.004.006-.004-.006-.001-.022.005-.017.013-.003 0-.008.001-.01.003l-.003.008c-.003-.002-.002 0-.004 0 .001.003.003.005.002.008-.002.004-.007.005-.01.008-.004.005.002.022-.001.022s-.007-.012-.01-.014H6.5c-.003 0-.009-.001-.007.003-.006.002-.014-.005-.019.003-.003.005-.003.02.003.026.003.002.009.004.012 0 .004-.003 0-.007.007-.007.007-.001.003.01 0 .014.003.001.01-.002.014.002.003.005-.004.01.003.015h.009c.001-.003.008-.008.01-.007-.001 0-.002.004 0 .005v-.003s.002 0 .002-.002c.003 0 .005.003.008.003.001 0 .004-.003.006 0h.002c0 .003.006.006.008.006.003.001.008.001.008.006.003 0 0 .004 0 .005.001 0 0-.002.001-.001h.003v.003c.001-.001 0-.002.004-.001a.01.01 0 0 1 .003.001c-.002.002.004.001.005.001.003 0 .004.001.007.003.002.002.002 0 .003.003v.003zm-.272-.161c-.003-.004.001-.004.004-.007v.003a.01.01 0 0 1-.004.004zm-.03-.011c-.007 0-.004-.004 0 0zm.106-.068c.002-.002.014 0 .016 0 .009.002.007.003 0 .007-.004.002-.006.008-.01.008l-.003.002a.009.009 0 0 0-.007-.005c.003-.003.003-.011.004-.012zm.017-.01c-.002.004-.001.003-.004.003v-.001l.004-.001zm.005-.007c0 .002-.002.004-.004.005 0 0-.002.001-.002-.001-.004.003-.009.008-.012.003.007-.001.01-.009.018-.007zm.004-.002c-.001 0-.003 0-.003-.002.002 0 .003 0 .003.002zm.002.006c-.002 0-.002-.001-.003-.002h.003v.002zm.01-.008l-.003.001c.003.003 0 .003-.004.003-.001 0-.002 0-.003-.002.003-.002.006-.002.01-.002zm0-.002h-.01c.003-.002.008-.003.01 0zm.01.014c.001.004-.011.007-.014.007-.002 0-.007.002-.007 0s.006-.001.006-.003c-.003 0-.011.002-.014 0-.003-.002.001-.006.005-.007.002 0 .016.006.016.004h-.003c-.002-.004 0-.006.004-.005-.001 0 .008.006.007.004zm.003-.008c-.002.001-.004 0-.004-.003.002 0 .003.002.004.003zm.014-.003c-.004-.001-.013-.002-.015-.004h.002l-.004-.004c.005-.002.018 0 .017.008zm.001-.012h-.004V1.58c.002 0 .003 0 .004.002zm.008.01c-.004.001-.006 0-.007-.004.002 0 .014.002.007.004zm-.001-.015h.004l-.002-.002.005-.001c0-.002-.002 0-.003-.001 0-.003.018.006.018.006.005.003.007.008-.001.007 0 .003-.001.002-.002.003a.014.014 0 0 1-.014-.003l.006-.001c-.004-.003-.008 0-.012-.003v-.005zm.054.039c-.003 0-.004.001-.005.002-.004.001-.007 0-.007-.004.004 0 .008-.001.012.002zm-.043-.02v-.002c.003 0 .005-.001.006.001a.008.008 0 0 1-.006 0zm.004.014c-.006-.001-.003-.006-.006-.01.007-.003.008.005.016.005.003 0 .015-.005.018 0 .005.006-.026.005-.028.005zm-.01.003c.001-.001.007 0 .01.001-.002.003-.003.006-.007.005 0 .002-.001.002-.002.003-.005.002-.004-.007-.002-.009zm.003-.005c0 .004-.007.001-.008 0 .001-.002.007-.004.008 0zm-.008-.012c.001-.004.005-.003.008-.003v.001a.032.032 0 0 1-.008.002zm.002.001c.003 0 .007.002.004.005-.003 0-.011-.004-.004-.005zm-.018.022c.004.003.007 0 .003-.004l.007-.002c.002.001.006.004.001.006.007.002.005.008 0 .008-.003-.001-.01-.005-.01-.008zm-.005 0c-.003 0-.004 0-.006-.002.002-.002.007-.002.006.002zm.002-.011c0 .003-.003 0-.003 0s.002-.002.003 0zm.017.003h-.002s0-.002.002 0zm-.016-.018l.004.001c-.002 0-.003.002-.004 0zm.004.012l-.001-.004.006.002a.012.012 0 0 0-.003-.003c.004.001.008 0 .008.003.001.004-.002.006-.005.006-.001-.003-.003-.004-.006-.003-.003 0-.007-.003-.007-.007.004 0 .005.004.008.006zm-.017.011s.002.002 0 0zm.007.023c0 .002-.002.003-.005.003h-.003a.022.022 0 0 1 .008-.003zm-.005 0c-.004 0-.007.003-.012.002-.005 0-.005-.004-.01-.003l-.003-.003.013-.003c-.002-.003-.012 0-.015-.001a.012.012 0 0 1 .006-.003c-.003-.002-.006 0-.009-.001.002-.004.002-.005.007-.007.002 0 .007-.004.006.002a.009.009 0 0 1 .007-.001v.003l.004-.002-.002-.003c.004 0 .004.006.007.007.004 0-.002-.005 0-.007.003-.004.007.005.008.007.003.004.005.004.01.008l-.004.001c.006.005-.01.003-.013.003zm.04-.07l.013-.003c.001 0 .004-.002.007-.001l.011.003c-.002-.003-.005-.003-.009-.003.003-.004.012-.004.016-.002 0-.006.014 0 .015-.004.004 0 .009.001.01.003.003-.001.017-.001.016.002 0 .005-.015.002-.018.006.003 0 .008-.002.01 0-.006.002-.013.009-.02.007l.003.003h-.008l.002.002c-.004.004-.009 0-.013.003v.001c.002-.001.01-.003.01 0l-.005.002c.003.003 0 .004-.004.003 0 .003 0 .003-.002.004v.002h.003c0 .003-.008.006-.01.002-.004.001-.017.003-.02-.001.003-.001.004-.003.002-.006.005 0 .013.006.016-.001-.003.002-.006.003-.007 0H6.5c-.015.002-.003-.01.005-.002l.002-.004c-.004 0-.012-.003-.013-.007.005 0 .012.005.017.003l-.008-.002v-.002c.004 0 .013-.001.016-.003h-.006a.01.01 0 0 1 .006-.003c-.005 0-.009.003-.014.004-.002.001-.017.003-.008-.002-.004 0-.004.003-.01.002-.004-.001-.004-.003-.007-.004V1.57zm.271.008c-.008-.001.002-.004.005-.004l-.001.002.004-.002.001.003.002-.002c.002 0 .002-.003.006-.001v.002h.001l.013.007c0 .003.002 0 .004.003l-.006.002c-.001 0-.002-.003-.005 0 0-.002.002-.003 0-.004 0-.002-.002 0-.001-.003H6.77c0 .004-.003.009-.007.012 0-.002-.006-.004-.006-.005l.007-.003-.008.001c0-.003.008-.002.008-.003 0-.002-.005-.002-.006-.002 0 0 0 .002-.002.003l-.004-.002c0 .004-.003 0-.004-.002.002 0 .002.002.003.002v-.004zm.027-.005c.001-.004 0-.003.004-.004l-.001.002c.003 0 .007-.002.01.001-.003.002-.016.009-.02.002h.005c-.001-.003-.006 0-.007-.002-.001-.003.007-.002.009 0zm.07-.008c.004 0 .007-.002.004.003-.003.003-.01.003-.006-.001-.002 0-.007.002-.008 0l.01-.002zm.014.001l.002-.003.004-.001.004-.002-.001.003h.003c0 .004-.006-.002-.005.003-.004-.001-.008 0-.01.003 0-.002 0-.001.003-.003zm.008.002c-.002.003-.003.001-.004 0a.019.019 0 0 1 .008-.001c0 .001-.004.004-.004.001zm.006 0v.002h-.002l.002-.001zm0-.004c.004-.003.004 0 .006.002h-.007c0-.001.002 0 .002-.002zm.016-.001c-.004 0-.005.005-.009 0 .003.001.006-.002.009 0zm-.259-.252a.372.372 0 1 0 0 .744.372.372 0 0 0 0-.744z"/></symbol><symbol id="Symbol4" viewBox="6.632 -14.111 0.744 0.562"><path class="fil1" d="M7.094-13.754c-.026.02-.012-.01-.001-.016.01-.008-.006-.016.022-.027.03-.011.014-.02.026-.017 0 0-.02.038-.047.06zm.214-.344l-.045.018-.03.048c.003.02.006.04.007.06-.003.035-.01.058-.01.058a.134.134 0 0 0-.02-.088l-.024.007v.006c-.005.038-.063.053-.063.053-.007-.036-.001.017-.001.017l.032-.004c-.005.014.004.041-.05.073-.052.031-.034.063-.034.08s-.048.037-.048.037c.002.02-.02.024-.02.024s.003-.012-.003.004-.048.03-.057.028c-.009-.002-.044.016-.04-.022.005-.038-.032-.049-.01-.082.023-.033.014-.05.007-.065-.006-.016-.015-.003-.003-.038.012-.036-.02-.03-.02-.03a.056.056 0 0 0-.01-.01 1.23 1.23 0 0 0-.234.17.384.384 0 0 0 .023.036h.002l.004.008a.396.396 0 0 0 .679-.4l-.032.012z"/></symbol><symbol id="Symbol18" viewBox="35.126 -78.437 0.137 1.092"><path class="fil1" d="M35.151-78.386l-.026.993c.045.017.09.034.137.048l-.027-1.04c-.001-.069-.082-.069-.084 0z"/></symbol><symbol id="Symbol25" viewBox="10.974 -12.347 0.744 0.744"><path class="fil1" d="M11.718-11.975a.372.372 0 1 1-.744 0 .372.372 0 0 1 .744 0z"/></symbol><g id="Layer_x0020_1"><g id="_197185312"><path id="_197186872" class="fil3" d="M.366.302c0 .011-.018.012-.018 0s.018-.01.018 0zM.354.321H.36L.366.318A.02.02 0 0 0 .371.314L.374.31.376.305V.3L.375.297.373.294A.02.02 0 0 0 .37.288C.364.284.36.284.355.284V.26.238.215.204C.355.2.352.199.35.199H.347C.345.2.344.202.343.203L.342.197.34.192C.34.188.336.184.335.182A.056.056 0 0 0 .317.165C.308.16.305.16.295.16H.26A.19.19 0 0 1 .205.152.082.082 0 0 0 .185.15l.002.007c0 .002.002.007-.001.006L.183.155V.151C.181.149.182.147.18.148L.178.149l.004.015L.18.165.179.163A.066.066 0 0 1 .178.158L.176.153C.176.15.176.15.173.15H.142a.104.104 0 0 1-.01.002h-.01L.116.156H.111c-.001 0-.003 0-.004.002 0 .003 0 .002.003.002L.12.158.13.156.14.162a.096.096 0 0 0 .038.016h.006A.073.073 0 0 0 .2.175.046.046 0 0 0 .214.168L.202.16.196.156.19.154C.202.154.216.16.228.16l.018.002h.06a.045.045 0 0 1 .026.02l.003.004a.09.09 0 0 0 .002.005C.343.203.341.226.323.223a.135.135 0 0 0-.02-.002h-.02L.271.22a.13.13 0 0 1-.01 0L.24.215a.157.157 0 0 0-.061 0L.167.216C.164.22.16.22.157.22a1.702 1.702 0 0 0-.04.002c-.002 0 0 .009 0 .01V.259H.332C.336.256.335.25.335.247V.235v-.01L.34.22.342.215V.288c0 .003 0 .005-.002.008C.338.3.339.306.341.31c.004.007.012.009.013.01z"/><path id="_197186800" class="fil3" d="M.085.32h.006L.095.319A.018.018 0 0 0 .1.316C.1.314.102.31.103.307A.24.24 0 0 0 .106.298L.108.289A.169.169 0 0 0 .111.23L.11.218.108.209.103.191A.057.057 0 0 1 .1.17c0-.007.001-.014.003-.02V.144.141a.231.231 0 0 1-.01-.004C.09.134.081.132.08.126.077.119.08.114.086.11.09.11.094.11.096.111l.01.005.019.01c.004.002.004.002.01.002h.01l.02-.001L.162.113c.002 0 .003 0 .003-.002L.164.106a.059.059 0 0 0-.002-.01L.157.097.16.11.16.115C.16.117.158.116.156.117L.146.12A.175.175 0 0 1 .134.12C.128.121.13.123.124.12L.114.11C.109.108.1.1.094.1H.09a.027.027 0 0 0-.015.007.033.033 0 0 0-.009.013.138.138 0 0 0-.008.03v.03c0 .01.006.023.016.025.002 0 .002.002.002.003L.078.21.08.218l.002.016v.008L.084.25v.015L.08.273.08.281a.129.129 0 0 1-.004.015C.074.302.072.305.074.31c.003.01.01.01.011.01z"/><path id="_197186728" class="fil3" d="M.213.12c0-.006 0-.005.005-.005h.049V.12H.214zM.268.085V.079c0-.002 0-.005.002-.005h.004c.003 0 0 .001 0 .003v.004c0 .004.001.006.004.008s.005.003.006.006v.01c0 .003 0 .002-.005.002H.265C.26.107.26.107.26.102V.086h.007zM.203.068V.05.032.014.009c0-.002 0-.003.003-.003H.31v.062H.203zM.317 0h-.12v.067l.001.007h.04c.006 0 .008-.002.008.004v.007h.007v.021c0 .002-.022.001-.025.001-.007 0-.008 0-.014-.004C.21.1.205.096.2.094.19.091.174.096.17.105v.008C.17.115.167.114.166.115.164.115.165.116.166.118l.002.008h.008L.18.124.178.116C.177.11.176.114.174.113c-.002 0 0-.006 0-.007L.181.1C.184.098.193.096.197.097a.024.024 0 0 1 .009.004l.007.006H.206V.146L.231.15l.011.002.013.001h.052V.106h-.02a.02.02 0 0 0 0-.016C.282.086.275.086.276.08A.01.01 0 0 1 .28.076c0-.001 0-.002.003-.002h.035V0z"/><path id="_197186656" class="fil3" d="M.074.212C.074.21.07.211.068.211H.026C.02.21.018.21.018.219V.255C.02.26.026.258.03.258H.067C.069.258.078.26.078.257V.243A.152.152 0 0 0 .076.22L.074.212z"/><path id="_197186584" class="fil3" d="M.01.302c0-.01.017-.012.017 0S.01.314.01.303zM0 .3v.005L.002.31l.003.004.004.004.006.003h.007L.027.319a.018.018 0 0 0 .01-.011C.036.3.036.293.03.288A.017.017 0 0 0 .023.285C.018.283.016.285.016.28V.26.18C.016.175.018.166.01.166.006.165.004.167.004.172V.29L.002.295 0 .3z"/><path id="_197186512" class="fil3" d="M.182.14V.137A.01.01 0 0 0 .174.13h-.01A.64.64 0 0 1 .137.13C.133.13.131.131.126.129L.114.123a.188.188 0 0 0-.023-.01H.09C.084.112.08.118.08.123c.001.005.008.007.013.01L.109.14a.17.17 0 0 0 .015.007.21.21 0 0 0 .033 0H.17C.176.148.182.146.182.139z"/><path id="_197186440" class="fil3" d="M.053.153H.049a.027.027 0 0 0-.016.008.025.025 0 0 0-.008.015c-.001.006 0 .012.003.017a.027.027 0 0 0 .033.01c.002 0 .003 0 .001-.002A.028.028 0 0 1 .06.197L.056.189.054.17a.09.09 0 0 1 0-.01V.156L.053.153z"/><path id="_197186368" class="fil3" d="M.108.041L.1.045C.097.047.093.048.092.05A.102.102 0 0 1 .09.058L.086.066c0 .003 0 .002.003.001h.013a.212.212 0 0 1 .037.001c.001 0 .004.002.003 0V.062A.036.036 0 0 0 .138.055.053.053 0 0 0 .133.048C.13.045.129.045.125.045L.108.04z"/><path id="_197186296" class="fil3" d="M.238.045C.238.04.241.038.245.038s.007.003.007.007c0 .01-.014.009-.014 0zm.024 0c0-.02-.03-.022-.032 0C.23.053.237.06.245.06.253.062.262.055.262.046z"/><path id="_197186224" class="fil3" d="M.103.07a.066.066 0 0 0 .01.008c0 .002.002.003.004.004l.005.004.006.003C.129.091.13.093.132.092A.026.026 0 0 0 .14.082C.14.078.142.071.139.07L.127.07C.123.07.104.068.103.07z"/><path id="_197186152" class="fil3" d="M.103.097L.105.093.107.089A.018.018 0 0 1 .113.083L.102.07C.099.068.099.069.095.069c-.001 0-.007 0-.007.002 0 .005 0 .01.003.015.002.002.01.012.012.01z"/><path id="_197186080" class="fil3" d="M.278.028H.277C.264.028.263.048.276.05.282.05.286.046.288.04.288.034.283.028.278.028z"/><path id="_197186008" class="fil3" d="M.262.013C.252.014.254.028.264.027.268.027.27.023.27.02.27.016.266.012.262.013z"/><path id="_197185936" class="fil3" d="M.302.06H.295L.282.062c0 .002-.001.002.002.002h.023C.308.062.307.06.305.06H.302z"/><path id="_197185864" class="fil3" d="M.286.01v.002h.016A.388.388 0 0 1 .306.011H.286z"/><path id="_197185792" class="fil3" d="M.21.012h.013C.226.012.226.01.223.01H.21C.207.01.207.012.21.012z"/><path id="_197185720" class="fil3" d="M.292.017h.014C.308.014.303.015.3.015.298.015.29.014.292.017z"/><path id="_197185648" class="fil3" d="M.208.016h.01V.014H.214c-.001 0-.007 0-.005.002z"/><circle id="_197185552" class="fil3" cx=".242" cy=".019" r=".003"/><circle id="_197185480" class="fil3" cx=".234" cy=".024" r=".003"/><circle id="_197185408" class="fil3" cx=".222" cy=".056" r=".003"/><circle id="_197185336" class="fil3" cx=".229" cy=".06" r=".003"/></g></g></svg>