<svg xmlns="http://www.w3.org/2000/svg" width="69" height="69" viewBox="0 0 69 69"><defs><style>.a{fill:#f6f6f6;}.b{fill:#e21f26;}.c{fill:#fff;}</style></defs><g transform="translate(-513 -2461)"><circle class="a" cx="34.5" cy="34.5" r="34.5" transform="translate(513 2461)"/><g transform="translate(40.667 2040.775)"><path class="b" d="M503.433,436.759a2.948,2.948,0,0,0-3.408,2.4c-.007.036-.012.073-.017.111a2.969,2.969,0,0,0,5.564,1.869c1.267.124,4.525.395,4.38,2.533a58.911,58.911,0,0,1-2.076,12.082c-1.017,2.989-1.681,5.045-6.851,6.041a7.889,7.889,0,0,1-8.74-5.065,64.044,64.044,0,0,1-3.757-11.231c0-1.7,1.785-2.616,2.906-3.114a2.97,2.97,0,1,0-.8-2.6l-.007.041a3.527,3.527,0,0,0,0,.81c-.873.6-2.657.893-3.674,2.263a4.544,4.544,0,0,0-.706,4.962c.768,2.637,2.927,8.554,3.985,11.252s3.612,7.619,10.235,6.582c1.764,3.923,2.677,12.685,10.048,13.473,8.158.706,13.494-5.917,13.536-14.283a4.982,4.982,0,1,0-2.761,0c-.228,3.321-.872,10.172-7.785,11.127s-8.3-6.912-9.508-11.252a7.97,7.97,0,0,0,6.227-6.6,62.086,62.086,0,0,0,2.243-12.871c-.062-3.945-.27-4.568-1.848-5.543a9.587,9.587,0,0,0-4.8-.768A2.968,2.968,0,0,0,503.433,436.759Z" transform="translate(0 0)"/><circle class="b" cx="6.311" cy="6.311" r="6.311" transform="translate(516.18 453.928)"/><circle class="c" cx="3.612" cy="3.612" r="3.612" transform="translate(518.879 456.626)"/></g></g></svg>