<svg xmlns="http://www.w3.org/2000/svg" width="69" height="69" viewBox="0 0 69 69"><defs><style>.a{fill:#f6f6f6;}.b{fill:none;stroke:#e21f26;stroke-linecap:round;stroke-linejoin:round;stroke-width:2px;}.c{fill:#e21f26;}</style></defs><g transform="translate(-513 -2461.25)"><circle class="a" cx="34.5" cy="34.5" r="34.5" transform="translate(513 2461.25)"/><g transform="translate(472.235 2329.865)"><path class="b" d="M93.449,159.479a15.855,15.855,0,0,0-5.241-6.016v-6.078a8.61,8.61,0,0,0-5.516,3.4,21.942,21.942,0,0,0-6.453-.958c-10.231,0-18.525,6.865-18.525,15.333a12.828,12.828,0,0,0,.37,3.06h0l3.848,16.13H69.82v-4.8a21.958,21.958,0,0,0,6.419.946,22.425,22.425,0,0,0,3.2-.231v4.088h7.889l2.05-8.38a15.464,15.464,0,0,0,4.076-5.128h3.865V159.479Z" transform="translate(-0.652 0)"/><path class="c" d="M95.22,164.086a1.517,1.517,0,1,1-1.517-1.517A1.517,1.517,0,0,1,95.22,164.086Z" transform="translate(-5.687 -2.218)"/><path class="c" d="M58.326,163.04a3.827,3.827,0,0,1-2.462-2.586c-.574-2.361,1.54-4.942,1.63-5.051l.976.809c-.018.022-1.8,2.2-1.374,3.945a2.609,2.609,0,0,0,1.724,1.715Z" transform="translate(-1 -1.171)"/></g></g></svg>